<svg width="106" height="106" viewBox="0 0 106 106" fill="none" xmlns="http://www.w3.org/2000/svg">
<g filter="url(#filter0_d_276_3)">
<circle cx="53" cy="46" r="38" fill="#0072FF"/>
</g>
<path d="M53 68.1001C41.886 65.6301 33 55.1441 33 44.1001V32.1001L53 24.1001L73 32.1001V44.1001C73 55.1481 64.114 65.6301 53 68.1001ZM37 34.1001V44.1001C37.1143 48.7244 38.7407 53.1838 41.6304 56.7958C44.52 60.4079 48.5136 62.9735 53 64.1001C57.4864 62.9735 61.48 60.4079 64.3696 56.7958C67.2593 53.1838 68.8857 48.7244 69 44.1001V34.1001L53 28.1001L37 34.1001Z" fill="white"/>
<path d="M53 44.1001C55.7614 44.1001 58 41.8615 58 39.1001C58 36.3387 55.7614 34.1001 53 34.1001C50.2386 34.1001 48 36.3387 48 39.1001C48 41.8615 50.2386 44.1001 53 44.1001Z" fill="white"/>
<path d="M43 52.1001C43.9858 53.8965 45.4312 55.3987 47.1883 56.453C48.9454 57.5072 50.951 58.0757 53 58.1001C55.049 58.0757 57.0546 57.5072 58.8117 56.453C60.5688 55.3987 62.0142 53.8965 63 52.1001C62.95 48.3081 56.316 46.1001 53 46.1001C49.666 46.1001 43.05 48.3081 43 52.1001Z" fill="white"/>
<defs>
<filter id="filter0_d_276_3" x="0" y="0" width="106" height="106" filterUnits="userSpaceOnUse" color-interpolation-filters="sRGB">
<feFlood flood-opacity="0" result="BackgroundImageFix"/>
<feColorMatrix in="SourceAlpha" type="matrix" values="0 0 0 0 0 0 0 0 0 0 0 0 0 0 0 0 0 0 127 0" result="hardAlpha"/>
<feOffset dy="7"/>
<feGaussianBlur stdDeviation="7.5"/>
<feComposite in2="hardAlpha" operator="out"/>
<feColorMatrix type="matrix" values="0 0 0 0 0 0 0 0 0 0.447059 0 0 0 0 1 0 0 0 0.25 0"/>
<feBlend mode="normal" in2="BackgroundImageFix" result="effect1_dropShadow_276_3"/>
<feBlend mode="normal" in="SourceGraphic" in2="effect1_dropShadow_276_3" result="shape"/>
</filter>
</defs>
</svg>
