<svg width="65" height="65" viewBox="0 0 65 65" fill="none" xmlns="http://www.w3.org/2000/svg">
<rect width="65" height="65" rx="8" fill="#32DE84"/>
<path d="M44.454 26.4365L48.5187 19.2613C48.748 18.859 48.6093 18.3481 48.2199 18.1144C47.8305 17.8806 47.3238 18.0165 47.0998 18.4187L42.9817 25.6864C39.8399 24.2242 36.3034 23.4088 32.5 23.4088C28.6967 23.4088 25.1601 24.2242 22.0183 25.6864L17.9002 18.4188C17.8462 18.3233 17.7741 18.2396 17.6882 18.1726C17.6022 18.1055 17.5042 18.0565 17.3996 18.0282C17.295 17.9999 17.1859 17.9929 17.0787 18.0078C16.9715 18.0226 16.8682 18.0588 16.7747 18.1144C16.681 18.1695 16.5989 18.243 16.5331 18.3305C16.4673 18.4181 16.4191 18.518 16.3914 18.6246C16.3636 18.7312 16.3568 18.8423 16.3713 18.9516C16.3859 19.0609 16.4215 19.1661 16.4761 19.2614L20.5407 26.4366C13.5316 30.3069 8.78416 37.5364 8 46H57C56.2159 37.5364 51.4684 30.3069 44.454 26.4366V26.4365ZM21.2502 38.9877C20.1141 38.9877 19.1965 38.0473 19.1965 36.895C19.1965 35.7372 20.1193 34.8022 21.2502 34.8022C22.3863 34.8022 23.3039 35.7426 23.3039 36.895C23.3094 38.0473 22.3864 38.9877 21.2502 38.9877ZM43.7445 38.9877C42.6084 38.9877 41.6908 38.0473 41.6908 36.895C41.6908 35.7372 42.6137 34.8022 43.7445 34.8022C44.8807 34.8022 45.7982 35.7426 45.7982 36.895C45.8038 38.0473 44.8807 38.9877 43.7445 38.9877Z" fill="white"/>
</svg>
