<svg width="56" height="68" viewBox="0 0 56 68" fill="none" xmlns="http://www.w3.org/2000/svg">
<path d="M54.8264 52.9926C53.8209 55.3684 52.6308 57.5552 51.252 59.5658C49.3725 62.3067 47.8335 64.2039 46.6476 65.2575C44.8091 66.9868 42.8392 67.8725 40.7299 67.9228C39.2156 67.9228 37.3894 67.482 35.2637 66.588C33.1309 65.6982 31.171 65.2574 29.3789 65.2574C27.4994 65.2574 25.4835 65.6982 23.3275 66.588C21.1681 67.4821 19.4285 67.948 18.0984 67.9942C16.0757 68.0823 14.0595 67.1714 12.0471 65.2574C10.7625 64.1115 9.15594 62.1471 7.23122 59.3643C5.16622 56.3925 3.46853 52.9464 2.13847 49.0177C0.714056 44.7742 0 40.6649 0 36.6866C0 32.1295 0.962752 28.199 2.89111 24.9053C4.40664 22.2597 6.42281 20.1728 8.94622 18.6408C11.4696 17.1087 14.1962 16.3279 17.1324 16.278C18.7391 16.278 20.8459 16.7863 23.4641 17.7853C26.0749 18.7877 27.7513 19.296 28.4863 19.296C29.0358 19.296 30.8981 18.7016 34.0551 17.5167C37.0406 16.4178 39.5603 15.9627 41.6245 16.142C47.218 16.6037 51.4202 18.859 54.2149 22.9221C49.2124 26.0223 46.7378 30.3645 46.787 35.9348C46.8322 40.2737 48.3711 43.8843 51.3956 46.7512C52.7662 48.0817 54.2969 49.1101 56 49.8405C55.6307 50.9359 55.2408 51.9853 54.8264 52.9927V52.9926ZM41.998 1.3604C41.998 4.76115 40.7832 7.93646 38.362 10.8755C35.4402 14.3694 31.906 16.3884 28.0735 16.0698C28.0221 15.6422 27.9964 15.2119 27.9963 14.7811C27.9963 11.5164 29.3858 8.02249 31.8535 5.16576C33.0854 3.71933 34.6522 2.51667 36.5523 1.55727C38.4482 0.612184 40.2415 0.0895251 41.9282 0C41.9775 0.454613 41.998 0.909284 41.998 1.36035V1.3604Z" fill="black"/>
</svg>
