<svg width="153" height="308" viewBox="0 0 153 308" fill="none" xmlns="http://www.w3.org/2000/svg">
<path d="M123.154 153.85C123.154 222.748 67.9129 278.113 0.370193 278.113C-67.1725 278.113 -122.414 222.748 -122.414 153.85C-122.414 84.9508 -67.1725 29.5864 0.370193 29.5864C67.9129 29.5864 123.154 84.9508 123.154 153.85Z" stroke="#C6DDFB" stroke-width="59.1729"/>
<circle cx="93.3846" cy="242.385" r="2.38462" fill="#0072FF"/>
<circle cx="112.462" cy="242.385" r="2.38462" fill="#0072FF"/>
<circle cx="131.538" cy="242.385" r="2.38462" fill="#0072FF"/>
<circle cx="150.615" cy="242.385" r="2.38462" fill="#0072FF"/>
<circle cx="93.3846" cy="262.256" r="2.38462" fill="#0072FF"/>
<circle cx="93.3846" cy="282.128" r="2.38462" fill="#0072FF"/>
<circle cx="93.3846" cy="302" r="2.38462" fill="#0072FF"/>
<circle cx="112.462" cy="262.256" r="2.38462" fill="#0072FF"/>
<circle cx="112.462" cy="282.128" r="2.38462" fill="#0072FF"/>
<circle cx="112.462" cy="302" r="2.38462" fill="#0072FF"/>
<circle cx="131.538" cy="262.256" r="2.38462" fill="#0072FF"/>
<circle cx="131.538" cy="282.128" r="2.38462" fill="#0072FF"/>
<circle cx="131.538" cy="302" r="2.38462" fill="#0072FF"/>
<circle cx="150.615" cy="262.256" r="2.38462" fill="#0072FF"/>
<circle cx="150.615" cy="282.128" r="2.38462" fill="#0072FF"/>
<circle cx="150.615" cy="302" r="2.38462" fill="#0072FF"/>
<rect x="114" y="184" width="16" height="16" rx="4" fill="#0072FF"/>
</svg>
