<svg width="152" height="308" viewBox="0 0 152 308" fill="none" xmlns="http://www.w3.org/2000/svg">
<path d="M122.154 153.85C122.154 222.748 66.9129 278.113 -0.629807 278.113C-68.1725 278.113 -123.414 222.748 -123.414 153.85C-123.414 84.9508 -68.1725 29.5864 -0.629807 29.5864C66.9129 29.5864 122.154 84.9508 122.154 153.85Z" stroke="#C6DDFB" stroke-width="59.1729"/>
<circle cx="81.3846" cy="108.385" r="2.38462" fill="#0072FF"/>
<circle cx="100.462" cy="108.385" r="2.38462" fill="#0072FF"/>
<circle cx="119.538" cy="108.385" r="2.38462" fill="#0072FF"/>
<circle cx="138.615" cy="108.385" r="2.38462" fill="#0072FF"/>
<circle cx="81.3846" cy="128.256" r="2.38462" fill="#0072FF"/>
<circle cx="81.3846" cy="148.128" r="2.38462" fill="#0072FF"/>
<circle cx="81.3846" cy="168" r="2.38462" fill="#0072FF"/>
<circle cx="100.462" cy="128.256" r="2.38462" fill="#0072FF"/>
<circle cx="100.462" cy="148.128" r="2.38462" fill="#0072FF"/>
<circle cx="100.462" cy="168" r="2.38462" fill="#0072FF"/>
<circle cx="119.538" cy="128.256" r="2.38462" fill="#0072FF"/>
<circle cx="119.538" cy="148.128" r="2.38462" fill="#0072FF"/>
<circle cx="119.538" cy="168" r="2.38462" fill="#0072FF"/>
<circle cx="138.615" cy="128.256" r="2.38462" fill="#0072FF"/>
<circle cx="138.615" cy="148.128" r="2.38462" fill="#0072FF"/>
<circle cx="138.615" cy="168" r="2.38462" fill="#0072FF"/>
<rect x="102" y="50" width="16" height="16" rx="4" fill="#0072FF"/>
</svg>
