<svg width="152" height="309" viewBox="0 0 152 309" fill="none" xmlns="http://www.w3.org/2000/svg">
<path d="M275.154 153.85C275.154 222.748 219.913 278.113 152.37 278.113C84.8275 278.113 29.5864 222.748 29.5864 153.85C29.5864 84.9508 84.8275 29.5864 152.37 29.5864C219.913 29.5864 275.154 84.9508 275.154 153.85Z" stroke="#C6DDFB" stroke-width="59.1729"/>
<circle cx="86.6154" cy="250" r="2.38462" transform="rotate(-180 86.6154 250)" fill="#0072FF"/>
<circle cx="67.5385" cy="250" r="2.38462" transform="rotate(-180 67.5385 250)" fill="#0072FF"/>
<circle cx="48.4616" cy="250" r="2.38462" transform="rotate(-180 48.4616 250)" fill="#0072FF"/>
<circle cx="29.3847" cy="250" r="2.38462" transform="rotate(-180 29.3847 250)" fill="#0072FF"/>
<circle cx="86.6154" cy="230.128" r="2.38462" transform="rotate(-180 86.6154 230.128)" fill="#0072FF"/>
<circle cx="86.6154" cy="210.256" r="2.38462" transform="rotate(-180 86.6154 210.256)" fill="#0072FF"/>
<circle cx="86.6154" cy="190.385" r="2.38462" transform="rotate(-180 86.6154 190.385)" fill="#0072FF"/>
<circle cx="67.5385" cy="230.128" r="2.38462" transform="rotate(-180 67.5385 230.128)" fill="#0072FF"/>
<circle cx="67.5385" cy="210.256" r="2.38462" transform="rotate(-180 67.5385 210.256)" fill="#0072FF"/>
<circle cx="67.5385" cy="190.385" r="2.38462" transform="rotate(-180 67.5385 190.385)" fill="#0072FF"/>
<circle cx="48.4616" cy="230.128" r="2.38462" transform="rotate(-180 48.4616 230.128)" fill="#0072FF"/>
<circle cx="48.4616" cy="210.256" r="2.38462" transform="rotate(-180 48.4616 210.256)" fill="#0072FF"/>
<circle cx="48.4616" cy="190.385" r="2.38462" transform="rotate(-180 48.4616 190.385)" fill="#0072FF"/>
<circle cx="29.3847" cy="230.128" r="2.38462" transform="rotate(-180 29.3847 230.128)" fill="#0072FF"/>
<circle cx="29.3847" cy="210.256" r="2.38462" transform="rotate(-180 29.3847 210.256)" fill="#0072FF"/>
<circle cx="29.3847" cy="190.385" r="2.38462" transform="rotate(-180 29.3847 190.385)" fill="#0072FF"/>
<rect x="66" y="308.385" width="16" height="16" rx="4" transform="rotate(-180 66 308.385)" fill="#0072FF"/>
</svg>
