<svg width="70" height="70" viewBox="0 0 70 70" fill="none" xmlns="http://www.w3.org/2000/svg">
<circle cx="35" cy="35" r="35" fill="#DFEDFF"/>
<path d="M35.0002 28.7668V33.3065M35.0002 33.3065V37.8462M35.0002 33.3065H39.5399M35.0002 33.3065H30.4604" stroke="#0072FF" stroke-width="3.5" stroke-linecap="round"/>
<path d="M38.0265 45.4124C43.733 45.4124 46.5869 45.4124 48.3589 43.6389C50.1324 41.8669 50.1324 39.0129 50.1324 33.3065C50.1324 27.6 50.1324 24.7461 48.3589 22.9741C46.5869 21.2006 43.733 21.2006 38.0265 21.2006H31.9736C26.2672 21.2006 23.4132 21.2006 21.6412 22.9741C19.8677 24.7461 19.8677 27.6 19.8677 33.3065C19.8677 39.0129 19.8677 41.8669 21.6412 43.6389C22.6293 44.6285 23.9534 45.0658 25.9206 45.258" stroke="#0072FF" stroke-width="3.5" stroke-linecap="round" stroke-linejoin="round"/>
<path d="M38.027 45.4124C36.1566 45.4124 34.0956 46.169 32.2147 47.145C29.1912 48.7143 27.6795 49.4996 26.935 48.9988C26.1905 48.4994 26.3312 46.9483 26.6142 43.8477L26.6777 43.1425" stroke="#0072FF" stroke-width="3.5" stroke-linecap="round"/>
</svg>
