<svg width="48" height="48" viewBox="0 0 48 48" fill="none" xmlns="http://www.w3.org/2000/svg">
<mask id="mask0_217_161" style="mask-type:alpha" maskUnits="userSpaceOnUse" x="4" y="4" width="40" height="40">
<path d="M6 40V19C6 18.4696 6.21071 17.9609 6.58579 17.5858C6.96086 17.2107 7.46957 17 8 17H15C15.5304 17 16.0391 17.2107 16.4142 17.5858C16.7893 17.9609 17 18.4696 17 19V29C17 29.5304 17.2107 30.0391 17.5858 30.4142C17.9609 30.7893 18.4696 31 19 31H29C29.5304 31 30.0391 31.2107 30.4142 31.5858C30.7893 31.9609 31 32.4696 31 33V40C31 40.5304 30.7893 41.0391 30.4142 41.4142C30.0391 41.7893 29.5304 42 29 42H8C7.46957 42 6.96086 41.7893 6.58579 41.4142C6.21071 41.0391 6 40.5304 6 40ZM42 8V29C42 29.5304 41.7893 30.0391 41.4142 30.4142C41.0391 30.7893 40.5304 31 40 31H33C32.4696 31 31.9609 30.7893 31.5858 30.4142C31.2107 30.0391 31 29.5304 31 29V19C31 18.4696 30.7893 17.9609 30.4142 17.5858C30.0391 17.2107 29.5304 17 29 17H19C18.4696 17 17.9609 16.7893 17.5858 16.4142C17.2107 16.0391 17 15.5304 17 15V8C17 7.46957 17.2107 6.96086 17.5858 6.58579C17.9609 6.21071 18.4696 6 19 6H40C40.5304 6 41.0391 6.21071 41.4142 6.58579C41.7893 6.96086 42 7.46957 42 8Z" fill="white" stroke="white" stroke-width="4" stroke-linecap="round" stroke-linejoin="round"/>
</mask>
<g mask="url(#mask0_217_161)">
<path d="M0 0H48V48H0V0Z" fill="#0072FF"/>
</g>
</svg>
