<svg width="61" height="61" viewBox="0 0 61 61" fill="none" xmlns="http://www.w3.org/2000/svg">
<g filter="url(#filter0_d_6_12)">
<circle cx="27.5" cy="27.5" r="22.5" fill="#0072FF"/>
</g>
<path d="M32.4147 21.1743C32.4147 21.0532 32.3142 20.9541 32.1913 20.9541H21.468C21.3452 20.9541 21.2446 21.0532 21.2446 21.1743V22.4954C21.2446 22.6165 21.3452 22.7156 21.468 22.7156H32.1913C32.3142 22.7156 32.4147 22.6165 32.4147 22.4954V21.1743ZM32.1913 24.9174H21.468C21.3452 24.9174 21.2446 25.0165 21.2446 25.1376V26.4587C21.2446 26.5798 21.3452 26.6789 21.468 26.6789H32.1913C32.3142 26.6789 32.4147 26.5798 32.4147 26.4587V25.1376C32.4147 25.0165 32.3142 24.9174 32.1913 24.9174ZM26.6063 28.8807H21.468C21.3452 28.8807 21.2446 28.9798 21.2446 29.1009V30.422C21.2446 30.5431 21.3452 30.6422 21.468 30.6422H26.6063C26.7292 30.6422 26.8297 30.5431 26.8297 30.422V29.1009C26.8297 28.9798 26.7292 28.8807 26.6063 28.8807ZM25.2659 37.3578H19.0106V17.9817H34.6488V27.4495C34.6488 27.5706 34.7493 27.6697 34.8722 27.6697H36.436C36.5588 27.6697 36.6594 27.5706 36.6594 27.4495V16.8807C36.6594 16.3936 36.26 16 35.7658 16H17.8936C17.3993 16 17 16.3936 17 16.8807V38.4587C17 38.9459 17.3993 39.3395 17.8936 39.3395H25.2659C25.3887 39.3395 25.4893 39.2404 25.4893 39.1193V37.578C25.4893 37.4569 25.3887 37.3578 25.2659 37.3578ZM35.2296 35.3101C36.0394 34.5862 36.5477 33.5404 36.5477 32.3761C36.5477 30.1881 34.7465 28.4128 32.5264 28.4128C30.3064 28.4128 28.5052 30.1881 28.5052 32.3761C28.5052 33.5404 29.0134 34.5862 29.8233 35.3101C28.2315 36.2046 27.1369 37.8615 27.0531 39.7716C27.0475 39.8954 27.1508 40 27.2765 40H28.6197C28.737 40 28.8347 39.9092 28.8431 39.7908C28.952 37.8862 30.5633 36.367 32.5264 36.367C34.4896 36.367 36.1009 37.8862 36.2098 39.7908C36.2154 39.9064 36.3131 40 36.4332 40H37.7764C37.9048 40 38.0054 39.8954 37.9998 39.7716C37.9188 37.8587 36.8213 36.2046 35.2296 35.3101ZM32.5264 30.1743C33.7607 30.1743 34.7605 31.1596 34.7605 32.3761C34.7605 33.5927 33.7607 34.578 32.5264 34.578C31.2921 34.578 30.2924 33.5927 30.2924 32.3761C30.2924 31.1596 31.2921 30.1743 32.5264 30.1743Z" fill="white"/>
<defs>
<filter id="filter0_d_6_12" x="0" y="0" width="61" height="61" filterUnits="userSpaceOnUse" color-interpolation-filters="sRGB">
<feFlood flood-opacity="0" result="BackgroundImageFix"/>
<feColorMatrix in="SourceAlpha" type="matrix" values="0 0 0 0 0 0 0 0 0 0 0 0 0 0 0 0 0 0 127 0" result="hardAlpha"/>
<feOffset dx="3" dy="3"/>
<feGaussianBlur stdDeviation="4"/>
<feComposite in2="hardAlpha" operator="out"/>
<feColorMatrix type="matrix" values="0 0 0 0 0 0 0 0 0 0.447059 0 0 0 0 1 0 0 0 0.27 0"/>
<feBlend mode="normal" in2="BackgroundImageFix" result="effect1_dropShadow_6_12"/>
<feBlend mode="normal" in="SourceGraphic" in2="effect1_dropShadow_6_12" result="shape"/>
</filter>
</defs>
</svg>
