<svg width="68" height="90" viewBox="0 0 68 90" fill="none" xmlns="http://www.w3.org/2000/svg">
<path d="M6.1189 4.21744C6.02217 4.1046 5.89321 3.99579 5.73201 3.89101C5.57081 3.78622 5.38946 3.69353 5.18796 3.61293C4.98645 3.52427 4.7648 3.45576 4.523 3.4074C4.28926 3.35098 4.04342 3.32277 3.7855 3.32277C3.12457 3.32277 2.63694 3.4477 2.3226 3.69756C2.00825 3.94743 1.85108 4.28998 1.85108 4.72522C1.85108 5.03151 1.93168 5.27331 2.09288 5.45063C2.25409 5.62795 2.49992 5.77304 2.83038 5.88588C3.1689 5.99872 3.59609 6.11559 4.11193 6.23649C4.70838 6.36545 5.22423 6.52262 5.65947 6.70801C6.09472 6.89339 6.42921 7.14325 6.66295 7.45759C6.89669 7.76388 7.01357 8.17494 7.01357 8.69079C7.01357 9.10185 6.93296 9.46052 6.77176 9.76681C6.61862 10.065 6.401 10.3149 6.1189 10.5164C5.83679 10.7098 5.50633 10.8549 5.12751 10.9516C4.74868 11.0403 4.33762 11.0846 3.89431 11.0846C3.45907 11.0846 3.03188 11.0403 2.61276 10.9516C2.20169 10.8549 1.81078 10.7179 1.44002 10.5406C1.06925 10.3633 0.722669 10.1416 0.400266 9.87562L0.920141 8.95677C1.0491 9.09379 1.21433 9.23081 1.41584 9.36783C1.6254 9.49679 1.85914 9.6177 2.11706 9.73054C2.38305 9.84338 2.66918 9.93607 2.97546 10.0086C3.28175 10.0731 3.59609 10.1053 3.91849 10.1053C4.53106 10.1053 5.0066 9.99652 5.34513 9.7789C5.68365 9.55321 5.85291 9.22678 5.85291 8.7996C5.85291 8.47719 5.75619 8.21927 5.56275 8.02583C5.37737 7.83239 5.0993 7.67119 4.72853 7.54222C4.35777 7.41326 3.9064 7.2843 3.37444 7.15534C2.79411 7.01026 2.30648 6.85309 1.91153 6.68382C1.51659 6.5065 1.21836 6.27679 1.01686 5.99469C0.82342 5.71258 0.726699 5.34585 0.726699 4.89449C0.726699 4.3464 0.859691 3.88295 1.12567 3.50412C1.39166 3.1253 1.75839 2.83916 2.22587 2.64572C2.69336 2.45228 3.2213 2.35556 3.80968 2.35556C4.19657 2.35556 4.55524 2.39586 4.8857 2.47646C5.22423 2.55706 5.53857 2.6699 5.82873 2.81498C6.1189 2.96007 6.38488 3.13336 6.62668 3.33486L6.1189 4.21744ZM11.0683 11.1209C10.5927 11.1209 10.1575 11.0363 9.76256 10.867C9.37567 10.6897 9.03715 10.4479 8.74699 10.1416C8.46488 9.83532 8.24323 9.4847 8.08203 9.08976C7.92889 8.69482 7.85232 8.27569 7.85232 7.83239C7.85232 7.23594 7.98531 6.69188 8.25129 6.20022C8.51727 5.70855 8.89207 5.31764 9.37567 5.02748C9.85928 4.72925 10.4195 4.58014 11.0562 4.58014C11.6768 4.58014 12.2169 4.72119 12.6763 5.0033C13.1438 5.27734 13.4903 5.6481 13.716 6.11559L12.6763 6.44202C12.5151 6.1438 12.2894 5.91409 11.9992 5.75289C11.7091 5.58362 11.3867 5.49899 11.032 5.49899C10.6451 5.49899 10.2905 5.59974 9.96809 5.80125C9.65375 6.00275 9.40388 6.28082 9.2185 6.63546C9.03312 6.98205 8.94043 7.38102 8.94043 7.83239C8.94043 8.27569 9.03312 8.6787 9.2185 9.0414C9.41194 9.39604 9.66584 9.67815 9.98018 9.88771C10.3026 10.0973 10.6572 10.2021 11.0441 10.2021C11.294 10.2021 11.5317 10.1577 11.7574 10.0691C11.9912 9.9804 12.1927 9.86353 12.3619 9.71845C12.5393 9.56531 12.6602 9.40007 12.7246 9.22275L13.7644 9.53709C13.6354 9.84338 13.438 10.1174 13.172 10.3592C12.9141 10.593 12.6037 10.7783 12.241 10.9154C11.8864 11.0524 11.4955 11.1209 11.0683 11.1209ZM18.3068 5.61989C17.7748 5.62795 17.3033 5.76498 16.8922 6.03096C16.4892 6.28888 16.2031 6.64755 16.0338 7.10698V11H14.9699V4.68895H15.9613V6.15186C16.1789 5.71661 16.4651 5.366 16.8197 5.10002C17.1824 4.82598 17.5612 4.67283 17.9562 4.64059C18.0368 4.64059 18.1053 4.64059 18.1617 4.64059C18.2181 4.64059 18.2665 4.64462 18.3068 4.65268V5.61989ZM21.9769 11.1209C21.5013 11.1209 21.0701 11.0363 20.6832 10.867C20.2964 10.6897 19.9619 10.4519 19.6798 10.1537C19.3977 9.84741 19.18 9.49679 19.0269 9.10185C18.8738 8.70691 18.7972 8.29181 18.7972 7.85657C18.7972 7.41326 18.8738 6.99414 19.0269 6.59919C19.18 6.20425 19.3977 5.85767 19.6798 5.55944C19.9619 5.25316 20.2964 5.01539 20.6832 4.84613C21.0782 4.6688 21.5134 4.58014 21.989 4.58014C22.4565 4.58014 22.8836 4.6688 23.2705 4.84613C23.6574 5.01539 23.9919 5.25316 24.274 5.55944C24.5642 5.85767 24.7858 6.20425 24.939 6.59919C25.0921 6.99414 25.1687 7.41326 25.1687 7.85657C25.1687 8.29181 25.0921 8.70691 24.939 9.10185C24.7858 9.49679 24.5682 9.84741 24.2861 10.1537C24.004 10.4519 23.6655 10.6897 23.2705 10.867C22.8836 11.0363 22.4524 11.1209 21.9769 11.1209ZM19.8853 7.86866C19.8853 8.3039 19.978 8.69885 20.1634 9.05349C20.3568 9.40813 20.6107 9.69024 20.925 9.8998C21.2394 10.1013 21.59 10.2021 21.9769 10.2021C22.3638 10.2021 22.7144 10.0973 23.0287 9.88771C23.3511 9.67815 23.605 9.39604 23.7904 9.0414C23.9839 8.6787 24.0806 8.27972 24.0806 7.84448C24.0806 7.40923 23.9839 7.01429 23.7904 6.65964C23.605 6.305 23.3511 6.0229 23.0287 5.81334C22.7144 5.60377 22.3638 5.49899 21.9769 5.49899C21.59 5.49899 21.2394 5.6078 20.925 5.82543C20.6107 6.03499 20.3568 6.31709 20.1634 6.67173C19.978 7.02638 19.8853 7.42535 19.8853 7.86866ZM26.4821 2.17421H27.546V9.36783C27.546 9.71442 27.5944 9.92801 27.6911 10.0086C27.7878 10.0892 27.9047 10.1295 28.0417 10.1295C28.211 10.1295 28.3722 10.1134 28.5253 10.0812C28.6784 10.0408 28.8074 10.0005 28.9122 9.96025L29.0814 10.8307C28.9041 10.9033 28.6946 10.9637 28.4528 11.0121C28.211 11.0605 27.9974 11.0846 27.812 11.0846C27.4009 11.0846 27.0745 10.9678 26.8327 10.734C26.5989 10.5003 26.4821 10.1738 26.4821 9.75472V2.17421ZM29.9414 2.17421H31.0054V9.36783C31.0054 9.71442 31.0537 9.92801 31.1505 10.0086C31.2472 10.0892 31.3641 10.1295 31.5011 10.1295C31.6703 10.1295 31.8315 10.1134 31.9847 10.0812C32.1378 10.0408 32.2668 10.0005 32.3716 9.96025L32.5408 10.8307C32.3635 10.9033 32.1539 10.9637 31.9121 11.0121C31.6703 11.0605 31.4567 11.0846 31.2714 11.0846C30.8603 11.0846 30.5339 10.9678 30.2921 10.734C30.0583 10.5003 29.9414 10.1738 29.9414 9.75472V2.17421ZM36.2379 11V2.41601H39.212C40.1309 2.41601 40.8966 2.60945 41.5091 2.99634C42.1298 3.37516 42.5932 3.89101 42.8995 4.54387C43.2058 5.18868 43.3589 5.90603 43.3589 6.69592C43.3589 7.5664 43.1897 8.32405 42.8512 8.96886C42.5126 9.61367 42.0331 10.1134 41.4124 10.468C40.7918 10.8227 40.0583 11 39.212 11H36.2379ZM42.2587 6.69592C42.2587 6.05111 42.1378 5.47884 41.896 4.97912C41.6623 4.47939 41.3197 4.08848 40.8684 3.80637C40.417 3.52427 39.8649 3.38322 39.212 3.38322H37.326V10.0328H39.212C39.873 10.0328 40.4291 9.88771 40.8805 9.59755C41.3318 9.29932 41.6744 8.90035 41.9081 8.40062C42.1419 7.89284 42.2587 7.3246 42.2587 6.69592ZM47.4795 11.1209C47.004 11.1209 46.5727 11.0363 46.1859 10.867C45.799 10.6897 45.4645 10.4519 45.1824 10.1537C44.9003 9.84741 44.6827 9.49679 44.5295 9.10185C44.3764 8.70691 44.2998 8.29181 44.2998 7.85657C44.2998 7.41326 44.3764 6.99414 44.5295 6.59919C44.6827 6.20425 44.9003 5.85767 45.1824 5.55944C45.4645 5.25316 45.799 5.01539 46.1859 4.84613C46.5808 4.6688 47.016 4.58014 47.4916 4.58014C47.9591 4.58014 48.3863 4.6688 48.7731 4.84613C49.16 5.01539 49.4945 5.25316 49.7766 5.55944C50.0668 5.85767 50.2884 6.20425 50.4416 6.59919C50.5947 6.99414 50.6713 7.41326 50.6713 7.85657C50.6713 8.29181 50.5947 8.70691 50.4416 9.10185C50.2884 9.49679 50.0708 9.84741 49.7887 10.1537C49.5066 10.4519 49.1681 10.6897 48.7731 10.867C48.3863 11.0363 47.955 11.1209 47.4795 11.1209ZM45.3879 7.86866C45.3879 8.3039 45.4806 8.69885 45.666 9.05349C45.8594 9.40813 46.1133 9.69024 46.4277 9.8998C46.742 10.1013 47.0926 10.2021 47.4795 10.2021C47.8664 10.2021 48.217 10.0973 48.5313 9.88771C48.8537 9.67815 49.1076 9.39604 49.293 9.0414C49.4865 8.6787 49.5832 8.27972 49.5832 7.84448C49.5832 7.40923 49.4865 7.01429 49.293 6.65964C49.1076 6.305 48.8537 6.0229 48.5313 5.81334C48.217 5.60377 47.8664 5.49899 47.4795 5.49899C47.0926 5.49899 46.742 5.6078 46.4277 5.82543C46.1133 6.03499 45.8594 6.31709 45.666 6.67173C45.4806 7.02638 45.3879 7.42535 45.3879 7.86866ZM59.6549 4.68895H60.6826L57.9986 11H57.0676L55.8465 8.02583L54.6375 11H53.7066L51.0226 4.68895H52.0381L54.2144 9.94816L55.2299 7.36087L54.166 4.70104H55.0969L55.8465 6.70801L56.5961 4.70104H57.5271L56.4752 7.36087L57.4908 9.94816L59.6549 4.68895ZM67.1543 11H66.0904V7.46968C66.0904 6.8007 65.9856 6.31306 65.776 6.00678C65.5745 5.69243 65.2642 5.53526 64.8451 5.53526C64.5549 5.53526 64.2648 5.6078 63.9746 5.75289C63.6925 5.89797 63.4386 6.09544 63.2129 6.3453C62.9953 6.5871 62.8381 6.86921 62.7414 7.19161V11H61.6775V4.68895H62.6447V6.04305C62.8139 5.74482 63.0316 5.4869 63.2975 5.26928C63.5635 5.05166 63.8658 4.8824 64.2043 4.76149C64.5428 4.64059 64.8975 4.58014 65.2682 4.58014C65.6309 4.58014 65.9332 4.64865 66.175 4.78568C66.4249 4.91464 66.6183 5.10002 66.7553 5.34182C66.9004 5.57556 67.0011 5.85364 67.0576 6.17604C67.1221 6.49844 67.1543 6.84906 67.1543 7.22788V11Z" fill="#838383"/>
<path d="M0.0496521 12.5113H67.9522V13.1158H0.0496521V12.5113Z" fill="#838383"/>
<g clip-path="url(#clip0_266_21)">
<path d="M31.96 58.7595C32.13 58.9295 32.3 59.0995 32.47 59.2695C33.388 60.0855 34.714 60.1535 35.598 59.2695C38.08 56.8555 40.494 54.3735 42.942 51.8915C43.18 51.8235 43.282 51.6195 43.452 51.4835C44.506 50.4635 45.56 49.4095 46.58 48.3555C50.558 44.3775 54.502 40.4335 58.48 36.4555C59.704 35.2315 59.704 33.9735 58.514 32.7495C56.746 30.9475 54.944 29.1795 53.176 27.4115C52.87 27.1055 52.564 26.8335 52.156 26.6975C51.034 26.3235 50.15 26.7315 49.368 27.5475C44.268 32.6475 39.168 37.7475 34.034 42.8475C33.898 42.7115 33.728 42.5755 33.558 42.4055C28.594 37.4415 23.63 32.4775 18.666 27.5135C17.442 26.2895 16.15 26.2895 14.926 27.5135C13.226 29.2135 11.56 30.8795 9.85999 32.5795C8.39799 34.0415 8.39799 35.2315 9.85999 36.6595C17.204 44.0375 24.582 51.3815 31.96 58.7595Z" fill="#0072FF"/>
<path d="M53.448 51.6195C51.918 50.0895 50.762 50.0895 49.266 51.6195C44.2 56.6855 39.134 61.7175 34.068 66.7835C33.898 66.6135 33.694 66.4775 33.524 66.3075C28.56 61.3435 23.63 56.4135 18.666 51.4495C17.408 50.2255 16.15 50.1915 14.926 51.4495C13.158 53.1835 11.424 54.9515 9.69004 56.6855C8.46604 57.9095 8.46604 59.2015 9.72404 60.4595C11.22 61.9895 12.75 63.4855 14.28 65.0155C20.264 70.9995 26.248 76.9835 32.232 82.9675C33.422 84.1575 34.714 84.2255 35.836 83.1375C38.284 80.7235 40.698 78.2755 43.146 75.8275C43.282 75.6915 43.452 75.5895 43.588 75.4535C48.552 70.4895 53.516 65.5255 58.48 60.5615C59.806 59.2355 59.806 57.9775 58.48 56.6515C56.746 54.9515 55.114 53.2855 53.448 51.6195Z" fill="#0072FF"/>
<path d="M2.20999 76.0655H1.12199C0.577986 76.0655 0.135986 75.6235 0.135986 75.0795V75.0455C0.135986 74.5015 0.577986 74.0595 1.12199 74.0595H2.20999C2.75399 74.0595 3.19599 74.5015 3.19599 75.0455V75.0795C3.19599 75.6235 2.75399 76.0655 2.20999 76.0655Z" fill="#0072FF"/>
<path d="M2.20999 81.9135H1.12199C0.577986 81.9135 0.135986 81.4715 0.135986 80.9275V80.8935C0.135986 80.3495 0.577986 79.9075 1.12199 79.9075H2.20999C2.75399 79.9075 3.19599 80.3495 3.19599 80.8935V80.9275C3.19599 81.4715 2.75399 81.9135 2.20999 81.9135Z" fill="#0072FF"/>
<path d="M2.20999 87.7956H1.12199C0.577986 87.7956 0.135986 87.3535 0.135986 86.8095V86.7755C0.135986 86.2315 0.577986 85.7896 1.12199 85.7896H2.20999C2.75399 85.7896 3.19599 86.2315 3.19599 86.7755V86.8095C3.19599 87.3535 2.75399 87.7956 2.20999 87.7956Z" fill="#0072FF"/>
<path d="M67.014 24.6575H65.926C65.382 24.6575 64.94 24.2155 64.94 23.6715V23.6375C64.94 23.0935 65.382 22.6515 65.926 22.6515H67.014C67.558 22.6515 68 23.0935 68 23.6375V23.6715C68 24.2155 67.558 24.6575 67.014 24.6575Z" fill="#0072FF"/>
<path d="M67.014 30.5395H65.926C65.382 30.5395 64.94 30.0975 64.94 29.5535V29.5195C64.94 28.9755 65.382 28.5335 65.926 28.5335H67.014C67.558 28.5335 68 28.9755 68 29.5195V29.5535C68 30.0975 67.558 30.5395 67.014 30.5395Z" fill="#0072FF"/>
<path d="M67.014 36.3875H65.926C65.382 36.3875 64.94 35.9455 64.94 35.4015V35.3675C64.94 34.8235 65.382 34.3815 65.926 34.3815H67.014C67.558 34.4155 68 34.8235 68 35.3675V35.4015C68 35.9455 67.558 36.3875 67.014 36.3875Z" fill="#0072FF"/>
<rect x="52" y="85" width="1075" height="165" fill="#D9D9D9"/>
</g>
<defs>
<clipPath id="clip0_266_21">
<rect width="68" height="68" fill="white" transform="translate(0 21.1555)"/>
</clipPath>
</defs>
</svg>
