<svg width="18" height="12" viewBox="0 0 18 12" fill="none" xmlns="http://www.w3.org/2000/svg">
<path d="M18 10.5V1.5C18 0.67 17.291 0 16.4127 0H1.5873C0.708995 0 0 0.67 0 1.5V10.5C0 11.33 0.708995 12 1.5873 12H16.4127C17.291 12 18 11.33 18 10.5ZM16.6138 1.39C16.963 1.72 16.7725 2.06 16.582 2.23L12.2857 5.95L16.4127 10.01C16.5397 10.15 16.6243 10.37 16.4762 10.52C16.3386 10.68 16.0212 10.67 15.8836 10.57L11.2593 6.84L8.99471 8.79L6.74074 6.84L2.1164 10.57C1.97884 10.67 1.66138 10.68 1.52381 10.52C1.37566 10.37 1.46032 10.15 1.5873 10.01L5.71429 5.95L1.41799 2.23C1.22751 2.06 1.03704 1.72 1.38624 1.39C1.73545 1.06 2.09524 1.22 2.39153 1.46L8.99471 6.5L15.6085 1.46C15.9048 1.22 16.2646 1.06 16.6138 1.39Z" fill="#0072FF"/>
</svg>
