<svg width="61" height="61" viewBox="0 0 61 61" fill="none" xmlns="http://www.w3.org/2000/svg">
<g filter="url(#filter0_d_6_11)">
<circle cx="27.5" cy="27.5" r="22.5" fill="#0072FF"/>
</g>
<path d="M24.2894 20.6636C24.2894 19.692 24.6804 18.7601 25.3762 18.073C26.0721 17.386 27.0159 17 28 17C28.9841 17 29.9279 17.386 30.6238 18.073C31.3196 18.7601 31.7106 19.692 31.7106 20.6636C31.7106 21.6353 31.3196 22.5671 30.6238 23.2542C29.9279 23.9412 28.9841 24.3272 28 24.3272C27.0159 24.3272 26.0721 23.9412 25.3762 23.2542C24.6804 22.5671 24.2894 21.6353 24.2894 20.6636ZM28 18.8336C27.7566 18.8336 27.5156 18.881 27.2907 18.9729C27.0659 19.0649 26.8615 19.1997 26.6894 19.3696C26.5173 19.5396 26.3808 19.7413 26.2877 19.9633C26.1945 20.1853 26.1466 20.4233 26.1466 20.6636C26.1466 20.9039 26.1945 21.1419 26.2877 21.3639C26.3808 21.5859 26.5173 21.7877 26.6894 21.9576C26.8615 22.1275 27.0659 22.2623 27.2907 22.3543C27.5156 22.4462 27.7566 22.4936 28 22.4936C28.4916 22.4936 28.963 22.3008 29.3106 21.9576C29.6582 21.6144 29.8534 21.1489 29.8534 20.6636C29.8534 20.1783 29.6582 19.7128 29.3106 19.3696C28.963 19.0264 28.4916 18.8336 28 18.8336ZM33.5714 21.5804C33.5714 21.2192 33.6435 20.8616 33.7835 20.5279C33.9235 20.1942 34.1287 19.891 34.3873 19.6356C34.646 19.3802 34.9531 19.1776 35.2911 19.0393C35.6291 18.9011 35.9913 18.83 36.3571 18.83C36.723 18.83 37.0852 18.9011 37.4232 19.0393C37.7612 19.1776 38.0683 19.3802 38.3269 19.6356C38.5856 19.891 38.7908 20.1942 38.9308 20.5279C39.0708 20.8616 39.1429 21.2192 39.1429 21.5804C39.1429 22.3099 38.8494 23.0095 38.3269 23.5253C37.8045 24.0411 37.096 24.3309 36.3571 24.3309C35.6183 24.3309 34.9098 24.0411 34.3873 23.5253C33.8649 23.0095 33.5714 22.3099 33.5714 21.5804ZM36.3571 20.6636C36.1109 20.6636 35.8747 20.7602 35.7005 20.9321C35.5264 21.1041 35.4286 21.3373 35.4286 21.5804C35.4286 21.8236 35.5264 22.0568 35.7005 22.2287C35.8747 22.4007 36.1109 22.4972 36.3571 22.4972C36.6034 22.4972 36.8396 22.4007 37.0137 22.2287C37.1879 22.0568 37.2857 21.8236 37.2857 21.5804C37.2857 21.3373 37.1879 21.1041 37.0137 20.9321C36.8396 20.7602 36.6034 20.6636 36.3571 20.6636ZM19.6429 18.83C18.904 18.83 18.1955 19.1198 17.6731 19.6356C17.1506 20.1514 16.8571 20.851 16.8571 21.5804C16.8571 22.3099 17.1506 23.0095 17.6731 23.5253C18.1955 24.0411 18.904 24.3309 19.6429 24.3309C20.3817 24.3309 21.0902 24.0411 21.6127 23.5253C22.1351 23.0095 22.4286 22.3099 22.4286 21.5804C22.4286 20.851 22.1351 20.1514 21.6127 19.6356C21.0902 19.1198 20.3817 18.83 19.6429 18.83ZM18.7143 21.5804C18.7143 21.3373 18.8121 21.1041 18.9863 20.9321C19.1604 20.7602 19.3966 20.6636 19.6429 20.6636C19.8891 20.6636 20.1253 20.7602 20.2995 20.9321C20.4736 21.1041 20.5714 21.3373 20.5714 21.5804C20.5714 21.8236 20.4736 22.0568 20.2995 22.2287C20.1253 22.4007 19.8891 22.4972 19.6429 22.4972C19.3966 22.4972 19.1604 22.4007 18.9863 22.2287C18.8121 22.0568 18.7143 21.8236 18.7143 21.5804ZM21.0691 26.1645C20.7423 26.7217 20.5706 27.3543 20.5714 27.9982H16.8571V32.5823C16.857 33.0384 16.9717 33.4873 17.191 33.8888C17.4103 34.2902 17.7272 34.6315 18.1133 34.8819C18.4994 35.1323 18.9425 35.2841 19.4027 35.3234C19.8629 35.3627 20.3258 35.2884 20.7497 35.1072C20.8871 35.7141 21.1026 36.2935 21.3811 36.8345C20.6763 37.1155 19.9123 37.2213 19.1564 37.1427C18.4004 37.064 17.6756 36.8033 17.0455 36.3835C16.4155 35.9636 15.8995 35.3974 15.5428 34.7347C15.1861 34.0719 14.9997 33.3328 15 32.5823V27.9982C15 27.5119 15.1957 27.0455 15.5439 26.7016C15.8922 26.3577 16.3646 26.1645 16.8571 26.1645H21.0691ZM34.6189 36.8345C35.3237 37.1155 36.0877 37.2213 36.8436 37.1427C37.5996 37.064 38.3244 36.8033 38.9545 36.3835C39.5845 35.9636 40.1005 35.3974 40.4572 34.7347C40.8139 34.0719 41.0003 33.3328 41 32.5823V27.9982C41 27.5119 40.8043 27.0455 40.4561 26.7016C40.1078 26.3577 39.6354 26.1645 39.1429 26.1645H34.9309C35.2466 26.7036 35.4286 27.3289 35.4286 27.9982H39.1429V32.5823C39.143 33.0384 39.0283 33.4873 38.809 33.8888C38.5897 34.2902 38.2728 34.6315 37.8867 34.8819C37.5006 35.1323 37.0575 35.2841 36.5973 35.3234C36.1371 35.3627 35.6742 35.2884 35.2503 35.1072C35.111 35.7141 34.8974 36.2935 34.6189 36.8345ZM24.2857 26.1627C23.7932 26.1627 23.3208 26.3559 22.9725 26.6998C22.6242 27.0436 22.4286 27.51 22.4286 27.9963V33.4991C22.4286 34.958 23.0156 36.3572 24.0604 37.3888C25.1053 38.4204 26.5224 39 28 39C29.4776 39 30.8947 38.4204 31.9396 37.3888C32.9844 36.3572 33.5714 34.958 33.5714 33.4991V27.9982C33.5714 27.5119 33.3758 27.0455 33.0275 26.7016C32.6792 26.3577 32.2068 26.1645 31.7143 26.1645H24.2857V26.1627ZM24.2857 27.9963H31.7143V33.4991C31.7143 34.4717 31.323 35.4045 30.6264 36.0922C29.9298 36.78 28.9851 37.1664 28 37.1664C27.0149 37.1664 26.0702 36.78 25.3736 36.0922C24.677 35.4045 24.2857 34.4717 24.2857 33.4991V27.9982V27.9963Z" fill="white"/>
<defs>
<filter id="filter0_d_6_11" x="0" y="0" width="61" height="61" filterUnits="userSpaceOnUse" color-interpolation-filters="sRGB">
<feFlood flood-opacity="0" result="BackgroundImageFix"/>
<feColorMatrix in="SourceAlpha" type="matrix" values="0 0 0 0 0 0 0 0 0 0 0 0 0 0 0 0 0 0 127 0" result="hardAlpha"/>
<feOffset dx="3" dy="3"/>
<feGaussianBlur stdDeviation="4"/>
<feComposite in2="hardAlpha" operator="out"/>
<feColorMatrix type="matrix" values="0 0 0 0 0 0 0 0 0 0.447059 0 0 0 0 1 0 0 0 0.27 0"/>
<feBlend mode="normal" in2="BackgroundImageFix" result="effect1_dropShadow_6_11"/>
<feBlend mode="normal" in="SourceGraphic" in2="effect1_dropShadow_6_11" result="shape"/>
</filter>
</defs>
</svg>
