<svg width="161" height="364" viewBox="0 0 161 364" fill="none" xmlns="http://www.w3.org/2000/svg">
<path d="M131.154 209.849C131.154 278.748 75.9129 334.112 8.37019 334.112C-59.1725 334.112 -114.414 278.748 -114.414 209.849C-114.414 140.951 -59.1725 85.5863 8.37019 85.5863C75.9129 85.5863 131.154 140.951 131.154 209.849Z" stroke="#C6DDFB" stroke-width="59.1729"/>
<circle cx="106.615" cy="62" r="2.38462" transform="rotate(-180 106.615 62)" fill="#0072FF"/>
<circle cx="87.5385" cy="62" r="2.38462" transform="rotate(-180 87.5385 62)" fill="#0072FF"/>
<circle cx="68.4616" cy="62" r="2.38462" transform="rotate(-180 68.4616 62)" fill="#0072FF"/>
<circle cx="49.3847" cy="62" r="2.38462" transform="rotate(-180 49.3847 62)" fill="#0072FF"/>
<circle cx="106.615" cy="42.1283" r="2.38462" transform="rotate(-180 106.615 42.1283)" fill="#0072FF"/>
<circle cx="106.615" cy="22.2564" r="2.38462" transform="rotate(-180 106.615 22.2564)" fill="#0072FF"/>
<circle cx="106.615" cy="2.38467" r="2.38462" transform="rotate(-180 106.615 2.38467)" fill="#0072FF"/>
<circle cx="87.5385" cy="42.1283" r="2.38462" transform="rotate(-180 87.5385 42.1283)" fill="#0072FF"/>
<circle cx="87.5385" cy="22.2564" r="2.38462" transform="rotate(-180 87.5385 22.2564)" fill="#0072FF"/>
<circle cx="87.5385" cy="2.38461" r="2.38462" transform="rotate(-180 87.5385 2.38461)" fill="#0072FF"/>
<circle cx="68.4616" cy="42.1282" r="2.38462" transform="rotate(-180 68.4616 42.1282)" fill="#0072FF"/>
<circle cx="68.4616" cy="22.2564" r="2.38462" transform="rotate(-180 68.4616 22.2564)" fill="#0072FF"/>
<circle cx="68.4616" cy="2.38461" r="2.38462" transform="rotate(-180 68.4616 2.38461)" fill="#0072FF"/>
<circle cx="49.3847" cy="42.1282" r="2.38462" transform="rotate(-180 49.3847 42.1282)" fill="#0072FF"/>
<circle cx="49.3847" cy="22.2564" r="2.38462" transform="rotate(-180 49.3847 22.2564)" fill="#0072FF"/>
<circle cx="49.3847" cy="2.38461" r="2.38462" transform="rotate(-180 49.3847 2.38461)" fill="#0072FF"/>
<rect x="86" y="120.385" width="16" height="16" rx="4" transform="rotate(-180 86 120.385)" fill="#0072FF"/>
</svg>
