<svg width="153" height="364" viewBox="0 0 153 364" fill="none" xmlns="http://www.w3.org/2000/svg">
<path d="M123.154 209.85C123.154 278.748 67.9129 334.113 0.370193 334.113C-67.1725 334.113 -122.414 278.748 -122.414 209.85C-122.414 140.951 -67.1725 85.5866 0.370193 85.5866C67.9129 85.5866 123.154 140.951 123.154 209.85Z" stroke="#C6DDFB" stroke-width="59.1729"/>
<circle cx="98.6154" cy="62.0003" r="2.38462" transform="rotate(-180 98.6154 62.0003)" fill="#0072FF"/>
<circle cx="79.5384" cy="62.0003" r="2.38462" transform="rotate(-180 79.5384 62.0003)" fill="#0072FF"/>
<circle cx="60.4615" cy="62.0003" r="2.38462" transform="rotate(-180 60.4615 62.0003)" fill="#0072FF"/>
<circle cx="41.3846" cy="62.0003" r="2.38462" transform="rotate(-180 41.3846 62.0003)" fill="#0072FF"/>
<circle cx="98.6154" cy="42.1284" r="2.38462" transform="rotate(-180 98.6154 42.1284)" fill="#0072FF"/>
<circle cx="98.6154" cy="22.2567" r="2.38462" transform="rotate(-180 98.6154 22.2567)" fill="#0072FF"/>
<circle cx="98.6154" cy="2.38492" r="2.38462" transform="rotate(-180 98.6154 2.38492)" fill="#0072FF"/>
<circle cx="79.5384" cy="42.1284" r="2.38462" transform="rotate(-180 79.5384 42.1284)" fill="#0072FF"/>
<circle cx="79.5385" cy="22.2566" r="2.38462" transform="rotate(-180 79.5385 22.2566)" fill="#0072FF"/>
<circle cx="79.5385" cy="2.38492" r="2.38462" transform="rotate(-180 79.5385 2.38492)" fill="#0072FF"/>
<circle cx="60.4615" cy="42.1284" r="2.38462" transform="rotate(-180 60.4615 42.1284)" fill="#0072FF"/>
<circle cx="60.4615" cy="22.2566" r="2.38462" transform="rotate(-180 60.4615 22.2566)" fill="#0072FF"/>
<circle cx="60.4615" cy="2.38492" r="2.38462" transform="rotate(-180 60.4615 2.38492)" fill="#0072FF"/>
<circle cx="41.3846" cy="42.1284" r="2.38462" transform="rotate(-180 41.3846 42.1284)" fill="#0072FF"/>
<circle cx="41.3846" cy="22.2566" r="2.38462" transform="rotate(-180 41.3846 22.2566)" fill="#0072FF"/>
<circle cx="41.3846" cy="2.38492" r="2.38462" transform="rotate(-180 41.3846 2.38492)" fill="#0072FF"/>
<rect x="78" y="120.385" width="16" height="16" rx="4" transform="rotate(-180 78 120.385)" fill="#0072FF"/>
</svg>
