<svg width="50" height="50" viewBox="0 0 50 50" fill="none" xmlns="http://www.w3.org/2000/svg">
<path d="M42.9688 5.46875H7.03125C6.16699 5.46875 5.46875 6.16699 5.46875 7.03125V42.9688C5.46875 43.833 6.16699 44.5312 7.03125 44.5312H42.9688C43.833 44.5312 44.5312 43.833 44.5312 42.9688V7.03125C44.5312 6.16699 43.833 5.46875 42.9688 5.46875ZM21.4941 37.3535H19.0137C18.9062 37.3535 18.7939 37.2998 18.7256 37.2119L16.9922 35.0879L15.2588 37.2119C15.225 37.2562 15.1814 37.292 15.1314 37.3166C15.0814 37.3411 15.0264 37.3538 14.9707 37.3535H12.4902C12.168 37.3535 11.9922 36.9678 12.207 36.7139L15.2686 32.9639L12.2803 29.3066C12.0703 29.0527 12.2461 28.667 12.5684 28.667H15.0537C15.1611 28.667 15.2734 28.7207 15.3418 28.8086L17.002 30.8398L18.6621 28.8086C18.7354 28.7158 18.8379 28.667 18.9502 28.667H21.4307C21.7529 28.667 21.9287 29.0527 21.7188 29.3066L18.7256 32.959L21.7871 36.709C21.9922 36.9678 21.8164 37.3535 21.4941 37.3535ZM21.875 18.7012C21.875 18.8086 21.8066 18.8965 21.7188 18.8965H18.3594V22.251C18.3594 22.3438 18.2715 22.4121 18.1641 22.4121H15.8203C15.7129 22.4121 15.625 22.3438 15.625 22.2559V18.8965H12.2656C12.1777 18.8965 12.1094 18.8086 12.1094 18.7012V16.3574C12.1094 16.25 12.1777 16.1621 12.2656 16.1621H15.625V12.8027C15.625 12.7148 15.7129 12.6465 15.8203 12.6465H18.1641C18.2715 12.6465 18.3594 12.7148 18.3594 12.8027V16.1621H21.7139C21.8066 16.1621 21.875 16.25 21.875 16.3574V18.7012ZM37.8906 36.7188C37.8906 36.8262 37.8223 36.9141 37.7344 36.9141H28.2812C28.1934 36.9141 28.125 36.8262 28.125 36.7188V34.375C28.125 34.2676 28.1934 34.1797 28.2812 34.1797H37.7295C37.8223 34.1797 37.8906 34.2676 37.8906 34.375V36.7188ZM37.8906 31.6406C37.8906 31.748 37.8223 31.8359 37.7344 31.8359H28.2812C28.1934 31.8359 28.125 31.748 28.125 31.6406V29.2969C28.125 29.1895 28.1934 29.1016 28.2812 29.1016H37.7295C37.8223 29.1016 37.8906 29.1895 37.8906 29.2969V31.6406ZM37.8906 18.7012C37.8906 18.8086 37.8223 18.8965 37.7344 18.8965H28.2812C28.1934 18.8965 28.125 18.8086 28.125 18.7012V16.3574C28.125 16.25 28.1934 16.1621 28.2812 16.1621H37.7295C37.8223 16.1621 37.8906 16.25 37.8906 16.3574V18.7012Z" fill="#0072FF"/>
</svg>
