<svg width="1440" height="246" viewBox="0 0 1440 246" fill="none" xmlns="http://www.w3.org/2000/svg">
<path fill-rule="evenodd" clip-rule="evenodd" d="M1440 54.1253C1432.83 58.4932 1424.44 61 1415.5 61C1389.41 61 1368 39.6491 1368 13C1368 8.48889 1368.61 4.1296 1369.76 0H1440V54.1253ZM1349.23 0H0V246H60C60 208.445 90.2208 178 127.5 178C164.779 178 195 208.445 195 246H1440V76.3822C1432.41 79.3638 1424.14 81 1415.5 81C1378.22 81 1348 50.5554 1348 13C1348 8.55411 1348.42 4.20787 1349.23 0ZM127.5 198C153.595 198 175 219.351 175 246H80C80 219.351 101.405 198 127.5 198Z" fill="#0072FF"/>
<circle cx="1146.38" cy="48.3846" r="2.38462" fill="white"/>
<circle cx="1165.46" cy="48.3846" r="2.38462" fill="white"/>
<circle cx="1184.54" cy="48.3846" r="2.38462" fill="white"/>
<circle cx="1203.62" cy="48.3846" r="2.38462" fill="white"/>
<circle cx="1146.38" cy="68.2567" r="2.38462" fill="white"/>
<circle cx="1146.38" cy="88.1278" r="2.38462" fill="white"/>
<circle cx="1146.38" cy="108" r="2.38462" fill="white"/>
<circle cx="1165.46" cy="68.2567" r="2.38462" fill="white"/>
<circle cx="1165.46" cy="88.1278" r="2.38462" fill="white"/>
<circle cx="1165.46" cy="108" r="2.38462" fill="white"/>
<circle cx="1184.54" cy="68.2567" r="2.38462" fill="white"/>
<circle cx="1184.54" cy="88.1278" r="2.38462" fill="white"/>
<circle cx="1184.54" cy="108" r="2.38462" fill="white"/>
<circle cx="1203.62" cy="68.2567" r="2.38462" fill="white"/>
<circle cx="1203.62" cy="88.1278" r="2.38462" fill="white"/>
<circle cx="1203.62" cy="108" r="2.38462" fill="white"/>
<rect x="300" y="63" width="16" height="16" rx="4" fill="white"/>
<rect x="1115" y="164" width="16" height="16" rx="4" fill="white"/>
<circle cx="236.385" cy="132.385" r="2.38462" fill="white"/>
<circle cx="255.462" cy="132.385" r="2.38462" fill="white"/>
<circle cx="274.538" cy="132.385" r="2.38462" fill="white"/>
<circle cx="293.615" cy="132.385" r="2.38462" fill="white"/>
<circle cx="236.385" cy="152.257" r="2.38462" fill="white"/>
<circle cx="236.385" cy="172.128" r="2.38462" fill="white"/>
<circle cx="236.385" cy="192" r="2.38462" fill="white"/>
<circle cx="255.462" cy="152.257" r="2.38462" fill="white"/>
<circle cx="255.462" cy="172.128" r="2.38462" fill="white"/>
<circle cx="255.462" cy="192" r="2.38462" fill="white"/>
<circle cx="274.538" cy="152.257" r="2.38462" fill="white"/>
<circle cx="274.538" cy="172.128" r="2.38462" fill="white"/>
<circle cx="274.538" cy="192" r="2.38462" fill="white"/>
<circle cx="293.615" cy="152.257" r="2.38462" fill="white"/>
<circle cx="293.615" cy="172.128" r="2.38462" fill="white"/>
<circle cx="293.615" cy="192" r="2.38462" fill="white"/>
</svg>
