<svg width="61" height="61" viewBox="0 0 61 61" fill="none" xmlns="http://www.w3.org/2000/svg">
<g filter="url(#filter0_d_6_13)">
<circle cx="27.5" cy="27.5" r="22.5" fill="#0072FF"/>
</g>
<path d="M18.3749 37.0417C18.1222 36.7889 17.9958 36.4972 17.9958 36.1667C17.9958 35.8361 18.1222 35.5444 18.3749 35.2917L25.4333 28.2333C25.5499 28.1167 25.6763 28.0338 25.8124 27.9848C25.9486 27.9366 26.0944 27.9125 26.2499 27.9125C26.4055 27.9125 26.5513 27.9366 26.6874 27.9848C26.8236 28.0338 26.9499 28.1167 27.0666 28.2333L30.9166 32.0833L38.3833 23.6833C38.5972 23.4306 38.8744 23.3042 39.2151 23.3042C39.555 23.3042 39.8416 23.4208 40.0749 23.6542C40.2888 23.868 40.4008 24.1259 40.4109 24.4277C40.4203 24.7287 40.318 24.9958 40.1041 25.2292L31.7333 34.65C31.6166 34.7861 31.4856 34.888 31.3401 34.9557C31.1939 35.0241 31.043 35.0583 30.8874 35.0583C30.7319 35.0583 30.5814 35.0292 30.4359 34.9708C30.2897 34.9125 30.1583 34.825 30.0416 34.7083L26.2499 30.9167L20.1249 37.0417C19.8722 37.2944 19.5805 37.4208 19.2499 37.4208C18.9194 37.4208 18.6277 37.2944 18.3749 37.0417ZM18.6666 29.5167C18.5694 29.5167 18.4722 29.4922 18.3749 29.4432C18.2777 29.3949 18.1999 29.3125 18.1416 29.1958L17.5583 27.9417L16.3041 27.3583C16.1874 27.3 16.105 27.2222 16.0568 27.125C16.0078 27.0278 15.9833 26.9306 15.9833 26.8333C15.9833 26.7361 16.0078 26.6389 16.0568 26.5417C16.105 26.4444 16.1874 26.3667 16.3041 26.3083L17.5583 25.725L18.1416 24.4708C18.1999 24.3542 18.2777 24.2713 18.3749 24.2223C18.4722 24.1741 18.5694 24.15 18.6666 24.15C18.7638 24.15 18.8611 24.1741 18.9583 24.2223C19.0555 24.2713 19.1333 24.3542 19.1916 24.4708L19.7749 25.725L21.0291 26.3083C21.243 26.4056 21.3499 26.5806 21.3499 26.8333C21.3499 27.0861 21.243 27.2611 21.0291 27.3583L19.7749 27.9417L19.1916 29.1958C19.1333 29.3125 19.0555 29.3949 18.9583 29.4432C18.8611 29.4922 18.7638 29.5167 18.6666 29.5167ZM31.4999 27.1833C31.4027 27.1833 31.3055 27.1588 31.2083 27.1098C31.1111 27.0616 31.0333 26.9792 30.9749 26.8625L30.3916 25.6083L29.1374 25.025C29.0208 24.9667 28.9383 24.8889 28.8901 24.7917C28.8411 24.6944 28.8166 24.5972 28.8166 24.5C28.8166 24.4028 28.8411 24.3056 28.8901 24.2083C28.9383 24.1111 29.0208 24.0333 29.1374 23.975L30.3916 23.3917L30.9749 22.1375C31.0333 22.0208 31.1111 21.938 31.2083 21.889C31.3055 21.8408 31.4027 21.8167 31.4999 21.8167C31.5972 21.8167 31.6944 21.8408 31.7916 21.889C31.8888 21.938 31.9666 22.0208 32.0249 22.1375L32.6083 23.3917L33.8624 23.975C33.9791 24.0333 34.0619 24.1111 34.1109 24.2083C34.1592 24.3056 34.1833 24.4028 34.1833 24.5C34.1833 24.5972 34.1592 24.6944 34.1109 24.7917C34.0619 24.8889 33.9791 24.9667 33.8624 25.025L32.6083 25.6083L32.0249 26.8625C31.9666 26.9792 31.8888 27.0616 31.7916 27.1098C31.6944 27.1588 31.5972 27.1833 31.4999 27.1833ZM23.9166 23.6833C23.8194 23.6833 23.7222 23.6542 23.6249 23.5958C23.5277 23.5375 23.4499 23.45 23.3916 23.3333L22.6333 21.7L20.9999 20.9417C20.8833 20.8833 20.7958 20.8055 20.7374 20.7083C20.6791 20.6111 20.6499 20.5139 20.6499 20.4167C20.6499 20.3194 20.6791 20.2222 20.7374 20.125C20.7958 20.0278 20.8833 19.95 20.9999 19.8917L22.6333 19.1333L23.3916 17.5C23.4499 17.3833 23.5277 17.2958 23.6249 17.2375C23.7222 17.1792 23.8194 17.15 23.9166 17.15C24.0138 17.15 24.1111 17.1792 24.2083 17.2375C24.3055 17.2958 24.3833 17.3833 24.4416 17.5L25.1999 19.1333L26.8333 19.8917C26.9499 19.95 27.0374 20.0278 27.0958 20.125C27.1541 20.2222 27.1833 20.3194 27.1833 20.4167C27.1833 20.5139 27.1541 20.6111 27.0958 20.7083C27.0374 20.8055 26.9499 20.8833 26.8333 20.9417L25.1999 21.7L24.4416 23.3333C24.3833 23.45 24.3055 23.5375 24.2083 23.5958C24.1111 23.6542 24.0138 23.6833 23.9166 23.6833Z" fill="white"/>
<defs>
<filter id="filter0_d_6_13" x="0" y="0" width="61" height="61" filterUnits="userSpaceOnUse" color-interpolation-filters="sRGB">
<feFlood flood-opacity="0" result="BackgroundImageFix"/>
<feColorMatrix in="SourceAlpha" type="matrix" values="0 0 0 0 0 0 0 0 0 0 0 0 0 0 0 0 0 0 127 0" result="hardAlpha"/>
<feOffset dx="3" dy="3"/>
<feGaussianBlur stdDeviation="4"/>
<feComposite in2="hardAlpha" operator="out"/>
<feColorMatrix type="matrix" values="0 0 0 0 0 0 0 0 0 0.447059 0 0 0 0 1 0 0 0 0.27 0"/>
<feBlend mode="normal" in2="BackgroundImageFix" result="effect1_dropShadow_6_13"/>
<feBlend mode="normal" in="SourceGraphic" in2="effect1_dropShadow_6_13" result="shape"/>
</filter>
</defs>
</svg>
