<svg width="106" height="106" viewBox="0 0 106 106" fill="none" xmlns="http://www.w3.org/2000/svg">
<g filter="url(#filter0_d_261_18)">
<circle cx="53" cy="46" r="38" fill="#0072FF"/>
</g>
<path d="M60.2857 46.0001H63V48.7144H60.2857V46.0001ZM44 46.0001H54.8571V48.7144H44V46.0001ZM60.2857 40.5715H63V43.2858H60.2857V40.5715ZM44 40.5715H54.8571V43.2858H44V40.5715ZM44 35.1429H63V37.8572H44V35.1429Z" fill="white"/>
<path d="M65.7143 27H41.2857C40.566 27.0007 39.8761 27.2869 39.3672 27.7958C38.8583 28.3047 38.5721 28.9946 38.5714 29.7143V63.6429C38.5714 64.0028 38.7144 64.348 38.9689 64.6025C39.2234 64.857 39.5686 65 39.9286 65H41.2857C41.4964 65.0001 41.7042 64.9511 41.8927 64.8569C42.0812 64.7626 42.2451 64.6258 42.3714 64.4571L45.3571 60.4766L48.3428 64.4571C48.4746 64.6177 48.6403 64.747 48.8281 64.8357C49.0158 64.9245 49.2209 64.9706 49.4286 64.9706C49.6362 64.9706 49.8413 64.9245 50.0291 64.8357C50.2168 64.747 50.3825 64.6177 50.5143 64.4571L53.5 60.4766L56.4857 64.4571C56.6175 64.6177 56.7832 64.747 56.9709 64.8357C57.1587 64.9245 57.3637 64.9706 57.5714 64.9706C57.7791 64.9706 57.9842 64.9245 58.1719 64.8357C58.3596 64.747 58.5254 64.6177 58.6571 64.4571L61.6428 60.4766L64.6286 64.4571C64.755 64.6257 64.9189 64.7625 65.1073 64.8567C65.2958 64.9509 65.5036 65 65.7143 65H67.0714C67.4314 65 67.7765 64.857 68.0311 64.6025C68.2856 64.348 68.4286 64.0028 68.4286 63.6429V29.7143C68.4278 28.9946 68.1416 28.3047 67.6328 27.7958C67.1239 27.2869 66.4339 27.0007 65.7143 27ZM65.7143 61.3805L62.7286 57.4C62.5968 57.2395 62.4311 57.1102 62.2433 57.0214C62.0556 56.9326 61.8505 56.8866 61.6428 56.8866C61.4352 56.8866 61.2301 56.9326 61.0423 57.0214C60.8546 57.1102 60.6889 57.2395 60.5571 57.4L57.5714 61.3805L54.5857 57.4C54.4539 57.2395 54.2882 57.1102 54.1005 57.0214C53.9127 56.9326 53.7077 56.8866 53.5 56.8866C53.2923 56.8866 53.0872 56.9326 52.8995 57.0214C52.7117 57.1102 52.546 57.2395 52.4143 57.4L49.4286 61.3805L46.4428 57.4C46.3111 57.2395 46.1454 57.1102 45.9576 57.0214C45.7699 56.9326 45.5648 56.8866 45.3571 56.8866C45.1495 56.8866 44.9444 56.9326 44.7566 57.0214C44.5689 57.1102 44.4032 57.2395 44.2714 57.4L41.2857 61.3805V29.7143H65.7143V61.3805Z" fill="white"/>
<defs>
<filter id="filter0_d_261_18" x="0" y="0" width="106" height="106" filterUnits="userSpaceOnUse" color-interpolation-filters="sRGB">
<feFlood flood-opacity="0" result="BackgroundImageFix"/>
<feColorMatrix in="SourceAlpha" type="matrix" values="0 0 0 0 0 0 0 0 0 0 0 0 0 0 0 0 0 0 127 0" result="hardAlpha"/>
<feOffset dy="7"/>
<feGaussianBlur stdDeviation="7.5"/>
<feComposite in2="hardAlpha" operator="out"/>
<feColorMatrix type="matrix" values="0 0 0 0 0 0 0 0 0 0.447059 0 0 0 0 1 0 0 0 0.25 0"/>
<feBlend mode="normal" in2="BackgroundImageFix" result="effect1_dropShadow_261_18"/>
<feBlend mode="normal" in="SourceGraphic" in2="effect1_dropShadow_261_18" result="shape"/>
</filter>
</defs>
</svg>
