<svg width="109" height="308" viewBox="0 0 109 308" fill="none" xmlns="http://www.w3.org/2000/svg">
<path d="M275.154 153.85C275.154 222.748 219.913 278.113 152.37 278.113C84.8275 278.113 29.5864 222.748 29.5864 153.85C29.5864 84.9508 84.8275 29.5864 152.37 29.5864C219.913 29.5864 275.154 84.9508 275.154 153.85Z" stroke="#C6DDFB" stroke-width="59.1729"/>
<circle cx="2.38462" cy="242.385" r="2.38462" fill="#0072FF"/>
<circle cx="21.4616" cy="242.385" r="2.38462" fill="#0072FF"/>
<circle cx="40.5385" cy="242.385" r="2.38462" fill="#0072FF"/>
<circle cx="59.6154" cy="242.385" r="2.38462" fill="#0072FF"/>
<circle cx="2.38462" cy="262.256" r="2.38462" fill="#0072FF"/>
<circle cx="2.38462" cy="282.128" r="2.38462" fill="#0072FF"/>
<circle cx="2.38462" cy="302" r="2.38462" fill="#0072FF"/>
<circle cx="21.4616" cy="262.256" r="2.38462" fill="#0072FF"/>
<circle cx="21.4616" cy="282.128" r="2.38462" fill="#0072FF"/>
<circle cx="21.4616" cy="302" r="2.38462" fill="#0072FF"/>
<circle cx="40.5385" cy="262.256" r="2.38462" fill="#0072FF"/>
<circle cx="40.5385" cy="282.128" r="2.38462" fill="#0072FF"/>
<circle cx="40.5385" cy="302" r="2.38462" fill="#0072FF"/>
<circle cx="59.6154" cy="262.256" r="2.38462" fill="#0072FF"/>
<circle cx="59.6154" cy="282.128" r="2.38462" fill="#0072FF"/>
<circle cx="59.6154" cy="302" r="2.38462" fill="#0072FF"/>
<rect x="23" y="184" width="16" height="16" rx="4" fill="#0072FF"/>
</svg>
