<svg width="106" height="106" viewBox="0 0 106 106" fill="none" xmlns="http://www.w3.org/2000/svg">
<g filter="url(#filter0_d_261_15)">
<circle cx="53" cy="46" r="38" fill="#0072FF"/>
</g>
<path d="M45.25 54.5V43.875V54.5ZM53.5 54.5V37.5V54.5ZM61.75 54.5V50.25V54.5ZM65.875 29H41.125C40.031 29 38.9818 29.4478 38.2082 30.2448C37.4346 31.0418 37 32.1228 37 33.25V58.75C37 59.8772 37.4346 60.9582 38.2082 61.7552C38.9818 62.5522 40.031 63 41.125 63H65.875C66.969 63 68.0182 62.5522 68.7918 61.7552C69.5654 60.9582 70 59.8772 70 58.75V33.25C70 32.1228 69.5654 31.0418 68.7918 30.2448C68.0182 29.4478 66.969 29 65.875 29V29Z" stroke="white" stroke-width="4.29899" stroke-linecap="round" stroke-linejoin="round"/>
<defs>
<filter id="filter0_d_261_15" x="0" y="0" width="106" height="106" filterUnits="userSpaceOnUse" color-interpolation-filters="sRGB">
<feFlood flood-opacity="0" result="BackgroundImageFix"/>
<feColorMatrix in="SourceAlpha" type="matrix" values="0 0 0 0 0 0 0 0 0 0 0 0 0 0 0 0 0 0 127 0" result="hardAlpha"/>
<feOffset dy="7"/>
<feGaussianBlur stdDeviation="7.5"/>
<feComposite in2="hardAlpha" operator="out"/>
<feColorMatrix type="matrix" values="0 0 0 0 0 0 0 0 0 0.447059 0 0 0 0 1 0 0 0 0.25 0"/>
<feBlend mode="normal" in2="BackgroundImageFix" result="effect1_dropShadow_261_15"/>
<feBlend mode="normal" in="SourceGraphic" in2="effect1_dropShadow_261_15" result="shape"/>
</filter>
</defs>
</svg>
