<svg width="106" height="106" viewBox="0 0 106 106" fill="none" xmlns="http://www.w3.org/2000/svg">
<g filter="url(#filter0_d_261_17)">
<circle cx="53" cy="46" r="38" fill="#0072FF"/>
</g>
<path d="M53 24C48.4427 24 44.072 25.7779 40.8495 28.9426C37.627 32.1072 35.8166 36.3995 35.8166 40.875V49.8787L32.1355 58.9312C32.0202 59.2155 31.9775 59.5232 32.0112 59.8274C32.0448 60.1317 32.1538 60.4232 32.3285 60.6765C32.5033 60.9299 32.7385 61.1374 33.0137 61.2809C33.2889 61.4245 33.5957 61.4997 33.9073 61.5H45.3629C45.3629 65.655 48.7691 69 53 69C57.2309 69 60.6371 65.655 60.6371 61.5H72.0927C72.4043 61.4997 72.7111 61.4245 72.9863 61.2809C73.2615 61.1374 73.4967 60.9299 73.6715 60.6765C73.8462 60.4232 73.9552 60.1317 73.9888 59.8274C74.0225 59.5232 73.9798 59.2155 73.8645 58.9312L70.1834 49.875V40.875C70.1834 36.3995 68.373 32.1072 65.1505 28.9426C61.928 25.7779 57.5573 24 53 24ZM56.8185 61.5C56.8185 63.585 55.1231 65.25 53 65.25C50.8769 65.25 49.1815 63.585 49.1815 61.5H56.8185ZM39.6351 40.875C39.6351 37.394 41.0432 34.0556 43.5496 31.5942C46.056 29.1328 49.4554 27.75 53 27.75C56.5446 27.75 59.944 29.1328 62.4504 31.5942C64.9568 34.0556 66.3649 37.394 66.3649 40.875V50.2425C66.3655 50.4802 66.4122 50.7156 66.5024 50.9362L69.2746 57.75H36.7254L39.4976 50.9362C39.5878 50.7156 39.6345 50.4802 39.6351 50.2425V40.875Z" fill="white"/>
<defs>
<filter id="filter0_d_261_17" x="0" y="0" width="106" height="106" filterUnits="userSpaceOnUse" color-interpolation-filters="sRGB">
<feFlood flood-opacity="0" result="BackgroundImageFix"/>
<feColorMatrix in="SourceAlpha" type="matrix" values="0 0 0 0 0 0 0 0 0 0 0 0 0 0 0 0 0 0 127 0" result="hardAlpha"/>
<feOffset dy="7"/>
<feGaussianBlur stdDeviation="7.5"/>
<feComposite in2="hardAlpha" operator="out"/>
<feColorMatrix type="matrix" values="0 0 0 0 0 0 0 0 0 0.447059 0 0 0 0 1 0 0 0 0.25 0"/>
<feBlend mode="normal" in2="BackgroundImageFix" result="effect1_dropShadow_261_17"/>
<feBlend mode="normal" in="SourceGraphic" in2="effect1_dropShadow_261_17" result="shape"/>
</filter>
</defs>
</svg>
