<svg width="106" height="106" viewBox="0 0 106 106" fill="none" xmlns="http://www.w3.org/2000/svg">
<g filter="url(#filter0_d_261_16)">
<circle cx="53" cy="46" r="38" fill="#0072FF"/>
</g>
<path d="M70.2747 28.7662L53.7395 23.1027C53.54 23.0342 53.2724 23 53.0048 23C52.7371 23 52.4695 23.0342 52.27 23.1027L35.7348 28.7662C35.3309 28.9032 35 29.3727 35 29.8031V53.3962C35 53.8265 35.2774 54.3939 35.6131 54.6629L52.3868 67.7995C52.5571 67.9315 52.7761 68 52.9999 68C53.2237 68 53.4476 67.9315 53.613 67.7995L70.3867 54.6629C70.7224 54.3988 70.9998 53.8314 70.9998 53.3962V29.8031C71.0095 29.3727 70.6786 28.9081 70.2747 28.7662ZM67.5059 52.4571L53.0048 63.8135L38.5036 52.4571V31.5442L53.0048 26.5752L67.5059 31.5442V52.4571ZM47.6958 46.3192L43.9245 50.1096C43.8521 50.1831 43.8114 50.2824 43.8114 50.3859C43.8114 50.4894 43.8521 50.5887 43.9245 50.6622L45.579 52.3251C45.7299 52.4767 45.978 52.4767 46.1289 52.3251L49.9002 48.5347C52.6106 50.2514 56.231 49.9237 58.5911 47.5517C61.3307 44.7982 61.3307 40.3378 58.5911 37.5843C55.8515 34.8308 51.4135 34.8308 48.6739 37.5843C46.3138 39.9563 45.9878 43.5999 47.6958 46.3192ZM50.8783 39.7998C52.4014 38.269 54.8685 38.269 56.3867 39.7998C57.9098 41.3306 57.9098 43.8102 56.3867 45.3362C54.8636 46.867 52.3965 46.867 50.8783 45.3362C49.36 43.8053 49.3551 41.3306 50.8783 39.7998Z" fill="white"/>
<defs>
<filter id="filter0_d_261_16" x="0" y="0" width="106" height="106" filterUnits="userSpaceOnUse" color-interpolation-filters="sRGB">
<feFlood flood-opacity="0" result="BackgroundImageFix"/>
<feColorMatrix in="SourceAlpha" type="matrix" values="0 0 0 0 0 0 0 0 0 0 0 0 0 0 0 0 0 0 127 0" result="hardAlpha"/>
<feOffset dy="7"/>
<feGaussianBlur stdDeviation="7.5"/>
<feComposite in2="hardAlpha" operator="out"/>
<feColorMatrix type="matrix" values="0 0 0 0 0 0 0 0 0 0.447059 0 0 0 0 1 0 0 0 0.25 0"/>
<feBlend mode="normal" in2="BackgroundImageFix" result="effect1_dropShadow_261_16"/>
<feBlend mode="normal" in="SourceGraphic" in2="effect1_dropShadow_261_16" result="shape"/>
</filter>
</defs>
</svg>
