<svg width="193" height="52" viewBox="0 0 193 52" fill="none" xmlns="http://www.w3.org/2000/svg">
<g clip-path="url(#clip0_236_223)">
<path d="M133.632 38.1215C132.208 38.1215 130.943 37.8886 129.836 37.4228C128.73 36.957 127.783 36.306 126.994 35.4749C126.205 34.6386 125.602 33.6911 125.189 32.6325C124.771 31.5686 124.564 30.457 124.564 29.2872C124.564 27.7045 124.924 26.2436 125.65 24.8991C126.375 23.5547 127.412 22.4855 128.773 21.6809C130.133 20.8816 131.742 20.4793 133.6 20.4793C135.463 20.4793 137.062 20.8869 138.396 21.6968C139.729 22.5066 140.719 23.5706 141.354 24.8833L137.083 26.196C136.712 25.5608 136.215 25.0738 135.606 24.7351C134.992 24.3963 134.304 24.2269 133.536 24.2269C132.727 24.2269 131.98 24.4333 131.303 24.8568C130.625 25.275 130.08 25.8625 129.678 26.6141C129.27 27.3658 129.069 28.2603 129.069 29.2872C129.069 30.277 129.27 31.1557 129.678 31.9285C130.08 32.7013 130.625 33.3047 131.303 33.7335C131.98 34.1622 132.737 34.3792 133.568 34.3792C134.113 34.3792 134.621 34.2893 135.077 34.1146C135.537 33.9399 135.961 33.6911 136.342 33.3735C136.723 33.0559 137.003 32.7119 137.178 32.3361L141.45 33.6488C141.053 34.501 140.481 35.2685 139.724 35.946C138.967 36.6235 138.083 37.1582 137.062 37.5393C136.045 37.931 134.902 38.1215 133.632 38.1215Z" fill="#031838"/>
<path d="M160.145 37.7933H155.741V28.2762C155.741 26.9582 155.482 25.9789 154.968 25.3279C154.455 24.6821 153.746 24.3592 152.851 24.3592C152.327 24.3592 151.766 24.5074 151.173 24.8091C150.58 25.1108 150.051 25.5184 149.58 26.0424C149.109 26.5665 148.754 27.1699 148.511 27.8527V37.7933H144.144V13.8099H148.511V23.9252C149.188 22.8401 150.072 21.9985 151.157 21.3897C152.242 20.781 153.428 20.4793 154.725 20.4793C155.842 20.4793 156.757 20.6646 157.467 21.0298C158.176 21.4003 158.727 21.9085 159.108 22.5542C159.489 23.2053 159.759 23.9252 159.912 24.7139C160.066 25.5025 160.14 26.3124 160.14 27.1328V37.7933H160.145Z" fill="#031838"/>
<path d="M162.802 32.7648C162.802 31.6585 163.115 30.6952 163.739 29.8747C164.364 29.0543 165.227 28.4085 166.333 27.9427C167.439 27.4769 168.725 27.244 170.192 27.244C170.917 27.244 171.647 27.2969 172.393 27.4081C173.14 27.5193 173.786 27.6939 174.331 27.9321V26.9846C174.331 25.9313 174.013 25.1161 173.378 24.5339C172.743 23.9516 171.79 23.6605 170.52 23.6605C169.556 23.6605 168.646 23.8246 167.794 24.1528C166.942 24.481 166.042 24.9521 165.099 25.5661L163.718 22.7078C164.835 21.9402 165.989 21.3792 167.185 21.0139C168.381 20.654 169.63 20.474 170.948 20.474C173.399 20.474 175.31 21.0722 176.681 22.2737C178.052 23.47 178.735 25.2061 178.735 27.4716V32.8812C178.735 33.3365 178.819 33.6593 178.984 33.8552C179.148 34.051 179.418 34.1675 179.788 34.2098V37.7933C179.391 37.8568 179.036 37.9151 178.719 37.9574C178.401 37.9998 178.131 38.0103 177.914 37.9892C177.036 37.9892 176.374 37.7986 175.929 37.4122C175.479 37.0311 175.209 36.5547 175.125 35.9831L175.024 35.0938C174.257 36.0572 173.315 36.8035 172.198 37.3275C171.081 37.8515 169.943 38.1162 168.784 38.1162C167.646 38.1162 166.619 37.878 165.713 37.4016C164.803 36.9252 164.094 36.2848 163.58 35.4696C163.062 34.6651 162.802 33.7652 162.802 32.7648ZM173.516 33.5905C173.754 33.3788 173.955 33.13 174.108 32.8548C174.262 32.5795 174.336 32.3413 174.336 32.1508V30.4517C173.812 30.2399 173.24 30.0706 172.626 29.9541C172.012 29.8377 171.43 29.7794 170.885 29.7794C169.747 29.7794 168.81 30.0176 168.074 30.4993C167.338 30.981 166.973 31.6162 166.973 32.4049C166.973 32.8336 167.095 33.2412 167.333 33.6382C167.571 34.0352 167.921 34.3475 168.371 34.5856C168.821 34.8185 169.371 34.9403 170.027 34.9403C170.684 34.9403 171.33 34.8133 171.965 34.5539C172.605 34.2945 173.119 33.9769 173.516 33.5905Z" fill="#031838"/>
<path d="M193 36.9411C192.608 37.1158 192.153 37.2958 191.634 37.481C191.121 37.6663 190.56 37.8198 189.956 37.9415C189.353 38.0633 188.744 38.1215 188.136 38.1215C187.304 38.1215 186.548 37.9786 185.87 37.698C185.193 37.4175 184.647 36.9676 184.245 36.3483C183.837 35.729 183.636 34.9191 183.636 33.924V24.0946H181.403V20.744H183.636V15.1597H188.072V20.744H191.687V24.0946H188.072V32.4313C188.093 33.0136 188.257 33.4423 188.564 33.7123C188.871 33.9822 189.263 34.1198 189.745 34.1198C190.184 34.1198 190.618 34.0352 191.057 33.8711C191.497 33.707 191.857 33.5588 192.142 33.4264L193 36.9411Z" fill="#031838"/>
<path d="M62.8088 16.8323V13.8099H64.4497V16.8323H62.8088ZM62.8088 37.7933V20.7122H64.4497V37.7933H62.8088Z" fill="#031838"/>
<path d="M83.5687 37.7933H81.9278V28.308C81.9278 26.1272 81.6155 24.5286 80.9909 23.5176C80.3663 22.5013 79.3765 21.9932 78.0162 21.9932C77.0528 21.9932 76.1053 22.2208 75.1737 22.6813C74.2421 23.1365 73.4323 23.7664 72.7442 24.5604C72.056 25.3544 71.5532 26.2542 71.2515 27.2599V37.7933H69.6106V20.744H71.1562V24.8356C71.6167 23.9623 72.2307 23.2053 72.9982 22.5596C73.7657 21.9138 74.6179 21.4109 75.5601 21.0351C76.5023 20.6646 77.4763 20.4793 78.482 20.4793C79.4242 20.4793 80.2181 20.6487 80.8639 20.9875C81.5097 21.3263 82.0337 21.8132 82.4413 22.4431C82.8488 23.0783 83.1347 23.8617 83.3146 24.7986C83.4893 25.7355 83.5793 26.8047 83.5793 28.0062V37.7933H83.5687Z" fill="#031838"/>
<path d="M93.3929 37.7933L86.2629 20.744H88.0044L94.2768 36.0572L100.586 20.744H102.227L95.1026 37.7933H93.3929Z" fill="#031838"/>
<path d="M112.057 38.1215C110.85 38.1215 109.738 37.8939 108.722 37.4334C107.706 36.9729 106.822 36.3377 106.075 35.5173C105.329 34.6968 104.752 33.7546 104.334 32.6854C103.916 31.6162 103.709 30.494 103.709 29.3136C103.709 28.1121 103.916 26.9846 104.334 25.926C104.752 24.8674 105.334 23.9305 106.091 23.11C106.848 22.2896 107.732 21.6491 108.754 21.178C109.77 20.7069 110.871 20.474 112.057 20.474C113.237 20.474 114.333 20.7069 115.344 21.178C116.349 21.6491 117.239 22.2896 118.006 23.11C118.774 23.9305 119.366 24.8674 119.779 25.926C120.197 26.9846 120.404 28.1121 120.404 29.3136C120.404 30.494 120.197 31.6162 119.779 32.6854C119.361 33.7546 118.779 34.6968 118.022 35.5173C117.265 36.3377 116.381 36.9729 115.36 37.4334C114.338 37.8939 113.237 38.1215 112.057 38.1215ZM105.355 29.3825C105.355 30.711 105.657 31.9285 106.261 33.0295C106.864 34.1304 107.669 35.0091 108.674 35.6602C109.68 36.3165 110.797 36.6394 112.025 36.6394C113.253 36.6394 114.375 36.3059 115.391 35.6443C116.408 34.9773 117.217 34.0828 117.821 32.9606C118.424 31.8385 118.726 30.6105 118.726 29.2819C118.726 27.9533 118.424 26.7306 117.821 25.619C117.217 24.5074 116.408 23.6182 115.391 22.9512C114.375 22.2843 113.263 21.9508 112.057 21.9508C110.829 21.9508 109.712 22.2896 108.706 22.9671C107.7 23.6446 106.885 24.5392 106.276 25.6508C105.657 26.7676 105.355 28.0115 105.355 29.3825Z" fill="#031838"/>
<path fill-rule="evenodd" clip-rule="evenodd" d="M39.2436 4.74796C39.2436 5.79072 38.3967 6.63763 37.354 6.63233C36.3112 6.63233 35.4643 5.78542 35.4696 4.74267C35.4696 3.69991 36.3165 2.85829 37.3593 2.85829C38.3967 2.85829 39.2436 3.7052 39.2436 4.74796ZM41.128 4.92263C41.0645 6.2724 40.2864 7.48983 39.0849 8.10913C48.8666 15.3608 50.9204 29.1654 43.674 38.9472C36.4277 48.729 22.6231 50.7828 12.8413 43.5364C3.05417 36.29 1.00041 22.4801 8.25207 12.6983C14.0799 4.82736 24.4122 1.75202 33.6011 5.14495C33.5905 5.01262 33.5799 4.88029 33.5799 4.74796C33.5799 3.53582 34.1622 2.39779 35.1414 1.68321C32.2037 0.566346 29.0807 -0.00531779 25.9313 -2.46111e-05C11.6132 -2.46111e-05 0 11.6238 0 25.9683C0 40.3129 11.6132 51.9367 25.9313 51.9367C40.2494 51.9367 51.8626 40.3129 51.8626 25.9683C51.8732 17.6369 47.8768 9.80824 41.128 4.92263Z" fill="#0072FF"/>
<path fill-rule="evenodd" clip-rule="evenodd" d="M36.163 12.8042H15.7049C14.0005 12.8042 12.6243 14.1858 12.6243 15.8849V29.626C12.6243 31.3304 14.0058 32.7066 15.7049 32.7066H20.5429C20.7546 32.7066 20.924 32.876 20.924 33.0877V38.7938C20.924 39.0584 21.2204 39.2119 21.4374 39.0637L30.5946 32.659C30.6581 32.6113 30.7375 32.5901 30.8116 32.5901H36.1578C37.8622 32.5901 39.2384 31.2086 39.2384 29.5095V15.8902C39.2437 14.1858 37.8622 12.8042 36.163 12.8042ZM20.6752 23.8352C19.7754 23.8352 19.0449 23.1048 19.0449 22.2049C19.0449 21.3051 19.7754 20.5746 20.6752 20.5746C21.575 20.5746 22.3055 21.3051 22.3055 22.2049C22.3055 23.1048 21.575 23.8352 20.6752 23.8352ZM25.9313 23.8352C25.0315 23.8352 24.301 23.1048 24.301 22.2049C24.301 21.3051 25.0315 20.5746 25.9313 20.5746C26.8312 20.5746 27.5616 21.3051 27.5616 22.2049C27.5669 23.1048 26.8312 23.8352 25.9313 23.8352ZM31.1875 23.8352C30.2876 23.8352 29.5572 23.1048 29.5572 22.2049C29.5572 21.3051 30.2876 20.5746 31.1875 20.5746C32.0873 20.5746 32.8178 21.3051 32.8178 22.2049C32.8178 23.1048 32.0873 23.8352 31.1875 23.8352Z" fill="#0072FF"/>
</g>
<defs>
<clipPath id="clip0_236_223">
<rect width="193" height="51.9367" fill="white"/>
</clipPath>
</defs>
</svg>
