<svg width="43" height="42" viewBox="0 0 43 42" fill="none" xmlns="http://www.w3.org/2000/svg">
<path d="M38.8049 31.5C41.1122 31.5 43 29.61 43 27.3V4.2C43 1.89 41.1122 0 38.8049 0H16.7805C17.4098 1.26 17.8293 2.73 17.8293 4.2H38.8049V27.3H19.9268V31.5M28.3171 10.5V14.7H15.7317V42H11.5366V29.4H7.34146V42H3.14634V25.2H0V14.7C0 12.39 1.8878 10.5 4.19512 10.5H28.3171ZM13.6341 4.2C13.6341 6.51 11.7463 8.4 9.43902 8.4C7.13171 8.4 5.2439 6.51 5.2439 4.2C5.2439 1.89 7.13171 0 9.43902 0C11.7463 0 13.6341 1.89 13.6341 4.2ZM32.5122 8.4H36.7073V25.2H32.5122V8.4ZM26.2195 16.8H30.4146V25.2H26.2195V16.8ZM19.9268 16.8H24.122V25.2H19.9268V16.8Z" fill="#0072FF"/>
</svg>
