<svg width="61" height="61" viewBox="0 0 61 61" fill="none" xmlns="http://www.w3.org/2000/svg">
<g filter="url(#filter0_d_6_7)">
<circle cx="27.5" cy="27.5" r="22.5" fill="#0072FF"/>
</g>
<mask id="path-2-inside-1_6_7" fill="white">
<path d="M31.4592 39.3952L25.3316 40.9732C24.895 41.0856 24.4422 40.8343 24.3252 40.4147C24.2082 39.9952 24.4697 39.56 24.9062 39.4476L31.0338 37.8697C31.4703 37.7573 31.9232 38.0085 32.0402 38.4281C32.1572 38.8476 31.8957 39.2828 31.4592 39.3952ZM28.622 21.2979C28.5671 22.0158 28.1446 22.4204 27.4886 22.4101C26.8355 22.4 26.3602 21.9698 26.3759 21.3148C26.3911 20.6774 26.8069 20.2587 27.5143 20.2661C28.2212 20.2735 28.5716 20.6749 28.622 21.2979ZM36.4777 18.8785C34.0401 15.0093 29.212 13.1293 24.7266 14.3888C20.8013 15.491 18.2419 17.9819 17.3113 21.8127C16.3902 25.6043 17.5367 28.8656 20.4384 31.5968C21.1189 32.2373 21.7446 33.0132 22.1282 33.8411C22.5128 34.671 22.6361 34.9305 23.5729 34.7126C24.874 34.4101 26.1576 34.0384 27.4584 33.7348C28.1252 33.5791 28.3786 33.2213 28.3742 32.5752C28.3564 29.9677 28.3624 27.36 28.3722 24.7525C28.3744 24.1622 28.1814 23.6762 27.5206 23.6615C26.8516 23.6465 26.6469 24.1163 26.6524 24.718C26.6679 26.4086 26.6571 28.0993 26.657 29.7899C26.6569 32.5096 26.657 32.5096 23.8744 32.9003C22.8166 31.7354 21.8533 30.6883 20.9055 29.6284C17.5036 25.8243 18.1257 20.2008 22.3715 17.2882C25.4218 15.1956 28.6986 15.0792 31.9655 16.846C34.9989 18.4866 36.6492 21.8666 36.2118 25.1363C35.9196 27.3206 34.8343 29.0641 33.2246 30.5629C32.2531 31.4675 31.3679 32.4414 31.0493 33.7493C30.9002 34.3611 30.5433 34.6645 29.9267 34.8106C30.0419 34.7076 23.2802 36.5284 23.2802 36.5284C22.8524 36.6386 22.5962 37.0651 22.7109 37.4761L22.7285 37.5397C22.8431 37.9508 23.2869 38.197 23.7146 38.0869C23.7146 38.0869 31.4731 36.0833 31.5748 36.0556C32.2933 35.8649 32.6843 35.3734 32.7007 34.6718C32.7252 33.6243 33.1987 32.8091 33.9694 32.1131C34.3819 31.7405 34.7927 31.3646 35.1809 30.969C38.3855 27.7026 38.9143 22.7464 36.4777 18.8785V18.8785Z"/>
</mask>
<path d="M31.4592 39.3952L25.3316 40.9732C24.895 41.0856 24.4422 40.8343 24.3252 40.4147C24.2082 39.9952 24.4697 39.56 24.9062 39.4476L31.0338 37.8697C31.4703 37.7573 31.9232 38.0085 32.0402 38.4281C32.1572 38.8476 31.8957 39.2828 31.4592 39.3952ZM28.622 21.2979C28.5671 22.0158 28.1446 22.4204 27.4886 22.4101C26.8355 22.4 26.3602 21.9698 26.3759 21.3148C26.3911 20.6774 26.8069 20.2587 27.5143 20.2661C28.2212 20.2735 28.5716 20.6749 28.622 21.2979ZM36.4777 18.8785C34.0401 15.0093 29.212 13.1293 24.7266 14.3888C20.8013 15.491 18.2419 17.9819 17.3113 21.8127C16.3902 25.6043 17.5367 28.8656 20.4384 31.5968C21.1189 32.2373 21.7446 33.0132 22.1282 33.8411C22.5128 34.671 22.6361 34.9305 23.5729 34.7126C24.874 34.4101 26.1576 34.0384 27.4584 33.7348C28.1252 33.5791 28.3786 33.2213 28.3742 32.5752C28.3564 29.9677 28.3624 27.36 28.3722 24.7525C28.3744 24.1622 28.1814 23.6762 27.5206 23.6615C26.8516 23.6465 26.6469 24.1163 26.6524 24.718C26.6679 26.4086 26.6571 28.0993 26.657 29.7899C26.6569 32.5096 26.657 32.5096 23.8744 32.9003C22.8166 31.7354 21.8533 30.6883 20.9055 29.6284C17.5036 25.8243 18.1257 20.2008 22.3715 17.2882C25.4218 15.1956 28.6986 15.0792 31.9655 16.846C34.9989 18.4866 36.6492 21.8666 36.2118 25.1363C35.9196 27.3206 34.8343 29.0641 33.2246 30.5629C32.2531 31.4675 31.3679 32.4414 31.0493 33.7493C30.9002 34.3611 30.5433 34.6645 29.9267 34.8106C30.0419 34.7076 23.2802 36.5284 23.2802 36.5284C22.8524 36.6386 22.5962 37.0651 22.7109 37.4761L22.7285 37.5397C22.8431 37.9508 23.2869 38.197 23.7146 38.0869C23.7146 38.0869 31.4731 36.0833 31.5748 36.0556C32.2933 35.8649 32.6843 35.3734 32.7007 34.6718C32.7252 33.6243 33.1987 32.8091 33.9694 32.1131C34.3819 31.7405 34.7927 31.3646 35.1809 30.969C38.3855 27.7026 38.9143 22.7464 36.4777 18.8785V18.8785Z" fill="white"/>
<path d="M25.3316 40.9732L29.0708 55.4997L29.0722 55.4993L25.3316 40.9732ZM24.3252 40.4147L9.87598 44.4422L9.87641 44.4438L24.3252 40.4147ZM24.9062 39.4476L28.6459 53.974L28.6468 53.9737L24.9062 39.4476ZM31.0338 37.8697L27.2946 23.3432L27.2931 23.3436L31.0338 37.8697ZM32.0402 38.4281L17.5914 42.4571L17.592 42.4592L32.0402 38.4281ZM28.622 21.2979L43.5784 22.4414L43.6684 21.2639L43.5731 20.0868L28.622 21.2979ZM27.4886 22.4101L27.723 7.41197L27.7211 7.41194L27.4886 22.4101ZM26.3759 21.3148L41.3716 21.6736L41.3716 21.6728L26.3759 21.3148ZM27.5143 20.2661L27.3566 35.2653L27.3591 35.2653L27.5143 20.2661ZM36.4777 18.8785L23.7863 26.8741L51.4777 70.8286V18.8785H36.4777ZM24.7266 14.3888L20.6716 -0.0527325L20.6714 -0.0526648L24.7266 14.3888ZM17.3113 21.8127L31.8873 25.3538L31.8874 25.3537L17.3113 21.8127ZM20.4384 31.5968L30.7196 20.6745L30.7192 20.6741L20.4384 31.5968ZM22.1282 33.8411L8.51827 40.1474L8.51876 40.1484L22.1282 33.8411ZM23.5729 34.7126L20.1753 20.1025L20.175 20.1026L23.5729 34.7126ZM27.4584 33.7348L30.8687 48.3419L30.8687 48.3419L27.4584 33.7348ZM28.3742 32.5752L13.3745 32.6777L13.3745 32.6779L28.3742 32.5752ZM28.3722 24.7525L43.3721 24.8093L43.3721 24.807L28.3722 24.7525ZM27.5206 23.6615L27.1857 38.6577L27.1858 38.6577L27.5206 23.6615ZM26.6524 24.718L41.6518 24.5807L41.6518 24.5786L26.6524 24.718ZM26.657 29.7899L11.657 29.7887V29.7895L26.657 29.7899ZM23.8744 32.9003L12.7699 42.9844L18.1036 48.8579L25.9604 47.7546L23.8744 32.9003ZM20.9055 29.6284L32.0868 19.6294L32.0868 19.6294L20.9055 29.6284ZM22.3715 17.2882L30.8567 29.6576L30.857 29.6574L22.3715 17.2882ZM31.9655 16.846L39.1015 3.65215L39.1011 3.65195L31.9655 16.846ZM36.2118 25.1363L21.3442 23.1474L21.3442 23.1474L36.2118 25.1363ZM33.2246 30.5629L23.0029 19.585L23.0027 19.5851L33.2246 30.5629ZM31.0493 33.7493L45.6229 37.3002L45.623 37.3L31.0493 33.7493ZM29.9267 34.8106L19.9339 23.6237L33.384 49.4067L29.9267 34.8106ZM23.2802 36.5284L27.0197 51.0548L27.1002 51.0341L27.1805 51.0125L23.2802 36.5284ZM22.7109 37.4761L37.1655 33.4683L37.1625 33.4572L37.1594 33.4462L22.7109 37.4761ZM22.7285 37.5397L8.27381 41.5475L8.27689 41.5586L8.27998 41.5697L22.7285 37.5397ZM23.7146 38.0869L27.4542 52.6133L27.4654 52.6104L23.7146 38.0869ZM31.5748 36.0556L27.7281 21.5572L27.6815 21.5696L27.6349 21.5822L31.5748 36.0556ZM32.7007 34.6718L47.6966 35.022L47.6966 35.0218L32.7007 34.6718ZM33.9694 32.1131L44.0227 43.2456L44.0234 43.2449L33.9694 32.1131ZM35.1809 30.969L45.8861 41.4762L45.8885 41.4737L35.1809 30.969ZM36.4777 18.8785L49.1693 10.8832L21.4777 -33.0743V18.8785H36.4777ZM27.7185 24.8692L21.5909 26.4471L29.0722 55.4993L35.1998 53.9213L27.7185 24.8692ZM21.5924 26.4467C28.6037 24.6419 36.5713 28.4868 38.7739 36.3857L9.87641 44.4438C12.313 53.1818 21.1863 57.5292 29.0708 55.4997L21.5924 26.4467ZM38.7744 36.3872C41.0458 44.5364 35.8579 52.1173 28.6459 53.974L21.1665 24.9213C13.0815 27.0027 7.37067 35.4541 9.87598 44.4422L38.7744 36.3872ZM28.6468 53.9737L34.7744 52.3958L27.2931 23.3436L21.1655 24.9215L28.6468 53.9737ZM34.773 52.3962C27.7635 54.2004 19.7945 50.3578 17.5914 42.4571L46.4889 34.399C44.0518 25.6592 35.1772 21.3142 27.2946 23.3432L34.773 52.3962ZM17.592 42.4592C15.3164 34.303 20.5124 26.7254 27.7175 24.8694L35.2008 53.9211C43.2789 51.8403 48.9981 43.3923 46.4884 34.397L17.592 42.4592ZM13.6657 20.1543C13.8409 17.8623 14.7606 14.3592 17.8098 11.3866C20.9724 8.30326 24.8113 7.36648 27.723 7.41197L27.2543 37.4083C30.822 37.4641 35.2001 36.3301 38.7517 32.8676C42.1899 29.5157 43.3482 25.4514 43.5784 22.4414L13.6657 20.1543ZM27.7211 7.41194C30.618 7.45685 34.1507 8.47969 37.0729 11.2868C40.1166 14.2106 41.4573 18.0919 41.3716 21.6736L11.3802 20.956C11.2788 25.1927 12.8493 29.6166 16.29 32.9218C19.6092 36.1103 23.7061 37.3533 27.2561 37.4083L27.7211 7.41194ZM41.3716 21.6728C41.302 24.5894 40.214 28.4053 36.9828 31.4558C33.7738 34.4853 30.009 35.2932 27.3566 35.2653L27.672 5.26697C24.3122 5.23165 19.9857 6.24514 16.3882 9.64148C12.7684 13.0589 11.465 17.4028 11.3801 20.9567L41.3716 21.6728ZM27.3591 35.2653C24.8493 35.2394 21.0331 34.427 17.7998 31.249C14.6873 28.1898 13.8427 24.6288 13.671 22.509L43.5731 20.0868C43.3509 17.344 42.3059 13.2708 38.8289 9.85329C35.231 6.31702 30.8861 5.30022 27.6694 5.26695L27.3591 35.2653ZM49.1691 10.8829C43.1833 1.38179 31.5356 -3.10318 20.6716 -0.0527325L28.7816 28.8303C26.8884 29.3619 24.8968 28.6368 23.7863 26.8741L49.1691 10.8829ZM20.6714 -0.0526648C11.9978 2.38293 5.05692 8.71482 2.73525 18.2717L31.8874 25.3537C31.762 25.8696 31.3673 26.8247 30.4706 27.716C29.6133 28.5682 28.8537 28.81 28.7818 28.8302L20.6714 -0.0526648ZM2.73527 18.2716C0.391668 27.9186 3.80864 36.5436 10.1576 42.5194L30.7192 20.6741C30.7252 20.6797 31.305 21.2395 31.6959 22.4326C32.1115 23.7013 32.0222 24.7987 31.8873 25.3538L2.73527 18.2716ZM10.1572 42.5191C9.98031 42.3525 9.74899 42.1122 9.49051 41.7751C9.23872 41.4467 8.87125 40.9092 8.51827 40.1474L35.7382 27.5349C34.3178 24.4693 32.3264 22.1869 30.7196 20.6745L10.1572 42.5191ZM8.51876 40.1484C8.51948 40.15 8.91591 41.0386 9.42784 41.9162C9.97447 42.8532 11.3245 45.0003 13.8686 46.8353C19.8437 51.1452 26.1112 49.5226 26.9709 49.3227L20.175 20.1026C20.4548 20.0375 21.8161 19.7171 23.6741 19.8C25.915 19.8999 28.7507 20.58 31.4185 22.5043C33.7665 24.1979 34.9551 26.1381 35.3411 26.7999C35.6925 27.4022 35.9293 27.9472 35.7377 27.5338L8.51876 40.1484ZM26.9706 49.3228C27.8491 49.1185 28.6881 48.8987 29.3048 48.7377C29.9856 48.5599 30.441 48.4418 30.8687 48.3419L24.0481 19.1276C23.175 19.3314 22.3382 19.5509 21.7267 19.7106C21.0512 19.8869 20.5978 20.0042 20.1753 20.1025L26.9706 49.3228ZM30.8687 48.3419C33.1551 47.8081 37.05 46.3877 40.05 42.4941C43.0114 38.6507 43.3885 34.6087 43.3738 32.4725L13.3745 32.6779C13.3643 31.1877 13.6169 27.6477 16.286 24.1836C18.9938 20.6694 22.4285 19.5057 24.0481 19.1276L30.8687 48.3419ZM43.3738 32.4727C43.3566 29.9496 43.3623 27.4088 43.3721 24.8093L13.3723 24.6956C13.3624 27.3113 13.3561 29.9858 13.3745 32.6777L43.3738 32.4727ZM43.3721 24.807C43.3775 23.3268 43.2326 19.5302 40.7 15.7071C37.4867 10.8565 32.387 8.76634 27.8553 8.66519L27.1858 38.6577C25.5255 38.6207 23.356 38.2643 21.0934 37.1052C18.7647 35.9122 16.9526 34.1811 15.69 32.2751C13.4186 28.8464 13.3691 25.5878 13.3723 24.6979L43.3721 24.807ZM27.8554 8.66519C23.5091 8.56814 18.0993 10.3004 14.5621 15.3323C11.7741 19.2985 11.6389 23.3255 11.6531 24.8574L41.6518 24.5786C41.6604 25.5088 41.6248 29 39.105 32.5846C37.7035 34.5785 35.7331 36.2915 33.2985 37.3959C30.9573 38.4579 28.7768 38.6932 27.1857 38.6577L27.8554 8.66519ZM11.6531 24.8553C11.6677 26.4551 11.6571 27.9704 11.657 29.7887L41.657 29.791C41.6571 28.2281 41.6681 26.362 41.6518 24.5807L11.6531 24.8553ZM11.657 29.7895C11.657 30.8298 11.6346 30.3426 11.7065 29.7002C11.7887 28.9661 12.208 25.4835 15.1296 22.2176C17.9818 19.0292 21.2954 18.2167 21.8583 18.0765C22.4117 17.9387 22.8196 17.9013 21.7885 18.0461L25.9604 47.7546C26.3205 47.704 27.7719 47.5201 29.1079 47.1874C30.4534 46.8523 34.2887 45.7965 37.4887 42.2193C40.7581 38.5646 41.3513 34.5476 41.5205 33.0364C41.6793 31.6169 41.657 30.1098 41.657 29.7902L11.657 29.7895ZM34.979 22.8162C33.8326 21.5539 32.9865 20.6356 32.0868 19.6294L9.7242 39.6273C10.7201 40.741 11.8006 41.917 12.7699 42.9844L34.979 22.8162ZM32.0868 19.6294C33.2146 20.8906 33.9102 22.7925 33.6703 24.8559C33.428 26.9407 32.2886 28.6753 30.8567 29.6576L13.8863 4.91884C2.07497 13.0212 0.377386 29.1753 9.72422 39.6273L32.0868 19.6294ZM30.857 29.6574C30.3612 29.9975 29.2705 30.5392 27.7377 30.6057C26.2324 30.6711 25.1988 30.2396 24.8299 30.0401L39.1011 3.65195C31.0795 -0.68626 21.7564 -0.480169 13.8861 4.91902L30.857 29.6574ZM24.8296 30.0399C22.3152 28.68 20.9657 25.9769 21.3442 23.1474L51.0793 27.1253C52.3327 17.7564 47.6826 8.29327 39.1015 3.65215L24.8296 30.0399ZM21.3442 23.1474C21.4612 22.2727 21.7587 21.4214 22.1692 20.6986C22.5545 20.0202 22.9213 19.6609 23.0029 19.585L43.4464 41.5409C46.951 38.2777 50.2213 33.5394 51.0793 27.1252L21.3442 23.1474ZM23.0027 19.5851C21.7533 20.7485 17.9128 24.2997 16.4756 30.1986L45.623 37.3C45.2112 38.9901 44.4825 40.2034 43.9747 40.8937C43.5304 41.4977 43.1949 41.775 43.4465 41.5408L23.0027 19.5851ZM16.4756 30.1984C16.9417 28.2855 18.0602 25.6729 20.4932 23.4288C22.8017 21.2994 25.2063 20.5136 26.4693 20.2144L33.384 49.4067C35.2637 48.9614 38.1551 47.9509 40.8334 45.4804C43.6363 42.895 45.0077 39.8249 45.6229 37.3002L16.4756 30.1984ZM39.9194 45.9974C40.1794 45.7651 44.1236 42.514 44.825 36.5646C45.2764 32.7347 44.2363 28.8648 41.8988 25.7691C39.8618 23.0712 37.4452 21.7468 36.1276 21.1487C33.6546 20.026 31.4979 19.882 31.034 19.8476C30.2167 19.7869 29.5663 19.807 29.2393 19.8218C28.1473 19.8712 27.2673 20.0406 27.2447 20.0446C26.8083 20.1222 26.4323 20.2088 26.3161 20.2355C25.9734 20.3143 25.5862 20.4107 25.2589 20.4934C24.5628 20.6695 23.6668 20.9037 22.8189 21.1275C21.9588 21.3545 21.0997 21.5836 20.4586 21.755C20.1373 21.841 19.869 21.913 19.6805 21.9636C19.5862 21.9889 19.5118 22.0089 19.4606 22.0227C19.435 22.0296 19.4152 22.0349 19.4016 22.0385C19.3948 22.0404 19.3896 22.0418 19.3859 22.0428C19.3841 22.0432 19.3827 22.0436 19.3817 22.0439C19.3812 22.044 19.3808 22.0441 19.3805 22.0442C19.3803 22.0443 19.3802 22.0443 19.3801 22.0443C19.38 22.0444 19.3799 22.0444 23.2802 36.5284C27.1805 51.0125 27.1804 51.0125 27.1804 51.0125C27.1804 51.0125 27.1804 51.0125 27.1805 51.0125C27.1806 51.0125 27.1808 51.0124 27.1811 51.0123C27.1817 51.0121 27.1828 51.0119 27.1842 51.0115C27.1871 51.0107 27.1915 51.0095 27.1975 51.0079C27.2095 51.0047 27.2277 50.9998 27.2516 50.9934C27.2994 50.9805 27.3701 50.9615 27.4605 50.9372C27.6413 50.8887 27.9004 50.8192 28.2112 50.736C28.8343 50.5693 29.6584 50.3496 30.4743 50.1343C31.3025 49.9157 32.0753 49.7141 32.6146 49.5777C32.7457 49.5445 32.8505 49.5184 32.9304 49.4988C33.0164 49.4777 33.045 49.4712 33.0322 49.4741C33.0251 49.4757 32.9834 49.4853 32.9177 49.4993C32.8683 49.5099 32.7115 49.5431 32.4973 49.5812C32.3898 49.6003 32.1988 49.633 31.9569 49.6665C31.7754 49.6917 31.2616 49.761 30.5962 49.7911C30.2738 49.8057 29.6274 49.8257 28.8132 49.7653C28.3524 49.7311 26.198 49.5876 23.7265 48.4656C22.4097 47.8678 19.9937 46.5438 17.957 43.8464C15.6199 40.7511 14.5798 36.8818 15.0313 33.0524C15.4244 29.7174 16.8254 27.3674 17.6487 26.194C18.5256 24.9443 19.4116 24.0903 19.9339 23.6237L39.9194 45.9974ZM19.5406 22.002C11.4649 24.081 5.75714 32.5242 8.26236 41.5061L37.1594 33.4462C39.4353 41.6059 34.2399 49.1961 27.0197 51.0548L19.5406 22.002ZM8.25619 41.4839L8.27381 41.5475L37.1832 33.5319L37.1655 33.4683L8.25619 41.4839ZM8.27998 41.5697C10.7143 50.2973 19.5772 54.641 27.4542 52.6133L19.9751 23.5605C26.9965 21.753 34.972 25.6042 37.177 33.5097L8.27998 41.5697ZM23.7146 38.0869C27.4654 52.6104 27.4654 52.6104 27.4655 52.6104C27.4655 52.6103 27.4656 52.6103 27.4657 52.6103C27.466 52.6102 27.4663 52.6101 27.4668 52.61C27.4677 52.6098 27.4691 52.6094 27.471 52.6089C27.4747 52.608 27.4803 52.6065 27.4877 52.6046C27.5024 52.6008 27.5242 52.5952 27.5526 52.5878C27.6095 52.5732 27.6929 52.5516 27.7991 52.5242C28.0115 52.4693 28.3151 52.3909 28.6796 52.2968C29.4087 52.1085 30.382 51.8571 31.3585 51.6048C33.1918 51.1312 35.3388 50.5768 35.5147 50.5289L27.6349 21.5822C27.7091 21.562 25.926 22.0233 23.8546 22.5584C22.8788 22.8105 21.9062 23.0617 21.1774 23.25C20.813 23.3441 20.5096 23.4224 20.2973 23.4773C20.1912 23.5047 20.1078 23.5262 20.051 23.5409C20.0226 23.5482 20.0008 23.5538 19.9862 23.5576C19.9788 23.5595 19.9733 23.561 19.9695 23.5619C19.9677 23.5624 19.9663 23.5628 19.9653 23.563C19.9649 23.5631 19.9645 23.5632 19.9643 23.5633C19.9642 23.5633 19.9641 23.5633 19.964 23.5633C19.964 23.5634 19.9639 23.5634 23.7146 38.0869ZM35.4214 50.554C38.2451 49.8048 41.5072 48.1488 44.0634 44.9887C46.6474 41.7941 47.6234 38.1558 47.6966 35.022L17.7048 34.3215C17.7616 31.8893 18.5339 28.8476 20.7387 26.1218C22.9156 23.4306 25.623 22.1157 27.7281 21.5572L35.4214 50.554ZM47.6966 35.0218C47.6558 36.7716 47.2109 38.5401 46.3831 40.143C45.5954 41.6685 44.6531 42.6763 44.0227 43.2456L23.9161 20.9807C20.8846 23.7183 17.8479 28.1896 17.7048 34.3217L47.6966 35.0218ZM44.0234 43.2449C44.45 42.8596 45.1543 42.2217 45.8861 41.4762L24.4758 20.4619C24.4311 20.5074 24.3138 20.6214 23.9153 20.9813L44.0234 43.2449ZM45.8885 41.4737C53.9637 33.2425 55.309 20.6294 49.1693 10.8832L23.7861 26.8737C22.5197 24.8634 22.8073 22.1626 24.4734 20.4643L45.8885 41.4737ZM21.4777 18.8785V18.8785H51.4777V18.8785H21.4777Z" fill="white" mask="url(#path-2-inside-1_6_7)"/>
<defs>
<filter id="filter0_d_6_7" x="0" y="0" width="61" height="61" filterUnits="userSpaceOnUse" color-interpolation-filters="sRGB">
<feFlood flood-opacity="0" result="BackgroundImageFix"/>
<feColorMatrix in="SourceAlpha" type="matrix" values="0 0 0 0 0 0 0 0 0 0 0 0 0 0 0 0 0 0 127 0" result="hardAlpha"/>
<feOffset dx="3" dy="3"/>
<feGaussianBlur stdDeviation="4"/>
<feComposite in2="hardAlpha" operator="out"/>
<feColorMatrix type="matrix" values="0 0 0 0 0 0 0 0 0 0.447059 0 0 0 0 1 0 0 0 0.27 0"/>
<feBlend mode="normal" in2="BackgroundImageFix" result="effect1_dropShadow_6_7"/>
<feBlend mode="normal" in="SourceGraphic" in2="effect1_dropShadow_6_7" result="shape"/>
</filter>
</defs>
</svg>
