<?xml version="1.0" encoding="utf-8"?>
<!-- Generator: Adobe Illustrator 24.0.1, SVG Export Plug-In . SVG Version: 6.00 Build 0)  -->
<svg version="1.1" id="Layer_1" xmlns="http://www.w3.org/2000/svg" xmlns:xlink="http://www.w3.org/1999/xlink" x="0px" y="0px"
	 viewBox="0 0 364.6 98.1" style="enable-background:new 0 0 364.6 98.1;" xml:space="preserve">
<style type="text/css">
	.st0{fill:#031838;}
	.st1{fill-rule:evenodd;clip-rule:evenodd;fill:#031838;}
	.st2{fill:#1476FB;}
	.st3{fill:#F8B830;}
	.st4{fill:none;stroke:#031838;stroke-width:1.5;stroke-miterlimit:10;}
</style>
<g>
	<g>
		<g>
			<path class="st0" d="M252.5,72c-2.7,0-5.1-0.4-7.2-1.3s-3.9-2.1-5.4-3.7c-1.5-1.6-2.6-3.4-3.4-5.4c-0.8-2-1.2-4.1-1.2-6.3
				c0-3,0.7-5.8,2.1-8.3c1.4-2.5,3.3-4.6,5.9-6.1c2.6-1.5,5.6-2.3,9.1-2.3c3.5,0,6.5,0.8,9.1,2.3c2.5,1.5,4.4,3.5,5.6,6l-8.1,2.5
				c-0.7-1.2-1.6-2.1-2.8-2.8c-1.2-0.6-2.5-1-3.9-1c-1.5,0-2.9,0.4-4.2,1.2c-1.3,0.8-2.3,1.9-3.1,3.3c-0.8,1.4-1.1,3.1-1.1,5
				c0,1.9,0.4,3.5,1.1,5c0.8,1.5,1.8,2.6,3.1,3.4c1.3,0.8,2.7,1.2,4.3,1.2c1,0,2-0.2,2.9-0.5c0.9-0.3,1.7-0.8,2.4-1.4
				c0.7-0.6,1.2-1.2,1.6-2l8.1,2.5c-0.8,1.6-1.8,3.1-3.3,4.3c-1.4,1.3-3.1,2.3-5,3C257,71.7,254.9,72,252.5,72z"/>
			<path class="st0" d="M302.5,71.4h-8.3v-18c0-2.5-0.5-4.3-1.5-5.6c-1-1.2-2.3-1.8-4-1.8c-1,0-2,0.3-3.2,0.8
				c-1.1,0.6-2.1,1.3-3,2.3s-1.6,2.1-2,3.4v18.8h-8.2V26.1h8.2v19.1c1.3-2,3-3.6,5-4.8s4.3-1.7,6.7-1.7c2.1,0,3.8,0.3,5.2,1
				c1.3,0.7,2.4,1.7,3.1,2.9c0.7,1.2,1.2,2.6,1.5,4.1c0.3,1.5,0.4,3,0.4,4.6L302.5,71.4L302.5,71.4z"/>
			<path class="st0" d="M307.6,61.9c0-2.1,0.6-3.9,1.8-5.5s2.8-2.8,4.9-3.7s4.5-1.3,7.3-1.3c1.4,0,2.8,0.1,4.2,0.3
				c1.4,0.2,2.6,0.5,3.7,1V51c0-2-0.6-3.5-1.8-4.6c-1.2-1.1-3-1.7-5.4-1.7c-1.8,0-3.5,0.3-5.1,0.9s-3.3,1.5-5.1,2.7l-2.6-5.4
				c2.1-1.5,4.3-2.5,6.5-3.2c2.3-0.7,4.6-1,7.1-1c4.6,0,8.2,1.1,10.8,3.4c2.6,2.3,3.9,5.5,3.9,9.8v10.2c0,0.9,0.2,1.5,0.5,1.8
				c0.3,0.4,0.8,0.6,1.5,0.7v6.8c-0.8,0.1-1.4,0.2-2,0.3c-0.6,0.1-1.1,0.1-1.5,0.1c-1.7,0-2.9-0.4-3.8-1.1c-0.9-0.7-1.4-1.6-1.5-2.7
				l-0.2-1.7c-1.5,1.8-3.2,3.2-5.3,4.2s-4.3,1.5-6.5,1.5c-2.1,0-4.1-0.4-5.8-1.3c-1.7-0.9-3.1-2.1-4-3.7
				C308.1,65.5,307.6,63.8,307.6,61.9z M327.8,63.5c0.5-0.4,0.8-0.9,1.1-1.4s0.4-1,0.4-1.3v-3.2c-1-0.4-2.1-0.7-3.2-0.9
				c-1.2-0.2-2.3-0.3-3.3-0.3c-2.1,0-3.9,0.5-5.3,1.4c-1.4,0.9-2.1,2.1-2.1,3.6c0,0.8,0.2,1.6,0.7,2.3c0.5,0.8,1.1,1.3,2,1.8
				c0.9,0.4,1.9,0.7,3.1,0.7s2.5-0.2,3.7-0.7C326.1,64.8,327.1,64.2,327.8,63.5z"/>
			<path class="st0" d="M364.6,69.8c-0.7,0.3-1.6,0.7-2.6,1c-1,0.3-2,0.6-3.2,0.9s-2.3,0.3-3.4,0.3c-1.6,0-3-0.3-4.3-0.8
				c-1.3-0.5-2.3-1.4-3.1-2.6c-0.8-1.2-1.1-2.7-1.1-4.6V45.5h-4.2v-6.3h4.2V28.6h8.4v10.5h6.8v6.3h-6.8v15.8c0,1.1,0.4,1.9,0.9,2.4
				c0.6,0.5,1.3,0.8,2.2,0.8c0.8,0,1.6-0.2,2.5-0.5c0.8-0.3,1.5-0.6,2-0.8L364.6,69.8z"/>
		</g>
		<g>
			<path class="st0" d="M118.7,31.8v-5.7h3.1v5.7H118.7z M118.7,71.4V39.1h3.1v32.3H118.7z"/>
			<path class="st0" d="M157.9,71.4h-3.1V53.5c0-4.1-0.6-7.1-1.8-9c-1.2-1.9-3.1-2.9-5.6-2.9c-1.8,0-3.6,0.4-5.4,1.3
				c-1.8,0.9-3.3,2-4.6,3.5s-2.2,3.2-2.8,5.1v19.9h-3.1V39.2h2.9v7.7c0.9-1.7,2-3.1,3.5-4.3c1.4-1.2,3.1-2.2,4.8-2.9
				c1.8-0.7,3.6-1,5.5-1c1.8,0,3.3,0.3,4.5,1s2.2,1.6,3,2.8c0.8,1.2,1.3,2.7,1.6,4.5c0.3,1.8,0.5,3.8,0.5,6.1L157.9,71.4L157.9,71.4
				z"/>
			<path class="st0" d="M176.4,71.4L163,39.2h3.3l11.9,28.9L190,39.2h3.1l-13.5,32.2H176.4z"/>
			<path class="st0" d="M211.7,72c-2.3,0-4.4-0.4-6.3-1.3s-3.6-2.1-5-3.6s-2.5-3.3-3.3-5.4c-0.8-2-1.2-4.1-1.2-6.4
				c0-2.3,0.4-4.4,1.2-6.4s1.9-3.8,3.3-5.3c1.4-1.5,3.1-2.8,5-3.7c1.9-0.9,4-1.3,6.2-1.3c2.2,0,4.3,0.4,6.2,1.3
				c1.9,0.9,3.6,2.1,5,3.7c1.4,1.5,2.6,3.3,3.4,5.3c0.8,2,1.2,4.1,1.2,6.4c0,2.2-0.4,4.3-1.2,6.4s-1.9,3.8-3.3,5.4
				c-1.4,1.6-3.1,2.8-5,3.6C216,71.6,213.9,72,211.7,72z M199,55.5c0,2.5,0.6,4.8,1.7,6.9c1.1,2.1,2.7,3.7,4.6,5
				c1.9,1.2,4,1.8,6.3,1.8s4.4-0.6,6.4-1.9c1.9-1.3,3.4-2.9,4.6-5.1c1.1-2.1,1.7-4.4,1.7-7c0-2.5-0.6-4.8-1.7-6.9
				c-1.1-2.1-2.7-3.8-4.6-5c-1.9-1.3-4-1.9-6.3-1.9c-2.3,0-4.4,0.6-6.3,1.9c-1.9,1.3-3.4,3-4.6,5.1C199.6,50.6,199,52.9,199,55.5z"
				/>
		</g>
	</g>
	<g>
		<g>
			<path class="st1" d="M74.1,9c0,2-1.6,3.6-3.6,3.6c-2,0-3.6-1.6-3.6-3.6c0-2,1.6-3.6,3.6-3.6C72.5,5.4,74.1,7,74.1,9L74.1,9
				L74.1,9z M77.7,9.3c-0.1,2.6-1.6,4.8-3.9,6C92.3,29,96.2,55.1,82.5,73.6s-39.8,22.4-58.2,8.7C5.8,68.6,1.9,42.5,15.6,24
				C26.6,9.1,46.1,3.3,63.5,9.7c0-0.2,0-0.5,0-0.8c0-2.3,1.1-4.4,3-5.8C60.8,1.1,54.9,0,49,0C21.9,0,0,22,0,49.1s21.9,49.1,49,49.1
				s49-22,49-49.1C98,33.3,90.4,18.5,77.7,9.3L77.7,9.3z"/>
		</g>
		<g>
			<g>
				<path class="st1" d="M68.3,24.2H29.7c-3.2,0-5.8,2.6-5.8,5.8v26c0,3.2,2.6,5.8,5.8,5.8h9.1c0.4,0,0.7,0.3,0.7,0.7v10.8
					c0,0.5,0.6,0.8,1,0.5l17.3-12.1c0.1-0.1,0.3-0.1,0.4-0.1h10.1c3.2,0,5.8-2.6,5.8-5.8V30C74.1,26.8,71.5,24.2,68.3,24.2z
					 M39.1,45C37.4,45,36,43.7,36,42s1.4-3.1,3.1-3.1s3.1,1.4,3.1,3.1C42.1,43.7,40.8,45,39.1,45z M49,45c-1.7,0-3.1-1.4-3.1-3.1
					s1.4-3.1,3.1-3.1s3.1,1.4,3.1,3.1C52.1,43.7,50.7,45,49,45z M58.9,45c-1.7,0-3.1-1.4-3.1-3.1s1.4-3.1,3.1-3.1S62,40.3,62,42
					C62,43.7,60.6,45,58.9,45z"/>
			</g>
		</g>
	</g>
</g>
<g>
	<g>
		<path class="st0" d="M236.4,83l-1.7,5.7h-1.6l-1-4l-1,4h-1.6l-1.7-5.7h1.5l1,4.3l1.1-4.3h1.5l1.1,4.3l1-4.3H236.4z"/>
		<path class="st0" d="M242.4,86.3h-4.2c0,0.4,0.2,0.7,0.4,1c0.3,0.2,0.6,0.3,0.9,0.3c0.5,0,0.9-0.2,1.1-0.7h1.6
			c-0.2,0.5-0.5,1-0.9,1.4c-0.5,0.4-1,0.5-1.7,0.5c-0.5,0-1-0.1-1.5-0.4c-0.4-0.2-0.8-0.6-1-1c-0.2-0.4-0.4-1-0.4-1.5
			c0-0.6,0.1-1.1,0.4-1.6c0.2-0.4,0.6-0.8,1-1c0.4-0.2,0.9-0.4,1.5-0.4c0.5,0,1,0.1,1.5,0.3c0.4,0.2,0.8,0.6,1,1
			c0.2,0.4,0.4,0.9,0.4,1.5C242.5,86,242.5,86.1,242.4,86.3z M241,85.3c0-0.4-0.1-0.7-0.4-0.9c-0.3-0.2-0.6-0.3-1-0.3
			c-0.4,0-0.7,0.1-0.9,0.3c-0.2,0.2-0.4,0.5-0.4,0.9H241z"/>
		<path class="st0" d="M245.7,83.2c0.3-0.2,0.6-0.3,1-0.3v1.5h-0.4c-0.5,0-0.8,0.1-1,0.3c-0.2,0.2-0.3,0.6-0.3,1.1v2.8h-1.4V83h1.4
			v0.9C245.2,83.6,245.4,83.4,245.7,83.2z"/>
		<path class="st0" d="M252.9,86.3h-4.2c0,0.4,0.2,0.7,0.4,1c0.3,0.2,0.6,0.3,0.9,0.3c0.5,0,0.9-0.2,1.1-0.7h1.6
			c-0.2,0.5-0.5,1-0.9,1.4c-0.5,0.4-1,0.5-1.7,0.5c-0.5,0-1-0.1-1.5-0.4c-0.4-0.2-0.8-0.6-1-1c-0.2-0.4-0.4-1-0.4-1.5
			c0-0.6,0.1-1.1,0.4-1.6c0.2-0.4,0.6-0.8,1-1c0.4-0.2,0.9-0.4,1.5-0.4c0.5,0,1,0.1,1.5,0.3c0.4,0.2,0.8,0.6,1,1
			c0.2,0.4,0.4,0.9,0.4,1.5C253,86,253,86.1,252.9,86.3z M251.5,85.3c0-0.4-0.1-0.7-0.4-0.9c-0.3-0.2-0.6-0.3-1-0.3
			c-0.4,0-0.7,0.1-0.9,0.3c-0.2,0.2-0.4,0.5-0.4,0.9H251.5z"/>
		<path class="st0" d="M254,84.3c0.2-0.4,0.5-0.8,0.9-1c0.4-0.2,0.8-0.4,1.3-0.4c0.4,0,0.7,0.1,1.1,0.2c0.3,0.2,0.6,0.4,0.8,0.6
			v-2.7h1.5v7.6h-1.5v-0.8c-0.2,0.3-0.4,0.5-0.7,0.7c-0.3,0.2-0.7,0.3-1.1,0.3c-0.5,0-0.9-0.1-1.3-0.4c-0.4-0.2-0.7-0.6-0.9-1
			c-0.2-0.4-0.3-1-0.3-1.5C253.7,85.3,253.8,84.8,254,84.3z M257.9,85c-0.1-0.2-0.3-0.4-0.6-0.6c-0.2-0.1-0.5-0.2-0.7-0.2
			c-0.3,0-0.5,0.1-0.7,0.2c-0.2,0.1-0.4,0.3-0.5,0.6c-0.1,0.2-0.2,0.5-0.2,0.9c0,0.3,0.1,0.6,0.2,0.9c0.1,0.3,0.3,0.5,0.6,0.6
			c0.2,0.1,0.5,0.2,0.7,0.2c0.3,0,0.5-0.1,0.7-0.2c0.2-0.1,0.4-0.3,0.6-0.6c0.1-0.2,0.2-0.5,0.2-0.9C258.1,85.5,258.1,85.2,257.9,85
			z"/>
		<path class="st0" d="M265.6,83.2c0.3-0.2,0.7-0.3,1.1-0.3c0.5,0,0.9,0.1,1.3,0.4c0.4,0.2,0.7,0.6,0.9,1c0.2,0.4,0.3,1,0.3,1.5
			c0,0.6-0.1,1.1-0.3,1.5s-0.5,0.8-0.9,1c-0.4,0.2-0.8,0.4-1.3,0.4c-0.4,0-0.8-0.1-1.1-0.3c-0.3-0.2-0.6-0.4-0.8-0.7v0.8h-1.4v-7.6
			h1.4v2.7C265,83.6,265.3,83.4,265.6,83.2z M267.7,85c-0.1-0.2-0.3-0.4-0.6-0.6c-0.2-0.1-0.5-0.2-0.7-0.2c-0.3,0-0.5,0.1-0.7,0.2
			c-0.2,0.1-0.4,0.3-0.6,0.6c-0.1,0.3-0.2,0.6-0.2,0.9c0,0.3,0.1,0.6,0.2,0.9c0.1,0.3,0.3,0.4,0.6,0.6c0.2,0.1,0.5,0.2,0.7,0.2
			c0.3,0,0.5-0.1,0.7-0.2c0.2-0.1,0.4-0.3,0.6-0.6c0.1-0.3,0.2-0.6,0.2-0.9C267.9,85.5,267.8,85.2,267.7,85z"/>
		<path class="st0" d="M275.8,83l-3.5,8.4h-1.5l1.2-2.8l-2.3-5.5h1.6l1.5,4l1.5-4H275.8z"/>
	</g>
	<g>
		<path class="st0" d="M217.9,84.7c-0.2,0.3-0.4,0.6-0.8,0.8c-0.4,0.2-0.8,0.3-1.4,0.3h-1.2v2.9h-1.4v-7.5h2.5c0.5,0,1,0.1,1.4,0.3
			c0.4,0.2,0.7,0.5,0.8,0.8c0.2,0.3,0.3,0.7,0.3,1.2C218.2,84,218.1,84.3,217.9,84.7z M216.5,84.4c0.2-0.2,0.3-0.5,0.3-0.8
			c0-0.7-0.4-1.1-1.1-1.1h-1.1v2.2h1.1C216,84.7,216.3,84.6,216.5,84.4z"/>
	</g>
	<g>
		<path class="st2" d="M292.7,78.6c-0.3,0.2-0.4,0.5-0.5,0.8c0,0.2-0.1,0.1-0.2,0.1c-1.4-0.5-2.8-0.5-4.2,0c-2.1,0.8-3.5,2.4-4,4.6
			c-0.6,2.6,0.1,4.9,2.2,6.6c3.2,2.7,7.9,1.5,9.6-2.4c1.2-2.7,0.5-5.7-1.7-7.7c-0.1-0.1-0.2-0.1,0-0.2c0.3-0.2,0.4-0.5,0.5-0.8
			c0.5,0.4,0.9,0.8,1.3,1.3c3,3.9,1.6,9.7-2.9,11.7c-2.8,1.2-6.2,0.4-8.3-2c-2.6-3.1-2.4-7.8,0.6-10.6c1.5-1.4,3.3-2,5.3-2
			C291.2,78.1,292,78.2,292.7,78.6z"/>
		<path class="st2" d="M288.6,89.6c0.2-0.4,0.4-0.7,0.6-1.1c0.1-0.1,0.2-0.1,0.3-0.1c1.1,0,2.1,0,3.2,0c0.4,0,0.7-0.2,0.7-0.4
			c0.1-0.5-0.1-0.7-0.6-0.8c-0.9,0-1.7,0-2.6,0c-0.1,0-0.2,0-0.3,0c0.2-0.3,0.3-0.6,0.5-0.9c0.8-1.4,1.6-2.9,2.4-4.3
			c0.1-0.2,0.2-0.3,0.5-0.3c0.3,0,0.6,0,1,0c-0.2,0.4-0.5,0.8-0.7,1.2c-0.5,0.9-1,1.9-1.6,2.8c-0.1,0.2-0.1,0.3,0.2,0.2
			c0.4,0,0.9,0,1.3,0.1c0.7,0.3,1.1,0.9,1.1,1.7c0,0.8-0.4,1.4-1.1,1.7c-0.2,0.1-0.4,0.1-0.6,0.1C291.5,89.6,290.1,89.6,288.6,89.6z
			"/>
		<path class="st2" d="M291.8,81.6c-0.2,0.4-0.4,0.8-0.6,1.1c-0.1,0.1-0.2,0.1-0.3,0.1c-1.1,0-2.2,0-3.3,0c-0.5,0-0.7,0.3-0.7,0.7
			c0,0.2,0.2,0.4,0.4,0.5c0.1,0,0.3,0,0.4,0c0.9,0,1.8,0,2.7,0c-0.2,0.4-0.5,0.8-0.7,1.3c-0.7,1.4-1.5,2.7-2.3,4
			c-0.1,0.2-0.2,0.2-0.4,0.2c-0.3,0-0.7,0-1.1,0c0.8-1.4,1.6-2.8,2.4-4.3c-0.3,0-0.5,0-0.8,0c-0.3,0-0.6-0.1-0.8-0.2
			c-0.8-0.3-1.2-1-1.1-1.9c0.1-0.9,0.6-1.4,1.5-1.6c0.2,0,0.4,0,0.6,0C289.1,81.6,290.4,81.6,291.8,81.6z"/>
		<path class="st2" d="M293.4,80c-0.3,0-0.5-0.2-0.5-0.5c0-0.3,0.2-0.5,0.5-0.5c0.3,0,0.5,0.2,0.5,0.5C293.9,79.8,293.7,80,293.4,80
			z"/>
	</g>
	<g>
		<path class="st2" d="M342.2,82.1c-2.5,0-4.3,1.7-4.3,4.1s1.8,4.1,4.3,4.1c2.5,0,4.3-1.8,4.3-4.1C346.5,83.8,344.7,82.1,342.2,82.1
			z M342.2,88.2c-1.2,0-1.9-0.8-1.9-2c0-1.2,0.8-1.9,1.9-1.9c1.2,0,1.9,0.7,1.9,2C344.1,87.4,343.3,88.2,342.2,88.2z"/>
		<path class="st2" d="M359.5,86.9c0.8,0,1.6,0,2.4,0h1.7c1,0,1,0,1-1c-0.1-2.5-1.6-3.9-4-3.8c-2,0.1-3.7,1.6-3.9,3.5
			c-0.2,2.3,0.9,4,3,4.6c1.6,0.4,3,0,4.3-1.2c0.2-0.2,0.2-0.3,0-0.4c-0.3-0.2-0.7-0.5-1-0.7c-0.3-0.3-0.5-0.3-0.8,0.1
			c-0.9,1-2.5,0.7-3-0.5C359.1,87,359.1,86.9,359.5,86.9z M359.1,85c0.2-0.7,0.8-1.2,1.6-1.2c0.7,0,1.3,0.4,1.5,1.1
			c0.1,0.3,0,0.4-0.3,0.4c-0.4,0-0.8,0-1.2,0c-0.4,0-0.9,0-1.3,0C359.2,85.3,359.1,85.3,359.1,85z"/>
		<path class="st2" d="M350.1,83.4c0.5-0.6,1-1.1,1.7-1.2c0.6-0.1,1.3-0.1,1.9,0.1c1,0.4,1.3,1.2,1.5,2.1c0.1,0.4,0.1,0.8,0.1,1.3
			c0,1.4,0,2.7,0,4.1c0,0.3-0.1,0.3-0.3,0.3c-0.5,0-1.1,0-1.6,0c-0.3,0-0.4-0.1-0.4-0.4c0-1.3,0-2.5,0-3.8c0-0.4,0-0.8-0.2-1.1
			c-0.2-0.4-0.6-0.6-1.1-0.6c-0.5,0-0.9,0.2-1.2,0.6c-0.2,0.4-0.2,0.8-0.2,1.2c0,1.2,0,2.4,0,3.6c0,0.3-0.1,0.4-0.4,0.4
			c-0.6,0-1.1,0-1.7,0c-0.2,0-0.3-0.1-0.3-0.3c0-2.4,0-4.8,0-7.2c0-0.2,0.1-0.3,0.3-0.3c0.6,0,1.1,0,1.7,0c0.3,0,0.3,0.1,0.3,0.3
			C350.1,82.8,350.1,83,350.1,83.4z"/>
		<path class="st2" d="M332.5,88.2c1.4,0,2.6,0,3.9,0c0.3,0,0.4,0.1,0.4,0.4c0,0.4,0,0.8,0,1.2c0,0.2-0.1,0.3-0.3,0.3
			c-2.1,0-4.2,0-6.3,0c-0.2,0-0.3-0.1-0.3-0.3c0-0.6,0-1.2,0-1.9c0-0.2,0.1-0.4,0.3-0.5c1.2-1,2.3-2,3.5-3c0.1-0.1,0.1-0.1,0.2-0.2
			c-1.2,0-2.3,0-3.4,0c-0.4,0-0.5-0.1-0.5-0.5c0-0.4,0-0.8,0-1.2c0-0.2,0-0.3,0.3-0.3c2,0,4.1,0,6.1,0c0.2,0,0.3,0.1,0.3,0.3
			c0,0.6,0,1.2,0,1.8c0,0.2-0.1,0.3-0.3,0.5c-1.2,1-2.3,2-3.5,3C332.9,87.9,332.7,88,332.5,88.2z"/>
		<path class="st2" d="M324.7,82.5c-2.3,0-3.8,1.6-3.8,3.9c0,2.3,1.6,3.9,3.9,3.9c2.2,0,3.8-1.7,3.8-4
			C328.6,84.1,327,82.4,324.7,82.5z M324.7,89.4c-1.7,0-2.9-1.3-2.9-3c0-1.8,1.2-3.1,2.9-3.1c1.7,0,2.9,1.3,2.9,3
			C327.7,88.1,326.4,89.4,324.7,89.4z"/>
		<path class="st2" d="M306.1,84c0.9-1.3,2-1.7,3.4-1.4c1.1,0.3,1.8,1.1,1.9,2.5c0.1,1.6,0,3.2,0,4.8c0,0.2-0.1,0.2-0.2,0.2
			c-0.7,0.1-0.7,0.1-0.7-0.6c0-1.2,0-2.4,0-3.6c0-0.1,0-0.3,0-0.4c0-1.2-0.5-1.9-1.3-2.1c-1-0.3-2.2,0.2-2.7,1.2
			c-0.3,0.5-0.4,1-0.4,1.6c0,1.2,0,2.4,0,3.6c0,0.4-0.2,0.4-0.5,0.4c-0.3,0-0.5,0.1-0.5-0.4c0-2,0-4,0-6c0-0.2,0-0.3,0-0.4
			c-0.1-0.6,0.2-0.8,0.8-0.6c0.2,0.1,0.2,0.2,0.2,0.3C306,83.2,306,83.6,306.1,84z"/>
		<path class="st2" d="M316.5,89c0.5-1.4,1-2.8,1.5-4.1c0.3-0.7,0.5-1.4,0.8-2c0.1-0.2,0.8-0.4,1-0.2c0.1,0.1,0,0.2-0.1,0.3
			c-0.5,1.3-1,2.7-1.5,4c-0.4,0.9-0.7,1.9-1.1,2.8c-0.1,0.2-0.2,0.4-0.4,0.3c-0.3-0.1-0.6,0.2-0.8-0.3c-0.9-2.3-1.8-4.5-2.7-6.8
			c-0.1-0.3-0.1-0.4,0.3-0.4c0.7,0,0.7,0,0.9,0.6c0.7,1.8,1.4,3.6,2,5.4C316.3,88.7,316.4,88.8,316.5,89z"/>
		<path class="st2" d="M301.5,86.4c0-1.1,0-2.3,0-3.4c0-0.5,0.3-0.3,0.5-0.3c0.3,0,0.4,0,0.4,0.4c0,2.3,0,4.5,0,6.7
			c0,0.5-0.3,0.4-0.5,0.4c-0.3,0-0.5,0-0.5-0.4C301.5,88.6,301.5,87.5,301.5,86.4z"/>
		<path class="st2" d="M302.7,79.7c0,0.4-0.3,0.7-0.7,0.7c-0.4,0-0.7-0.3-0.7-0.7c0-0.4,0.4-0.7,0.7-0.7
			C302.4,79,302.7,79.3,302.7,79.7z"/>
	</g>
	<g>
		<path class="st3" d="M227.2,84.6c0,2-1.4,3.7-3.3,4.1c-2.1,0.4-4.2-0.9-4.8-3c-0.4-1.6,0.2-3.4,1.6-4.3c0.2-0.1,0.4-0.2,0.6,0
			c0.2,0.1,0.3,0.3,0.3,0.5c0,0.2-0.1,0.3-0.3,0.5c-0.3,0.2-0.6,0.5-0.8,0.9c-1,1.7,0,4,2,4.4c1.6,0.3,3.2-0.8,3.4-2.4
			c0.2-1.2-0.2-2.1-1.2-2.8c-0.2-0.1-0.3-0.3-0.3-0.5c0-0.2,0.1-0.4,0.3-0.5c0.2-0.1,0.4-0.1,0.6,0c0.4,0.3,0.8,0.7,1.1,1.1
			C227,83.1,227.2,83.8,227.2,84.6z"/>
		<path class="st3" d="M222.5,82.4c0-0.6,0-1.2,0-1.9c0-0.2,0.1-0.4,0.4-0.5c0.2-0.1,0.4-0.1,0.6,0.1c0.1,0.1,0.2,0.3,0.2,0.5
			c0,0.8,0,1.6,0,2.5c0,0.4,0,0.8,0,1.2c0,0.3-0.2,0.5-0.5,0.6c-0.3,0-0.6-0.1-0.6-0.4c0-0.1,0-0.1,0-0.2
			C222.5,83.6,222.5,83,222.5,82.4z"/>
	</g>
</g>
<line class="st4" x1="118.7" y1="85.6" x2="206.2" y2="85.6"/>
</svg>
