<svg width="68" height="38" viewBox="0 0 68 38" fill="none" xmlns="http://www.w3.org/2000/svg">
<path d="M50.5892 11.4496L56.23 1.71174C56.5483 1.16579 56.3558 0.47244 55.8154 0.155206C55.275 -0.162029 54.5718 0.0224234 54.2609 0.568274L48.5461 10.4315C44.1859 8.44708 39.2781 7.34046 34 7.34046C28.7219 7.34046 23.8141 8.44708 19.4539 10.4315L13.7391 0.568371C13.664 0.438744 13.564 0.325177 13.4448 0.234198C13.3256 0.143219 13.1895 0.0766224 13.0443 0.0382363C12.8992 -0.000149873 12.7478 -0.00956856 12.599 0.0105216C12.4502 0.0306119 12.3068 0.0798148 12.1772 0.155302C12.0471 0.230082 11.9331 0.329748 11.8418 0.448572C11.7505 0.567396 11.6837 0.703033 11.6452 0.847684C11.6067 0.992335 11.5972 1.14315 11.6174 1.29145C11.6375 1.43975 11.6869 1.58262 11.7627 1.71184L17.4034 11.4497C7.67647 16.7022 1.08822 26.5138 0 38H68C66.9119 26.5138 60.3235 16.7022 50.5892 11.4497V11.4496ZM18.388 28.4834C16.8113 28.4834 15.538 27.2071 15.538 25.6432C15.538 24.0719 16.8187 22.803 18.388 22.803C19.9647 22.803 21.238 24.0792 21.238 25.6432C21.2457 27.2071 19.9648 28.4834 18.388 28.4834ZM49.6046 28.4834C48.028 28.4834 46.7546 27.2071 46.7546 25.6432C46.7546 24.0719 48.0353 22.803 49.6046 22.803C51.1814 22.803 52.4546 24.0792 52.4546 25.6432C52.4624 27.2071 51.1814 28.4834 49.6046 28.4834Z" fill="#32DE84"/>
</svg>
