<svg width="65" height="65" viewBox="0 0 65 65" fill="none" xmlns="http://www.w3.org/2000/svg">
<rect width="65" height="65" rx="8" fill="#999999"/>
<path d="M46.3713 42.0549C45.8326 43.3127 45.1951 44.4704 44.4564 45.5348C43.4495 46.9859 42.6251 47.9903 41.9898 48.5481C41.0049 49.4636 39.9496 49.9325 38.8196 49.9591C38.0084 49.9591 37.03 49.7258 35.8913 49.2525C34.7487 48.7814 33.6987 48.5481 32.7387 48.5481C31.7318 48.5481 30.6519 48.7814 29.4969 49.2525C28.34 49.7258 27.4081 49.9725 26.6956 49.9969C25.612 50.0436 24.5319 49.5613 23.4538 48.5481C22.7656 47.9414 21.905 46.9014 20.8739 45.4282C19.7676 43.8549 18.8581 42.0305 18.1456 39.9505C17.3825 37.704 17 35.5285 17 33.4223C17 31.0097 17.5158 28.9289 18.5488 27.1852C19.3607 25.7846 20.4408 24.6797 21.7926 23.8686C23.1444 23.0575 24.6051 22.6442 26.1781 22.6178C27.0388 22.6178 28.1674 22.8869 29.5701 23.4158C30.9687 23.9464 31.8668 24.2155 32.2605 24.2155C32.5549 24.2155 33.5526 23.9008 35.2438 23.2735C36.8432 22.6918 38.193 22.4509 39.2988 22.5458C42.2953 22.7902 44.5465 23.9842 46.0437 26.1352C43.3638 27.7765 42.0381 30.0753 42.0645 33.0243C42.0887 35.3214 42.9131 37.2329 44.5333 38.7506C45.2676 39.455 46.0876 39.9995 47 40.3861C46.8021 40.9661 46.5933 41.5216 46.3713 42.0549V42.0549ZM39.4989 14.7202C39.4989 16.5206 38.8482 18.2017 37.5511 19.7576C35.9858 21.6073 34.0925 22.6762 32.0394 22.5075C32.0119 22.2812 31.9981 22.0534 31.998 21.8253C31.998 20.0969 32.7424 18.2472 34.0644 16.7348C34.7243 15.9691 35.5637 15.3324 36.5816 14.8244C37.5972 14.3241 38.558 14.0474 39.4615 14C39.4879 14.2407 39.4989 14.4814 39.4989 14.7202V14.7202Z" fill="white"/>
</svg>
