<svg width="23" height="23" viewBox="0 0 23 23" fill="none" xmlns="http://www.w3.org/2000/svg">
<path fill-rule="evenodd" clip-rule="evenodd" d="M0.334473 2.05357C0.334473 1.5685 0.527166 1.1033 0.870161 0.7603C1.21316 0.417305 1.67836 0.224612 2.16343 0.224612H20.3952C20.6356 0.224219 20.8737 0.271244 21.0959 0.362994C21.3181 0.454744 21.52 0.589417 21.6901 0.759303C21.8602 0.929189 21.9951 1.13095 22.087 1.35304C22.179 1.57513 22.2263 1.81318 22.2262 2.05357V20.2854C22.2264 20.5258 22.1793 20.7639 22.0874 20.9861C21.9956 21.2083 21.8608 21.4102 21.6909 21.5803C21.5209 21.7503 21.3191 21.8852 21.0969 21.9772C20.8748 22.0692 20.6367 22.1165 20.3962 22.1163H2.16343C1.92316 22.1163 1.68525 22.069 1.46329 21.977C1.24132 21.885 1.03966 21.7502 0.869809 21.5803C0.699962 21.4103 0.565263 21.2086 0.473408 20.9866C0.381553 20.7646 0.334342 20.5266 0.334473 20.2864V2.05357ZM8.99961 8.57133H11.9639V10.06C12.3918 9.2042 13.4864 8.434 15.1313 8.434C18.2847 8.434 19.032 10.1386 19.032 13.2661V19.0594H15.8408V13.9786C15.8408 12.1974 15.4129 11.1924 14.3263 11.1924C12.8187 11.1924 12.1918 12.276 12.1918 13.9786V19.0594H8.99961V8.57133ZM3.52668 18.9231H6.71889V8.434H3.52668V18.9221V18.9231ZM7.17563 5.01293C7.18165 5.28625 7.13302 5.55802 7.03258 5.81229C6.93214 6.06656 6.78193 6.2982 6.59076 6.49363C6.39958 6.68906 6.1713 6.84434 5.9193 6.95035C5.66731 7.05636 5.39667 7.11097 5.12329 7.11097C4.8499 7.11097 4.57927 7.05636 4.32727 6.95035C4.07527 6.84434 3.84699 6.68906 3.65581 6.49363C3.46464 6.2982 3.31443 6.06656 3.21399 5.81229C3.11355 5.55802 3.06492 5.28625 3.07094 5.01293C3.08275 4.47643 3.30417 3.9659 3.68777 3.59065C4.07137 3.2154 4.58666 3.00528 5.12329 3.00528C5.65991 3.00528 6.1752 3.2154 6.5588 3.59065C6.9424 3.9659 7.16382 4.47643 7.17563 5.01293Z" fill="white"/>
</svg>
