<?xml version="1.0" encoding="utf-8"?>
<!-- Generator: Adobe Illustrator 24.0.1, SVG Export Plug-In . SVG Version: 6.00 Build 0)  -->
<svg version="1.1" id="Layer_1" xmlns="http://www.w3.org/2000/svg" xmlns:xlink="http://www.w3.org/1999/xlink" x="0px" y="0px"
	 viewBox="0 0 364.6 107.8" style="enable-background:new 0 0 364.6 107.8;" xml:space="preserve">
<style type="text/css">
	.st0{fill:url(#SVGID_1_);}
	.st1{fill:#303030;}
	.st2{fill-rule:evenodd;clip-rule:evenodd;fill:#031838;}
	.st3{fill:#031838;}
	.st4{fill:#606060;}
	.st5{fill:url(#SVGID_2_);}
	.st6{fill-rule:evenodd;clip-rule:evenodd;fill:#611F69;}
	.st7{fill-rule:evenodd;clip-rule:evenodd;fill:#FBF7EE;}
	.st8{fill-rule:evenodd;clip-rule:evenodd;fill:#FCB92B;}
	.st9{fill:#611F69;}
	.st10{fill:#2C82D1;}
	.st11{fill:#2C81D1;}
</style>
<g>
	<g>
		<path class="st2" d="M74.1,13.8c0,2-1.6,3.6-3.6,3.6s-3.6-1.6-3.6-3.6s1.6-3.6,3.6-3.6S74.1,11.8,74.1,13.8L74.1,13.8L74.1,13.8z
			 M77.7,14.1c-0.1,2.6-1.6,4.8-3.9,6c18.5,13.7,22.4,39.8,8.7,58.3s-39.8,22.4-58.2,8.7C5.8,73.4,1.9,47.3,15.6,28.8
			c11-14.9,30.5-20.7,47.9-14.3c0-0.2,0-0.5,0-0.8c0-2.3,1.1-4.4,3-5.8c-5.7-2-11.6-3.1-17.5-3.1c-27.1,0-49,22-49,49.1
			S21.9,103,49,103s49-22,49-49.1C98,38.1,90.4,23.3,77.7,14.1L77.7,14.1z"/>
	</g>
	<g>
		<g>
			<path class="st2" d="M68.3,29H29.7c-3.2,0-5.8,2.6-5.8,5.8v26c0,3.2,2.6,5.8,5.8,5.8h9.1c0.4,0,0.7,0.3,0.7,0.7v10.8
				c0,0.5,0.6,0.8,1,0.5l17.3-12.1c0.1-0.1,0.3-0.1,0.4-0.1h10.1c3.2,0,5.8-2.6,5.8-5.8V34.8C74.1,31.6,71.5,29,68.3,29z M39.1,49.8
				c-1.7,0-3.1-1.3-3.1-3s1.4-3.1,3.1-3.1s3.1,1.4,3.1,3.1C42.1,48.5,40.8,49.8,39.1,49.8z M49,49.8c-1.7,0-3.1-1.4-3.1-3.1
				s1.4-3.1,3.1-3.1s3.1,1.4,3.1,3.1C52.1,48.5,50.7,49.8,49,49.8z M58.9,49.8c-1.7,0-3.1-1.4-3.1-3.1s1.4-3.1,3.1-3.1
				s3.1,1.5,3.1,3.2S60.6,49.8,58.9,49.8z"/>
		</g>
	</g>
</g>
<g>
	<g>
		<path class="st3" d="M252.5,60c-2.7,0-5.1-0.4-7.2-1.3s-3.9-2.1-5.4-3.7s-2.6-3.4-3.4-5.4c-0.8-2-1.2-4.1-1.2-6.3
			c0-3,0.7-5.8,2.1-8.3c1.4-2.5,3.3-4.6,5.9-6.1c2.6-1.5,5.6-2.3,9.1-2.3s6.5,0.8,9.1,2.3c2.5,1.5,4.4,3.5,5.6,6l-8.1,2.5
			c-0.7-1.2-1.6-2.1-2.8-2.8c-1.2-0.6-2.5-1-3.9-1c-1.5,0-2.9,0.4-4.2,1.2s-2.3,1.9-3.1,3.3c-0.8,1.4-1.1,3.1-1.1,5s0.4,3.5,1.1,5
			c0.8,1.5,1.8,2.6,3.1,3.4c1.3,0.8,2.7,1.2,4.3,1.2c1,0,2-0.2,2.9-0.5c0.9-0.3,1.7-0.8,2.4-1.4c0.7-0.6,1.2-1.2,1.6-2l8.1,2.5
			c-0.8,1.6-1.8,3.1-3.3,4.3c-1.4,1.3-3.1,2.3-5,3C257,59.7,254.9,60,252.5,60z"/>
		<path class="st3" d="M302.5,59.4h-8.3v-18c0-2.5-0.5-4.3-1.5-5.6c-1-1.2-2.3-1.8-4-1.8c-1,0-2,0.3-3.2,0.8c-1.1,0.6-2.1,1.3-3,2.3
			s-1.6,2.1-2,3.4v18.8h-8.2V14.1h8.2v19.1c1.3-2,3-3.6,5-4.8s4.3-1.7,6.7-1.7c2.1,0,3.8,0.3,5.2,1c1.3,0.7,2.4,1.7,3.1,2.9
			s1.2,2.6,1.5,4.1s0.4,3,0.4,4.6L302.5,59.4L302.5,59.4z"/>
		<path class="st3" d="M307.6,49.9c0-2.1,0.6-3.9,1.8-5.5s2.8-2.8,4.9-3.7s4.5-1.3,7.3-1.3c1.4,0,2.8,0.1,4.2,0.3
			c1.4,0.2,2.6,0.5,3.7,1V39c0-2-0.6-3.5-1.8-4.6c-1.2-1.1-3-1.7-5.4-1.7c-1.8,0-3.5,0.3-5.1,0.9s-3.3,1.5-5.1,2.7l-2.6-5.4
			c2.1-1.5,4.3-2.5,6.5-3.2c2.3-0.7,4.6-1,7.1-1c4.6,0,8.2,1.1,10.8,3.4c2.6,2.3,3.9,5.5,3.9,9.8v10.2c0,0.9,0.2,1.5,0.5,1.8
			c0.3,0.4,0.8,0.6,1.5,0.7v6.8c-0.8,0.1-1.4,0.2-2,0.3c-0.6,0.1-1.1,0.1-1.5,0.1c-1.7,0-2.9-0.4-3.8-1.1s-1.4-1.6-1.5-2.7l-0.2-1.7
			c-1.5,1.8-3.2,3.2-5.3,4.2S321.2,60,319,60c-2.1,0-4.1-0.4-5.8-1.3c-1.7-0.9-3.1-2.1-4-3.7C308.1,53.5,307.6,51.8,307.6,49.9z
			 M327.8,51.5c0.5-0.4,0.8-0.9,1.1-1.4s0.4-1,0.4-1.3v-3.2c-1-0.4-2.1-0.7-3.2-0.9c-1.2-0.2-2.3-0.3-3.3-0.3
			c-2.1,0-3.9,0.5-5.3,1.4s-2.1,2.1-2.1,3.6c0,0.8,0.2,1.6,0.7,2.3c0.5,0.8,1.1,1.3,2,1.8c0.9,0.4,1.9,0.7,3.1,0.7s2.5-0.2,3.7-0.7
			C326.1,52.8,327.1,52.2,327.8,51.5z"/>
		<path class="st3" d="M364.6,57.8c-0.7,0.3-1.6,0.7-2.6,1s-2,0.6-3.2,0.9s-2.3,0.3-3.4,0.3c-1.6,0-3-0.3-4.3-0.8s-2.3-1.4-3.1-2.6
			c-0.8-1.2-1.1-2.7-1.1-4.6V33.5h-4.2v-6.3h4.2V16.6h8.4v10.5h6.8v6.3h-6.8v15.8c0,1.1,0.4,1.9,0.9,2.4c0.6,0.5,1.3,0.8,2.2,0.8
			c0.8,0,1.6-0.2,2.5-0.5c0.8-0.3,1.5-0.6,2-0.8L364.6,57.8z"/>
	</g>
	<g>
		<path class="st3" d="M118.7,19.8v-5.7h3.1v5.7H118.7z M118.7,59.4V27.1h3.1v32.3C121.8,59.4,118.7,59.4,118.7,59.4z"/>
		<path class="st3" d="M157.9,59.4h-3.1V41.5c0-4.1-0.6-7.1-1.8-9c-1.2-1.9-3.1-2.9-5.6-2.9c-1.8,0-3.6,0.4-5.4,1.3
			c-1.8,0.9-3.3,2-4.6,3.5s-2.2,3.2-2.8,5.1v19.9h-3.1V27.2h2.9v7.7c0.9-1.7,2-3.1,3.5-4.3c1.4-1.2,3.1-2.2,4.8-2.9
			c1.8-0.7,3.6-1,5.5-1c1.8,0,3.3,0.3,4.5,1s2.2,1.6,3,2.8s1.3,2.7,1.6,4.5s0.5,3.8,0.5,6.1L157.9,59.4L157.9,59.4z"/>
		<path class="st3" d="M176.4,59.4L163,27.2h3.3l11.9,28.9L190,27.2h3.1l-13.5,32.2H176.4z"/>
		<path class="st3" d="M211.7,60c-2.3,0-4.4-0.4-6.3-1.3s-3.6-2.1-5-3.6s-2.5-3.3-3.3-5.4c-0.8-2-1.2-4.1-1.2-6.4
			c0-2.3,0.4-4.4,1.2-6.4s1.9-3.8,3.3-5.3c1.4-1.5,3.1-2.8,5-3.7s4-1.3,6.2-1.3s4.3,0.4,6.2,1.3c1.9,0.9,3.6,2.1,5,3.7
			c1.4,1.5,2.6,3.3,3.4,5.3c0.8,2,1.2,4.1,1.2,6.4c0,2.2-0.4,4.3-1.2,6.4s-1.9,3.8-3.3,5.4c-1.4,1.6-3.1,2.8-5,3.6
			C216,59.6,213.9,60,211.7,60z M199,43.5c0,2.5,0.6,4.8,1.7,6.9c1.1,2.1,2.7,3.7,4.6,5c1.9,1.2,4,1.8,6.3,1.8s4.4-0.6,6.4-1.9
			c1.9-1.3,3.4-2.9,4.6-5.1c1.1-2.1,1.7-4.4,1.7-7c0-2.5-0.6-4.8-1.7-6.9c-1.1-2.1-2.7-3.8-4.6-5c-1.9-1.3-4-1.9-6.3-1.9
			s-4.4,0.6-6.3,1.9c-1.9,1.3-3.4,3-4.6,5.1C199.6,38.6,199,40.9,199,43.5z"/>
	</g>
</g>
<g>
	<g>
		<path class="st4" d="M118.7,87.8V73.6h3.9c1.7,0,2.9,0.3,3.7,0.9c0.7,0.6,1.1,1.5,1.1,2.9c0,1.5-0.5,2.7-1.5,3.6
			c-1,0.9-2.4,1.3-4.3,1.3h-0.9v5.6H118.7z M120.7,80.6h0.8c1.2,0,2.1-0.3,2.8-0.8c0.7-0.6,1-1.3,1-2.3c0-0.9-0.3-1.5-0.8-1.8
			s-1.4-0.5-2.6-0.5h-1.2V80.6z"/>
		<path class="st4" d="M133.7,88c-1.5,0-2.7-0.5-3.6-1.5c-0.9-1-1.3-2.3-1.3-4c0-1.7,0.4-3,1.3-4c0.9-1,2.1-1.5,3.6-1.5
			c1.5,0,2.7,0.5,3.6,1.5c0.9,1,1.3,2.3,1.3,4c0,1.7-0.4,3-1.3,4C136.5,87.5,135.3,88,133.7,88z M133.7,86.6c2,0,3-1.4,3-4.1
			c0-2.7-1-4-3-4c-2,0-3,1.3-3,4C130.8,85.3,131.8,86.6,133.7,86.6z"/>
		<path class="st4" d="M142.9,87.8l-3-10.4h1.9l2.3,8.1l2.5-8.1h1.9l2.2,8.1l2.6-8.1h1.6l-3.4,10.4h-1.9l-2.2-8.1l-2.5,8.1H142.9z"
			/>
		<path class="st4" d="M164.5,87.4c-1.3,0.4-2.4,0.6-3.3,0.6c-1.5,0-2.8-0.5-3.8-1.5c-1-1-1.5-2.3-1.5-4c0-1.6,0.4-2.9,1.3-3.9
			c0.9-1,1.9-1.5,3.3-1.5c1.3,0,2.2,0.4,2.9,1.3s1,2.2,1,3.8l0,0.6H158c0.3,2.5,1.5,3.7,3.6,3.7c0.8,0,1.8-0.2,2.9-0.6V87.4z
			 M158,81.4h4.6c0-1.9-0.7-2.9-2.2-2.9C159,78.5,158.2,79.5,158,81.4z"/>
		<path class="st4" d="M167.8,87.8V77.3h1.9v2c0.7-1.5,1.8-2.2,3.3-2.2c0.2,0,0.4,0,0.6,0v1.8c-0.3-0.1-0.6-0.2-0.9-0.2
			c-1.2,0-2.2,0.7-3,2.1v6.9H167.8z"/>
		<path class="st4" d="M183.5,87.4c-1.3,0.4-2.4,0.6-3.3,0.6c-1.5,0-2.8-0.5-3.8-1.5c-1-1-1.5-2.3-1.5-4c0-1.6,0.4-2.9,1.3-3.9
			c0.9-1,1.9-1.5,3.3-1.5c1.3,0,2.2,0.4,2.9,1.3c0.7,0.9,1,2.2,1,3.8l0,0.6H177c0.3,2.5,1.5,3.7,3.6,3.7c0.8,0,1.8-0.2,2.9-0.6V87.4
			z M177,81.4h4.6c0-1.9-0.7-2.9-2.2-2.9C178,78.5,177.2,79.5,177,81.4z"/>
		<path class="st4" d="M193.5,87.8v-2c-0.8,1.5-1.9,2.2-3.5,2.2c-1.3,0-2.2-0.5-3-1.4c-0.7-0.9-1.1-2.2-1.1-3.8
			c0-1.7,0.4-3.1,1.2-4.2c0.8-1.1,1.9-1.6,3.2-1.6c1.2,0,2.3,0.5,3.1,1.4v-5.9h1.9v15.2H193.5z M193.5,79.8c-1-0.9-1.9-1.3-2.8-1.3
			c-1.8,0-2.7,1.4-2.7,4.2c0,2.4,0.8,3.7,2.4,3.7c1,0,2.1-0.6,3.1-1.7V79.8z"/>
		<path class="st4" d="M205.4,87.8V73.6h3.7c1.4,0,2.5,0.3,3.3,0.8c0.8,0.5,1.1,1.3,1.1,2.3c0,1.7-1,2.9-2.9,3.7
			c2.3,0.7,3.5,2,3.5,3.9c0,1.2-0.4,2-1.2,2.6s-1.9,0.9-3.3,0.9H205.4z M207.4,79.8h0.6c1.1,0,1.9-0.2,2.5-0.7
			c0.6-0.5,0.9-1.1,0.9-1.9c0-1.4-1.1-2.1-3.2-2.1h-0.8V79.8z M207.4,86.3h0.4c1.5,0,2.4-0.1,2.9-0.3c0.8-0.4,1.2-1,1.2-2
			c0-0.8-0.4-1.5-1.1-2.1c-0.8-0.6-1.7-0.8-2.8-0.8h-0.6V86.3z"/>
		<path class="st4" d="M217.3,91.6l1.7-3.8l-4-10.4h2l3,7.9l3.2-7.9h1.8l-5.7,14.2H217.3z"/>
	</g>
	<g>
		<path class="st3" d="M249.4,68c-0.5,0.4-0.7,0.9-0.9,1.4c0,0.4-0.2,0.2-0.4,0.2c-2.5-0.9-4.9-0.9-7.4,0c-3.7,1.4-6.2,4.2-7.1,8.1
			c-1.1,4.6,0.2,8.6,3.9,11.6c5.6,4.8,13.9,2.6,16.9-4.2c2.1-4.8,0.9-10-3-13.6c-0.2-0.2-0.4-0.2,0-0.4c0.5-0.4,0.7-0.9,0.9-1.4
			c0.9,0.7,1.6,1.4,2.3,2.3c5.3,6.9,2.8,17.1-5.1,20.6c-4.9,2.1-10.9,0.7-14.6-3.5c-4.6-5.5-4.2-13.7,1.1-18.7
			c2.6-2.5,5.8-3.5,9.3-3.5C246.8,67.1,248.2,67.3,249.4,68z"/>
		<path class="st3" d="M242.2,87.4c0.4-0.7,0.7-1.2,1.1-1.9c0.2-0.2,0.4-0.2,0.5-0.2c1.9,0,3.7,0,5.6,0c0.7,0,1.2-0.4,1.2-0.7
			c0.2-0.9-0.2-1.2-1.1-1.4c-1.6,0-3,0-4.6,0c-0.2,0-0.4,0-0.5,0c0.4-0.5,0.5-1.1,0.9-1.6c1.4-2.5,2.8-5.1,4.2-7.6
			c0.2-0.4,0.4-0.5,0.9-0.5c0.5,0,1.1,0,1.8,0c-0.4,0.7-0.9,1.4-1.2,2.1c-0.9,1.6-1.8,3.3-2.8,4.9c-0.2,0.4-0.2,0.5,0.4,0.4
			c0.7,0,1.6,0,2.3,0.2c1.2,0.5,1.9,1.6,1.9,3c0,1.4-0.7,2.5-1.9,3c-0.4,0.2-0.7,0.2-1.1,0.2C247.3,87.4,244.8,87.4,242.2,87.4z"/>
		<path class="st3" d="M247.8,73.3c-0.4,0.7-0.7,1.4-1.1,1.9c-0.2,0.2-0.4,0.2-0.5,0.2c-1.9,0-3.9,0-5.8,0c-0.9,0-1.2,0.5-1.2,1.2
			c0,0.4,0.4,0.7,0.7,0.9c0.2,0,0.5,0,0.7,0c1.6,0,3.2,0,4.8,0c-0.4,0.7-0.9,1.4-1.2,2.3c-1.2,2.5-2.6,4.8-4.1,7.1
			c-0.2,0.4-0.4,0.4-0.7,0.4c-0.5,0-1.2,0-1.9,0c1.4-2.5,2.8-4.9,4.2-7.6c-0.5,0-0.9,0-1.4,0s-1.1-0.2-1.4-0.4
			c-1.4-0.5-2.1-1.8-1.9-3.3c0.2-1.6,1.1-2.5,2.6-2.8c0.4,0,0.7,0,1.1,0C243.1,73.3,245.4,73.3,247.8,73.3z"/>
		<path class="st3" d="M250.7,70.5c-0.5,0-0.9-0.4-0.9-0.9s0.4-0.9,0.9-0.9s0.9,0.4,0.9,0.9S251.2,70.5,250.7,70.5z"/>
	</g>
	<g>
		<path class="st3" d="M329.7,74.8c-3.9,0-6.7,2.7-6.7,6.4c0,3.7,2.8,6.4,6.7,6.4s6.7-2.8,6.7-6.4C336.4,77.4,333.6,74.8,329.7,74.8
			z M329.7,84.3c-1.9,0-3-1.2-3-3.1s1.2-3,3-3c1.9,0,3,1.1,3,3.1C332.6,83.1,331.4,84.3,329.7,84.3z"/>
		<path class="st3" d="M356.6,82.3c1.2,0,2.5,0,3.7,0h2.7c1.6,0,1.6,0,1.6-1.6c-0.2-3.9-2.5-6.1-6.2-5.9c-3.1,0.2-5.8,2.5-6.1,5.5
			c-0.3,3.6,1.4,6.2,4.7,7.2c2.5,0.6,4.7,0,6.7-1.9c0.3-0.3,0.3-0.5,0-0.6c-0.5-0.3-1.1-0.8-1.6-1.1c-0.5-0.5-0.8-0.5-1.2,0.2
			c-1.4,1.6-3.9,1.1-4.7-0.8C356,82.4,356,82.3,356.6,82.3z M356,79.3c0.3-1.1,1.2-1.9,2.5-1.9c1.1,0,2,0.6,2.3,1.7
			c0.2,0.5,0,0.6-0.5,0.6c-0.6,0-1.2,0-1.9,0c-0.6,0-1.4,0-2,0C356.2,79.8,356,79.8,356,79.3z"/>
		<path class="st3" d="M342,76.8c0.8-0.9,1.6-1.7,2.7-1.9c0.9-0.2,2-0.2,3,0.2c1.6,0.6,2,1.9,2.3,3.3c0.2,0.6,0.2,1.2,0.2,2
			c0,2.2,0,4.2,0,6.4c0,0.5-0.2,0.5-0.5,0.5c-0.8,0-1.7,0-2.5,0c-0.5,0-0.6-0.2-0.6-0.6c0-2,0-3.9,0-5.9c0-0.6,0-1.2-0.3-1.7
			c-0.3-0.6-0.9-0.9-1.7-0.9s-1.4,0.3-1.9,0.9c-0.3,0.6-0.3,1.2-0.3,1.9c0,1.9,0,3.7,0,5.6c0,0.5-0.2,0.6-0.6,0.6
			c-0.9,0-1.7,0-2.7,0c-0.3,0-0.5-0.2-0.5-0.5c0-3.7,0-7.5,0-11.2c0-0.3,0.2-0.5,0.5-0.5c0.9,0,1.7,0,2.7,0c0.5,0,0.5,0.2,0.5,0.5
			C342,75.9,342,76.2,342,76.8z"/>
		<path class="st3" d="M314.5,84.3c2.2,0,4.1,0,6.1,0c0.5,0,0.6,0.2,0.6,0.6c0,0.6,0,1.2,0,1.9c0,0.3-0.2,0.5-0.5,0.5
			c-3.3,0-6.6,0-9.8,0c-0.3,0-0.5-0.2-0.5-0.5c0-0.9,0-1.9,0-3c0-0.3,0.2-0.6,0.5-0.8c1.9-1.6,3.6-3.1,5.5-4.7
			c0.2-0.2,0.2-0.2,0.3-0.3c-1.9,0-3.6,0-5.3,0c-0.6,0-0.8-0.2-0.8-0.8c0-0.6,0-1.2,0-1.9c0-0.3,0-0.5,0.5-0.5c3.1,0,6.4,0,9.5,0
			c0.3,0,0.5,0.2,0.5,0.5c0,0.9,0,1.9,0,2.8c0,0.3-0.2,0.5-0.5,0.8c-1.9,1.6-3.6,3.1-5.5,4.7C315.2,83.8,314.8,84,314.5,84.3z"/>
		<path class="st3" d="M302.4,75.4c-3.6,0-5.9,2.5-5.9,6.1s2.5,6.1,6.1,6.1c3.4,0,5.9-2.7,5.9-6.2C308.5,77.9,306,75.3,302.4,75.4z
			 M302.4,86.2c-2.7,0-4.5-2-4.5-4.7c0-2.8,1.9-4.8,4.5-4.8c2.7,0,4.5,2,4.5,4.7C307,84.2,305,86.2,302.4,86.2z"/>
		<path class="st3" d="M273.4,77.8c1.4-2,3.1-2.7,5.3-2.2c1.7,0.5,2.8,1.7,3,3.9c0.2,2.5,0,5,0,7.5c0,0.3-0.2,0.3-0.3,0.3
			c-1.1,0.2-1.1,0.2-1.1-0.9c0-1.9,0-3.7,0-5.6c0-0.2,0-0.5,0-0.6c0-1.9-0.8-3-2-3.3c-1.6-0.5-3.4,0.3-4.2,1.9
			c-0.5,0.8-0.6,1.6-0.6,2.5c0,1.9,0,3.7,0,5.6c0,0.6-0.3,0.6-0.8,0.6s-0.8,0.2-0.8-0.6c0-3.1,0-6.2,0-9.4c0-0.3,0-0.5,0-0.6
			c-0.2-0.9,0.3-1.2,1.2-0.9c0.3,0.2,0.3,0.3,0.3,0.5C273.2,76.5,273.2,77.1,273.4,77.8z"/>
		<path class="st3" d="M289.6,85.6c0.8-2.2,1.6-4.4,2.3-6.4c0.5-1.1,0.8-2.2,1.2-3.1c0.2-0.3,1.2-0.6,1.6-0.3c0.2,0.2,0,0.3-0.2,0.5
			c-0.8,2-1.6,4.2-2.3,6.2c-0.6,1.4-1.1,3-1.7,4.4c-0.2,0.3-0.3,0.6-0.6,0.5c-0.5-0.2-0.9,0.3-1.2-0.5c-1.4-3.6-2.8-7-4.2-10.6
			c-0.2-0.5-0.2-0.6,0.5-0.6c1.1,0,1.1,0,1.4,0.9c1.1,2.8,2.2,5.6,3.1,8.4C289.3,85.1,289.4,85.2,289.6,85.6z"/>
		<path class="st3" d="M266.2,81.5c0-1.7,0-3.6,0-5.3c0-0.8,0.5-0.5,0.8-0.5c0.5,0,0.6,0,0.6,0.6c0,3.6,0,7,0,10.5
			c0,0.8-0.5,0.6-0.8,0.6c-0.5,0-0.8,0-0.8-0.6C266.2,84.9,266.2,83.2,266.2,81.5z"/>
		<path class="st3" d="M268.1,71c0,0.6-0.5,1.1-1.1,1.1c-0.6,0-1.1-0.5-1.1-1.1c0-0.6,0.6-1.1,1.1-1.1C267.6,70,268.1,70.4,268.1,71
			z"/>
	</g>
</g>
</svg>
