<svg width="50" height="43" viewBox="0 0 50 43" fill="none" xmlns="http://www.w3.org/2000/svg">
<path d="M43.2356 36.2105V40.7368C43.2356 41.3781 43.0192 41.9152 42.5862 42.3482C42.1548 42.7827 41.6197 43 40.9808 43C40.342 43 39.8068 42.7827 39.3754 42.3482C38.9425 41.9152 38.726 41.3781 38.726 40.7368V36.2105H34.2165C33.5776 36.2105 33.0425 35.9933 32.611 35.5587C32.1781 35.1257 31.9617 34.5886 31.9617 33.9474C31.9617 33.3061 32.1781 32.769 32.611 32.336C33.0425 31.9015 33.5776 31.6842 34.2165 31.6842H38.726V27.1579C38.726 26.5167 38.9425 25.9788 39.3754 25.5443C39.8068 25.1112 40.342 24.8947 40.9808 24.8947C41.6197 24.8947 42.1548 25.1112 42.5862 25.5443C43.0192 25.9788 43.2356 26.5167 43.2356 27.1579V31.6842H47.7452C48.3841 31.6842 48.9192 31.9015 49.3506 32.336C49.7835 32.769 50 33.3061 50 33.9474C50 34.5886 49.7835 35.1257 49.3506 35.5587C48.9192 35.9933 48.3841 36.2105 47.7452 36.2105H43.2356ZM4.90417 36.2105C4.26531 36.2105 3.73018 35.9933 3.29876 35.5587C2.86584 35.1257 2.64938 34.5886 2.64938 33.9474V22.6316H2.25479C1.54077 22.6316 0.958286 22.3577 0.507328 21.8101C0.0563696 21.2639 -0.0939496 20.6325 0.0563698 19.9158L2.31116 8.6C2.4239 8.07193 2.68696 7.63816 3.10034 7.29868C3.51372 6.95921 3.98346 6.78947 4.50958 6.78947H34.611C35.1372 6.78947 35.6069 6.95921 36.0203 7.29868C36.4337 7.63816 36.6967 8.07193 36.8095 8.6L39.0643 19.9158C39.2146 20.6325 39.0643 21.2639 38.6133 21.8101C38.1623 22.3577 37.5799 22.6316 36.8658 22.6316H36.4713V27.1579C36.4713 27.7991 36.2548 28.3362 35.8219 28.7693C35.3905 29.2038 34.8553 29.4211 34.2165 29.4211C33.5776 29.4211 33.0425 29.2038 32.611 28.7693C32.1781 28.3362 31.9617 27.7991 31.9617 27.1579V22.6316H22.9425V33.9474C22.9425 34.5886 22.7268 35.1257 22.2954 35.5587C21.8625 35.9933 21.3266 36.2105 20.6877 36.2105H4.90417ZM7.15896 31.6842H18.4329V22.6316H7.15896V31.6842ZM4.90417 4.52632C4.26531 4.52632 3.73018 4.30981 3.29876 3.87679C2.86584 3.44226 2.64938 2.90439 2.64938 2.26316C2.64938 1.62193 2.86584 1.08405 3.29876 0.649527C3.73018 0.216509 4.26531 0 4.90417 0H34.2165C34.8553 0 35.3905 0.216509 35.8219 0.649527C36.2548 1.08405 36.4713 1.62193 36.4713 2.26316C36.4713 2.90439 36.2548 3.44226 35.8219 3.87679C35.3905 4.30981 34.8553 4.52632 34.2165 4.52632H4.90417Z" fill="#0072FF"/>
</svg>
