<svg width="106" height="106" viewBox="0 0 106 106" fill="none" xmlns="http://www.w3.org/2000/svg">
<g filter="url(#filter0_d_276_4)">
<circle cx="53" cy="46" r="38" fill="#0072FF"/>
</g>
<path d="M41.996 29.3151L42.0285 29.2954L42.178 29.2067C43.1069 28.6753 44.0713 28.2098 45.064 27.8136C47.0075 27.0414 49.64 26.2857 52.5 26.2857C55.36 26.2857 57.9925 27.0414 59.9392 27.8136C60.931 28.2098 61.8942 28.6753 62.822 29.2067C62.8902 29.2461 62.939 29.2724 62.9682 29.2954L63.0007 29.3151H63.004C63.3676 29.5388 63.8034 29.6093 64.2179 29.5116C64.6323 29.4138 64.9923 29.1556 65.2204 28.7924C65.4486 28.4292 65.5267 27.99 65.438 27.5692C65.3493 27.1484 65.1008 26.7796 64.746 26.542H64.7428L64.7363 26.5354L64.72 26.5256L64.6615 26.4894C64.3575 26.3057 64.0487 26.1304 63.7352 25.9637C62.8887 25.5142 62.0186 25.1116 61.1287 24.7579C58.9512 23.8871 55.8962 23 52.5 23C49.1005 23 46.0487 23.8871 43.8712 24.7579C42.7238 25.2148 41.6095 25.7528 40.5367 26.3679C40.4703 26.4077 40.4042 26.4483 40.3385 26.4894L40.28 26.5223L40.2638 26.5354L40.2572 26.5387C39.8931 26.7718 39.6354 27.1416 39.5409 27.5668C39.4465 27.992 39.5229 28.4377 39.7535 28.8059C39.9841 29.174 40.3499 29.4345 40.7704 29.53C41.191 29.6256 41.6318 29.5482 41.996 29.3151ZM39.5 32.8571C37.7761 32.8571 36.1228 33.5495 34.9038 34.7819C33.6848 36.0143 33 37.6857 33 39.4286V52.5714C33 54.3143 33.6848 55.9857 34.9038 57.2181C36.1228 58.4505 37.7761 59.1429 39.5 59.1429H54.125C55.8489 59.1429 57.5022 58.4505 58.7212 57.2181C59.9402 55.9857 60.625 54.3143 60.625 52.5714V52.118L69.569 57.2831C69.8161 57.4258 70.0959 57.5004 70.3805 57.4995C70.6651 57.4985 70.9444 57.422 71.1905 57.2776C71.4367 57.1332 71.641 56.926 71.783 56.6767C71.9251 56.4275 71.9999 56.1448 72 55.8571V36.1429C71.9999 35.8552 71.9251 35.5725 71.783 35.3233C71.641 35.074 71.4367 34.8668 71.1905 34.7224C70.9444 34.578 70.6651 34.5015 70.3805 34.5005C70.0959 34.4996 69.8161 34.5742 69.569 34.7169L60.625 39.882V39.4286C60.625 37.6857 59.9402 36.0143 58.7212 34.7819C57.5022 33.5495 55.8489 32.8571 54.125 32.8571H39.5ZM60.625 43.6671L68.75 38.9751V53.0249L60.625 48.3329V43.6671ZM36.25 39.4286C36.25 38.5571 36.5924 37.7214 37.2019 37.1052C37.8114 36.489 38.638 36.1429 39.5 36.1429H54.125C54.987 36.1429 55.8136 36.489 56.4231 37.1052C57.0326 37.7214 57.375 38.5571 57.375 39.4286V52.5714C57.375 53.4429 57.0326 54.2786 56.4231 54.8948C55.8136 55.511 54.987 55.8571 54.125 55.8571H39.5C38.638 55.8571 37.8114 55.511 37.2019 54.8948C36.5924 54.2786 36.25 53.4429 36.25 52.5714V39.4286ZM41.9993 62.6881L41.996 62.6849C41.6324 62.4612 41.1966 62.3907 40.7821 62.4884C40.3677 62.5862 40.0077 62.8444 39.7796 63.2076C39.5514 63.5708 39.4733 64.01 39.562 64.4308C39.6507 64.8516 39.8992 65.2204 40.254 65.458H40.2572L40.2638 65.4646L40.28 65.4744L40.3385 65.5106C40.384 65.5434 40.4522 65.5796 40.5367 65.6321C40.709 65.7307 40.9528 65.872 41.2648 66.0396C41.8855 66.3681 42.776 66.8051 43.8712 67.2421C46.0487 68.1096 49.1038 69 52.5 69C55.8995 69 58.9512 68.1129 61.1287 67.2421C62.2762 66.7852 63.3905 66.2472 64.4632 65.6321L64.6615 65.5106L64.72 65.4777L64.7363 65.4646L64.7428 65.4613H64.746C65.1102 65.2277 65.3677 64.8575 65.4618 64.432C65.556 64.0065 65.4791 63.5607 65.2481 63.1925C65.0171 62.8243 64.6509 62.564 64.2301 62.4688C63.8092 62.3736 63.3682 62.4513 63.004 62.6849L62.9715 62.7079L62.822 62.7933C61.8931 63.3247 60.9288 63.7902 59.936 64.1864C57.9925 64.9586 55.36 65.7143 52.5 65.7143C49.64 65.7143 47.0075 64.9586 45.0608 64.1864C44.0692 63.7899 43.1059 63.3244 42.178 62.7933C42.129 62.7642 42.0802 62.7346 42.0317 62.7046L41.9993 62.6881Z" fill="white"/>
<defs>
<filter id="filter0_d_276_4" x="0" y="0" width="106" height="106" filterUnits="userSpaceOnUse" color-interpolation-filters="sRGB">
<feFlood flood-opacity="0" result="BackgroundImageFix"/>
<feColorMatrix in="SourceAlpha" type="matrix" values="0 0 0 0 0 0 0 0 0 0 0 0 0 0 0 0 0 0 127 0" result="hardAlpha"/>
<feOffset dy="7"/>
<feGaussianBlur stdDeviation="7.5"/>
<feComposite in2="hardAlpha" operator="out"/>
<feColorMatrix type="matrix" values="0 0 0 0 0 0 0 0 0 0.447059 0 0 0 0 1 0 0 0 0.25 0"/>
<feBlend mode="normal" in2="BackgroundImageFix" result="effect1_dropShadow_276_4"/>
<feBlend mode="normal" in="SourceGraphic" in2="effect1_dropShadow_276_4" result="shape"/>
</filter>
</defs>
</svg>
