<svg width="1440" height="255" viewBox="0 0 1440 255" fill="none" xmlns="http://www.w3.org/2000/svg">
<path fill-rule="evenodd" clip-rule="evenodd" d="M1440 54.1253C1432.83 58.4932 1424.44 61 1415.5 61C1389.41 61 1368 39.6491 1368 13C1368 8.48889 1368.61 4.1296 1369.76 0H1440V54.1253ZM1349.23 0H0V255H63.9588C61.3963 248.19 60 240.849 60 233.197C60 197.596 90.2208 168.736 127.5 168.736C164.779 168.736 195 197.596 195 233.197C195 240.849 193.604 248.19 191.041 255H1440V76.3822C1432.41 79.3638 1424.14 81 1415.5 81C1378.22 81 1348 50.5554 1348 13C1348 8.55411 1348.42 4.20787 1349.23 0ZM175 233.197C175 240.994 172.793 248.473 168.865 255H86.1348C82.2072 248.473 80 240.994 80 233.197C80 209.5 100.388 188.736 127.5 188.736C154.612 188.736 175 209.5 175 233.197Z" fill="#0072FF"/>
</svg>
