<svg width="403" height="276" viewBox="0 0 403 276" fill="none" xmlns="http://www.w3.org/2000/svg">
<path d="M403 238.869H0V239.03H403V238.869Z" fill="#E0E0E0"/>
<path d="M304.426 247.413H276.7V247.574H304.426V247.413Z" fill="#E0E0E0"/>
<path d="M89.5466 247.493H73.9102V247.654H89.5466V247.493Z" fill="#E0E0E0"/>
<path d="M202.306 247.01H170.711V247.171H202.306V247.01Z" fill="#E0E0E0"/>
<path d="M169.824 244.189H155.719V244.35H169.824V244.189Z" fill="#E0E0E0"/>
<path d="M342.228 244.27H299.51V244.431H342.228V244.27Z" fill="#E0E0E0"/>
<path d="M354.076 137.958C344.162 122.886 353.189 106.605 351.738 89.8399C350.207 73.0751 334.248 69.3675 337.311 55.1819C340.777 38.6589 331.508 22.8613 320.949 22.8613C310.391 22.8613 301.041 38.7395 304.587 55.1819C307.57 69.4481 291.611 73.0751 290.16 89.8399C288.629 106.605 297.736 122.886 287.823 137.958C277.909 153.03 280.488 173.019 286.13 182.933C287.661 185.673 289.515 188.091 291.45 190.187C307.328 207.355 334.812 207.355 350.691 190.187C352.706 188.011 354.479 185.593 356.01 182.933C361.41 173.1 363.99 153.111 354.076 137.958Z" fill="#E0E0E0"/>
<path d="M325.866 238.869H315.872V154.481C315.872 151.741 318.128 149.484 320.869 149.484C323.609 149.484 325.866 151.741 325.866 154.481V238.869Z" fill="#F0F0F0"/>
<path d="M257.84 238.869H244.218V154.481C244.218 150.693 247.281 147.63 251.069 147.63C254.857 147.63 257.92 150.693 257.92 154.481V238.869H257.84Z" fill="#E0E0E0"/>
<path d="M250.988 216.14C274.225 216.14 293.062 197.303 293.062 174.067C293.062 150.831 274.225 131.994 250.988 131.994C227.752 131.994 208.915 150.831 208.915 174.067C208.915 197.303 227.752 216.14 250.988 216.14Z" fill="#F0F0F0"/>
<path d="M300.486 161.448C302.697 152.549 297.275 143.542 288.376 141.331C279.476 139.12 270.47 144.542 268.259 153.442C266.048 162.341 271.47 171.348 280.37 173.559C289.269 175.769 298.276 170.347 300.486 161.448Z" fill="#F0F0F0"/>
<path d="M226.731 149.176C227.605 143.816 223.967 138.763 218.607 137.89C213.247 137.016 208.194 140.654 207.321 146.014C206.447 151.374 210.085 156.427 215.445 157.3C220.805 158.174 225.858 154.536 226.731 149.176Z" fill="#F0F0F0"/>
<path d="M227.695 149.404C231.479 149.404 234.546 146.336 234.546 142.553C234.546 138.769 231.479 135.702 227.695 135.702C223.911 135.702 220.844 138.769 220.844 142.553C220.844 146.336 223.911 149.404 227.695 149.404Z" fill="#F0F0F0"/>
<path d="M164.424 188.494C157.412 189.542 151.367 192.041 146.128 195.507C146.047 189.139 144.919 183.094 141.937 178.178C137.343 182.611 133.716 188.414 130.653 194.539C129.524 182.933 126.462 171.649 119.691 164.476C109.536 170.843 104.297 181.482 101.879 192.686C97.8486 185.512 92.2872 178.822 84.5496 173.986C78.3434 180.515 76.409 189.542 76.5702 198.811C69.558 190.59 61.7398 184.223 54.0828 183.497C52.1484 196.474 56.1784 208.725 61.2562 218.397C67.946 231.051 81.1644 238.869 95.5112 238.869H128.638C142.743 238.869 155.961 231.374 162.57 218.881C166.762 210.982 168.777 200.826 164.424 188.494Z" fill="#E0E0E0"/>
<path d="M154.994 21.0075C159.105 8.99807 155.8 0.454468 145.806 0.454468C139.519 0.454468 131.781 3.83967 124.205 9.32047C123.318 6.17707 120.9 4.32327 117.031 4.32327C110.18 4.32327 100.831 10.1265 93.4157 18.2671C91.6425 16.4133 89.0633 15.3655 85.7587 15.1237C79.2301 14.7207 71.3313 18.1059 64.4803 23.5061C63.9161 22.6195 62.8683 22.0553 61.4175 21.9747C57.6293 21.7329 52.5515 25.1181 50.0529 29.4705C49.8917 29.7123 49.7305 30.0347 49.6499 30.2765H57.4681H63.6743H85.2751H95.9143H104.216H116.87H119.208H150.722H156.928C157.251 26.4883 156.606 23.2643 154.994 21.0075Z" fill="#F0F0F0"/>
<path d="M155.317 93.7891C157.332 87.9053 155.72 83.7947 150.803 83.7947C147.74 83.7947 143.952 85.4067 140.244 88.0665C139.841 86.5351 138.632 85.6485 136.779 85.6485C133.474 85.6485 128.88 88.4695 125.253 92.4189C124.366 91.5323 123.157 90.9681 121.465 90.8875C118.241 90.7263 114.372 92.3383 111.067 94.9981C110.745 94.5951 110.261 94.2727 109.616 94.2727C107.763 94.1921 105.264 95.8041 104.055 97.8997C103.974 98.0609 103.894 98.1415 103.813 98.3027H107.601H110.664H121.223H126.381H130.411H136.617H137.746H153.14H156.203C156.445 96.4489 156.123 94.9175 155.317 93.7891Z" fill="#F0F0F0"/>
<path d="M276.297 49.5399C275.894 49.4593 275.491 49.4593 275.088 49.4593C275.491 43.5755 273.234 39.8679 268.479 39.8679C265.013 39.8679 260.822 41.8023 256.469 45.1069C257.678 33.7423 253.729 26.4077 244.782 26.4077C237.609 26.4077 228.421 31.2437 219.393 39.0619C218.587 34.6289 215.928 31.9691 211.495 31.9691C203.676 31.9691 192.473 40.1903 183.607 51.8773C181.673 49.2981 178.771 47.6861 174.983 47.4443C167.487 46.8801 158.218 51.6355 149.997 59.3731C149.352 58.0835 148.224 57.2775 146.612 57.1163C142.501 56.7939 136.859 61.0657 133.635 66.7883H143.146H149.594H174.419H186.025H196.422H211.172H238.979H249.78H253.648H269.043H282.906C286.372 58.0835 283.551 50.5071 276.297 49.5399Z" fill="#F0F0F0"/>
<path d="M201.5 275.22C287.813 275.22 357.783 271.143 357.783 266.113C357.783 261.083 287.813 257.005 201.5 257.005C115.187 257.005 45.2164 261.083 45.2164 266.113C45.2164 271.143 115.187 275.22 201.5 275.22Z" fill="#F5F5F5"/>
<path d="M39.4136 52.0387L223.101 78.4755L247.765 103.381L39.4136 52.0387Z" fill="#407BFF"/>
<path opacity="0.6" d="M39.4136 52.0387L223.101 78.4755L247.765 103.381L39.4136 52.0387Z" fill="white"/>
<path d="M39.4136 52.0387L223.101 78.4755L214.557 114.423L39.4136 52.0387Z" fill="#407BFF"/>
<path opacity="0.2" d="M39.4136 52.0387L223.101 78.4755L214.557 114.423L39.4136 52.0387Z" fill="black"/>
<path d="M210.85 10.3678L221.489 60.3398C222.053 63.0802 220.361 65.74 217.62 66.3042L122.432 86.6154C119.691 87.1796 117.031 85.487 116.467 82.7466L105.828 32.7746C105.506 31.3238 105.828 29.9536 106.634 28.8252C107.359 27.858 108.407 27.052 109.697 26.8102L204.885 6.49896C206.175 6.25716 207.465 6.49896 208.512 7.14376C209.641 7.78856 210.527 8.91696 210.85 10.3678Z" fill="#407BFF"/>
<path opacity="0.4" d="M210.85 10.3678L221.489 60.3398C222.053 63.0802 220.361 65.74 217.62 66.3042L122.432 86.6154C119.691 87.1796 117.031 85.487 116.467 82.7466L105.828 32.7746C105.506 31.3238 105.828 29.9536 106.634 28.8252C107.359 27.858 108.407 27.052 109.697 26.8102L204.885 6.49896C206.175 6.25716 207.465 6.49896 208.512 7.14376C209.641 7.78856 210.527 8.91696 210.85 10.3678Z" fill="black"/>
<path d="M208.512 7.06393L176.675 46.0743C170.63 53.4895 160.152 55.7463 151.609 51.3939L106.634 28.7453C107.359 27.7781 108.407 26.9721 109.697 26.7303L204.885 6.41912C206.175 6.17732 207.464 6.41913 208.512 7.06393Z" fill="#407BFF"/>
<path d="M39.4136 52.0387L190.942 87.9863L214.557 114.423L39.4136 52.0387Z" fill="#407BFF"/>
<path opacity="0.6" d="M39.4136 52.0387L190.942 87.9863L214.557 114.423L39.4136 52.0387Z" fill="white"/>
<path d="M94.6941 86.7174L94.2866 87.4128L111.116 97.2727L111.523 96.5773L94.6941 86.7174Z" fill="#407BFF"/>
<path d="M118.972 100.999L118.564 101.695L124.614 105.239L125.022 104.544L118.972 100.999Z" fill="#407BFF"/>
<path d="M39.4136 52.0387L190.942 87.9863L161.442 123.531L39.4136 52.0387Z" fill="#407BFF"/>
<path d="M242.122 136.427C241.961 136.427 241.719 136.427 241.558 136.346L216.814 126.513C216.008 126.191 215.605 125.223 215.927 124.417C216.25 123.611 217.217 123.208 218.023 123.531L242.687 133.283C243.493 133.606 243.896 134.573 243.573 135.379C243.331 136.024 242.767 136.427 242.122 136.427Z" fill="#407BFF"/>
<path opacity="0.3" d="M242.122 136.427C241.961 136.427 241.719 136.427 241.558 136.346L216.814 126.513C216.008 126.191 215.605 125.223 215.927 124.417C216.25 123.611 217.217 123.208 218.023 123.531L242.687 133.283C243.493 133.606 243.896 134.573 243.573 135.379C243.331 136.024 242.767 136.427 242.122 136.427Z" fill="black"/>
<path d="M240.672 122.241C240.511 122.241 240.269 122.241 240.108 122.161L226.809 116.922C226.003 116.599 225.6 115.632 225.922 114.826C226.244 114.02 227.212 113.617 228.018 113.939L241.317 119.178C242.123 119.501 242.526 120.468 242.203 121.274C241.881 121.838 241.317 122.241 240.672 122.241Z" fill="#407BFF"/>
<path opacity="0.5" d="M240.672 122.241C240.511 122.241 240.269 122.241 240.108 122.161L226.809 116.922C226.003 116.599 225.6 115.632 225.922 114.826C226.244 114.02 227.212 113.617 228.018 113.939L241.317 119.178C242.123 119.501 242.526 120.468 242.203 121.274C241.881 121.838 241.317 122.241 240.672 122.241Z" fill="white"/>
<path d="M212.945 136.185C212.784 136.185 212.542 136.185 212.381 136.104L188.282 126.513C187.476 126.191 187.073 125.223 187.395 124.417C187.718 123.611 188.685 123.208 189.491 123.531L213.59 133.042C214.396 133.364 214.799 134.331 214.477 135.137C214.154 135.782 213.59 136.185 212.945 136.185Z" fill="#407BFF"/>
<path opacity="0.3" d="M212.945 136.185C212.784 136.185 212.542 136.185 212.381 136.104L188.282 126.513C187.476 126.191 187.073 125.223 187.395 124.417C187.718 123.611 188.685 123.208 189.491 123.531L213.59 133.042C214.396 133.364 214.799 134.331 214.477 135.137C214.154 135.782 213.59 136.185 212.945 136.185Z" fill="black"/>
<path d="M300.074 63.4838C302.169 67.675 304.184 71.7856 306.038 76.138C307.892 80.4098 309.665 84.7622 311.116 89.2758L311.68 90.9684C311.761 91.2908 311.922 91.7744 312.003 92.0968C312.083 92.4998 312.164 92.8222 312.164 93.2252C312.406 94.5954 312.406 95.885 312.406 97.1746C312.406 99.6732 312.244 102.011 312.083 104.348C311.6 109.023 310.874 113.617 309.907 118.211L305.474 117.728C305.393 113.214 305.393 108.62 305.232 104.106C305.152 101.849 304.99 99.6732 304.829 97.5776C304.749 96.5298 304.507 95.482 304.346 94.676C304.265 94.4342 304.265 94.273 304.184 94.1118C304.104 93.9506 304.104 93.87 304.023 93.6282L303.378 92.0968C301.686 87.9862 299.832 83.8756 297.898 79.8456L292.014 67.5944L300.074 63.4838Z" fill="#E4897B"/>
<path d="M305.555 116.357L303.459 120.226L310.068 122.08C310.068 122.08 311.358 118.937 309.826 116.519L305.555 116.357Z" fill="#E4897B"/>
<path d="M300.961 125.788L307.086 126.272L310.149 122.08L303.54 120.227L300.961 125.788Z" fill="#E4897B"/>
<path d="M272.347 35.6772C272.267 36.1608 271.944 36.4832 271.622 36.4026C271.299 36.322 271.138 35.919 271.219 35.4354C271.299 34.9518 271.622 34.6294 271.944 34.71C272.267 34.7906 272.428 35.1936 272.347 35.6772Z" fill="#263238"/>
<path d="M271.944 36.4833C271.944 36.4833 270.332 38.9819 268.881 40.0297C269.526 40.9969 271.058 40.9163 271.058 40.9163L271.944 36.4833Z" fill="#DE5753"/>
<path d="M274.604 33.4205C274.524 33.4205 274.443 33.4205 274.363 33.3399C273.557 32.4533 272.509 32.6145 272.509 32.6145C272.348 32.6145 272.186 32.5339 272.186 32.3727C272.186 32.2115 272.267 32.0503 272.428 32.0503C272.509 32.0503 273.798 31.8085 274.846 33.0175C274.927 33.0981 274.927 33.3399 274.846 33.4205C274.685 33.3399 274.604 33.4205 274.604 33.4205Z" fill="#263238"/>
<path d="M285.646 42.2053C284.76 46.5577 283.954 54.4565 287.017 57.3581C287.017 57.3581 285.808 61.7911 277.748 61.7911C268.882 61.7911 273.556 57.3581 273.556 57.3581C278.392 56.2297 278.231 52.6027 277.425 49.2175L285.646 42.2053Z" fill="#E4897B"/>
<path d="M288.226 60.0993C288.871 58.0037 289.596 55.5857 288.145 54.7797C286.533 53.9737 277.748 53.0871 274.766 54.6991C271.783 56.2305 272.589 60.5829 272.589 60.5829L288.226 60.0993Z" fill="#263238"/>
<path d="M306.764 261.115C306.119 261.115 305.555 261.034 305.313 260.712C305.232 260.551 305.152 260.39 305.313 260.067C305.393 259.906 305.555 259.825 305.716 259.745C306.602 259.584 308.214 260.631 308.295 260.712C308.376 260.712 308.376 260.793 308.376 260.873C308.376 260.954 308.295 260.954 308.295 260.954C308.053 261.034 307.408 261.115 306.764 261.115ZM306.038 259.987C305.958 259.987 305.958 259.987 305.877 259.987C305.796 259.987 305.635 260.067 305.635 260.148C305.474 260.39 305.555 260.47 305.635 260.47C305.877 260.793 307.086 260.793 307.973 260.631C307.408 260.47 306.602 259.987 306.038 259.987Z" fill="#407BFF"/>
<path d="M308.295 260.954C307.65 260.631 306.441 259.342 306.522 258.616C306.522 258.536 306.603 258.294 307.006 258.213C307.247 258.213 307.409 258.213 307.57 258.375C308.295 258.939 308.376 260.631 308.376 260.712C308.456 260.873 308.456 260.954 308.295 260.954C308.376 260.954 308.376 260.954 308.295 260.954ZM307.086 258.536C306.844 258.536 306.844 258.616 306.844 258.697C306.764 259.1 307.489 260.067 308.134 260.551C308.053 260.067 307.892 259.019 307.409 258.697C307.328 258.616 307.247 258.536 307.086 258.536Z" fill="#407BFF"/>
<path d="M271.219 261.115C270.494 261.115 269.688 261.034 269.446 260.631C269.365 260.551 269.285 260.309 269.446 259.987C269.526 259.825 269.688 259.745 269.929 259.664C270.897 259.422 272.992 260.551 273.073 260.631C273.153 260.631 273.153 260.712 273.153 260.793C273.153 260.873 273.073 260.873 273.073 260.873C272.67 261.034 271.944 261.115 271.219 261.115ZM270.332 259.987C270.252 259.987 270.171 259.987 270.091 259.987C269.929 259.987 269.849 260.067 269.849 260.148C269.768 260.309 269.768 260.39 269.849 260.47C270.091 260.873 271.622 260.873 272.75 260.712C272.025 260.47 270.977 259.987 270.332 259.987Z" fill="#407BFF"/>
<path d="M272.992 260.954C272.186 260.632 270.816 259.342 270.897 258.698C270.897 258.536 271.058 258.375 271.38 258.295C271.703 258.295 271.944 258.375 272.186 258.536C272.912 259.181 273.073 260.713 273.073 260.793C273.073 260.874 273.073 260.874 272.992 260.954C273.073 260.954 273.073 260.954 272.992 260.954ZM271.622 258.536H271.541C271.3 258.536 271.3 258.698 271.3 258.698C271.219 259.101 272.186 260.068 272.912 260.551C272.831 260.068 272.589 259.101 272.106 258.698C271.944 258.617 271.783 258.536 271.622 258.536Z" fill="#407BFF"/>
<path d="M279.521 260.793H273.637L272.992 247.091H278.957L279.521 260.793Z" fill="#E4897B"/>
<path d="M315.065 260.793H309.182L306.199 247.091H312.083L315.065 260.793Z" fill="#E4897B"/>
<path d="M308.779 260.148H315.469C315.71 260.148 315.952 260.309 315.952 260.551L317.161 265.79C317.322 266.354 316.839 266.838 316.275 266.838C313.937 266.838 312.809 266.677 309.907 266.677C308.134 266.677 304.426 266.838 301.928 266.838C299.51 266.838 299.107 264.42 300.155 264.178C304.749 263.211 306.441 261.841 307.892 260.47C308.053 260.309 308.376 260.148 308.779 260.148Z" fill="#263238"/>
<path d="M273.637 260.148H280.085C280.327 260.148 280.569 260.309 280.569 260.551L281.778 265.79C281.939 266.354 281.455 266.838 280.891 266.838C278.554 266.838 275.169 266.677 272.267 266.677C268.801 266.677 265.9 266.838 261.87 266.838C259.452 266.838 258.726 264.42 259.774 264.178C264.368 263.13 268.156 263.05 272.186 260.551C272.67 260.309 273.154 260.148 273.637 260.148Z" fill="#263238"/>
<path d="M270.816 67.7561C265.819 67.3531 260.983 66.7083 256.066 65.8217C253.648 65.3381 251.15 64.8545 248.732 64.1291C246.314 63.4843 243.815 62.7589 241.316 61.7111C240.672 61.4693 240.107 61.1469 239.463 60.9051C238.657 60.5021 238.012 60.0991 237.448 59.6961C236.319 58.8901 235.271 58.1647 234.304 57.3587C232.37 55.7467 230.516 54.1347 228.662 52.4421C225.035 49.1375 221.65 45.6717 218.345 42.0447L221.328 38.7401L233.015 47.1225C234.949 48.4927 236.883 49.8629 238.818 51.1525C239.785 51.7973 240.752 52.3615 241.639 52.9257C242.122 53.1675 242.525 53.4093 242.767 53.4899C243.251 53.6511 243.734 53.8929 244.218 54.0541C248.329 55.4243 252.923 56.3109 257.517 57.0363C262.111 57.7617 266.867 58.3259 271.461 58.8095L270.816 67.7561Z" fill="#E4897B"/>
<path d="M297.575 58.7284C303.137 60.018 308.698 76.2186 308.698 76.2186L297.253 84.4398C297.253 84.4398 294.029 76.8634 290.886 70.2542C287.742 63.3226 291.933 57.4388 297.575 58.7284Z" fill="#407BFF"/>
<path opacity="0.4" d="M297.575 58.7284C303.137 60.018 308.698 76.2186 308.698 76.2186L297.253 84.4398C297.253 84.4398 294.029 76.8634 290.886 70.2542C287.742 63.3226 291.933 57.4388 297.575 58.7284Z" fill="black"/>
<path d="M294.351 67.5945L292.095 72.6723C294.432 77.7501 296.608 82.7473 297.172 84.1175C297.092 78.0725 295.963 70.6573 294.351 67.5945Z" fill="#407BFF"/>
<path opacity="0.6" d="M294.351 67.5945L292.095 72.6723C294.432 77.7501 296.608 82.7473 297.172 84.1175C297.092 78.0725 295.963 70.6573 294.351 67.5945Z" fill="black"/>
<path d="M264.449 59.0507C264.449 59.0507 258.162 66.1435 264.126 110.232C273.637 110.232 291.127 110.232 295.802 110.232C296.044 105.396 292.981 81.6187 297.656 58.7283C297.656 58.7283 292.256 57.5999 287.017 57.3581C282.987 57.1969 277.103 57.0357 273.556 57.3581C268.801 57.8417 264.449 59.0507 264.449 59.0507Z" fill="#407BFF"/>
<path opacity="0.4" d="M264.449 59.0507C264.449 59.0507 258.162 66.1435 264.126 110.232C273.637 110.232 291.127 110.232 295.802 110.232C296.044 105.396 292.981 81.6187 297.656 58.7283C297.656 58.7283 292.256 57.5999 287.017 57.3581C282.987 57.1969 277.103 57.0357 273.556 57.3581C268.801 57.8417 264.449 59.0507 264.449 59.0507Z" fill="black"/>
<path d="M262.111 67.5945C261.869 69.2871 261.708 71.2215 261.628 73.5589C264.207 72.7529 267.511 71.4633 270.413 69.4483L262.111 67.5945Z" fill="#407BFF"/>
<path opacity="0.6" d="M262.111 67.5945C261.869 69.2871 261.708 71.2215 261.628 73.5589C264.207 72.7529 267.511 71.4633 270.413 69.4483L262.111 67.5945Z" fill="black"/>
<path d="M275.652 68.4813C271.38 72.2695 255.26 71.8665 255.26 71.8665L254.696 56.2301C254.696 56.2301 263.884 57.6003 271.219 57.4391C280.246 57.1973 280.246 64.3707 275.652 68.4813Z" fill="#407BFF"/>
<path opacity="0.4" d="M275.652 68.4813C271.38 72.2695 255.26 71.8665 255.26 71.8665L254.696 56.2301C254.696 56.2301 263.884 57.6003 271.219 57.4391C280.246 57.1973 280.246 64.3707 275.652 68.4813Z" fill="black"/>
<path d="M221.489 38.8201L217.459 34.0647L213.106 38.9007C213.106 38.9007 215.766 43.4143 220.038 42.6889L221.489 38.8201Z" fill="#E4897B"/>
<path d="M211.656 28.584L210.124 34.7902L213.026 38.9008L217.378 34.1454L211.656 28.584Z" fill="#E4897B"/>
<path d="M273.073 247.091L273.314 254.184H279.279L278.956 247.091H273.073Z" fill="#CE6F64"/>
<path d="M312.083 247.091H306.199L307.731 254.184H313.695L312.083 247.091Z" fill="#CE6F64"/>
<path d="M276.619 29.7934C271.3 27.3754 269.607 16.6556 284.921 19.3154C284.921 19.3154 282.584 21.8946 287.258 23.5066C291.933 25.038 288.064 35.0324 276.619 29.7934Z" fill="#263238"/>
<path d="M288.145 37.8533C286.614 43.4953 286.05 46.9611 282.503 49.2985C277.264 52.8449 270.655 48.7343 270.494 42.7699C270.333 37.3697 272.831 28.9873 278.957 27.8589C284.921 26.6499 289.677 32.1307 288.145 37.8533Z" fill="#E4897B"/>
<path d="M284.679 22.1362C288.306 24.1512 293.223 25.3602 292.739 28.2618C292.175 31.7276 295.721 29.5514 294.835 34.7904C294.27 38.1756 287.984 48.4924 283.551 48.0088C276.861 47.2834 277.747 37.0472 277.747 31.7276C277.747 28.5842 277.586 18.1868 284.679 22.1362Z" fill="#263238"/>
<path d="M276.941 26.65C275.329 27.053 273.153 36.322 279.44 37.2086C286.613 38.1758 276.941 26.65 276.941 26.65Z" fill="#263238"/>
<path d="M277.103 29.9543C275.088 30.1155 270.655 27.7781 271.219 24.1511C271.219 24.1511 274.04 28.3423 277.103 29.9543Z" fill="#263238"/>
<path d="M280.005 37.9339C279.36 39.3041 278.231 40.4325 277.103 41.0773C275.41 41.9639 274.443 40.6743 274.846 38.9817C275.169 37.4503 276.458 35.1129 278.231 34.9517C280.005 34.7099 280.73 36.3219 280.005 37.9339Z" fill="#E4897B"/>
<path d="M288.87 31.3247C290.079 30.6799 292.82 29.3097 293.545 25.4409C293.545 25.4409 296.205 32.8561 288.87 31.3247Z" fill="#263238"/>
<path d="M295.641 31.3247C295.077 31.0023 293.706 30.1963 291.772 30.9217C291.772 30.9217 294.271 27.6977 295.641 31.3247Z" fill="#263238"/>
<path d="M275.33 110.232C275.33 110.232 282.019 155.449 285.727 172.455C289.757 190.993 304.99 252.894 304.99 252.894H315.871C315.871 252.894 305.796 192.525 303.54 174.148C301.041 154.159 295.802 110.232 295.802 110.232H275.33Z" fill="#407BFF"/>
<path opacity="0.5" d="M275.33 110.232C275.33 110.232 282.019 155.449 285.727 172.455C289.757 190.993 304.99 252.894 304.99 252.894H315.871C315.871 252.894 305.796 192.525 303.54 174.148C301.041 154.159 295.802 110.232 295.802 110.232H275.33Z" fill="white"/>
<path d="M303.217 248.864C303.137 248.864 304.346 253.055 304.346 253.055H316.516L316.275 249.348L303.217 248.864Z" fill="#407BFF"/>
<path opacity="0.1" d="M303.217 248.864C303.137 248.864 304.346 253.055 304.346 253.055H316.516L316.275 249.348L303.217 248.864Z" fill="black"/>
<path d="M279.521 126.352C287.259 127.884 286.453 156.819 285.566 171.73C283.309 161.171 280.085 140.941 277.828 126.513C278.312 126.272 278.876 126.191 279.521 126.352Z" fill="#407BFF"/>
<path opacity="0.4" d="M279.521 126.352C287.259 127.884 286.453 156.819 285.566 171.73C283.309 161.171 280.085 140.941 277.828 126.513C278.312 126.272 278.876 126.191 279.521 126.352Z" fill="white"/>
<path d="M264.045 110.232C264.045 110.232 263.239 154.481 263.884 172.536C264.529 191.316 271.138 252.813 271.138 252.813H281.133C281.133 252.813 281.536 192.444 281.939 173.987C282.422 153.917 284.84 110.232 284.84 110.232H264.045Z" fill="#407BFF"/>
<path opacity="0.5" d="M264.045 110.232C264.045 110.232 263.239 154.481 263.884 172.536C264.529 191.316 271.138 252.813 271.138 252.813H281.133C281.133 252.813 281.536 192.444 281.939 173.987C282.422 153.917 284.84 110.232 284.84 110.232H264.045Z" fill="white"/>
<path d="M273.234 245.64C273.154 245.64 273.154 245.64 273.154 245.559C271.38 228.553 267.189 187.366 266.706 172.616C266.141 157.544 266.625 123.692 266.786 113.698C266.786 113.617 266.867 113.617 266.867 113.617C266.947 113.617 266.947 113.698 266.947 113.698C266.786 123.692 266.303 157.544 266.867 172.616C267.431 187.366 271.542 228.553 273.315 245.559C273.315 245.559 273.315 245.64 273.234 245.64Z" fill="#407BFF"/>
<path opacity="0.4" d="M273.234 245.64C273.154 245.64 273.154 245.64 273.154 245.559C271.38 228.553 267.189 187.366 266.706 172.616C266.141 157.544 266.625 123.692 266.786 113.698C266.786 113.617 266.867 113.617 266.867 113.617C266.947 113.617 266.947 113.698 266.947 113.698C266.786 123.692 266.303 157.544 266.867 172.616C267.431 187.366 271.542 228.553 273.315 245.559C273.315 245.559 273.315 245.64 273.234 245.64Z" fill="white"/>
<path d="M269.204 248.864C269.123 248.864 269.768 253.055 269.768 253.055H281.939L282.261 249.348L269.204 248.864Z" fill="#407BFF"/>
<path opacity="0.1" d="M269.204 248.864C269.123 248.864 269.768 253.055 269.768 253.055H281.939L282.261 249.348L269.204 248.864Z" fill="black"/>
</svg>
