<svg width="71" height="71" viewBox="0 0 71 71" fill="none" xmlns="http://www.w3.org/2000/svg">
<circle cx="35.0554" cy="35.0553" r="35.0178" fill="#DFEDFF"/>
<path d="M46.1111 35.8274V32.6667H43.6667V36.3334C43.6667 36.6575 43.7955 36.9683 44.0248 37.1975L47.3333 40.5061V42.4445H20.4444V40.5061L23.753 37.1975C23.9822 36.9683 24.111 36.6575 24.1111 36.3334V31.4445C24.1077 29.727 24.5576 28.0391 25.4153 26.5511C26.2731 25.0632 27.5083 23.8279 28.9962 22.9701C30.4841 22.1123 32.1721 21.6624 33.8896 21.6657C35.607 21.6691 37.2932 22.1256 38.7778 22.9892V20.2575C37.6143 19.7424 36.3769 19.414 35.1111 19.2846V16.7778H32.6667V19.2834C29.6534 19.5901 26.8608 21.0032 24.829 23.2495C22.7972 25.4958 21.6705 28.4156 21.6667 31.4445V35.8274L18.3581 39.1359C18.1289 39.3651 18.0001 39.6759 18 40.0001V43.6667C18 43.9909 18.1288 44.3018 18.358 44.531C18.5872 44.7602 18.8981 44.8889 19.2222 44.8889H27.7778V46.1112C27.7778 47.7319 28.4216 49.2863 29.5677 50.4324C30.7137 51.5784 32.2681 52.2223 33.8889 52.2223C35.5097 52.2223 37.064 51.5784 38.2101 50.4324C39.3562 49.2863 40 47.7319 40 46.1112V44.8889H48.5556C48.8797 44.8889 49.1906 44.7602 49.4198 44.531C49.649 44.3018 49.7778 43.9909 49.7778 43.6667V40.0001C49.7777 39.6759 49.6489 39.3651 49.4197 39.1359L46.1111 35.8274ZM37.5556 46.1112C37.5556 47.0836 37.1692 48.0163 36.4816 48.7039C35.794 49.3915 34.8613 49.7778 33.8889 49.7778C32.9164 49.7778 31.9838 49.3915 31.2962 48.7039C30.6085 48.0163 30.2222 47.0836 30.2222 46.1112V44.8889H37.5556V46.1112Z" fill="#0072FF"/>
<path d="M46.1111 30.2223C48.8111 30.2223 50.9999 28.0335 50.9999 25.3334C50.9999 22.6333 48.8111 20.4445 46.1111 20.4445C43.411 20.4445 41.2222 22.6333 41.2222 25.3334C41.2222 28.0335 43.411 30.2223 46.1111 30.2223Z" fill="#0072FF"/>
</svg>
