<svg width="106" height="106" viewBox="0 0 106 106" fill="none" xmlns="http://www.w3.org/2000/svg">
<g filter="url(#filter0_d_261_5)">
<circle cx="53" cy="46" r="38" fill="#0072FF"/>
</g>
<path d="M61.9084 53.24V59H44.6284V53.24H50.3084V43.04C50.0684 43.36 49.6951 43.68 49.1884 44C48.6818 44.32 48.1084 44.6267 47.4684 44.92C46.8551 45.2133 46.2284 45.4533 45.5884 45.64C44.9484 45.8 44.3618 45.88 43.8284 45.88V39.96C44.2818 39.96 44.8418 39.8267 45.5084 39.56C46.1751 39.2667 46.8418 38.9067 47.5084 38.48C48.2018 38.0533 48.8018 37.6267 49.3084 37.2C49.8418 36.7733 50.1751 36.4267 50.3084 36.16H56.8284V53.24H61.9084Z" fill="white"/>
<defs>
<filter id="filter0_d_261_5" x="0" y="0" width="106" height="106" filterUnits="userSpaceOnUse" color-interpolation-filters="sRGB">
<feFlood flood-opacity="0" result="BackgroundImageFix"/>
<feColorMatrix in="SourceAlpha" type="matrix" values="0 0 0 0 0 0 0 0 0 0 0 0 0 0 0 0 0 0 127 0" result="hardAlpha"/>
<feOffset dy="7"/>
<feGaussianBlur stdDeviation="7.5"/>
<feComposite in2="hardAlpha" operator="out"/>
<feColorMatrix type="matrix" values="0 0 0 0 0 0 0 0 0 0.447059 0 0 0 0 1 0 0 0 0.25 0"/>
<feBlend mode="normal" in2="BackgroundImageFix" result="effect1_dropShadow_261_5"/>
<feBlend mode="normal" in="SourceGraphic" in2="effect1_dropShadow_261_5" result="shape"/>
</filter>
</defs>
</svg>
