<svg width="466" height="397" viewBox="0 0 466 397" fill="none" xmlns="http://www.w3.org/2000/svg">
<path d="M198.086 139.916L198.605 125.059L189.461 122.081C189.08 116.99 188.249 111.969 187.036 107.155L194.76 101.441L189.496 87.4849L179.936 88.2467C177.65 83.7447 174.983 79.4505 171.969 75.3987L176.922 67.1219L166.739 56.2478L158.184 60.6113C154.339 57.3214 150.252 54.3777 145.922 51.7458L147.307 42.2569L133.73 36.0926L127.495 43.3651C122.75 41.8414 117.831 40.6639 112.774 39.902L110.453 30.5863L95.5594 30.0669L92.6152 39.2094C87.4889 39.625 82.5011 40.4215 77.6865 41.6336L71.9368 33.9455L57.9779 39.1748L58.74 48.7329C54.2371 51.0532 49.9421 53.7198 45.8895 56.7326L37.6459 51.8151L26.7351 61.9619L31.0994 70.5504C27.8089 74.3598 24.8647 78.4808 22.2669 82.8097L12.7763 81.3898L6.57623 94.9651L13.9193 101.199C12.3953 105.943 11.183 110.895 10.4556 115.917L1.10354 118.272L0.583984 133.128L9.76286 136.107C10.1439 141.232 10.9752 146.219 12.1875 151.033L4.46336 156.781L9.72823 170.738L19.2881 169.976C21.5742 174.478 24.2412 178.772 27.2547 182.824L22.3016 191.1L32.4849 201.975L41.0403 197.576C44.8504 200.866 48.9722 203.81 53.3019 206.442L51.8818 215.931L65.4596 222.095L71.7289 214.823C76.4742 216.346 81.3927 217.524 86.4498 218.286L88.7705 227.601L103.664 228.121L106.609 218.978C111.735 218.563 116.723 217.766 121.537 216.554L127.252 224.242L141.211 219.013L140.519 209.42C145.021 207.1 149.282 204.433 153.369 201.42L161.613 206.373L172.523 196.226L168.159 187.637C171.45 183.828 174.394 179.707 176.992 175.378L186.482 176.798L192.682 163.223L185.339 156.989C186.863 152.245 188.076 147.327 188.803 142.271L198.086 139.916ZM97.603 188.088C65.0439 186.979 39.5163 159.656 40.6593 127.103C41.7677 94.5149 69.0965 68.992 101.656 70.1348C134.215 71.243 159.742 98.5667 158.599 131.154C157.456 163.707 130.162 189.196 97.603 188.088Z" fill="#ECECEC"/>
<path d="M452.566 90.7402L456.307 87.2424L454.818 84.2988C455.961 82.9828 456.965 81.5283 457.866 80.0738L461.156 80.5587L463.269 75.8835L460.741 73.7364C461.295 72.0741 461.676 70.3772 461.918 68.6457L465.139 67.8492L465.313 62.7238L462.161 61.7195C462.022 59.9879 461.745 58.2564 461.329 56.5595L463.996 54.5855L462.195 49.7718L458.905 50.0489C458.108 48.5251 457.208 47.036 456.168 45.6161L457.866 42.7764L454.367 39.0016L451.423 40.5254C450.072 39.3826 448.652 38.3783 447.197 37.4779L447.682 34.1879L443.006 32.0408L440.859 34.5689C439.196 34.0494 437.499 33.6338 435.767 33.3914L434.97 30.1707L429.844 29.9976L428.805 33.149C427.073 33.2875 425.341 33.5646 423.644 33.9801L421.67 31.3136L416.855 33.1144L417.132 36.4043C415.608 37.2008 414.119 38.1012 412.699 39.1401L409.858 37.4432L406.118 40.941L407.642 43.9192C406.499 45.2698 405.494 46.6897 404.593 48.1442L401.303 47.6593L399.19 52.3345L401.719 54.4816C401.164 56.1439 400.783 57.8408 400.541 59.5724L397.32 60.3689L397.146 65.4942L400.298 66.4985C400.437 68.2301 400.714 69.9616 401.13 71.6585L398.463 73.6325L400.264 78.4462L403.554 78.2038C404.351 79.7275 405.252 81.2167 406.291 82.6365L404.593 85.4763L408.092 89.251L411.036 87.7273C412.387 88.8701 413.807 89.8744 415.262 90.7748L414.777 94.0301L419.453 96.1772L421.6 93.6492C423.263 94.1686 424.96 94.5842 426.692 94.8266L427.489 98.0473L432.615 98.2204L433.654 95.069C435.386 94.9305 437.118 94.6535 438.815 94.2379L440.789 96.9045L445.604 95.1036L445.327 91.8137C446.851 91.0172 448.34 90.1168 449.761 89.0779L452.566 90.7402ZM425.861 69.0959C423.09 66.1522 423.263 61.5117 426.207 58.7412C429.151 55.9708 433.793 56.1439 436.564 59.0875C439.335 62.0312 439.161 66.6717 436.217 69.4422C433.238 72.2126 428.597 72.0741 425.861 69.0959Z" fill="#ECECEC"/>
<path d="M315.679 243.393L303.972 235.324V235.289C302.829 231.03 301.201 226.943 299.261 223.099L302.275 211.325L285.302 193.144L273.353 195.325C269.646 193.109 265.698 191.239 261.507 189.784H261.472L254.198 177.56L229.329 176.694L221.258 188.399H221.223C216.963 189.542 212.876 191.135 209.031 193.109L197.254 190.096L179.07 207.065L181.252 218.978C179.001 222.718 177.165 226.701 175.71 230.857L163.483 238.129L162.617 262.994L174.325 271.098C175.468 275.392 177.026 279.444 179.001 283.323L176.022 295.062L192.994 313.244L204.875 311.062C208.615 313.278 212.599 315.148 216.825 316.603L224.064 328.827L248.933 329.693L257.004 317.988C261.299 316.845 265.386 315.252 269.3 313.278L281.007 316.256L299.192 299.287L297.01 287.374C299.261 283.634 301.097 279.652 302.552 275.496L314.779 268.223L315.679 243.393ZM238.23 281.175C222.782 280.656 210.694 267.669 211.248 252.259C211.767 236.813 224.722 224.727 240.17 225.281C255.618 225.801 267.707 238.753 267.152 254.198C266.598 269.609 253.679 281.695 238.23 281.175Z" fill="#ECECEC"/>
<path d="M342.35 172.815C342.315 172.815 342.281 172.815 342.281 172.815L322.676 172.157C321.845 172.123 321.117 171.673 320.701 170.98L315.437 162.08C312.631 161.075 309.86 159.794 307.193 158.27L298.707 159.829C297.91 159.967 297.079 159.69 296.525 159.102L283.155 144.764C282.601 144.176 282.393 143.344 282.6 142.548L284.748 134.167C283.466 131.501 282.358 128.661 281.527 125.717L273.006 119.83C272.348 119.38 271.932 118.583 271.967 117.787L272.625 98.1858C272.66 97.3893 273.11 96.6274 273.803 96.2118L282.704 90.9133C283.744 88.0389 285.025 85.2685 286.515 82.7058L284.956 74.1866C284.817 73.3901 285.094 72.5589 285.683 72.0049L300.023 58.6373C300.612 58.0832 301.443 57.8754 302.24 58.0832L310.657 60.2304C313.393 58.9144 316.199 57.8062 319.074 56.975L324.962 48.4559C325.412 47.7979 326.174 47.3823 327.005 47.4169L346.61 48.0749C347.407 48.1095 348.169 48.5251 348.584 49.2524L353.884 58.1525C356.69 59.1914 359.426 60.4728 362.058 61.9619L370.614 60.4035C371.41 60.265 372.242 60.542 372.796 61.1307L386.166 75.4679C386.72 76.0567 386.928 76.8878 386.72 77.6843L384.573 86.0996C385.889 88.8355 386.997 91.6406 387.829 94.5149L396.349 100.402C397.007 100.852 397.423 101.649 397.388 102.445L396.73 122.046C396.696 122.843 396.245 123.605 395.553 124.02L386.651 129.319C385.612 132.193 384.33 134.964 382.841 137.526L384.399 146.046C384.538 146.842 384.261 147.673 383.672 148.227L369.332 161.595C368.743 162.149 367.912 162.357 367.115 162.149L358.733 160.002C355.962 161.318 353.122 162.426 350.247 163.257L344.359 171.776C343.874 172.434 343.112 172.815 342.35 172.815ZM324.131 167.413L341.103 168.002L346.714 159.863C347.026 159.413 347.511 159.067 348.065 158.928C351.182 158.097 354.3 156.885 357.278 155.396C357.763 155.154 358.352 155.084 358.941 155.223L366.908 157.266L379.342 145.665L377.853 137.561C377.749 136.972 377.853 136.384 378.165 135.899C379.793 133.163 381.178 130.185 382.287 127.033C382.46 126.479 382.841 125.994 383.36 125.717L391.881 120.661L392.47 103.692L384.33 98.0473C383.915 97.7702 383.568 97.32 383.43 96.8352C383.395 96.7659 383.395 96.6967 383.36 96.6274C382.494 93.5106 381.317 90.4285 379.827 87.5195C379.55 87 379.516 86.4113 379.654 85.8572L381.698 77.8575L370.094 65.425L361.954 66.9141C361.4 67.018 360.811 66.9141 360.292 66.6024C357.452 64.9055 354.473 63.5203 351.425 62.4467C351.252 62.3775 351.078 62.3082 350.94 62.2043C350.593 61.9965 350.351 61.7195 350.143 61.3732L345.086 52.854L328.114 52.2653L322.468 60.4035C322.122 60.8883 321.637 61.2346 321.048 61.3732C317.896 62.2389 314.848 63.4164 311.938 64.9055C311.419 65.1826 310.83 65.2172 310.276 65.0787L302.274 63.0354L289.84 74.6368L291.329 82.7404C291.433 83.2599 291.364 83.7794 291.121 84.2296C291.087 84.2988 291.052 84.3681 291.017 84.4373C289.389 87.1732 287.969 90.1514 286.896 93.3375C286.722 93.8569 286.341 94.3071 285.856 94.6188L277.336 99.6749L276.747 116.644L284.921 122.289C285.371 122.601 285.718 123.085 285.856 123.639C286.722 126.895 287.935 129.977 289.389 132.817C289.459 132.99 289.528 133.163 289.597 133.336C289.701 133.717 289.701 134.133 289.597 134.514L287.554 142.479L299.157 154.911L307.228 153.422C307.782 153.318 308.371 153.422 308.89 153.699C311.765 155.396 314.779 156.781 317.827 157.855C318.381 158.028 318.866 158.409 319.143 158.928L324.131 167.413ZM334.626 145.942C334.21 145.942 333.794 145.942 333.379 145.907C313.636 145.215 298.118 128.626 298.811 108.887C299.503 89.1471 316.129 73.6325 335.838 74.3251C355.581 75.0177 371.099 91.6059 370.406 111.346C370.094 120.904 366.042 129.769 359.045 136.28C352.36 142.548 343.735 145.942 334.626 145.942ZM334.591 79.1042C317.965 79.1042 304.145 92.3332 303.591 109.095C303.002 126.202 316.441 140.609 333.552 141.197C341.83 141.474 349.762 138.531 355.824 132.851C361.885 127.206 365.384 119.518 365.661 111.242C366.249 94.134 352.81 79.7275 335.699 79.1388C335.284 79.1042 334.937 79.1042 334.591 79.1042Z" fill="#ECECEC"/>
<path d="M387.483 31.7984L379.377 29.6167L377.195 21.513L380.382 18.327L383.707 25.2532L390.669 28.6124L387.483 31.7984Z" fill="#E1E1E1"/>
<path d="M388.003 26.3614C389.492 24.8722 389.492 22.4827 388.003 20.9936C386.513 19.5044 384.123 19.5391 382.634 20.9936L386.686 14.9332L392.09 17.669L393.267 23.3485L388.003 26.3614Z" fill="#E1E1E1"/>
<path d="M379.724 18.9503L385.681 12.9938L393.786 15.1756L395.969 23.2792L390.011 29.2357L381.906 27.054L379.724 18.9503ZM390.53 23.8333C392.02 22.3442 392.02 19.9546 390.53 18.4655C389.041 16.9764 386.651 17.011 385.162 18.4655C383.672 19.9546 383.672 22.3442 385.162 23.7987C386.651 25.2878 389.041 25.3224 390.53 23.8333Z" fill="#F0F0F0"/>
<path d="M55.6572 248.345L60.0215 247.168L61.1992 242.839L59.4673 241.107L57.6662 244.848L53.96 246.648L55.6572 248.345Z" fill="#E1E1E1"/>
<path d="M55.3803 245.436C54.5836 244.64 54.5836 243.358 55.3803 242.562C56.177 241.765 57.4585 241.765 58.2552 242.562L56.073 239.307L53.1635 240.761L52.54 243.809L55.3803 245.436Z" fill="#E1E1E1"/>
<path d="M59.8136 241.454L56.6269 238.268L52.2626 239.445L51.085 243.809L54.2716 246.995L58.6359 245.817L59.8136 241.454ZM54.0291 244.086C53.2325 243.289 53.2325 242.008 54.0291 241.211C54.8258 240.415 56.1074 240.415 56.904 241.211C57.7007 242.008 57.7007 243.289 56.904 244.086C56.1074 244.848 54.8258 244.848 54.0291 244.086Z" fill="#F0F0F0"/>
<path d="M39.967 9.56537L43.5693 13.167C44.5045 14.102 46.0632 14.102 46.9984 13.167C47.9336 12.232 47.9336 10.6736 46.9984 9.73852L43.3961 6.13691C42.4609 5.20188 40.9022 5.20188 39.967 6.13691C39.0318 7.07195 39.0318 8.5957 39.967 9.56537Z" fill="#F0F0F0"/>
<path d="M37.4377 0.561339C40.2087 -0.442956 43.2568 0.873018 44.192 3.47033C45.1272 6.10228 43.6378 9.01127 40.8322 10.0156C38.0612 11.0199 35.0131 9.70389 34.0779 7.10658C33.1427 4.47463 34.6321 1.56563 37.4377 0.561339Z" fill="#E1E1E1"/>
<path d="M33.4839 6.50709L34.0107 7.97369L44.7678 4.11097L44.241 2.64436L33.4839 6.50709Z" fill="#F0F0F0"/>
<path d="M236.464 396.392C357.65 396.392 455.891 390.656 455.891 383.579C455.891 376.502 357.65 370.766 236.464 370.766C115.278 370.766 17.0371 376.502 17.0371 383.579C17.0371 390.656 115.278 396.392 236.464 396.392Z" fill="#F5F5F5"/>
<path d="M51.6738 49.1485C50.5308 44.1616 51.0503 39.9713 53.1978 36.5774C55.3454 33.1836 58.8784 30.898 63.8661 29.7898C68.9578 28.647 73.1835 29.0972 76.5434 31.2097C79.9032 33.3221 82.1546 36.8199 83.263 41.7375C84.0596 45.3044 84.1289 48.3519 83.4708 50.9146C82.7781 53.4773 81.4618 55.6591 79.4875 57.4252C77.5132 59.226 74.8115 60.4728 71.417 61.2693C67.9879 62.0658 65.0091 62.135 62.4806 61.5809C59.9867 60.9922 57.7353 59.6762 55.7956 57.633C53.8906 55.5205 52.5051 52.7154 51.6738 49.1485ZM61.1298 47.036C61.8225 50.1181 62.8963 52.196 64.351 53.2695C65.8058 54.3431 67.503 54.6894 69.4774 54.2392C71.521 53.789 72.9064 52.7501 73.7377 51.1917C74.569 49.6333 74.569 47.1399 73.7724 43.7114C73.1143 40.837 72.0751 38.8631 70.5857 37.8242C69.131 36.7506 67.3991 36.4736 65.4248 36.9238C63.5197 37.3393 62.1342 38.3783 61.303 39.9713C60.5063 41.5643 60.437 43.9192 61.1298 47.036Z" fill="#1A2E35"/>
<path d="M87.7663 45.4083C87.0042 42.0491 87.4891 39.0016 89.2903 36.3004C91.0568 33.5992 93.897 31.7984 97.7764 30.9326C102.21 29.9283 105.847 30.4478 108.687 32.491C110.973 34.1533 112.463 36.4736 113.155 39.5211C113.917 42.9149 113.432 45.9624 111.666 48.6636C109.899 51.3648 107.025 53.131 103.041 54.0661C99.4737 54.8626 96.3909 54.6202 93.7931 53.3042C90.6065 51.6419 88.5976 49.0446 87.7663 45.4083ZM96.2524 43.469C96.7027 45.443 97.43 46.7936 98.4345 47.5555C99.439 48.3173 100.547 48.5597 101.76 48.2827C102.972 48.0057 103.873 47.313 104.461 46.2048C105.05 45.0967 105.085 43.5036 104.635 41.4604C104.184 39.5557 103.492 38.2051 102.487 37.4432C101.483 36.6814 100.409 36.4389 99.2312 36.716C97.9842 36.993 97.0837 37.7203 96.4949 38.8285C95.8714 39.9713 95.8021 41.495 96.2524 43.469Z" fill="#1A2E35"/>
<path d="M121.711 58.0832L114.783 27.5734L122.715 25.7726L123.443 29.0279C124.239 27.4003 125.036 26.2575 125.833 25.5648C126.906 24.6298 128.222 24.0064 129.712 23.6601C132.656 23.0021 135.219 23.5909 137.332 25.4956C139.48 27.4003 140.9 29.9976 141.662 33.3221C142.493 36.993 142.251 40.0059 140.934 42.3608C139.618 44.6811 137.609 46.1702 134.907 46.7936C133.591 47.1052 132.379 47.1399 131.201 46.9321C130.024 46.7243 128.915 46.3087 127.876 45.6161L130.266 56.1785L121.711 58.0832ZM125.798 36.7506C126.179 38.5168 126.872 39.7289 127.772 40.3868C128.707 41.0795 129.712 41.2873 130.855 41.0102C131.825 40.8024 132.587 40.1791 133.072 39.244C133.557 38.2744 133.557 36.8199 133.141 34.8805C132.725 33.0797 132.102 31.8677 131.201 31.175C130.301 30.4824 129.366 30.2746 128.361 30.4824C127.287 30.7248 126.456 31.3482 125.936 32.3525C125.417 33.3914 125.348 34.8459 125.798 36.7506Z" fill="#1A2E35"/>
<path d="M145.298 37.4432L153.542 34.742C154.131 35.677 154.754 36.2658 155.482 36.5428C156.209 36.8199 157.075 36.8545 158.114 36.6121C159.257 36.3697 160.088 35.9195 160.608 35.2961C161.024 34.8113 161.162 34.3264 161.024 33.7723C160.885 33.149 160.469 32.7681 159.742 32.5603C159.222 32.4217 157.941 32.4217 155.897 32.5256C152.849 32.6988 150.702 32.6642 149.455 32.491C148.208 32.3179 147.065 31.7984 146.06 30.9326C145.056 30.0668 144.363 28.9587 144.086 27.6427C143.74 26.1882 143.878 24.8376 144.502 23.5909C145.125 22.3442 146.095 21.3052 147.48 20.4395C148.831 19.5737 150.771 18.8811 153.265 18.2923C155.897 17.7036 157.906 17.4612 159.257 17.5651C160.608 17.669 161.786 18.0846 162.825 18.7079C163.864 19.3659 164.799 20.3356 165.7 21.6515L157.837 24.2835C157.456 23.6255 157.006 23.1753 156.451 22.9675C155.689 22.6905 154.823 22.6212 153.888 22.8636C152.918 23.0714 152.26 23.4177 151.914 23.8333C151.568 24.2835 151.429 24.7337 151.533 25.2185C151.672 25.7726 152.018 26.1189 152.641 26.2574C153.265 26.396 154.512 26.396 156.451 26.1882C159.326 25.8765 161.543 25.8419 163.033 26.0843C164.522 26.3267 165.769 26.9154 166.739 27.8158C167.709 28.7162 168.332 29.7898 168.609 31.0365C168.886 32.3178 168.782 33.6338 168.297 35.0191C167.812 36.4043 166.808 37.651 165.319 38.7246C163.829 39.7981 161.647 40.6985 158.772 41.3219C154.72 42.2569 151.706 42.3262 149.732 41.5643C147.757 40.837 146.268 39.4518 145.298 37.4432Z" fill="#1A2E35"/>
<path d="M172.938 9.46148L182.221 9.39221L182.256 16.5262L180.559 30.8634L174.809 30.898L172.973 16.5954L172.938 9.46148ZM173.389 33.0797L182.048 33.0451L182.083 40.6985L173.423 40.7332L173.389 33.0797Z" fill="#1A2E35"/>
<path d="M99.1965 106.774C99.1272 106.774 99.0579 106.774 98.9886 106.74C93.897 104.766 90.8489 102.826 89.2556 100.541C88.1125 100.783 86.831 100.61 85.584 100.021C84.4064 99.4671 83.2633 98.4628 82.432 97.043C81.67 97.6317 80.7348 97.8049 79.6957 97.4585C78.5527 97.1122 77.3404 96.1426 76.3705 94.7227C75.747 95.1729 75.0889 95.2422 74.604 95.2075C71.2442 94.9305 66.6721 88.2467 66.3604 81.1128C66.3604 80.8011 66.6028 80.524 66.9145 80.524C67.2263 80.4894 67.5034 80.7665 67.5034 81.0781C67.8151 87.8658 72.1448 93.8916 74.7079 94.0993C75.1236 94.134 75.4699 93.9955 75.747 93.7877C74.223 91.0865 73.4264 87.2424 74.604 83.1213C75.5739 79.7275 76.4398 78.3769 77.4789 78.654C79.4186 79.1388 79.1761 86.5498 78.137 91.4328C77.8946 92.5409 77.5482 93.3375 77.1672 93.8916C78.0677 95.2075 79.1069 96.1079 80.0421 96.385C80.8734 96.6274 81.4968 96.4196 81.9471 96.004C81.0466 93.8223 80.8734 90.844 82.0857 87.0346C83.679 82.0132 84.3024 81.8746 84.6835 81.8054C84.9606 81.7361 85.2377 81.84 85.4109 82.0478C86.45 83.2252 85.203 91.0172 83.8868 94.8612C83.7136 95.3461 83.5058 95.7963 83.2633 96.1772C83.9561 97.5624 84.9952 98.4975 86.0689 99.0169C86.9349 99.4325 87.8355 99.571 88.6321 99.5018C88.5282 99.294 88.4243 99.0862 88.355 98.8438C87.4544 96.4196 87.9047 93.6145 89.7059 90.2553C90.8835 88.0389 91.888 87 92.7539 87C93.031 87 93.516 87.1039 93.8623 87.7619C94.8322 89.5973 94.1394 95.5885 92.1997 98.5667C91.7495 99.2593 91.0914 99.8134 90.364 100.16C91.888 102.168 94.7629 103.9 99.3697 105.701C99.6468 105.805 99.8199 106.151 99.6814 106.428C99.6121 106.636 99.4043 106.774 99.1965 106.774ZM92.7886 88.1428C92.7886 88.1428 92.1651 88.1428 90.7103 90.8094C89.0824 93.8569 88.6667 96.3504 89.4288 98.4628C89.5327 98.7053 89.6366 98.9823 89.7751 99.2247C90.364 98.9823 90.8835 98.5321 91.2645 97.978C92.8578 95.5538 93.6199 90.567 93.031 88.6277C92.8925 88.2121 92.7886 88.1428 92.7886 88.1428ZM84.6488 83.3638C84.3717 83.9179 83.8522 85.0261 83.1248 87.3463C82.1549 90.3938 82.1549 92.8873 82.6745 94.7573C82.7091 94.6534 82.7438 94.5842 82.7784 94.4803C84.1639 90.6016 84.7874 85.2338 84.6488 83.3638ZM77.2018 79.7968C76.994 79.9699 76.4744 80.6972 75.6778 83.433C74.6386 87.0693 75.2621 90.3938 76.5091 92.7487C76.7515 92.2639 76.8901 91.7098 77.0286 91.1557C78.1717 85.6494 77.8599 80.5933 77.2018 79.7968Z" fill="#1A2E35"/>
<path d="M142.215 166.062C140.484 166.062 138.682 165.681 137.054 164.712C136.777 164.539 136.708 164.192 136.847 163.95C137.02 163.673 137.366 163.604 137.609 163.742C141.661 166.097 146.857 164.469 147.931 162.738C148.069 162.53 148.173 162.288 148.104 161.976C146.51 162.149 144.536 161.733 142.285 160.314C139.41 158.513 139.167 157.993 139.202 157.543C139.202 157.301 139.341 157.058 139.583 156.954C140.726 156.4 145.818 158.721 147.931 160.14C148.208 160.314 148.45 160.521 148.623 160.729C149.558 160.487 150.286 160.002 150.771 159.448C151.117 159.032 151.325 158.617 151.429 158.166C151.36 158.166 151.29 158.201 151.186 158.201C149.385 158.374 147.55 157.612 145.644 155.812C144.328 154.6 143.809 153.734 143.982 153.076C144.051 152.868 144.224 152.487 144.779 152.349C146.337 151.968 150.217 153.595 151.775 155.327C152.122 155.708 152.364 156.158 152.503 156.677C153.992 155.985 155.551 154.426 157.386 151.829C157.56 151.587 157.906 151.517 158.183 151.691C158.426 151.864 158.495 152.21 158.322 152.487C156.174 155.465 154.408 157.162 152.607 157.855C152.537 158.651 152.191 159.448 151.637 160.175C151.048 160.868 150.217 161.456 149.177 161.768C149.281 162.288 149.177 162.807 148.866 163.327C147.965 164.885 145.229 166.062 142.215 166.062ZM141.211 158.236C141.592 158.513 142.146 158.894 142.908 159.379C144.432 160.348 145.818 160.798 146.995 160.868C145.09 159.69 142.666 158.686 141.211 158.236ZM145.16 153.422C145.229 153.595 145.471 154.08 146.476 154.98C148.173 156.539 149.697 157.231 151.152 157.058C151.256 157.058 151.394 157.024 151.498 156.989C151.429 156.643 151.256 156.331 151.013 156.054C149.42 154.357 145.922 153.249 145.16 153.422Z" fill="#1A2E35"/>
<path d="M157.179 164.539L139.549 167.725L123.546 80.3509L89.5324 86.5152L34.0781 184.971L40.0357 217.455L111.146 204.537L116.03 231.099L150.044 224.935L145.16 198.373L162.79 195.187L157.179 164.539ZM67.9534 180.746L97.3258 129.18L105.535 173.924L67.9534 180.746Z" fill="#0072FF"/>
<path d="M299.192 74.429C298.534 68.4032 297.321 63.0354 295.59 58.3256C293.823 53.6505 291.191 49.0446 287.692 44.5426C284.159 40.0405 279.379 36.1272 273.318 32.8027C267.256 29.4781 259.255 27.1925 249.314 25.8765C228.601 23.1753 212.46 26.8462 200.891 36.8891C189.323 46.9321 181.702 66.1869 178.031 94.6188C176.541 106.186 176.16 116.886 176.922 126.687C177.684 136.488 179.485 144.383 182.326 150.375C186.24 158.755 191.747 165.474 198.917 170.495C206.052 175.517 215.855 178.806 228.289 180.434C250.457 183.308 266.91 179.084 277.613 167.655C288.316 156.262 295.416 136.972 298.88 109.822C300.404 97.7356 300.508 85.9265 299.192 74.429Z" fill="#0072FF"/>
<path d="M238.473 168.833C235.736 168.729 232.861 168.486 229.848 168.106C219.491 166.755 211.456 164.123 206.018 160.314C200.649 156.539 196.562 151.587 193.583 145.145L193.514 145.041C191.331 140.505 189.911 133.994 189.288 125.787C188.595 116.852 188.941 106.913 190.327 96.2465C194.379 64.8709 202.692 51.7804 208.996 46.3434C216.339 39.9713 226.211 37.0969 239.235 37.5471C241.902 37.651 244.742 37.8934 247.617 38.2397C255.964 39.3133 262.58 41.1834 267.291 43.746C271.828 46.2395 275.361 49.0792 277.821 52.2306C280.557 55.7283 282.566 59.226 283.882 62.7238C285.268 66.4293 286.237 70.8274 286.792 75.8142C288.004 86.342 287.9 97.2507 286.445 108.298C283.293 132.678 277.232 149.786 268.434 159.205C261.957 166.132 252.12 169.318 238.473 168.833Z" fill="#1A2E35"/>
<path d="M260.606 74.7407L260.744 70.4464L258.112 69.5807C258.008 68.1262 257.765 66.6717 257.419 65.2864L259.636 63.6588L258.112 59.6416L255.341 59.8494C254.683 58.5334 253.921 57.3213 253.055 56.1439L254.475 53.7544L251.531 50.6029L249.072 51.8497C247.963 50.9146 246.785 50.0489 245.538 49.287L245.954 46.5511L242.04 44.785L240.239 46.8974C238.888 46.4472 237.468 46.1356 235.979 45.8931L235.321 43.2266L231.026 43.088L230.16 45.72C228.67 45.8239 227.25 46.0663 225.865 46.4126L224.202 44.1962L220.184 45.6854L220.392 48.4558C219.076 49.1138 217.863 49.9103 216.686 50.7761L214.296 49.3562L211.144 52.2652L212.391 54.7586C211.455 55.8668 210.589 57.0443 209.862 58.291L207.126 57.8754L205.325 61.7887L207.438 63.5895C206.987 64.9401 206.641 66.3946 206.433 67.8491L203.731 68.5417L203.593 72.836L206.225 73.7017C206.329 75.1909 206.572 76.6107 206.918 77.996L204.701 79.6236L206.225 83.6408L208.996 83.433C209.654 84.749 210.416 85.9611 211.282 87.1385L209.862 89.5281L212.806 92.6795L215.266 91.4328C216.374 92.3678 217.552 93.2336 218.799 93.9954L218.383 96.7313L222.297 98.4975L224.098 96.385C225.449 96.8352 226.869 97.1469 228.358 97.3893L229.017 100.056L233.312 100.194L234.177 97.5624C235.667 97.4585 237.087 97.2161 238.473 96.8698L240.1 99.0862L244.118 97.5971L243.911 94.8266C245.227 94.1686 246.439 93.3721 247.617 92.5063L250.007 93.9262L253.159 90.9826L251.912 88.4891C252.847 87.3809 253.713 86.2035 254.44 84.9568L257.177 85.3723L258.978 81.4591L256.865 79.6583C257.315 78.3076 257.662 76.8878 257.869 75.3987L260.606 74.7407ZM231.649 88.6277C222.262 88.316 214.919 80.4201 215.231 71.0352C215.543 61.6502 223.44 54.2738 232.827 54.6201C242.213 54.9664 249.556 62.8276 249.245 72.2126C248.933 81.5976 241.036 88.974 231.649 88.6277Z" fill="#0072FF"/>
<path opacity="0.3" d="M278.479 153.491L278.791 150.617L277.059 149.924C277.059 148.92 276.955 147.95 276.816 146.981L278.41 145.976L277.613 143.171H275.742C275.361 142.271 274.911 141.37 274.392 140.539L275.465 139.016L273.664 136.765L271.932 137.492C271.24 136.799 270.478 136.176 269.681 135.587L270.097 133.752L267.533 132.366L266.217 133.717C265.317 133.336 264.347 133.059 263.412 132.817L263.1 130.981L260.225 130.67L259.532 132.401C258.528 132.401 257.558 132.505 256.588 132.678L255.584 131.085L252.778 131.916V133.786C251.877 134.167 251.011 134.617 250.146 135.137L248.621 134.063L246.37 135.864L247.097 137.596C246.439 138.288 245.781 139.05 245.192 139.847L243.357 139.431L241.971 141.994L243.287 143.31C242.906 144.245 242.629 145.18 242.387 146.115L240.551 146.427L240.239 149.301L241.971 150.028C241.971 150.998 242.075 152.002 242.214 152.937L240.62 153.942L241.452 156.747H243.322C243.703 157.647 244.153 158.513 244.673 159.344L243.599 160.868L245.4 163.153L247.132 162.426C247.825 163.119 248.587 163.742 249.384 164.331L248.968 166.166L251.531 167.551L252.847 166.235C253.748 166.616 254.718 166.893 255.653 167.101L255.965 168.937L258.839 169.248L259.532 167.517C260.502 167.517 261.507 167.413 262.476 167.24L263.481 168.833L266.252 168.002V166.132C267.152 165.751 268.018 165.3 268.884 164.781L270.408 165.855L272.694 164.054L271.967 162.322C272.66 161.63 273.283 160.868 273.872 160.071L275.708 160.487L277.093 157.924L275.777 156.608C276.158 155.673 276.435 154.738 276.643 153.803L278.479 153.491ZM263.931 152.348C262.58 154.807 259.498 155.708 257.073 154.357C254.614 153.006 253.748 149.924 255.099 147.5C256.45 145.041 259.498 144.176 261.957 145.526C264.347 146.842 265.247 149.924 263.931 152.348Z" fill="#007CFF"/>
<path d="M294.516 104.593L291.156 102.272C290.81 101.06 290.359 99.8827 289.805 98.7745L290.671 95.3807L285.787 90.1514L282.358 90.7748C281.284 90.1514 280.141 89.5973 278.964 89.1818L276.885 85.6494L269.715 85.407L267.395 88.7662C266.182 89.1125 265.005 89.5627 263.896 90.1168L260.502 89.251L255.272 94.134L255.895 97.5624C255.237 98.636 254.717 99.7788 254.302 100.991L250.769 103.069L250.526 110.237L253.886 112.558C254.233 113.804 254.683 114.982 255.237 116.09L254.371 119.484L259.255 124.713L262.684 124.09C263.758 124.713 264.901 125.267 266.113 125.683L268.191 129.215L275.361 129.457L277.682 126.098C278.929 125.752 280.107 125.302 281.215 124.748L284.575 125.613L289.805 120.73L289.182 117.302C289.84 116.228 290.359 115.086 290.775 113.874L294.308 111.796L294.516 104.593ZM272.175 115.467C267.706 115.328 264.243 111.588 264.381 107.121C264.52 102.653 268.261 99.1901 272.729 99.3286C277.197 99.4671 280.661 103.207 280.522 107.675C280.384 112.142 276.643 115.64 272.175 115.467Z" fill="white"/>
<path d="M319.143 47.4169L319.732 45.9971C320.147 45.7893 320.563 45.5122 320.909 45.2352L322.226 45.2698L323.75 43.0534L323.23 41.8414C323.369 41.3912 323.473 40.941 323.542 40.4561L324.685 39.4172L324.2 36.7506L322.78 36.1619C322.572 35.7463 322.295 35.3308 322.018 34.9844L322.052 33.6685L319.836 32.1447L318.623 32.6295C318.173 32.491 317.723 32.3871 317.238 32.3179L316.199 31.175L313.532 31.6599L312.943 33.0797C312.527 33.2875 312.112 33.5646 311.765 33.8416L310.449 33.807L308.925 36.0234L309.41 37.2355C309.271 37.6857 309.167 38.1359 309.098 38.6207L307.955 39.6596L308.44 42.3262L309.86 42.9149C310.068 43.3305 310.345 43.7461 310.622 44.0924L310.588 45.4083L312.804 46.9321L314.017 46.4473C314.467 46.5858 314.917 46.6897 315.402 46.7589L316.441 47.9018L319.143 47.4169ZM313.393 40.0752C313.081 38.4129 314.19 36.8545 315.852 36.5775C317.515 36.2658 319.074 37.374 319.351 39.0363C319.662 40.6985 318.554 42.2569 316.891 42.534C315.264 42.811 313.67 41.7375 313.393 40.0752Z" fill="#0072FF"/>
<path d="M288.073 39.902L287.207 39.1748C288.696 37.4086 290.844 35.1576 293.996 33.4953L294.515 34.4996C291.19 36.2658 289.008 38.8285 288.073 39.902Z" fill="#0072FF"/>
<path d="M297.113 33.4607L296.663 32.4217C300.958 30.5863 305.426 29.859 309.964 30.3092L309.86 31.4521C305.496 31.0019 301.235 31.7291 297.113 33.4607Z" fill="#0072FF"/>
<path d="M295.001 41.2872L294.065 40.6639C296.386 37.2354 300.993 34.2918 305.253 33.426L305.461 34.5342C301.443 35.3307 297.148 38.1012 295.001 41.2872Z" fill="#0072FF"/>
<path d="M219.872 150.201C219.734 150.201 219.561 150.132 219.457 150.028L217.067 147.569C215.854 147.466 214.677 147.223 213.499 146.911L209.793 148.539C209.62 148.608 209.412 148.608 209.239 148.504L203.039 144.383C202.865 144.28 202.796 144.106 202.796 143.899L202.865 139.881C202.103 138.946 201.445 137.942 200.856 136.868L197.67 135.622C197.497 135.553 197.358 135.379 197.323 135.206L195.834 127.934C195.799 127.761 195.869 127.553 196.007 127.414L198.466 125.059C198.57 123.847 198.813 122.67 199.125 121.492L197.497 117.787C197.427 117.614 197.427 117.406 197.531 117.233L201.653 111.034C201.757 110.861 201.896 110.791 202.138 110.791L206.156 110.861C207.091 110.099 208.13 109.441 209.204 108.852L210.451 105.666C210.52 105.493 210.693 105.354 210.867 105.32L218.14 103.831C218.314 103.796 218.521 103.865 218.66 104.004L221.015 106.463C222.228 106.566 223.405 106.809 224.583 107.121L228.289 105.493C228.462 105.424 228.67 105.424 228.843 105.528L235.043 109.649C235.217 109.753 235.286 109.926 235.286 110.133L235.217 114.151C235.979 115.086 236.637 116.09 237.226 117.164L240.412 118.41C240.585 118.479 240.724 118.653 240.759 118.826L242.248 126.098C242.283 126.271 242.213 126.479 242.075 126.618L239.616 129.007C239.512 130.185 239.269 131.397 238.957 132.574L240.585 136.28C240.655 136.453 240.655 136.661 240.551 136.834L236.429 143.033C236.325 143.206 236.152 143.275 235.944 143.275L231.926 143.206C230.991 143.968 229.986 144.626 228.913 145.18L227.666 148.366C227.596 148.539 227.423 148.678 227.25 148.712L219.976 150.201C219.976 150.201 219.942 150.201 219.872 150.201ZM213.499 145.734C213.568 145.734 213.603 145.734 213.672 145.769C214.885 146.115 216.131 146.357 217.413 146.461C217.552 146.461 217.69 146.531 217.759 146.634L220.08 149.024L226.765 147.673L227.977 144.591C228.012 144.453 228.116 144.349 228.255 144.28C229.398 143.691 230.471 142.998 231.441 142.202C231.545 142.132 231.649 142.063 231.822 142.063L235.736 142.132L239.512 136.453L237.918 132.851C237.849 132.713 237.849 132.609 237.884 132.47C238.23 131.224 238.473 129.977 238.576 128.73C238.576 128.592 238.646 128.453 238.75 128.384L241.14 126.064L239.789 119.38L236.706 118.168C236.567 118.133 236.464 118.029 236.394 117.891C235.805 116.748 235.113 115.709 234.316 114.705C234.247 114.601 234.178 114.462 234.178 114.324L234.247 110.411L228.566 106.636L224.964 108.229C224.825 108.298 224.722 108.298 224.583 108.263C223.371 107.917 222.089 107.675 220.808 107.571C220.669 107.571 220.53 107.502 220.461 107.398L218.175 105.008L211.49 106.359L210.278 109.441C210.243 109.579 210.139 109.683 210.001 109.753C208.858 110.341 207.784 111.034 206.814 111.865C206.71 111.934 206.572 112.004 206.433 112.004L202.519 111.934L198.744 117.614L200.337 121.215C200.406 121.354 200.406 121.562 200.337 121.7C200.025 122.843 199.783 124.09 199.679 125.371C199.679 125.51 199.61 125.648 199.506 125.717L197.116 128.003L198.466 134.687L201.549 135.899C201.688 135.968 201.792 136.072 201.861 136.176C202.45 137.284 203.142 138.358 203.939 139.327C204.008 139.431 204.078 139.57 204.078 139.708L204.008 143.622L209.689 147.396L213.291 145.803C213.36 145.769 213.43 145.734 213.499 145.734ZM219.076 142.098C216.201 142.098 213.326 141.301 210.763 139.604C207.403 137.388 205.117 133.994 204.32 130.046C203.523 126.098 204.286 122.081 206.537 118.722C211.144 111.796 220.53 109.891 227.458 114.462C234.385 119.068 236.29 128.419 231.684 135.379C228.774 139.708 223.96 142.098 219.076 142.098ZM207.472 119.311C205.429 122.427 204.701 126.133 205.429 129.769C206.156 133.405 208.303 136.557 211.386 138.635C217.794 142.894 226.453 141.128 230.714 134.721C234.974 128.315 233.208 119.622 226.8 115.397C220.392 111.138 211.733 112.904 207.472 119.311Z" fill="white"/>
<path d="M435.455 174.72L417.686 172.331L429.428 84.2988L395.171 79.6583L312.042 156.193L307.678 188.919L379.308 198.581L375.74 225.35L409.996 229.991L413.564 203.221L431.333 205.611L435.455 174.72ZM345.571 162.599L389.422 122.635L383.395 167.725L345.571 162.599Z" fill="#0072FF"/>
<path d="M399.605 229.16C399.57 229.16 399.535 229.16 399.501 229.16C399.189 229.091 398.981 228.813 399.05 228.502L425.444 83.7447C425.513 83.433 425.79 83.2599 426.102 83.2945C426.414 83.3638 426.622 83.6408 426.552 83.9525L400.159 228.71C400.09 228.952 399.847 229.16 399.605 229.16Z" fill="#1A2E35"/>
<path d="M423.02 86.1689C422.985 86.6883 422.57 87.0693 422.05 87.0693C421.53 87.0346 421.149 86.6191 421.149 86.0996C421.184 85.5801 421.6 85.1992 422.119 85.1992C422.639 85.2338 423.02 85.6494 423.02 86.1689Z" fill="#1A2E35"/>
<path d="M419.244 105.735C419.21 106.255 418.794 106.636 418.275 106.636C417.755 106.601 417.374 106.186 417.374 105.666C417.374 105.147 417.824 104.766 418.344 104.766C418.863 104.8 419.244 105.216 419.244 105.735Z" fill="#1A2E35"/>
<path d="M415.469 125.302C415.434 125.821 415.019 126.202 414.499 126.202C413.98 126.168 413.599 125.752 413.599 125.233C413.633 124.713 414.049 124.332 414.568 124.332C415.088 124.367 415.504 124.817 415.469 125.302Z" fill="#1A2E35"/>
<path d="M408.057 145.699C408.022 146.219 407.607 146.6 407.087 146.6C406.568 146.6 406.187 146.15 406.187 145.63C406.187 145.111 406.637 144.73 407.156 144.73C407.676 144.764 408.057 145.18 408.057 145.699Z" fill="#1A2E35"/>
<path d="M407.918 164.469C407.884 164.989 407.468 165.37 406.948 165.37C406.429 165.37 406.048 164.919 406.048 164.4C406.048 163.881 406.498 163.5 407.018 163.5C407.537 163.5 407.953 163.95 407.918 164.469Z" fill="#1A2E35"/>
<path d="M404.143 184.036C404.108 184.555 403.693 184.936 403.173 184.936C402.654 184.936 402.272 184.486 402.272 183.966C402.307 183.447 402.723 183.066 403.242 183.066C403.762 183.101 404.178 183.516 404.143 184.036Z" fill="#1A2E35"/>
<path d="M400.402 203.602C400.367 204.122 399.951 204.503 399.432 204.503C398.912 204.468 398.531 204.052 398.531 203.533C398.566 203.013 398.982 202.633 399.501 202.633C399.986 202.667 400.402 203.117 400.402 203.602Z" fill="#1A2E35"/>
<path d="M396.626 223.203C396.592 223.723 396.176 224.104 395.656 224.104C395.137 224.069 394.756 223.653 394.756 223.134C394.79 222.615 395.206 222.234 395.726 222.234C396.245 222.234 396.626 222.684 396.626 223.203Z" fill="#1A2E35"/>
<path d="M407.121 146.219C406.844 146.219 406.636 146.046 406.567 145.769C406.498 145.457 406.706 145.18 407.017 145.111L409.823 144.522C410.135 144.453 410.446 144.66 410.481 144.972C410.55 145.284 410.343 145.561 410.031 145.63L407.225 146.219C407.191 146.219 407.156 146.219 407.121 146.219Z" fill="#1A2E35"/>
<path d="M416.508 135.795C416.508 135.795 413.979 142.375 413.113 146.392C412.248 150.375 412.213 159.309 412.213 159.309" fill="#1A2E35"/>
<path d="M412.213 159.898C411.902 159.898 411.659 159.656 411.659 159.344C411.659 158.963 411.728 150.305 412.56 146.288C413.426 142.306 415.85 135.899 415.954 135.622C416.058 135.345 416.404 135.172 416.682 135.31C416.959 135.414 417.132 135.76 416.993 136.037C416.959 136.107 414.465 142.652 413.633 146.531C412.802 150.409 412.733 159.24 412.733 159.344C412.802 159.621 412.525 159.898 412.213 159.898Z" fill="#1A2E35"/>
<path d="M205.291 257.557C206.85 232.207 203.975 186.114 251.636 192.243C302.726 198.789 288.109 258.492 288.109 258.492L205.291 257.557Z" fill="#1A2E35"/>
<path d="M238.195 242.285C249.673 242.285 258.978 232.982 258.978 221.506C258.978 210.031 249.673 200.728 238.195 200.728C226.718 200.728 217.413 210.031 217.413 221.506C217.413 232.982 226.718 242.285 238.195 242.285Z" fill="white"/>
<path d="M240.932 200.762C231.095 199.066 220.565 206.338 219.526 213.68L258.563 217.281C257.177 208.901 248.726 202.113 240.932 200.762Z" fill="#1A2E35"/>
<path d="M254.094 221.022C253.817 226.459 250.839 230.718 247.479 230.545C244.119 230.372 241.59 225.835 241.867 220.398C242.145 214.961 245.123 210.702 248.483 210.875C251.878 211.013 254.372 215.584 254.094 221.022Z" fill="#1A2E35"/>
<path d="M238.196 243.462C226.108 243.462 216.271 233.627 216.271 221.541C216.271 209.455 226.108 199.62 238.196 199.62C250.284 199.62 260.121 209.455 260.121 221.541C260.121 233.627 250.284 243.462 238.196 243.462ZM238.196 201.871C227.354 201.871 218.522 210.702 218.522 221.541C218.522 232.38 227.354 241.211 238.196 241.211C249.037 241.211 257.87 232.38 257.87 221.541C257.87 210.702 249.037 201.871 238.196 201.871Z" fill="#0072FF"/>
<path opacity="0.3" d="M282.289 256.899C282.255 256.899 282.186 256.899 282.151 256.899C281.839 256.83 281.666 256.518 281.735 256.207C281.77 256.068 285.372 240.727 281.631 225.212C281.562 224.9 281.735 224.589 282.047 224.519C282.359 224.45 282.67 224.623 282.74 224.935C286.55 240.727 282.878 256.31 282.844 256.484C282.774 256.726 282.532 256.899 282.289 256.899Z" fill="white"/>
<path opacity="0.3" d="M279.137 216.727C278.929 216.727 278.721 216.589 278.618 216.381C277.163 213.195 275.362 210.286 273.249 207.723C273.041 207.481 273.076 207.135 273.318 206.927C273.561 206.719 273.907 206.754 274.115 206.996C276.297 209.628 278.133 212.641 279.622 215.896C279.761 216.173 279.622 216.52 279.345 216.658C279.31 216.693 279.206 216.727 279.137 216.727Z" fill="white"/>
<path d="M99.231 376.445C99.0925 376.445 98.9539 376.445 98.8154 376.445C95.698 376.376 93.2388 373.744 93.3081 370.627C93.3773 367.51 95.9751 365.086 99.1271 365.121C99.1618 365.121 99.1964 365.121 99.231 365.121C102.487 365.121 110.35 361.138 126.837 335.2C127.738 333.814 129.158 332.879 130.786 332.637C132.414 332.394 134.076 332.879 135.323 333.987C155.621 351.684 177.13 362.697 177.373 362.8C180.144 364.22 181.287 367.614 179.867 370.419C178.446 373.19 175.052 374.332 172.246 372.913C171.38 372.462 152.572 362.87 132.864 346.732C119.078 367.441 108.826 376.445 99.231 376.445Z" fill="#1A2E35"/>
<path d="M134.25 332.983C134.076 332.983 133.938 332.983 133.765 332.949C131.894 332.671 130.613 330.975 130.89 329.105C131.686 323.46 130.682 302.369 123.547 285.954C122.888 284.465 123.408 282.699 124.759 281.799C140.276 271.236 173.286 269.99 174.671 269.92C176.542 269.886 178.1 271.306 178.17 273.21C178.239 275.08 176.784 276.639 174.879 276.708C174.567 276.708 145.714 277.816 130.855 285.989C137.159 302.335 138.614 322.698 137.54 330.074C137.367 331.736 135.912 332.983 134.25 332.983Z" fill="#1A2E35"/>
<path d="M139.965 328.585C137.714 323.252 127.53 323.875 121.538 328.412C118.351 330.836 114.022 338.178 113.571 340.844C113.121 343.511 114.957 345.901 118.109 345.623C122.023 345.277 127.357 339.632 127.357 339.632C123.789 343.13 128.396 345.589 135.254 340.533C139.099 337.762 142.494 334.542 139.965 328.585Z" fill="#0072FF"/>
<path d="M334.591 259.046C334.557 259.046 334.487 259.046 334.418 259.012C334.106 258.942 333.933 258.596 334.037 258.319C335.561 253.055 337.189 249.869 339.371 248.068C339.025 246.925 339.059 245.644 339.544 244.397C339.995 243.151 340.895 241.939 342.211 241.004C341.553 240.311 341.311 239.376 341.553 238.302C341.796 237.125 342.662 235.844 343.978 234.735C343.458 234.147 343.354 233.489 343.32 233.038C343.285 229.679 349.555 224.519 356.621 223.55C356.932 223.48 357.209 223.723 357.244 224.034C357.279 224.346 357.071 224.623 356.759 224.658C350.039 225.558 344.394 230.441 344.428 233.004C344.428 233.419 344.601 233.766 344.844 234.043C347.407 232.277 351.148 231.134 355.339 231.93C358.803 232.588 360.223 233.315 360.05 234.389C359.738 236.363 352.36 236.779 347.372 236.19C346.264 236.051 345.433 235.774 344.809 235.463C343.562 236.467 342.8 237.61 342.592 238.545C342.419 239.376 342.696 239.999 343.147 240.38C345.26 239.307 348.204 238.856 352.118 239.722C357.244 240.865 357.452 241.488 357.556 241.869C357.625 242.146 357.556 242.423 357.383 242.631C356.309 243.774 348.446 243.22 344.498 242.25C343.978 242.112 343.528 241.939 343.147 241.731C341.83 242.562 340.999 243.67 340.583 244.778C340.237 245.679 340.168 246.579 340.341 247.376C340.549 247.237 340.757 247.133 340.964 247.029C343.32 245.921 346.125 246.094 349.624 247.583C351.945 248.588 353.053 249.453 353.122 250.354C353.157 250.631 353.088 251.116 352.464 251.531C350.732 252.674 344.705 252.501 341.553 250.839C340.826 250.458 340.237 249.869 339.821 249.142C337.986 250.839 336.496 253.852 335.111 258.596C335.076 258.873 334.834 259.046 334.591 259.046ZM340.757 248.484C341.068 249.073 341.519 249.557 342.142 249.869C344.705 251.22 349.728 251.531 351.598 250.769C351.979 250.631 352.048 250.492 352.048 250.492C352.048 250.492 351.979 249.869 349.208 248.657C346.022 247.306 343.493 247.099 341.484 248.068C341.207 248.207 340.965 248.345 340.757 248.484ZM344.498 241.038C344.601 241.073 344.705 241.107 344.775 241.107C348.758 242.077 354.161 242.25 356.032 241.939C355.443 241.696 354.3 241.315 351.91 240.796C348.793 240.138 346.333 240.346 344.498 241.038ZM345.952 234.701C346.472 234.874 347.026 235.012 347.58 235.082C353.226 235.74 358.214 234.943 358.941 234.251C358.733 234.077 358.006 233.593 355.166 233.038C351.46 232.346 348.204 233.246 345.952 234.701Z" fill="#1A2E35"/>
<path d="M187.279 374.54C188.041 374.298 187.764 373.571 186.932 373.571H171.623C142.458 370.488 122.057 374.61 134.907 375.614C147.758 376.583 134.007 376.376 124.62 379.943C115.233 383.475 194.379 384.375 201.584 379.943C208.234 375.856 176.957 377.865 187.279 374.54Z" fill="#1A2E35"/>
<path d="M296.976 379.077L163.657 374.644L158.149 245.402L315.576 248.934L296.976 379.077Z" fill="#0072FF"/>
<path d="M205.291 376.583C205.014 376.583 204.736 376.376 204.736 376.064L194.034 246.267C193.999 245.956 194.241 245.679 194.553 245.644C194.865 245.609 195.142 245.852 195.177 246.164L205.88 375.96C205.914 376.272 205.672 376.549 205.36 376.583C205.325 376.583 205.325 376.583 205.291 376.583Z" fill="#1A2E35"/>
<path d="M296.976 379.077L332.825 373.605L344.117 253.436L315.576 248.934L296.976 379.077Z" fill="#007CFF"/>
<path opacity="0.2" d="M296.976 379.077L332.825 373.605L344.117 253.436L315.576 248.934L296.976 379.077Z" fill="black"/>
<path d="M175.052 349.745L171.761 272.968C171.415 264.968 177.927 258.319 185.928 258.492L285.579 260.709C293.892 260.882 300.196 268.293 299.019 276.535L287.969 353.935C286.965 360.965 280.834 366.09 273.768 365.848L188.456 363.008C181.217 362.766 175.364 356.982 175.052 349.745Z" fill="#1A2E35"/>
<path d="M185.824 282.041L201.238 282.526L201.099 286.509L191.435 286.197L191.332 289.14L200.268 289.418L200.164 293.227L191.228 292.95L191.124 296.621L201.065 296.932L200.926 301.157L185.235 300.673L185.824 282.041Z" fill="white"/>
<path d="M204.112 301.261L204.701 282.63L214.296 282.942C216.062 283.011 217.413 283.184 218.348 283.53C219.283 283.877 220.011 284.465 220.565 285.296C221.119 286.128 221.362 287.167 221.327 288.344C221.292 289.383 221.05 290.249 220.565 291.011C220.115 291.738 219.491 292.327 218.695 292.777C218.21 293.054 217.517 293.296 216.651 293.435C217.344 293.677 217.829 293.92 218.14 294.162C218.348 294.335 218.66 294.647 219.041 295.166C219.422 295.686 219.699 296.067 219.803 296.344L222.401 301.815L215.889 301.608L212.979 295.824C212.598 295.062 212.287 294.578 211.975 294.37C211.559 294.058 211.109 293.92 210.589 293.885H210.07L209.827 301.434L204.112 301.261ZM210.243 290.387L212.668 290.456C212.945 290.456 213.43 290.387 214.192 290.249C214.573 290.179 214.885 290.006 215.127 289.695C215.369 289.383 215.508 289.037 215.508 288.621C215.543 288.032 215.335 287.547 214.988 287.236C214.607 286.889 213.915 286.716 212.841 286.682L210.312 286.612L210.243 290.387Z" fill="white"/>
<path d="M224.341 301.919L224.93 283.288L234.524 283.6C236.291 283.669 237.642 283.842 238.577 284.188C239.512 284.535 240.239 285.123 240.794 285.954C241.348 286.786 241.59 287.825 241.556 289.002C241.521 290.041 241.278 290.907 240.794 291.669C240.343 292.396 239.72 292.985 238.923 293.435C238.438 293.712 237.745 293.954 236.879 294.093C237.572 294.335 238.057 294.578 238.369 294.82C238.577 294.993 238.888 295.305 239.269 295.824C239.65 296.344 239.928 296.725 240.032 297.002L242.629 302.473L236.117 302.266L233.208 296.482C232.827 295.72 232.515 295.236 232.203 295.028C231.788 294.716 231.338 294.578 230.818 294.543H230.298L230.056 302.092L224.341 301.919ZM230.472 291.011L232.896 291.08C233.173 291.08 233.658 291.011 234.42 290.872C234.801 290.803 235.113 290.63 235.355 290.318C235.598 290.006 235.736 289.66 235.736 289.244C235.771 288.656 235.563 288.171 235.217 287.859C234.836 287.513 234.143 287.34 233.069 287.305L230.541 287.236L230.472 291.011Z" fill="white"/>
<path d="M243.634 293.227C243.738 290.179 244.638 287.859 246.405 286.197C248.136 284.569 250.526 283.773 253.575 283.877C256.657 283.98 259.047 284.881 260.675 286.612C262.303 288.344 263.065 290.699 262.961 293.677C262.892 295.859 262.476 297.625 261.68 299.01C260.918 300.396 259.809 301.434 258.389 302.162C256.969 302.889 255.237 303.235 253.194 303.166C251.081 303.097 249.383 302.716 247.998 301.989C246.647 301.261 245.573 300.188 244.742 298.699C243.911 297.209 243.564 295.374 243.634 293.227ZM249.383 293.435C249.314 295.305 249.626 296.69 250.319 297.521C250.977 298.352 251.912 298.803 253.124 298.837C254.371 298.872 255.341 298.491 256.034 297.729C256.727 296.932 257.108 295.513 257.177 293.435C257.246 291.669 256.934 290.387 256.242 289.556C255.549 288.725 254.614 288.275 253.401 288.24C252.258 288.205 251.288 288.586 250.561 289.383C249.834 290.179 249.453 291.53 249.383 293.435Z" fill="white"/>
<path d="M265.802 303.235L266.391 284.604L275.985 284.916C277.752 284.985 279.103 285.158 280.038 285.504C280.973 285.851 281.7 286.439 282.254 287.27C282.809 288.102 283.051 289.14 283.017 290.318C282.982 291.357 282.739 292.223 282.254 292.985C281.804 293.712 281.181 294.3 280.384 294.751C279.899 295.028 279.206 295.27 278.34 295.409C279.033 295.651 279.518 295.894 279.83 296.136C280.038 296.309 280.349 296.621 280.73 297.14C281.111 297.66 281.389 298.041 281.492 298.318L284.09 303.789L277.578 303.582L274.669 297.798C274.288 297.036 273.976 296.551 273.664 296.344C273.249 296.032 272.799 295.893 272.279 295.859H271.759L271.517 303.408L265.802 303.235ZM271.933 292.327L274.357 292.396C274.634 292.396 275.119 292.327 275.881 292.188C276.262 292.119 276.574 291.946 276.816 291.634C277.059 291.322 277.197 290.976 277.197 290.56C277.232 289.972 277.024 289.487 276.678 289.175C276.297 288.829 275.604 288.656 274.53 288.621L272.002 288.552L271.933 292.327Z" fill="white"/>
<path d="M274.946 334.853C274.53 334.853 274.149 334.68 273.838 334.368L264.139 323.771L253.679 333.33C253.09 333.884 252.12 333.849 251.566 333.226L241.867 322.629L231.407 332.187C230.818 332.741 229.848 332.706 229.294 332.083L219.596 321.486L209.135 331.044C208.858 331.321 208.442 331.459 208.061 331.425C207.68 331.39 207.299 331.217 207.022 330.94L197.324 320.343L186.863 329.901C186.275 330.455 185.305 330.42 184.751 329.797C184.196 329.208 184.231 328.239 184.854 327.685L196.389 317.122C196.978 316.568 197.947 316.603 198.502 317.226L208.2 327.823L218.66 318.265C218.938 317.988 219.353 317.849 219.734 317.884C220.115 317.919 220.496 318.092 220.773 318.369L230.472 328.966L240.932 319.408C241.521 318.854 242.491 318.888 243.045 319.512L252.744 330.109L263.204 320.551C263.793 319.997 264.763 320.031 265.317 320.655L276.02 332.36C276.574 332.949 276.539 333.918 275.916 334.472C275.673 334.715 275.327 334.853 274.946 334.853Z" fill="white"/>
<path d="M95.8714 381.813L88.7708 378.454L82.4668 347.701L85.8959 343.927L95.8714 381.813Z" fill="#0072FF"/>
<path d="M95.871 381.813L105.258 376.341L97.2219 350.991L85.8955 343.927L95.871 381.813Z" fill="#007CFF"/>
<path opacity="0.2" d="M95.871 381.813L105.258 376.341L97.2219 350.991L85.8955 343.927L95.871 381.813Z" fill="black"/>
<path d="M250.008 387.388C249.73 387.388 249.488 387.388 249.211 387.388C246.094 387.319 243.634 384.687 243.704 381.57C243.773 378.454 246.371 375.995 249.523 376.064C258.251 376.341 276.678 371.008 287.243 360.757C287.901 360.134 288.697 359.649 289.563 359.407C307.436 354.039 314.087 364.878 314.364 365.328L304.631 371.077C304.631 371.077 304.665 371.146 304.769 371.285C304.665 371.146 302.137 367.856 294.066 369.865C280.8 381.986 260.503 387.388 250.008 387.388Z" fill="#1A2E35"/>
<path d="M249.384 394.938L228.774 393.622L227.146 355.632L254.822 356.671L249.384 394.938Z" fill="#0072FF"/>
<path d="M249.384 394.938L254.198 390.124L257.177 366.437L254.822 356.671L249.384 394.938Z" fill="#007CFF"/>
<path opacity="0.2" d="M249.384 394.938L254.198 390.124L257.177 366.437L254.822 356.671L249.384 394.938Z" fill="black"/>
<path d="M368.779 380.531C368.051 380.531 367.358 380.289 366.735 379.839C354.958 370.904 339.06 355.043 332.964 339.736C332.86 339.528 332.825 339.286 332.756 339.044C329.777 321.347 326.937 284.119 326.833 282.561C326.694 280.691 328.08 279.063 329.95 278.924C331.821 278.786 333.449 280.171 333.587 282.041C333.622 282.422 336.497 320.031 339.406 337.554C345.502 352.446 361.99 367.718 370.822 374.436C372.312 375.579 372.589 377.692 371.48 379.181C370.822 380.081 369.818 380.531 368.779 380.531Z" fill="#1A2E35"/>
<path d="M384.469 382.263C381.836 382.263 378.857 381.086 375.636 378.731C374.112 377.622 373.766 375.51 374.874 373.986C375.983 372.462 378.095 372.116 379.62 373.224C382.425 375.268 383.949 375.475 384.469 375.475C386.339 375.475 387.863 376.999 387.863 378.869C387.863 380.739 386.339 382.263 384.469 382.263Z" fill="#1A2E35"/>
<path d="M376.572 378.627C380.209 367.822 395.103 369.969 400.229 371.562C405.355 373.155 409.962 375.164 412.768 376.999C415.539 378.8 415.573 381.847 411.902 383.579C407.33 385.726 395.865 383.821 395.865 383.821C401.788 386.419 395.865 390.574 385.439 386.488C382.044 385.172 375.29 382.575 376.572 378.627Z" fill="#0072FF"/>
<path d="M340.446 287.201C339.095 296.378 331.509 303.131 325.344 302.231C319.178 301.331 318.901 293.123 320.252 283.98C321.603 274.803 324.027 268.154 330.228 269.055C336.393 269.92 341.796 278.024 340.446 287.201Z" fill="#1A2E35"/>
<path d="M191.054 250.596C191.571 250.596 191.99 250.178 191.99 249.661C191.99 249.145 191.571 248.726 191.054 248.726C190.538 248.726 190.119 249.145 190.119 249.661C190.119 250.178 190.538 250.596 191.054 250.596Z" fill="#1A2E35"/>
<path d="M200.511 256.345C200.511 256.865 200.095 257.28 199.576 257.28C199.056 257.28 198.641 256.865 198.641 256.345C198.641 255.826 199.056 255.41 199.576 255.41C200.095 255.41 200.511 255.826 200.511 256.345Z" fill="#1A2E35"/>
<path d="M201.55 365.986C201.55 366.506 201.134 366.921 200.615 366.921C200.095 366.921 199.68 366.506 199.68 365.986C199.68 365.467 200.095 365.051 200.615 365.051C201.134 365.051 201.55 365.467 201.55 365.986Z" fill="#1A2E35"/>
<path d="M210.035 372.67C210.035 373.19 209.62 373.605 209.1 373.605C208.581 373.605 208.165 373.19 208.165 372.67C208.165 372.151 208.581 371.735 209.1 371.735C209.62 371.735 210.035 372.151 210.035 372.67Z" fill="#1A2E35"/>
<path d="M46.9287 383.787C44.227 383.787 40.5901 382.159 38.6157 379.319C38.4425 379.077 38.5118 378.696 38.7543 378.523C38.9968 378.35 39.3778 378.419 39.5509 378.661C41.6638 381.709 46.3052 383.337 48.3834 382.367C48.5913 382.263 48.7645 382.124 48.903 381.986C47.0672 381.12 45.37 379.458 44.9197 376.93C44.6773 375.51 44.4694 373.571 45.6471 373.294C47.275 372.913 49.3879 376.861 50.2192 379.839C50.3578 380.393 50.427 380.912 50.3578 381.363C51.0852 381.57 51.7779 381.605 52.3667 381.536C52.8517 381.466 53.5444 381.259 53.9254 380.705C52.5399 379.77 51.6393 378.142 51.3276 375.96C50.8773 372.878 51.2237 372.324 51.5701 372.047C51.7779 371.874 52.0896 371.839 52.3321 371.943C53.5444 372.462 54.9992 376.861 55.2763 379.319C55.3109 379.596 55.3109 379.839 55.2763 380.116C55.7266 380.289 56.2461 380.393 56.8003 380.428C57.7701 380.497 58.74 380.185 59.5367 379.7C59.3635 379.596 59.2249 379.492 59.0864 379.354C57.9087 378.35 57.4238 376.757 57.6316 374.436C57.7701 372.67 58.1858 371.701 58.9132 371.389C59.1556 371.285 59.6752 371.181 60.264 371.666C61.4763 372.636 62.6194 375.752 62.2037 377.969C62.1345 378.419 61.9266 378.869 61.6495 379.285C63.7278 379.631 66.6373 379.042 69.1658 378.454C69.4775 378.384 69.7893 378.557 69.8586 378.869C69.9278 379.181 69.7546 379.492 69.4429 379.562C66.3602 380.324 63.0697 380.947 60.749 380.254C59.7098 381.086 58.2551 381.57 56.8003 381.57C56.1422 381.57 55.5187 381.432 54.9299 381.224C54.4796 381.986 53.6483 382.505 52.5399 382.679C51.7779 382.782 50.912 382.713 50.0114 382.471C49.7689 382.886 49.3879 383.233 48.8684 383.475C48.3488 383.683 47.6561 383.787 46.9287 383.787ZM45.9588 374.436C45.8896 374.61 45.7856 375.198 46.0627 376.757C46.4438 378.834 47.7946 380.22 49.284 380.947C49.284 380.705 49.2494 380.428 49.1455 380.15C48.2449 376.895 46.5477 374.679 45.9588 374.436ZM52.2628 373.432C52.2628 373.848 52.2975 374.575 52.4706 375.752C52.7131 377.38 53.3019 378.592 54.2025 379.389C53.9254 377.138 52.8863 374.506 52.2628 373.432ZM59.3635 372.462C59.3635 372.462 58.9478 372.67 58.7746 374.575C58.6014 376.48 58.9478 377.761 59.8484 378.523C60.0562 378.696 60.264 378.834 60.5411 378.938C60.8529 378.592 61.0953 378.176 61.1646 377.761C61.4763 376.133 60.6797 373.709 59.8137 372.739C59.5366 372.497 59.3981 372.462 59.3635 372.462Z" fill="#1A2E35"/>
<path d="M212.564 392.341L215.647 387.042L212.564 381.709H209.273L211.144 387.042L209.273 392.341H212.564Z" fill="#1A2E35"/>
<path d="M209.515 389.812C207.991 389.812 206.744 388.566 206.744 387.042C206.744 385.518 207.991 384.272 209.515 384.272L204.285 383.233L202.899 387.458L205.22 391.025L209.515 389.812Z" fill="#1A2E35"/>
<path d="M209.931 381.709H203.8L200.718 387.042L203.8 392.375H209.931L213.014 387.042L209.931 381.709ZM206.883 389.812C205.359 389.812 204.112 388.566 204.112 387.042C204.112 385.518 205.359 384.272 206.883 384.272C208.407 384.272 209.654 385.518 209.654 387.042C209.654 388.566 208.407 389.812 206.883 389.812Z" fill="#0072FF"/>
<path d="M426.484 381.363L424.198 377.415L426.484 373.467H428.909L427.523 377.415L428.909 381.363H426.484Z" fill="#0072FF"/>
<path d="M428.735 379.458C429.878 379.458 430.779 378.523 430.779 377.415C430.779 376.272 429.844 375.371 428.735 375.371L432.615 374.61L433.654 377.726L431.922 380.358L428.735 379.458Z" fill="#0072FF"/>
<path d="M428.424 373.467H432.996L435.282 377.415L432.996 381.363H428.424L426.138 377.415L428.424 373.467ZM430.71 379.458C431.853 379.458 432.753 378.523 432.753 377.415C432.753 376.272 431.818 375.371 430.71 375.371C429.567 375.371 428.666 376.272 428.666 377.415C428.632 378.557 429.567 379.458 430.71 379.458Z" fill="#1A2E35"/>
<path d="M341.657 386.592H346.783C348.1 386.592 349.208 385.518 349.208 384.168C349.208 382.852 348.134 381.743 346.783 381.743H341.657C340.341 381.743 339.232 382.817 339.232 384.168C339.232 385.518 340.341 386.592 341.657 386.592Z" fill="#1A2E35"/>
<path d="M333.483 382.021C334.73 379.354 337.812 378.142 340.306 379.319C342.835 380.497 343.839 383.648 342.558 386.315C341.311 388.981 338.228 390.193 335.734 389.016C333.24 387.839 332.236 384.722 333.483 382.021Z" fill="#0072FF"/>
<path d="M334.932 389.013L336.342 389.677L341.217 379.34L339.807 378.676L334.932 389.013Z" fill="#1A2E35"/>
</svg>
