<svg width="405" height="17" viewBox="0 0 405 17" fill="none" xmlns="http://www.w3.org/2000/svg">
<path d="M199.771 14.15C199.181 14.15 198.646 14.045 198.166 13.835C197.686 13.615 197.271 13.32 196.921 12.95C196.571 12.57 196.301 12.135 196.111 11.645C195.921 11.155 195.826 10.64 195.826 10.1C195.826 9.55 195.921 9.03 196.111 8.54C196.301 8.05 196.571 7.62 196.921 7.25C197.271 6.87 197.686 6.575 198.166 6.365C198.656 6.145 199.191 6.035 199.771 6.035C200.361 6.035 200.896 6.145 201.376 6.365C201.856 6.575 202.271 6.87 202.621 7.25C202.981 7.62 203.256 8.05 203.446 8.54C203.636 9.03 203.731 9.55 203.731 10.1C203.731 10.64 203.636 11.155 203.446 11.645C203.256 12.135 202.986 12.57 202.636 12.95C202.286 13.32 201.866 13.615 201.376 13.835C200.896 14.045 200.361 14.15 199.771 14.15ZM197.176 10.115C197.176 10.655 197.291 11.145 197.521 11.585C197.761 12.025 198.076 12.375 198.466 12.635C198.856 12.885 199.291 13.01 199.771 13.01C200.251 13.01 200.686 12.88 201.076 12.62C201.476 12.36 201.791 12.01 202.021 11.57C202.261 11.12 202.381 10.625 202.381 10.085C202.381 9.545 202.261 9.055 202.021 8.615C201.791 8.175 201.476 7.825 201.076 7.565C200.686 7.305 200.251 7.175 199.771 7.175C199.291 7.175 198.856 7.31 198.466 7.58C198.076 7.84 197.761 8.19 197.521 8.63C197.291 9.07 197.176 9.565 197.176 10.115ZM209.47 7.325C208.81 7.335 208.225 7.505 207.715 7.835C207.215 8.155 206.86 8.6 206.65 9.17V14H205.33V6.17H206.56V7.985C206.83 7.445 207.185 7.01 207.625 6.68C208.075 6.34 208.545 6.15 209.035 6.11C209.135 6.11 209.22 6.11 209.29 6.11C209.36 6.11 209.42 6.115 209.47 6.125V7.325Z" fill="#6C6C6C"/>
<path d="M0 9.5H183.5" stroke="#838383"/>
<path d="M221 9.5H404.5" stroke="#838383"/>
</svg>
