<svg width="16" height="14" viewBox="0 0 16 14" fill="none" xmlns="http://www.w3.org/2000/svg">
<path d="M14.997 13.6698C6.46601 13.6801 -0.00899063 8.08228 9.3707e-06 0.856927C9.3707e-06 0.384464 0.448009 0 1.00001 0H3.64001C4.13501 0 4.55601 0.310989 4.62901 0.729627C4.80311 1.73355 5.14493 2.71094 5.64401 3.6319L5.74701 3.82157C5.8162 3.9492 5.83108 4.09346 5.78909 4.22947C5.7471 4.36548 5.65088 4.4847 5.51701 4.56658C4.69901 5.06552 4.38701 6.0694 5.02401 6.852C5.82599 7.83736 6.82695 8.69283 7.98001 9.37835C8.89701 9.92173 10.072 9.65517 10.655 8.95715C10.7507 8.84243 10.8904 8.75991 11.0498 8.72388C11.2092 8.68783 11.3784 8.70054 11.528 8.75979L11.749 8.84694C12.827 9.27412 13.971 9.56631 15.146 9.71497C15.636 9.77734 16 10.137 16 10.5608V12.8155C16 12.9277 15.9741 13.0389 15.9238 13.1426C15.8735 13.2463 15.7997 13.3405 15.7068 13.4199C15.6138 13.4992 15.5034 13.5621 15.382 13.605C15.2606 13.6479 15.1304 13.6699 14.999 13.6698H14.997Z" fill="#0072FF"/>
</svg>
