<svg width="152" height="308" viewBox="0 0 152 308" fill="none" xmlns="http://www.w3.org/2000/svg">
<path d="M275.154 153.85C275.154 222.748 219.913 278.113 152.37 278.113C84.8275 278.113 29.5864 222.748 29.5864 153.85C29.5864 84.9508 84.8275 29.5864 152.37 29.5864C219.913 29.5864 275.154 84.9508 275.154 153.85Z" stroke="#C6DDFB" stroke-width="59.1729"/>
<circle cx="86.6154" cy="198" r="2.38462" transform="rotate(-180 86.6154 198)" fill="#0072FF"/>
<circle cx="67.5384" cy="198" r="2.38462" transform="rotate(-180 67.5384 198)" fill="#0072FF"/>
<circle cx="48.4615" cy="198" r="2.38462" transform="rotate(-180 48.4615 198)" fill="#0072FF"/>
<circle cx="29.3846" cy="198" r="2.38462" transform="rotate(-180 29.3846 198)" fill="#0072FF"/>
<circle cx="86.6154" cy="178.128" r="2.38462" transform="rotate(-180 86.6154 178.128)" fill="#0072FF"/>
<circle cx="86.6154" cy="158.257" r="2.38462" transform="rotate(-180 86.6154 158.257)" fill="#0072FF"/>
<circle cx="86.6154" cy="138.385" r="2.38462" transform="rotate(-180 86.6154 138.385)" fill="#0072FF"/>
<circle cx="67.5384" cy="178.128" r="2.38462" transform="rotate(-180 67.5384 178.128)" fill="#0072FF"/>
<circle cx="67.5385" cy="158.256" r="2.38462" transform="rotate(-180 67.5385 158.256)" fill="#0072FF"/>
<circle cx="67.5385" cy="138.385" r="2.38462" transform="rotate(-180 67.5385 138.385)" fill="#0072FF"/>
<circle cx="48.4615" cy="178.128" r="2.38462" transform="rotate(-180 48.4615 178.128)" fill="#0072FF"/>
<circle cx="48.4615" cy="158.256" r="2.38462" transform="rotate(-180 48.4615 158.256)" fill="#0072FF"/>
<circle cx="48.4615" cy="138.385" r="2.38462" transform="rotate(-180 48.4615 138.385)" fill="#0072FF"/>
<circle cx="29.3846" cy="178.128" r="2.38462" transform="rotate(-180 29.3846 178.128)" fill="#0072FF"/>
<circle cx="29.3846" cy="158.256" r="2.38462" transform="rotate(-180 29.3846 158.256)" fill="#0072FF"/>
<circle cx="29.3846" cy="138.385" r="2.38462" transform="rotate(-180 29.3846 138.385)" fill="#0072FF"/>
<rect x="66" y="256.385" width="16" height="16" rx="4" transform="rotate(-180 66 256.385)" fill="#0072FF"/>
</svg>
