<?xml version="1.0" encoding="utf-8"?>
<!-- Generator: Adobe Illustrator 26.5.0, SVG Export Plug-In . SVG Version: 6.00 Build 0)  -->
<svg version="1.1" id="Layer_1" xmlns="http://www.w3.org/2000/svg" xmlns:xlink="http://www.w3.org/1999/xlink" x="0px" y="0px"
	 viewBox="0 0 251 34" style="enable-background:new 0 0 251 34;" xml:space="preserve">
<style type="text/css">
	.st0{fill:#611F69;}
	.st1{fill:#F8F5ED;}
	.st2{fill:#606060;}
	.st3{fill-rule:evenodd;clip-rule:evenodd;fill:#031838;}
	.st4{fill-rule:evenodd;clip-rule:evenodd;fill:#611F69;}
	.st5{fill-rule:evenodd;clip-rule:evenodd;fill:#F8F4EB;}
	.st6{fill-rule:evenodd;clip-rule:evenodd;fill:#F9B62B;}
	.st7{opacity:0.5;}
	.st8{fill:#FFFFFF;}
	.st9{fill:#FBBA10;}
	.st10{fill:#0072FF;}
	.st11{fill-rule:evenodd;clip-rule:evenodd;fill:#FFFFFF;}
</style>
<g>
	<g class="st7">
		<path class="st8" d="M38.97,12.77l-2.74,9.38h-2.56l-1.71-6.55l-1.71,6.55h-2.57l-2.76-9.38h2.4l1.66,7.14l1.79-7.14h2.51
			l1.76,7.13l1.66-7.13H38.97z"/>
		<path class="st8" d="M48.91,18.18h-6.86c0.06,0.68,0.29,1.21,0.71,1.59s0.93,0.58,1.54,0.58c0.88,0,1.51-0.38,1.88-1.13h2.56
			c-0.27,0.9-0.79,1.64-1.56,2.23c-0.77,0.58-1.71,0.87-2.83,0.87c-0.9,0-1.71-0.2-2.43-0.6c-0.72-0.4-1.28-0.97-1.68-1.7
			c-0.4-0.73-0.6-1.58-0.6-2.54c0-0.97,0.2-1.82,0.59-2.56c0.39-0.73,0.95-1.3,1.66-1.69s1.53-0.59,2.45-0.59
			c0.89,0,1.69,0.19,2.4,0.58c0.71,0.38,1.25,0.93,1.64,1.63c0.39,0.71,0.58,1.51,0.58,2.43C48.98,17.6,48.96,17.9,48.91,18.18z
			 M46.52,16.58c-0.01-0.61-0.23-1.1-0.66-1.46c-0.43-0.37-0.95-0.55-1.57-0.55c-0.59,0-1.08,0.18-1.48,0.53
			c-0.4,0.36-0.65,0.85-0.74,1.48H46.52z"/>
		<path class="st8" d="M54.27,13.06c0.49-0.28,1.05-0.42,1.68-0.42v2.49h-0.63c-0.75,0-1.31,0.18-1.68,0.52
			c-0.38,0.35-0.57,0.96-0.57,1.83v4.67H50.7v-9.38h2.37v1.46C53.38,13.73,53.78,13.35,54.27,13.06z"/>
		<path class="st8" d="M66.19,18.18h-6.86c0.06,0.68,0.29,1.21,0.71,1.59s0.93,0.58,1.54,0.58c0.88,0,1.51-0.38,1.88-1.13h2.56
			c-0.27,0.9-0.79,1.64-1.56,2.23c-0.77,0.58-1.71,0.87-2.83,0.87c-0.9,0-1.71-0.2-2.43-0.6c-0.72-0.4-1.28-0.97-1.68-1.7
			c-0.4-0.73-0.6-1.58-0.6-2.54c0-0.97,0.2-1.82,0.59-2.56c0.39-0.73,0.95-1.3,1.66-1.69s1.53-0.59,2.45-0.59
			c0.89,0,1.69,0.19,2.4,0.58c0.71,0.38,1.25,0.93,1.64,1.63c0.39,0.71,0.58,1.51,0.58,2.43C66.26,17.6,66.24,17.9,66.19,18.18z
			 M63.81,16.58c-0.01-0.61-0.23-1.1-0.66-1.46c-0.43-0.37-0.95-0.55-1.57-0.55c-0.59,0-1.08,0.18-1.48,0.53
			c-0.4,0.36-0.65,0.85-0.74,1.48H63.81z"/>
		<path class="st8" d="M67.95,14.91c0.38-0.73,0.89-1.3,1.55-1.69c0.65-0.4,1.38-0.59,2.18-0.59c0.61,0,1.19,0.13,1.74,0.4
			c0.55,0.27,0.99,0.62,1.32,1.06V9.63h2.4v12.53h-2.4v-1.39c-0.29,0.46-0.71,0.84-1.24,1.12c-0.53,0.28-1.15,0.42-1.85,0.42
			c-0.79,0-1.51-0.2-2.17-0.61c-0.65-0.41-1.17-0.98-1.55-1.72c-0.38-0.74-0.57-1.59-0.57-2.55C67.38,16.48,67.57,15.64,67.95,14.91
			z M74.42,15.98c-0.23-0.41-0.53-0.73-0.91-0.95c-0.38-0.22-0.8-0.33-1.24-0.33c-0.44,0-0.85,0.11-1.22,0.32
			c-0.37,0.21-0.67,0.53-0.91,0.94c-0.23,0.41-0.35,0.9-0.35,1.46c0,0.56,0.12,1.06,0.35,1.48c0.23,0.42,0.54,0.75,0.91,0.97
			c0.38,0.23,0.78,0.34,1.21,0.34c0.44,0,0.85-0.11,1.24-0.33c0.38-0.22,0.69-0.54,0.91-0.95c0.23-0.41,0.34-0.91,0.34-1.48
			C74.76,16.89,74.65,16.39,74.42,15.98z"/>
		<path class="st8" d="M87.13,13.05c0.54-0.28,1.15-0.42,1.84-0.42c0.8,0,1.53,0.2,2.18,0.59s1.16,0.96,1.54,1.68
			s0.57,1.57,0.57,2.53c0,0.96-0.19,1.81-0.57,2.55s-0.89,1.31-1.54,1.72s-1.37,0.61-2.18,0.61c-0.7,0-1.31-0.14-1.84-0.41
			c-0.52-0.28-0.95-0.63-1.26-1.08v1.34h-2.37V9.63h2.37v4.52C86.17,13.69,86.59,13.33,87.13,13.05z M90.48,15.97
			c-0.23-0.41-0.54-0.72-0.91-0.94c-0.38-0.21-0.79-0.32-1.23-0.32c-0.43,0-0.83,0.11-1.21,0.33c-0.38,0.22-0.68,0.54-0.91,0.96
			c-0.23,0.42-0.35,0.91-0.35,1.47s0.12,1.06,0.35,1.47c0.23,0.42,0.54,0.74,0.91,0.96c0.38,0.22,0.78,0.33,1.21,0.33
			c0.44,0,0.85-0.11,1.23-0.34c0.38-0.23,0.68-0.55,0.91-0.96c0.23-0.42,0.35-0.91,0.35-1.49C90.82,16.87,90.71,16.38,90.48,15.97z"
			/>
		<path class="st8" d="M103.94,12.77l-5.81,13.81h-2.52l2.03-4.67l-3.76-9.14h2.66l2.42,6.55l2.45-6.55H103.94z"/>
	</g>
	<g class="st7">
		<path class="st8" d="M8.51,15.51c-0.29,0.58-0.73,1.04-1.35,1.39c-0.61,0.35-1.38,0.53-2.31,0.53h-1.9v4.73H0.69V9.84h4.17
			c0.88,0,1.62,0.16,2.24,0.49s1.08,0.78,1.39,1.36s0.46,1.23,0.46,1.96C8.94,14.31,8.8,14.93,8.51,15.51z M6.15,14.97
			c0.3-0.31,0.45-0.75,0.45-1.31c0-1.2-0.62-1.8-1.85-1.8h-1.8v3.58h1.8C5.38,15.43,5.85,15.28,6.15,14.97z"/>
	</g>
	<g>
		<path class="st8" d="M131.82,5.43c-0.45,0.41-0.7,0.84-0.74,1.39c-0.02,0.35-0.23,0.14-0.35,0.1c-2.29-0.8-4.58-0.84-6.85,0.02
			c-3.5,1.35-5.75,3.89-6.58,7.54c-0.98,4.27,0.18,8,3.56,10.84c5.23,4.38,13.02,2.43,15.81-3.88c1.96-4.4,0.86-9.43-2.78-12.64
			c-0.18-0.16-0.27-0.23,0-0.41c0.43-0.29,0.61-0.74,0.74-1.27c0.82,0.61,1.49,1.31,2.07,2.09c4.97,6.44,2.7,16.07-4.81,19.34
			c-4.68,2.06-10.29,0.72-13.66-3.29c-4.34-5.17-3.93-12.92,0.98-17.5c2.45-2.29,5.38-3.37,8.73-3.25
			C129.25,4.57,130.52,4.88,131.82,5.43z"/>
		<path class="st8" d="M124.96,23.53c0.35-0.65,0.68-1.21,1-1.78c0.12-0.23,0.31-0.2,0.51-0.2c1.78,0,3.54,0,5.32,0
			c0.68,0,1.08-0.25,1.17-0.72c0.18-0.74-0.23-1.23-1.04-1.25c-1.41-0.02-2.82,0-4.21,0c-0.16,0-0.29,0-0.53,0
			c0.29-0.55,0.57-1.04,0.84-1.53c1.33-2.39,2.66-4.78,3.99-7.16c0.2-0.35,0.39-0.47,0.78-0.45c0.53,0.04,1.06,0,1.68,0
			c-0.39,0.72-0.76,1.37-1.14,2.04c-0.86,1.55-1.72,3.09-2.6,4.62c-0.22,0.37-0.12,0.43,0.25,0.41c0.72-0.02,1.47-0.04,2.17,0.23
			c1.21,0.49,1.82,1.41,1.82,2.78s-0.63,2.31-1.84,2.78c-0.29,0.12-0.61,0.22-0.94,0.22C129.81,23.53,127.43,23.53,124.96,23.53z"/>
		<path class="st8" d="M130.24,10.44c-0.37,0.67-0.7,1.25-1.02,1.84c-0.12,0.22-0.31,0.16-0.49,0.16c-1.78,0-3.58,0-5.36,0
			c-0.8,0-1.21,0.43-1.15,1.14c0.04,0.41,0.25,0.69,0.65,0.8c0.22,0.08,0.45,0.08,0.68,0.08c1.47,0,2.94,0,4.48,0
			c-0.39,0.72-0.76,1.39-1.14,2.07c-1.23,2.23-2.49,4.44-3.72,6.67c-0.14,0.25-0.29,0.37-0.61,0.35c-0.57-0.02-1.15,0-1.82,0
			c1.33-2.37,2.62-4.68,3.95-7.07c-0.49,0-0.9,0-1.31,0c-0.49,0-0.94-0.1-1.39-0.27c-1.25-0.49-1.94-1.68-1.76-3.09
			c0.16-1.43,1.04-2.39,2.43-2.6c0.33-0.06,0.67-0.08,1-0.08C125.82,10.44,127.99,10.44,130.24,10.44z"/>
		<path class="st8" d="M132.83,7.82c-0.49,0.02-0.88-0.39-0.88-0.9c0-0.47,0.39-0.88,0.86-0.88c0.47,0,0.86,0.37,0.88,0.86
			C133.71,7.39,133.32,7.8,132.83,7.82z"/>
	</g>
	<g>
		<path class="st8" d="M213.4,11.18c-4.1,0-7.09,2.85-7.09,6.76s3.01,6.84,7.06,6.84s7.03-2.9,7.03-6.84
			C220.37,14,217.47,11.18,213.4,11.18z M213.34,21.23c-1.9,0-3.15-1.34-3.13-3.32c0.03-1.95,1.26-3.21,3.15-3.21
			c1.95,0,3.13,1.23,3.1,3.32C216.47,19.98,215.24,21.23,213.34,21.23z"/>
		<path class="st8" d="M241.87,19.2c1.31,0,2.62,0,3.91,0h2.88c1.7,0,1.7,0,1.65-1.73c-0.14-4.08-2.68-6.48-6.56-6.28
			c-3.32,0.17-6.09,2.68-6.36,5.78c-0.36,3.77,1.56,6.64,5,7.54c2.71,0.7,5.02,0.03,7.01-1.93c0.28-0.28,0.31-0.45-0.06-0.7
			c-0.56-0.36-1.12-0.78-1.62-1.2c-0.5-0.45-0.78-0.45-1.28,0.08c-1.56,1.62-4.13,1.17-5-0.84C241.14,19.28,241.2,19.2,241.87,19.2z
			 M241.28,16.04c0.25-1.17,1.31-1.98,2.65-2.01c1.23,0,2.15,0.73,2.43,1.87c0.11,0.45,0.03,0.64-0.47,0.61
			c-0.67-0.03-1.34,0-2.01,0c-0.73,0-1.45-0.03-2.15,0C241.31,16.54,241.2,16.43,241.28,16.04z"/>
		<path class="st8" d="M226.43,13.31c0.78-1.06,1.62-1.79,2.76-2.01c1.06-0.2,2.07-0.14,3.1,0.22c1.65,0.59,2.21,1.93,2.48,3.46
			c0.11,0.7,0.17,1.4,0.14,2.09c0,2.26,0,4.52,0,6.78c0,0.42-0.11,0.56-0.56,0.56c-0.89-0.03-1.79-0.03-2.68,0
			c-0.53,0.03-0.7-0.11-0.7-0.67c0.03-2.07,0.03-4.13,0-6.2c0-0.64,0-1.26-0.31-1.84c-0.36-0.73-0.95-1.03-1.76-1
			c-0.84,0.03-1.54,0.25-1.93,1.06c-0.31,0.64-0.36,1.34-0.36,2.04c0,1.98-0.03,3.96,0,5.95c0,0.56-0.17,0.7-0.7,0.67
			c-0.92-0.06-1.84-0.03-2.74,0c-0.36,0-0.5-0.08-0.5-0.47c0-3.99,0-7.98,0-11.95c0-0.36,0.08-0.5,0.47-0.5
			c0.92,0.03,1.84,0.03,2.74,0c0.42,0,0.53,0.17,0.5,0.56C226.4,12.38,226.43,12.75,226.43,13.31z"/>
		<path class="st8" d="M197.4,21.23c2.29,0,4.35,0.03,6.42,0c0.53,0,0.67,0.17,0.64,0.67c-0.03,0.67-0.03,1.34,0,2.04
			c0,0.36-0.08,0.5-0.47,0.5c-3.43,0-6.87,0-10.33,0c-0.36,0-0.47-0.11-0.47-0.47c0.03-1.03,0.03-2.04,0-3.07
			c0-0.39,0.22-0.59,0.47-0.81c1.93-1.67,3.82-3.35,5.75-5.02c0.08-0.08,0.2-0.17,0.36-0.33c-1.95,0-3.8-0.03-5.64,0.03
			c-0.64,0.03-0.84-0.17-0.78-0.81c0.06-0.61,0.03-1.26,0-1.9c0-0.33,0.06-0.53,0.47-0.53c3.35,0,6.7,0,10.05,0
			c0.33,0,0.45,0.14,0.45,0.45c-0.03,1-0.03,2.01,0,3.01c0,0.36-0.2,0.56-0.42,0.75c-1.9,1.62-3.82,3.24-5.72,4.88
			C197.96,20.73,197.76,20.93,197.4,21.23z"/>
		<path class="st8" d="M184.5,11.83c-3.71,0.03-6.25,2.65-6.25,6.48c0,3.77,2.68,6.48,6.36,6.45c3.63-0.03,6.28-2.82,6.28-6.53
			C190.87,14.45,188.25,11.8,184.5,11.83z M184.56,23.3c-2.76,0-4.8-2.15-4.8-5.02c0-2.93,2.01-5.05,4.8-5.05
			c2.79,0,4.77,2.09,4.8,5C189.39,21.18,187.35,23.33,184.56,23.3z"/>
		<path class="st8" d="M153.86,14.28c1.42-2.12,3.27-2.85,5.58-2.32c1.87,0.45,3.01,1.81,3.13,4.13c0.11,2.62,0.06,5.28,0.06,7.9
			c0,0.25-0.08,0.36-0.36,0.39c-1.2,0.11-1.2,0.11-1.2-1.06c0-1.98,0-3.96,0-5.95c0-0.22,0-0.45,0-0.64
			c-0.06-1.9-0.81-3.1-2.15-3.41c-1.73-0.42-3.55,0.39-4.38,1.95c-0.45,0.81-0.64,1.7-0.64,2.62c-0.03,1.95-0.03,3.91,0,5.89
			c0.03,0.64-0.31,0.64-0.75,0.61c-0.42-0.03-0.84,0.14-0.84-0.59c0.03-3.32,0-6.62-0.03-9.94c0-0.25,0-0.47-0.03-0.73
			c-0.08-1,0.28-1.28,1.26-1.03c0.28,0.08,0.25,0.28,0.25,0.45C153.72,13.11,153.74,13.67,153.86,14.28z"/>
		<path class="st8" d="M170.91,22.66c0.87-2.34,1.7-4.55,2.51-6.76c0.42-1.12,0.84-2.23,1.26-3.35c0.14-0.36,1.31-0.64,1.59-0.39
			c0.17,0.2,0,0.36-0.08,0.53c-0.84,2.21-1.7,4.38-2.54,6.56c-0.59,1.54-1.2,3.07-1.79,4.63c-0.14,0.36-0.31,0.59-0.7,0.47
			c-0.45-0.11-1,0.31-1.31-0.47c-1.48-3.74-2.99-7.48-4.49-11.19c-0.2-0.47-0.14-0.64,0.42-0.61c1.09,0.03,1.09,0,1.48,0.98
			c1.14,2.96,2.26,5.92,3.38,8.9C170.69,22.18,170.77,22.35,170.91,22.66z"/>
		<path class="st8" d="M146.26,18.3c0-1.87,0.03-3.74,0-5.61c-0.03-0.78,0.47-0.53,0.87-0.56c0.42-0.03,0.73-0.06,0.73,0.59
			c-0.03,3.71-0.03,7.4,0,11.11c0,0.75-0.42,0.59-0.84,0.59c-0.45,0.03-0.78,0.06-0.75-0.61C146.29,21.96,146.26,20.14,146.26,18.3z
			"/>
		<path class="st8" d="M148.22,7.28c0,0.64-0.53,1.17-1.17,1.17c-0.61,0-1.17-0.56-1.17-1.17c0-0.64,0.59-1.2,1.23-1.2
			C147.71,6.1,148.24,6.63,148.22,7.28z"/>
	</g>
	<g>
		<path class="st9" d="M23.72,15.34c-0.03,3.31-2.28,6.04-5.46,6.68c-3.5,0.71-7.01-1.52-7.86-4.99c-0.67-2.71,0.36-5.52,2.61-7.14
			c0.34-0.24,0.69-0.28,1.05-0.08c0.34,0.19,0.51,0.5,0.49,0.89c-0.02,0.33-0.19,0.58-0.46,0.77c-0.55,0.4-1,0.9-1.34,1.49
			c-1.67,2.88,0.04,6.59,3.32,7.18c2.69,0.48,5.25-1.3,5.65-4.01c0.28-1.9-0.38-3.47-1.91-4.65c-0.26-0.2-0.45-0.44-0.47-0.77
			c-0.02-0.39,0.14-0.7,0.49-0.9c0.35-0.2,0.7-0.17,1.03,0.06c0.72,0.51,1.32,1.14,1.79,1.89C23.37,12.87,23.71,14.09,23.72,15.34z"
			/>
		<path class="st9" d="M16,11.78c0-1.02-0.01-2.04,0-3.05c0-0.41,0.21-0.7,0.58-0.86c0.37-0.16,0.72-0.09,1.02,0.17
			c0.22,0.2,0.32,0.45,0.32,0.75c0,1.35,0,2.71,0,4.06c0,0.67,0,1.34,0,2.01c0,0.46-0.35,0.86-0.8,0.93
			c-0.48,0.07-0.92-0.2-1.07-0.65C16.01,15,16,14.88,16,14.76C16,13.76,16,12.77,16,11.78z"/>
	</g>
</g>
</svg>
