<svg width="61" height="61" viewBox="0 0 61 61" fill="none" xmlns="http://www.w3.org/2000/svg">
<g filter="url(#filter0_d_6_6)">
<circle cx="27.5" cy="27.5" r="22.5" fill="#0072FF"/>
</g>
<path d="M17 28C17 30.7625 18.1122 33.25 19.8844 35.05L17 38H24.3333V30.5L21.5956 33.3C20.2202 31.8946 19.4466 29.9884 19.4444 28C19.4444 26.4501 19.9146 24.9383 20.7903 23.6733C21.666 22.4083 22.9039 21.4524 24.3333 20.9375V18.325C20.1167 19.4375 17 23.3375 17 28ZM26.7778 34.25H29.2222V31.75H26.7778V34.25ZM39 18H31.6667V25.5L34.4044 22.7C35.7798 24.1054 36.5534 26.0116 36.5556 28C36.5556 29.5499 36.0854 31.0617 35.2097 32.3267C34.334 33.5917 33.0961 34.5476 31.6667 35.0625V37.675C35.8833 36.5625 39 32.6625 39 28C39 25.2375 37.8878 22.75 36.1156 20.95L39 18ZM26.7778 29.25H29.2222V21.75H26.7778V29.25Z" fill="white"/>
<defs>
<filter id="filter0_d_6_6" x="0" y="0" width="61" height="61" filterUnits="userSpaceOnUse" color-interpolation-filters="sRGB">
<feFlood flood-opacity="0" result="BackgroundImageFix"/>
<feColorMatrix in="SourceAlpha" type="matrix" values="0 0 0 0 0 0 0 0 0 0 0 0 0 0 0 0 0 0 127 0" result="hardAlpha"/>
<feOffset dx="3" dy="3"/>
<feGaussianBlur stdDeviation="4"/>
<feComposite in2="hardAlpha" operator="out"/>
<feColorMatrix type="matrix" values="0 0 0 0 0 0 0 0 0 0.447059 0 0 0 0 1 0 0 0 0.27 0"/>
<feBlend mode="normal" in2="BackgroundImageFix" result="effect1_dropShadow_6_6"/>
<feBlend mode="normal" in="SourceGraphic" in2="effect1_dropShadow_6_6" result="shape"/>
</filter>
</defs>
</svg>
