<svg width="68" height="43" viewBox="0 0 68 43" fill="none" xmlns="http://www.w3.org/2000/svg">
<path d="M26.4873 16.7153C26.4873 19.1089 26.1533 21.5303 25.4854 23.9795C24.873 26.4287 23.8433 28.7666 22.396 30.9932C21.0044 33.1641 19.1953 35.1958 16.9688 37.0884C14.7422 38.9253 12.0425 40.4561 8.86963 41.6807C8.59131 41.792 8.31299 41.8755 8.03467 41.9312C7.81201 41.9868 7.56152 42.0146 7.2832 42.0146C6.00293 42.0146 4.94531 41.5693 4.11035 40.6787C3.27539 39.7324 2.85791 38.7026 2.85791 37.5894C2.85791 36.6987 3.1084 35.8916 3.60938 35.168C4.16602 34.3887 4.88965 33.832 5.78027 33.498C8.28516 32.5518 10.2891 31.3828 11.792 29.9912C13.3506 28.5439 14.603 27.0132 15.5493 25.3989C15.104 25.5103 14.6865 25.5938 14.2969 25.6494C13.9629 25.6494 13.5732 25.6494 13.1279 25.6494C11.3467 25.6494 9.67676 25.3154 8.11816 24.6475C6.55957 23.9795 5.1958 23.061 4.02686 21.8921C2.85791 20.7231 1.93945 19.3594 1.27148 17.8008C0.603516 16.2422 0.269531 14.5723 0.269531 12.791C0.269531 11.0654 0.603516 9.42334 1.27148 7.86475C1.93945 6.30615 2.85791 4.97021 4.02686 3.85693C5.1958 2.68799 6.55957 1.76953 8.11816 1.10156C9.67676 0.433594 11.3467 0.0996094 13.1279 0.0996094C15.3545 0.0996094 17.3027 0.544922 18.9727 1.43555C20.6982 2.32617 22.0898 3.55078 23.1475 5.10938C24.2607 6.6123 25.0957 8.36572 25.6523 10.3696C26.209 12.3735 26.4873 14.4888 26.4873 16.7153ZM67.2334 16.7153C67.2334 19.1089 66.8994 21.5303 66.2314 23.9795C65.6191 26.4287 64.5894 28.7666 63.1421 30.9932C61.7505 33.1641 59.9414 35.1958 57.7148 37.0884C55.4883 38.9253 52.7886 40.4561 49.6157 41.6807C49.3374 41.792 49.0591 41.8755 48.7808 41.9312C48.5581 41.9868 48.3076 42.0146 48.0293 42.0146C46.749 42.0146 45.6914 41.5693 44.8564 40.6787C44.0215 39.7324 43.604 38.7026 43.604 37.5894C43.604 36.6987 43.8545 35.8916 44.3555 35.168C44.9121 34.3887 45.6357 33.832 46.5264 33.498C49.0312 32.5518 51.0352 31.3828 52.5381 29.9912C54.0967 28.5439 55.3491 27.0132 56.2954 25.3989C55.8501 25.5103 55.4326 25.5938 55.043 25.6494C54.709 25.6494 54.3193 25.6494 53.874 25.6494C52.0928 25.6494 50.4229 25.3154 48.8643 24.6475C47.3057 23.9795 45.9419 23.061 44.7729 21.8921C43.604 20.7231 42.6855 19.3594 42.0176 17.8008C41.3496 16.2422 41.0156 14.5723 41.0156 12.791C41.0156 11.0654 41.3496 9.42334 42.0176 7.86475C42.6855 6.30615 43.604 4.97021 44.7729 3.85693C45.9419 2.68799 47.3057 1.76953 48.8643 1.10156C50.4229 0.433594 52.0928 0.0996094 53.874 0.0996094C56.1006 0.0996094 58.0488 0.544922 59.7188 1.43555C61.4443 2.32617 62.8359 3.55078 63.8936 5.10938C65.0068 6.6123 65.8418 8.36572 66.3984 10.3696C66.9551 12.3735 67.2334 14.4888 67.2334 16.7153Z" fill="#0072FF"/>
</svg>
