<svg width="68" height="43" viewBox="0 0 68 43" fill="none" xmlns="http://www.w3.org/2000/svg">
<path d="M41.5127 26.2847C41.5127 23.8911 41.8467 21.4697 42.5147 19.0205C43.127 16.5713 44.1567 14.2334 45.604 12.0068C46.9956 9.83593 48.8047 7.8042 51.0313 5.91162C53.2578 4.0747 55.9575 2.54394 59.1304 1.31933C59.4087 1.20801 59.687 1.12451 59.9653 1.06885C60.188 1.01318 60.4385 0.98535 60.7168 0.98535C61.9971 0.98535 63.0547 1.43066 63.8897 2.32129C64.7246 3.26758 65.1421 4.29736 65.1421 5.41064C65.1421 6.30127 64.8916 7.1084 64.3906 7.83203C63.834 8.61133 63.1104 9.16797 62.2197 9.50195C59.7148 10.4482 57.7109 11.6172 56.208 13.0088C54.6494 14.4561 53.397 15.9868 52.4507 17.6011C52.896 17.4897 53.3135 17.4062 53.7031 17.3506C54.0371 17.3506 54.4268 17.3506 54.8721 17.3506C56.6533 17.3506 58.3232 17.6846 59.8818 18.3525C61.4404 19.0205 62.8042 19.939 63.9731 21.1079C65.1421 22.2769 66.0605 23.6406 66.7285 25.1992C67.3965 26.7578 67.7305 28.4277 67.7305 30.209C67.7305 31.9346 67.3965 33.5767 66.7285 35.1353C66.0605 36.6938 65.1421 38.0298 63.9731 39.1431C62.8042 40.312 61.4404 41.2305 59.8818 41.8984C58.3232 42.5664 56.6533 42.9004 54.8721 42.9004C52.6455 42.9004 50.6973 42.4551 49.0273 41.5645C47.3018 40.6738 45.9102 39.4492 44.8525 37.8906C43.7393 36.3877 42.9043 34.6343 42.3477 32.6304C41.791 30.6265 41.5127 28.5112 41.5127 26.2847ZM0.766604 26.2847C0.766604 23.8911 1.10059 21.4697 1.76856 19.0205C2.38086 16.5713 3.41065 14.2334 4.85791 12.0068C6.24952 9.83593 8.0586 7.80419 10.2852 5.91161C12.5117 4.0747 15.2114 2.54394 18.3843 1.31933C18.6626 1.208 18.9409 1.12451 19.2192 1.06884C19.4419 1.01318 19.6924 0.985346 19.9707 0.985346C21.251 0.985346 22.3086 1.43066 23.1436 2.32128C23.9785 3.26757 24.396 4.29736 24.396 5.41064C24.396 6.30126 24.1455 7.10839 23.6445 7.83203C23.0879 8.61132 22.3643 9.16796 21.4736 9.50195C18.9688 10.4482 16.9648 11.6172 15.4619 13.0088C13.9033 14.456 12.6509 15.9868 11.7046 17.6011C12.1499 17.4897 12.5674 17.4062 12.957 17.3506C13.291 17.3506 13.6807 17.3506 14.126 17.3506C15.9072 17.3506 17.5772 17.6846 19.1357 18.3525C20.6943 19.0205 22.0581 19.939 23.2271 21.1079C24.396 22.2769 25.3145 23.6406 25.9824 25.1992C26.6504 26.7578 26.9844 28.4277 26.9844 30.209C26.9844 31.9346 26.6504 33.5767 25.9824 35.1352C25.3145 36.6938 24.396 38.0298 23.2271 39.1431C22.0581 40.312 20.6943 41.2305 19.1357 41.8984C17.5771 42.5664 15.9072 42.9004 14.126 42.9004C11.8994 42.9004 9.95117 42.4551 8.28125 41.5644C6.55567 40.6738 5.16406 39.4492 4.10645 37.8906C2.99317 36.3877 2.15821 34.6343 1.60156 32.6304C1.04492 30.6265 0.766604 28.5112 0.766604 26.2847Z" fill="#0072FF"/>
</svg>
