<svg width="70" height="70" viewBox="0 0 70 70" fill="none" xmlns="http://www.w3.org/2000/svg">
<circle cx="35" cy="35" r="35" fill="#DFEDFF"/>
<path d="M36.1171 42.8192C36.1171 43.1154 35.9994 43.3995 35.7899 43.609C35.5805 43.8185 35.2963 43.9362 35.0001 43.9362C34.7038 43.9362 34.4197 43.8185 34.2102 43.609C34.0008 43.3995 33.8831 43.1154 33.8831 42.8192V34.3454L31.3229 36.9079C31.1131 37.1176 30.8286 37.2355 30.532 37.2355C30.2354 37.2355 29.9509 37.1176 29.7412 36.9079C29.5314 36.6981 29.4136 36.4137 29.4136 36.117C29.4136 35.8204 29.5314 35.5359 29.7412 35.3262L34.2092 30.8581C34.313 30.7541 34.4363 30.6715 34.572 30.6152C34.7077 30.5589 34.8532 30.5299 35.0001 30.5299C35.147 30.5299 35.2925 30.5589 35.4282 30.6152C35.5639 30.6715 35.6872 30.7541 35.7909 30.8581L40.259 35.3262C40.4688 35.5359 40.5866 35.8204 40.5866 36.117C40.5866 36.4137 40.4688 36.6981 40.259 36.9079C40.0493 37.1176 39.7648 37.2355 39.4682 37.2355C39.1716 37.2355 38.8871 37.1176 38.6773 36.9079L36.1171 34.3454V42.8192Z" fill="#0072FF"/>
<path d="M48.4042 48.4043V27.1809L38.351 17.1277H26.0638C24.8788 17.1277 23.7423 17.5984 22.9044 18.4364C22.0664 19.2743 21.5957 20.4108 21.5957 21.5958V48.4043C21.5957 49.5893 22.0664 50.7258 22.9044 51.5637C23.7423 52.4016 24.8788 52.8724 26.0638 52.8724H43.9361C45.1211 52.8724 46.2576 52.4016 47.0955 51.5637C47.9335 50.7258 48.4042 49.5893 48.4042 48.4043ZM38.351 23.8298C38.351 24.7186 38.7041 25.5709 39.3325 26.1994C39.961 26.8278 40.8133 27.1809 41.7021 27.1809H46.1702V48.4043C46.1702 48.9968 45.9348 49.565 45.5158 49.984C45.0969 50.403 44.5286 50.6383 43.9361 50.6383H26.0638C25.4713 50.6383 24.903 50.403 24.4841 49.984C24.0651 49.565 23.8297 48.9968 23.8297 48.4043V21.5958C23.8297 21.0033 24.0651 20.435 24.4841 20.0161C24.903 19.5971 25.4713 19.3617 26.0638 19.3617H38.351V23.8298Z" fill="#0072FF"/>
</svg>
