<svg width="44" height="41" viewBox="0 0 44 41" fill="none" xmlns="http://www.w3.org/2000/svg">
<path d="M26 33.5492C23.8186 32.4948 21.9452 30.8969 20.56 28.9092H4V4.90918H40V9.42918C41.6192 10.5672 42.9818 12.0321 44 13.7292V4.90918C44 3.84831 43.5786 2.8309 42.8284 2.08075C42.0783 1.33061 41.0609 0.90918 40 0.90918H4C2.93913 0.90918 1.92172 1.33061 1.17157 2.08075C0.421427 2.8309 0 3.84831 0 4.90918V28.9092C0 29.97 0.421427 30.9875 1.17157 31.7376C1.92172 32.4877 2.93913 32.9092 4 32.9092H18V36.9092H14V40.9092H30V36.9092H26V33.5492Z" fill="#0072FF"/>
<path d="M32.0001 8.90918C29.6267 8.90918 27.3067 9.61297 25.3333 10.9315C23.3599 12.2501 21.8218 14.1243 20.9136 16.317C20.0053 18.5097 19.7677 20.9225 20.2307 23.2503C20.6937 25.578 21.8366 27.7162 23.5148 29.3945C25.1931 31.0727 27.3313 32.2156 29.659 32.6786C31.9868 33.1416 34.3996 32.904 36.5923 31.9957C38.785 31.0875 40.6592 29.5494 41.9778 27.576C43.2963 25.6026 44.0001 23.2826 44.0001 20.9092C44.0001 17.7266 42.7358 14.6743 40.4854 12.4239C38.235 10.1735 35.1827 8.90918 32.0001 8.90918ZM32.0001 23.9092C31.4068 23.9092 30.8268 23.7332 30.3334 23.4036C29.8401 23.0739 29.4555 22.6054 29.2285 22.0572C29.0014 21.509 28.942 20.9058 29.0578 20.3239C29.1735 19.742 29.4592 19.2074 29.8788 18.7879C30.2984 18.3683 30.8329 18.0826 31.4149 17.9668C31.9968 17.8511 32.6 17.9105 33.1482 18.1375C33.6964 18.3646 34.1649 18.7491 34.4945 19.2425C34.8242 19.7358 35.0001 20.3158 35.0001 20.9092C35.0001 21.7048 34.6841 22.4679 34.1214 23.0305C33.5588 23.5931 32.7958 23.9092 32.0001 23.9092Z" fill="#0072FF"/>
</svg>
