<svg width="106" height="106" viewBox="0 0 106 106" fill="none" xmlns="http://www.w3.org/2000/svg">
<g filter="url(#filter0_d_261_7)">
<circle cx="53" cy="46" r="38" fill="#0072FF"/>
</g>
<path d="M56.8333 46.52C57.9533 46.7067 58.9266 47.1467 59.7533 47.84C60.6066 48.5067 61.2599 49.3467 61.7133 50.36C62.1933 51.3467 62.4333 52.4667 62.4333 53.72C62.4333 55.3733 61.9933 56.8133 61.1133 58.04C60.2333 59.2667 58.9799 60.2133 57.3533 60.88C55.7266 61.5467 53.8066 61.88 51.5933 61.88C49.5666 61.88 47.7533 61.5733 46.1533 60.96C44.5799 60.3733 43.2199 59.4933 42.0733 58.32L45.5133 53.76C46.2333 54.48 47.0599 55.04 47.9933 55.44C48.9266 55.84 50.0199 56.04 51.2733 56.04C52.7933 56.04 53.9266 55.7733 54.6733 55.24C55.4199 54.68 55.7933 53.84 55.7933 52.72C55.7933 51.52 55.3399 50.6133 54.4333 50C53.5533 49.3867 52.1533 49.08 50.2333 49.08H49.0333V44.48H50.3533C51.8199 44.48 52.9799 44.1733 53.8333 43.56C54.6866 42.92 55.1133 42.1067 55.1133 41.12C55.1133 40.5333 54.9666 40.04 54.6733 39.64C54.4066 39.24 54.0199 38.9467 53.5133 38.76C53.0333 38.5467 52.4466 38.44 51.7533 38.44C50.6866 38.44 49.6999 38.6933 48.7933 39.2C47.8866 39.7067 47.1266 40.4533 46.5133 41.44L42.4733 36.8C43.0599 36.0267 43.8599 35.36 44.8733 34.8C45.9133 34.2133 47.0866 33.76 48.3933 33.44C49.6999 33.12 51.0599 32.96 52.4733 32.96C54.3666 32.96 56.0199 33.2533 57.4333 33.84C58.8733 34.4267 59.9799 35.2533 60.7533 36.32C61.5533 37.36 61.9533 38.6 61.9533 40.04C61.9533 41.08 61.7399 42.0667 61.3133 43C60.8866 43.9067 60.2866 44.68 59.5133 45.32C58.7399 45.9333 57.8466 46.3333 56.8333 46.52Z" fill="white"/>
<defs>
<filter id="filter0_d_261_7" x="0" y="0" width="106" height="106" filterUnits="userSpaceOnUse" color-interpolation-filters="sRGB">
<feFlood flood-opacity="0" result="BackgroundImageFix"/>
<feColorMatrix in="SourceAlpha" type="matrix" values="0 0 0 0 0 0 0 0 0 0 0 0 0 0 0 0 0 0 127 0" result="hardAlpha"/>
<feOffset dy="7"/>
<feGaussianBlur stdDeviation="7.5"/>
<feComposite in2="hardAlpha" operator="out"/>
<feColorMatrix type="matrix" values="0 0 0 0 0 0 0 0 0 0.447059 0 0 0 0 1 0 0 0 0.25 0"/>
<feBlend mode="normal" in2="BackgroundImageFix" result="effect1_dropShadow_261_7"/>
<feBlend mode="normal" in="SourceGraphic" in2="effect1_dropShadow_261_7" result="shape"/>
</filter>
</defs>
</svg>
