<svg width="61" height="61" viewBox="0 0 61 61" fill="none" xmlns="http://www.w3.org/2000/svg">
<g filter="url(#filter0_d_6_9)">
<circle cx="27.5" cy="27.5" r="22.5" fill="#0072FF"/>
</g>
<path d="M28 16.8193C25.797 16.8194 23.6435 17.4589 21.8115 18.6569C19.9796 19.855 18.5515 21.5578 17.7076 23.5503C16.8637 25.5428 16.642 27.7355 17.0704 29.8514C17.4988 31.9672 18.5582 33.9112 20.1146 35.4378C20.2031 35.5218 20.2737 35.6222 20.3222 35.7332C20.3707 35.8442 20.3962 35.9635 20.397 36.0842C20.3979 36.2049 20.3743 36.3246 20.3274 36.4363C20.2806 36.548 20.2115 36.6494 20.1242 36.7346C20.0369 36.8199 19.9331 36.8872 19.8189 36.9328C19.7047 36.9783 19.5824 37.0012 19.4591 37C19.3359 36.9987 19.2141 36.9735 19.1008 36.9257C18.9876 36.8779 18.8853 36.8085 18.7997 36.7215C16.9839 34.9405 15.748 32.6725 15.2482 30.2039C14.7484 27.7354 15.0071 25.1772 15.9917 22.8526C16.9763 20.528 18.6426 18.5413 20.7799 17.1437C22.9173 15.746 25.4298 15 28 15C30.5702 15 33.0827 15.746 35.2201 17.1437C37.3574 18.5413 39.0237 20.528 40.0083 22.8526C40.9929 25.1772 41.2516 27.7354 40.7518 30.2039C40.252 32.6725 39.0161 34.9405 37.2003 36.7215C37.1147 36.8085 37.0124 36.8779 36.8992 36.9257C36.7859 36.9735 36.6641 36.9987 36.5409 37C36.4176 37.0012 36.2953 36.9783 36.1811 36.9328C36.0669 36.8872 35.9631 36.8199 35.8758 36.7346C35.7885 36.6494 35.7194 36.548 35.6726 36.4363C35.6257 36.3246 35.6021 36.2049 35.6029 36.0842C35.6038 35.9635 35.6293 35.8442 35.6778 35.7332C35.7263 35.6222 35.7969 35.5218 35.8854 35.4378C37.4418 33.9112 38.5012 31.9672 38.9296 29.8514C39.358 27.7355 39.1363 25.5428 38.2924 23.5503C37.4485 21.5578 36.0204 19.855 34.1885 18.6569C32.3565 17.4589 30.203 16.8194 28 16.8193ZM28 21.3653C26.7144 21.3652 25.4576 21.7384 24.3885 22.4377C23.3195 23.137 22.4864 24.131 21.9943 25.294C21.5023 26.457 21.3736 27.7367 21.6245 28.9714C21.8753 30.206 22.4944 31.3401 23.4036 32.2301C23.4923 32.314 23.563 32.4143 23.6117 32.5252C23.6603 32.6362 23.6859 32.7555 23.687 32.8762C23.6881 32.9969 23.6646 33.1166 23.6179 33.2284C23.5712 33.3401 23.5023 33.4416 23.4151 33.527C23.3279 33.6124 23.2242 33.6799 23.1101 33.7256C22.996 33.7713 22.8737 33.7943 22.7504 33.7933C22.6271 33.7922 22.5053 33.7671 22.392 33.7195C22.2787 33.6718 22.1762 33.6026 22.0906 33.5157C20.9218 32.3713 20.1259 30.9133 19.8034 29.326C19.481 27.7387 19.6465 26.0935 20.279 24.5983C20.9116 23.1031 21.9827 21.8251 23.357 20.926C24.7314 20.0268 26.3471 19.5469 28 19.5469C29.6529 19.5469 31.2686 20.0268 32.643 20.926C34.0173 21.8251 35.0884 23.1031 35.721 24.5983C36.3535 26.0935 36.519 27.7387 36.1966 29.326C35.8741 30.9133 35.0782 32.3713 33.9094 33.5157C33.7343 33.6813 33.4997 33.773 33.2563 33.7709C33.0128 33.7688 32.7799 33.6732 32.6077 33.5047C32.4356 33.3361 32.3379 33.108 32.3358 32.8697C32.3337 32.6313 32.4273 32.4016 32.5964 32.2301C33.5056 31.3401 34.1247 30.206 34.3755 28.9714C34.6264 27.7367 34.4977 26.457 34.0057 25.294C33.5136 24.131 32.6805 23.137 31.6114 22.4377C30.5424 21.7384 29.2856 21.3652 28 21.3653ZM28 24.0928C27.0149 24.0928 26.0702 24.476 25.3736 25.158C24.677 25.8401 24.2857 26.7651 24.2857 27.7296C24.2857 28.6941 24.677 29.6192 25.3736 30.3012C26.0702 30.9832 27.0149 31.3664 28 31.3664C28.9851 31.3664 29.9298 30.9832 30.6264 30.3012C31.323 29.6192 31.7143 28.6941 31.7143 27.7296C31.7143 26.7651 31.323 25.8401 30.6264 25.158C29.9298 24.476 28.9851 24.0928 28 24.0928ZM26.1429 27.7296C26.1429 27.2473 26.3385 26.7848 26.6868 26.4438C27.0351 26.1028 27.5075 25.9112 28 25.9112C28.4925 25.9112 28.9649 26.1028 29.3132 26.4438C29.6615 26.7848 29.8571 27.2473 29.8571 27.7296C29.8571 28.2119 29.6615 28.6744 29.3132 29.0154C28.9649 29.3564 28.4925 29.548 28 29.548C27.5075 29.548 27.0351 29.3564 26.6868 29.0154C26.3385 28.6744 26.1429 28.2119 26.1429 27.7296Z" fill="white"/>
<defs>
<filter id="filter0_d_6_9" x="0" y="0" width="61" height="61" filterUnits="userSpaceOnUse" color-interpolation-filters="sRGB">
<feFlood flood-opacity="0" result="BackgroundImageFix"/>
<feColorMatrix in="SourceAlpha" type="matrix" values="0 0 0 0 0 0 0 0 0 0 0 0 0 0 0 0 0 0 127 0" result="hardAlpha"/>
<feOffset dx="3" dy="3"/>
<feGaussianBlur stdDeviation="4"/>
<feComposite in2="hardAlpha" operator="out"/>
<feColorMatrix type="matrix" values="0 0 0 0 0 0 0 0 0 0.447059 0 0 0 0 1 0 0 0 0.27 0"/>
<feBlend mode="normal" in2="BackgroundImageFix" result="effect1_dropShadow_6_9"/>
<feBlend mode="normal" in="SourceGraphic" in2="effect1_dropShadow_6_9" result="shape"/>
</filter>
</defs>
</svg>
