<svg width="24" height="19" viewBox="0 0 24 19" fill="none" xmlns="http://www.w3.org/2000/svg">
<path d="M23.1307 2.39847C22.2998 2.76665 21.4073 3.01542 20.4689 3.12786C21.4371 2.54852 22.1615 1.6367 22.5068 0.562549C21.5972 1.10287 20.6016 1.48319 19.5634 1.68699C18.8652 0.94154 17.9405 0.447445 16.9327 0.281414C15.925 0.115383 14.8906 0.286705 13.9902 0.768782C13.0898 1.25086 12.3737 2.01672 11.9532 2.94746C11.5326 3.87819 11.4311 4.92174 11.6645 5.91607C9.82126 5.82352 8.01812 5.34445 6.37206 4.50993C4.726 3.67541 3.2738 2.50411 2.10972 1.07203C1.71169 1.75863 1.48282 2.5547 1.48282 3.4025C1.48237 4.16572 1.67032 4.91725 2.02999 5.59041C2.38966 6.26357 2.90992 6.83755 3.54462 7.26141C2.80854 7.23799 2.08869 7.0391 1.44501 6.68128V6.74099C1.44493 7.81143 1.81521 8.84894 2.493 9.67746C3.1708 10.506 4.11437 11.0745 5.16361 11.2865C4.48077 11.4713 3.76487 11.4985 3.06997 11.3661C3.366 12.2872 3.94265 13.0926 4.71918 13.6696C5.49571 14.2467 6.43325 14.5665 7.40055 14.5842C5.7585 15.8732 3.73059 16.5724 1.64303 16.5694C1.27324 16.5695 0.903759 16.5479 0.536499 16.5047C2.65549 17.8671 5.12216 18.5902 7.64136 18.5874C16.1692 18.5874 20.8311 11.5243 20.8311 5.39863C20.8311 5.19961 20.8261 4.99861 20.8172 4.79959C21.724 4.14381 22.5067 3.33175 23.1287 2.40145L23.1307 2.39847Z" fill="white"/>
</svg>
