<svg width="106" height="106" viewBox="0 0 106 106" fill="none" xmlns="http://www.w3.org/2000/svg">
<g filter="url(#filter0_d_261_6)">
<circle cx="53" cy="46" r="38" fill="#0072FF"/>
</g>
<path d="M43.2984 56C43.2984 54.7467 43.3918 53.6267 43.5784 52.64C43.7918 51.6533 44.1251 50.76 44.5784 49.96C45.0584 49.1333 45.6851 48.3733 46.4584 47.68C47.2584 46.96 48.2584 46.28 49.4584 45.64C50.7118 44.9733 51.7518 44.4133 52.5784 43.96C53.4318 43.48 54.1118 43.08 54.6184 42.76C55.1251 42.44 55.4718 42.1333 55.6584 41.84C55.8718 41.52 55.9784 41.1733 55.9784 40.8C55.9784 40.2933 55.8584 39.8533 55.6184 39.48C55.3784 39.1067 55.0318 38.8267 54.5784 38.64C54.1251 38.4267 53.5651 38.32 52.8984 38.32C52.3651 38.32 51.8584 38.3867 51.3784 38.52C50.8984 38.6533 50.4318 38.8533 49.9784 39.12C49.5518 39.3867 49.1384 39.7067 48.7384 40.08C48.3384 40.4267 47.9384 40.8267 47.5384 41.28L43.4984 36.56C43.9518 36.1067 44.5251 35.6533 45.2184 35.2C45.9384 34.7467 46.7518 34.3467 47.6584 34C48.5651 33.6267 49.5518 33.3333 50.6184 33.12C51.7118 32.88 52.8451 32.76 54.0184 32.76C55.9384 32.76 57.5518 33.0533 58.8584 33.64C60.1918 34.2 61.2051 35 61.8984 36.04C62.5918 37.08 62.9384 38.3067 62.9384 39.72C62.9384 40.6267 62.7918 41.4267 62.4984 42.12C62.2318 42.7867 61.8718 43.3867 61.4184 43.92C60.9651 44.4533 60.4451 44.9333 59.8584 45.36C59.2984 45.7867 58.7384 46.1733 58.1784 46.52C57.5384 46.84 56.9384 47.16 56.3784 47.48C55.8184 47.7733 55.2984 48.0667 54.8184 48.36C54.3384 48.6267 53.8851 48.92 53.4584 49.24C53.0584 49.5333 52.6718 49.8667 52.2984 50.24H63.3784V56H43.2984Z" fill="white"/>
<defs>
<filter id="filter0_d_261_6" x="0" y="0" width="106" height="106" filterUnits="userSpaceOnUse" color-interpolation-filters="sRGB">
<feFlood flood-opacity="0" result="BackgroundImageFix"/>
<feColorMatrix in="SourceAlpha" type="matrix" values="0 0 0 0 0 0 0 0 0 0 0 0 0 0 0 0 0 0 127 0" result="hardAlpha"/>
<feOffset dy="7"/>
<feGaussianBlur stdDeviation="7.5"/>
<feComposite in2="hardAlpha" operator="out"/>
<feColorMatrix type="matrix" values="0 0 0 0 0 0 0 0 0 0.447059 0 0 0 0 1 0 0 0 0.25 0"/>
<feBlend mode="normal" in2="BackgroundImageFix" result="effect1_dropShadow_261_6"/>
<feBlend mode="normal" in="SourceGraphic" in2="effect1_dropShadow_261_6" result="shape"/>
</filter>
</defs>
</svg>
