<svg width="43" height="40" viewBox="0 0 43 40" fill="none" xmlns="http://www.w3.org/2000/svg">
<path d="M20.0667 4.28571C20.0667 3.90683 20.2177 3.54347 20.4865 3.27556C20.7553 3.00765 21.1199 2.85714 21.5 2.85714H41.5667C41.9468 2.85714 42.3114 3.00765 42.5802 3.27556C42.849 3.54347 43 3.90683 43 4.28571V7.14286C43 7.52174 42.849 7.8851 42.5802 8.15301C42.3114 8.42092 41.9468 8.57143 41.5667 8.57143H21.5C21.1199 8.57143 20.7553 8.42092 20.4865 8.15301C20.2177 7.8851 20.0667 7.52174 20.0667 7.14286V4.28571ZM5.73333 0C4.21276 0 2.75446 0.602039 1.67925 1.67368C0.604046 2.74531 0 4.19876 0 5.71429L0 11.4286C0 12.9441 0.604046 14.3975 1.67925 15.4692C2.75446 16.5408 4.21276 17.1429 5.73333 17.1429H11.4667C12.9872 17.1429 14.4455 16.5408 15.5207 15.4692C16.596 14.3975 17.2 12.9441 17.2 11.4286V5.71429C17.2 4.19876 16.596 2.74531 15.5207 1.67368C14.4455 0.602039 12.9872 0 11.4667 0H5.73333ZM5.73333 22.8571C4.21276 22.8571 2.75446 23.4592 1.67925 24.5308C0.604046 25.6025 0 27.0559 0 28.5714L0 34.2857C0 35.8012 0.604046 37.2547 1.67925 38.3263C2.75446 39.398 4.21276 40 5.73333 40H11.4667C12.9872 40 14.4455 39.398 15.5207 38.3263C16.596 37.2547 17.2 35.8012 17.2 34.2857V28.5714C17.2 27.0559 16.596 25.6025 15.5207 24.5308C14.4455 23.4592 12.9872 22.8571 11.4667 22.8571H5.73333ZM8.18147 12.44C8.04832 12.573 7.89015 12.6786 7.71602 12.7506C7.54188 12.8226 7.3552 12.8597 7.16667 12.8597C6.97813 12.8597 6.79145 12.8226 6.61732 12.7506C6.44318 12.6786 6.28501 12.573 6.15187 12.44L3.2852 9.58286C3.15193 9.45004 3.04622 9.29235 2.9741 9.11881C2.90198 8.94527 2.86486 8.75927 2.86486 8.57143C2.86486 8.38359 2.90198 8.19759 2.9741 8.02405C3.04622 7.85051 3.15193 7.69282 3.2852 7.56C3.41847 7.42718 3.57667 7.32182 3.75079 7.24993C3.92491 7.17805 4.11153 7.14105 4.3 7.14105C4.48847 7.14105 4.67509 7.17805 4.84921 7.24993C5.02333 7.32182 5.18153 7.42718 5.3148 7.56L7.16667 9.40857L11.8852 4.70286C12.0185 4.57003 12.1767 4.46467 12.3508 4.39279C12.5249 4.32091 12.7115 4.28391 12.9 4.28391C13.0885 4.28391 13.2751 4.32091 13.4492 4.39279C13.6233 4.46467 13.7815 4.57003 13.9148 4.70286C14.0481 4.83568 14.1538 4.99336 14.2259 5.1669C14.298 5.34045 14.3351 5.52645 14.3351 5.71429C14.3351 5.90213 14.298 6.08813 14.2259 6.26167C14.1538 6.43521 14.0481 6.59289 13.9148 6.72571L8.18147 12.44ZM8.18147 35.2971C8.04832 35.4302 7.89015 35.5357 7.71602 35.6077C7.54188 35.6798 7.3552 35.7168 7.16667 35.7168C6.97813 35.7168 6.79145 35.6798 6.61732 35.6077C6.44318 35.5357 6.28501 35.4302 6.15187 35.2971L3.2852 32.44C3.01606 32.1718 2.86486 31.8079 2.86486 31.4286C2.86486 31.0492 3.01606 30.6854 3.2852 30.4171C3.55434 30.1489 3.91938 29.9982 4.3 29.9982C4.68062 29.9982 5.04566 30.1489 5.3148 30.4171L7.16667 32.2657L11.8852 27.56C12.1543 27.2918 12.5194 27.1411 12.9 27.1411C13.2806 27.1411 13.6457 27.2918 13.9148 27.56C14.1839 27.8282 14.3351 28.1921 14.3351 28.5714C14.3351 28.9508 14.1839 29.3146 13.9148 29.5829L8.18147 35.2971ZM20.0667 27.1429C20.0667 26.764 20.2177 26.4006 20.4865 26.1327C20.7553 25.8648 21.1199 25.7143 21.5 25.7143H41.5667C41.9468 25.7143 42.3114 25.8648 42.5802 26.1327C42.849 26.4006 43 26.764 43 27.1429V30C43 30.3789 42.849 30.7422 42.5802 31.0102C42.3114 31.2781 41.9468 31.4286 41.5667 31.4286H21.5C21.1199 31.4286 20.7553 31.2781 20.4865 31.0102C20.2177 30.7422 20.0667 30.3789 20.0667 30V27.1429ZM20.0667 12.8571C20.0667 12.4783 20.2177 12.1149 20.4865 11.847C20.7553 11.5791 21.1199 11.4286 21.5 11.4286H35.8333C36.2135 11.4286 36.578 11.5791 36.8469 11.847C37.1157 12.1149 37.2667 12.4783 37.2667 12.8571C37.2667 13.236 37.1157 13.5994 36.8469 13.8673C36.578 14.1352 36.2135 14.2857 35.8333 14.2857H21.5C21.1199 14.2857 20.7553 14.1352 20.4865 13.8673C20.2177 13.5994 20.0667 13.236 20.0667 12.8571ZM20.0667 35.7143C20.0667 35.3354 20.2177 34.972 20.4865 34.7041C20.7553 34.4362 21.1199 34.2857 21.5 34.2857H35.8333C36.2135 34.2857 36.578 34.4362 36.8469 34.7041C37.1157 34.972 37.2667 35.3354 37.2667 35.7143C37.2667 36.0932 37.1157 36.4565 36.8469 36.7244C36.578 36.9923 36.2135 37.1429 35.8333 37.1429H21.5C21.1199 37.1429 20.7553 36.9923 20.4865 36.7244C20.2177 36.4565 20.0667 36.0932 20.0667 35.7143Z" fill="#0072FF"/>
</svg>
