<svg width="70" height="70" viewBox="0 0 70 70" fill="none" xmlns="http://www.w3.org/2000/svg">
<circle cx="34.7769" cy="35.3882" r="34.3916" fill="#611F69"/>
<path d="M24.2869 45.8778V35.388M32.6787 45.8778V29.0941M41.0706 45.8778V41.6819M32.6787 20.7023H20.0909C18.9781 20.7023 17.9109 21.1443 17.124 21.9312C16.3371 22.7181 15.895 23.7854 15.895 24.8982V50.0737C15.895 51.1866 16.3371 52.2538 17.124 53.0407C17.9109 53.8276 18.9781 54.2697 20.0909 54.2697H45.2665C46.3793 54.2697 47.4466 53.8276 48.2335 53.0407C49.0203 52.2538 49.4624 51.1866 49.4624 50.0737V37.486M47.3645 16.5063V22.8002M47.3645 29.0941V22.8002M47.3645 22.8002H53.6583M47.3645 22.8002H41.0706" stroke="#FBF7EE" stroke-width="4.04607" stroke-linecap="round" stroke-linejoin="round"/>
</svg>
