<svg width="1440" height="699" viewBox="0 0 1440 699" fill="none" xmlns="http://www.w3.org/2000/svg">
<ellipse cx="1117" cy="-56.5" rx="717" ry="642.5" fill="#FBF7EE"/>
<path d="M1327.59 626.603C1329.72 624.478 1333.17 624.478 1335.3 626.603L1351.71 643.017C1353.84 645.142 1353.84 648.594 1351.71 650.72C1349.59 652.845 1346.13 652.845 1344.01 650.72L1327.59 634.306C1325.47 632.181 1325.47 628.729 1327.59 626.603Z" fill="#FCB92B"/>
<path d="M1351.72 626.603C1353.85 628.729 1353.85 632.181 1351.72 634.306L1335.31 650.72C1333.18 652.845 1329.73 652.845 1327.61 650.72C1325.48 648.594 1325.48 645.142 1327.61 643.017L1344.02 626.603C1346.13 624.466 1349.58 624.466 1351.72 626.603Z" fill="#FCB92B"/>
<path d="M1398.75 419.491C1406.89 419.491 1413.49 412.889 1413.49 404.746C1413.49 396.602 1406.89 390 1398.75 390C1390.6 390 1384 396.602 1384 404.746C1384 412.889 1390.6 419.491 1398.75 419.491Z" fill="#FCB92B"/>
<path d="M1273.97 341.942C1277.27 341.942 1279.94 339.269 1279.94 335.971C1279.94 332.673 1277.27 330 1273.97 330C1270.67 330 1268 332.673 1268 335.971C1268 339.269 1270.67 341.942 1273.97 341.942Z" fill="#611F69"/>
<path d="M1273.97 373.123C1277.27 373.123 1279.94 370.45 1279.94 367.152C1279.94 363.854 1277.27 361.181 1273.97 361.181C1270.67 361.181 1268 363.854 1268 367.152C1268 370.45 1270.67 373.123 1273.97 373.123Z" fill="#611F69"/>
<path d="M1304.35 341.942C1307.64 341.942 1310.32 339.269 1310.32 335.971C1310.32 332.673 1307.64 330 1304.35 330C1301.05 330 1298.37 332.673 1298.37 335.971C1298.37 339.269 1301.05 341.942 1304.35 341.942Z" fill="#611F69"/>
<path d="M1304.35 373.123C1307.64 373.123 1310.32 370.45 1310.32 367.152C1310.32 363.854 1307.64 361.181 1304.35 361.181C1301.05 361.181 1298.37 363.854 1298.37 367.152C1298.37 370.45 1301.05 373.123 1304.35 373.123Z" fill="#611F69"/>
<path d="M1235 560.338L1288.34 507" stroke="#FCB92B" stroke-width="3" stroke-miterlimit="10" stroke-linecap="round"/>
<path d="M134 697.338L187.338 644" stroke="#611F69" stroke-width="3" stroke-miterlimit="10" stroke-linecap="round"/>
<path d="M1440.08 223.154C1460 223.154 1476.15 207.001 1476.15 187.077C1476.15 167.152 1460 151 1440.08 151C1420.15 151 1404 167.152 1404 187.077C1404 207.001 1420.15 223.154 1440.08 223.154Z" fill="#FCB92B"/>
<path d="M23.4611 452.461C36.4326 439.49 36.4326 418.459 23.4611 405.487C10.4896 392.516 -10.5414 392.516 -23.513 405.487C-36.4845 418.459 -36.4845 439.49 -23.513 452.461C-10.5414 465.433 10.4896 465.433 23.4611 452.461Z" fill="#611F69"/>
<path d="M105.971 298.942C109.269 298.942 111.942 296.269 111.942 292.971C111.942 289.673 109.269 287 105.971 287C102.673 287 100 289.673 100 292.971C100 296.269 102.673 298.942 105.971 298.942Z" fill="#FCB92C"/>
<path d="M105.971 330.123C109.269 330.123 111.942 327.45 111.942 324.152C111.942 320.854 109.269 318.181 105.971 318.181C102.673 318.181 100 320.854 100 324.152C100 327.45 102.673 330.123 105.971 330.123Z" fill="#FCB92C"/>
<path d="M136.346 298.942C139.644 298.942 142.317 296.269 142.317 292.971C142.317 289.673 139.644 287 136.346 287C133.048 287 130.375 289.673 130.375 292.971C130.375 296.269 133.048 298.942 136.346 298.942Z" fill="#FCB92C"/>
<path d="M136.346 330.123C139.644 330.123 142.317 327.45 142.317 324.152C142.317 320.854 139.644 318.181 136.346 318.181C133.048 318.181 130.375 320.854 130.375 324.152C130.375 327.45 133.048 330.123 136.346 330.123Z" fill="#FCB92C"/>
<path d="M-23.44 152C-62.3392 152 -94 183.642 -94 222.56C-94 261.478 -62.3392 293.12 -23.44 293.12C15.4592 293.12 47.12 261.459 47.12 222.56C47.12 183.661 15.4592 152 -23.44 152ZM-23.44 279.2C-54.736 279.2 -80.0992 253.837 -80.0992 222.56C-80.0992 191.283 -54.736 165.92 -23.44 165.92C7.83681 165.92 33.2 191.283 33.2 222.56C33.2 253.837 7.83681 279.2 -23.44 279.2Z" fill="#FCB92C"/>
<path d="M170.746 480.491C178.889 480.491 185.491 473.889 185.491 465.746C185.491 457.602 178.889 451 170.746 451C162.602 451 156 457.602 156 465.746C156 473.889 162.602 480.491 170.746 480.491Z" fill="#611F69"/>
<path d="M59.6274 572.627C61.797 570.458 65.2915 570.458 67.4611 572.627L84.1459 589.312C86.3155 591.482 86.3155 594.976 84.1459 597.146C81.9763 599.315 78.4819 599.315 76.3123 597.146L59.6274 580.461C57.477 578.31 57.477 574.797 59.6274 572.627Z" fill="#FCB92C"/>
<path d="M84.1456 572.627C86.3152 574.797 86.3152 578.291 84.1456 580.461L67.4608 597.146C65.2912 599.315 61.7968 599.315 59.6272 597.146C57.4576 594.976 57.4576 591.482 59.6272 589.312L76.312 572.627C78.4816 570.477 81.9952 570.477 84.1456 572.627Z" fill="#FCB92C"/>
<path d="M1455.11 598.088C1472.06 591.068 1480.11 571.637 1473.09 554.688C1466.07 537.74 1446.64 529.691 1429.69 536.712C1412.74 543.732 1404.69 563.163 1411.71 580.112C1418.73 597.06 1438.16 605.109 1455.11 598.088Z" fill="#611F69"/>
</svg>
