<svg width="70" height="70" viewBox="0 0 70 70" fill="none" xmlns="http://www.w3.org/2000/svg">
<circle cx="34.7769" cy="35.04" r="34.3916" fill="#611F69"/>
<path d="M34.7776 50.7246L34.081 50.0328L34.0807 50.0326C32.6305 48.5993 31.4397 47.4223 30.6094 46.3159C29.7814 45.2126 29.3261 44.1974 29.3261 43.0906H29.3263L29.3258 43.082C29.3053 42.6795 29.3652 42.2768 29.5018 41.8976C29.6384 41.5184 29.8491 41.1702 30.1216 40.8732C30.3942 40.5763 30.7231 40.3365 31.0892 40.1679C31.4539 39.9999 31.8483 39.9059 32.2496 39.8912C32.7133 39.9005 33.169 40.0141 33.5828 40.2235C33.9981 40.4336 34.3605 40.7347 34.6431 41.1044L34.777 41.2796L34.9109 41.1044C35.1935 40.7347 35.556 40.4336 35.9712 40.2235C36.3851 40.0141 36.8407 39.9005 37.3044 39.8912C37.7057 39.9059 38.1001 39.9999 38.4648 40.1679C38.8309 40.3365 39.1598 40.5763 39.4324 40.8732C39.7049 41.1702 39.9156 41.5184 40.0522 41.8976C40.1889 42.2768 40.2487 42.6795 40.2282 43.082L40.228 43.082V43.0906C40.228 44.1974 39.7727 45.2126 38.9446 46.3169C38.1177 47.4197 36.9333 48.5933 35.4912 50.0223L35.4736 50.0398L35.4732 50.0402L34.7776 50.7246ZM33.0724 20.2228H36.4816V21.7588H33.0724V20.2228Z" fill="#FBF7EE" stroke="white" stroke-width="0.337172"/>
<path d="M30.862 20.0543C30.862 20.9958 30.0988 21.7589 29.1574 21.7589C28.2159 21.7589 27.4528 20.9958 27.4528 20.0543C27.4528 19.1129 28.2159 18.3497 29.1574 18.3497C30.0988 18.3497 30.862 19.1129 30.862 20.0543Z" fill="#FBF7EE" stroke="white" stroke-width="0.337172"/>
<path d="M42.1012 20.0543C42.1012 20.9958 41.338 21.7589 40.3966 21.7589C39.4552 21.7589 38.692 20.9958 38.692 20.0543C38.692 19.1129 39.4552 18.3497 40.3966 18.3497C41.338 18.3497 42.1012 19.1129 42.1012 20.0543Z" fill="#FBF7EE" stroke="white" stroke-width="0.337172"/>
<path d="M42.2698 27.532L36.6503 27.547V31.1247V31.2933H36.8188H46.0162C47.5058 31.2958 48.9337 31.8887 49.987 32.942C51.0404 33.9953 51.6332 35.4232 51.6357 36.9129L42.2698 27.532ZM42.2698 27.532C43.7579 27.533 45.1856 26.9433 46.2392 25.8925C47.2929 24.8416 47.8864 23.4155 47.8893 21.9274L42.2698 27.532ZM36.4817 31.2933V31.4619H36.6503H46.0159C47.4609 31.4643 48.8461 32.0394 49.8678 33.0612C50.8896 34.083 51.4647 35.4681 51.4671 36.9132V51.8981C51.4652 53.3432 50.8903 54.7287 49.8684 55.7505C48.8465 56.7724 47.4611 57.3473 46.0159 57.3493H23.5382C22.0931 57.3473 20.7077 56.7724 19.6858 55.7505C18.6639 54.7287 18.089 53.3433 18.087 51.8982V36.913C18.0895 35.468 18.6646 34.0829 19.6863 33.0612C20.7081 32.0394 22.0933 31.4643 23.5383 31.4619H32.9039H33.0725V31.2933V27.547V27.3784H32.9039H27.2846C25.8394 27.3765 24.454 26.8015 23.4321 25.7796C22.4103 24.7578 21.8354 23.3725 21.8334 21.9274C21.8334 21.9273 21.8334 21.9273 21.8334 21.9272V18.1813C21.8334 18.1812 21.8334 18.1812 21.8334 18.1811C21.8354 16.736 22.4103 15.3507 23.4321 14.3288C24.454 13.307 25.8394 12.7321 27.2845 12.7301H42.2697C43.7148 12.7321 45.1002 13.307 46.122 14.3288C47.1439 15.3507 47.7188 16.7361 47.7208 18.1813V21.9271C47.7179 23.3705 47.1422 24.7538 46.1202 25.7731C45.0982 26.7924 43.7134 27.3644 42.2699 27.3634L42.2694 27.3634L36.6498 27.3784L36.4817 27.3788V27.547V31.2933ZM27.2842 23.9692H27.2844L42.2548 16.3116L42.2549 16.143H42.2547L27.2844 16.1393H27.2842C26.7429 16.1398 26.2239 16.3551 25.8412 16.7379C25.4584 17.1206 25.2431 17.6396 25.2426 18.1809V18.1811V21.9274V21.9276C25.2431 22.4689 25.4584 22.9879 25.8412 23.3706C26.2239 23.7534 26.7429 23.9687 27.2842 23.9692ZM48.0579 51.8985V51.8983V36.9129V36.9127C48.0574 36.3714 47.8421 35.8524 47.4594 35.4697C47.0766 35.0869 46.5576 34.8716 46.0163 34.8711H46.0162H23.538H23.5377C22.9966 34.8722 22.478 35.0876 22.0953 35.4702C21.7127 35.8528 21.4973 36.3714 21.4962 36.9125V36.9129V51.8983V51.8985C21.4968 52.4398 21.712 52.9588 22.0948 53.3415C22.4776 53.7243 22.9965 53.9395 23.5378 53.9401H23.538H46.0162H46.0163C46.5576 53.9395 47.0766 53.7243 47.4594 53.3415C47.8421 52.9588 48.0574 52.4398 48.0579 51.8985Z" fill="#FBF7EE" stroke="white" stroke-width="0.337172"/>
</svg>
