<svg width="1440" height="624" viewBox="0 0 1440 624" fill="none" xmlns="http://www.w3.org/2000/svg">
<path d="M1330.59 590.603C1332.72 588.478 1336.17 588.478 1338.3 590.603L1354.71 607.017C1356.84 609.142 1356.84 612.594 1354.71 614.72C1352.59 616.845 1349.13 616.845 1347.01 614.72L1330.59 598.306C1328.47 596.181 1328.47 592.729 1330.59 590.603Z" fill="#FCB92B"/>
<path d="M1354.72 590.603C1356.85 592.729 1356.85 596.181 1354.72 598.306L1338.31 614.72C1336.18 616.845 1332.73 616.845 1330.61 614.72C1328.48 612.594 1328.48 609.142 1330.61 607.017L1347.02 590.603C1349.13 588.466 1352.58 588.466 1354.72 590.603Z" fill="#FCB92B"/>
<path d="M1391.75 291.491C1399.89 291.491 1406.49 284.889 1406.49 276.746C1406.49 268.602 1399.89 262 1391.75 262C1383.6 262 1377 268.602 1377 276.746C1377 284.889 1383.6 291.491 1391.75 291.491Z" fill="#FCB92B"/>
<path d="M1299.97 142.942C1303.27 142.942 1305.94 140.269 1305.94 136.971C1305.94 133.673 1303.27 131 1299.97 131C1296.67 131 1294 133.673 1294 136.971C1294 140.269 1296.67 142.942 1299.97 142.942Z" fill="#611F69"/>
<path d="M1299.97 174.123C1303.27 174.123 1305.94 171.45 1305.94 168.152C1305.94 164.854 1303.27 162.181 1299.97 162.181C1296.67 162.181 1294 164.854 1294 168.152C1294 171.45 1296.67 174.123 1299.97 174.123Z" fill="#611F69"/>
<path d="M1330.35 142.942C1333.64 142.942 1336.32 140.269 1336.32 136.971C1336.32 133.673 1333.64 131 1330.35 131C1327.05 131 1324.37 133.673 1324.37 136.971C1324.37 140.269 1327.05 142.942 1330.35 142.942Z" fill="#611F69"/>
<path d="M1330.35 174.123C1333.64 174.123 1336.32 171.45 1336.32 168.152C1336.32 164.854 1333.64 162.181 1330.35 162.181C1327.05 162.181 1324.37 164.854 1324.37 168.152C1324.37 171.45 1327.05 174.123 1330.35 174.123Z" fill="#611F69"/>
<path d="M1303 418.338L1356.34 365" stroke="#FCB92B" stroke-width="3" stroke-miterlimit="10" stroke-linecap="round"/>
<path d="M73 622.338L126.338 569" stroke="#611F69" stroke-width="3" stroke-miterlimit="10" stroke-linecap="round"/>
<path d="M1442.08 74.1536C1462 74.1536 1478.15 58.0015 1478.15 38.0768C1478.15 18.1521 1462 2 1442.08 2C1422.15 2 1406 18.1521 1406 38.0768C1406 58.0015 1422.15 74.1536 1442.08 74.1536Z" fill="#FCB92B"/>
<path d="M23.4611 343.461C36.4326 330.49 36.4326 309.459 23.4611 296.487C10.4896 283.516 -10.5414 283.516 -23.513 296.487C-36.4845 309.459 -36.4845 330.49 -23.513 343.461C-10.5414 356.433 10.4896 356.433 23.4611 343.461Z" fill="#611F69"/>
<path d="M114.971 121.942C118.269 121.942 120.942 119.269 120.942 115.971C120.942 112.673 118.269 110 114.971 110C111.673 110 109 112.673 109 115.971C109 119.269 111.673 121.942 114.971 121.942Z" fill="#FCB92C"/>
<path d="M114.971 153.123C118.269 153.123 120.942 150.45 120.942 147.152C120.942 143.854 118.269 141.181 114.971 141.181C111.673 141.181 109 143.854 109 147.152C109 150.45 111.673 153.123 114.971 153.123Z" fill="#FCB92C"/>
<path d="M145.346 121.942C148.644 121.942 151.317 119.269 151.317 115.971C151.317 112.673 148.644 110 145.346 110C142.048 110 139.375 112.673 139.375 115.971C139.375 119.269 142.048 121.942 145.346 121.942Z" fill="#FCB92C"/>
<path d="M145.346 153.123C148.644 153.123 151.317 150.45 151.317 147.152C151.317 143.854 148.644 141.181 145.346 141.181C142.048 141.181 139.375 143.854 139.375 147.152C139.375 150.45 142.048 153.123 145.346 153.123Z" fill="#FCB92C"/>
<path d="M-23.44 0C-62.3392 0 -94 31.6416 -94 70.56C-94 109.478 -62.3392 141.12 -23.44 141.12C15.4592 141.12 47.12 109.459 47.12 70.56C47.12 31.6608 15.4592 0 -23.44 0ZM-23.44 127.2C-54.736 127.2 -80.0992 101.837 -80.0992 70.56C-80.0992 39.2832 -54.736 13.92 -23.44 13.92C7.83681 13.92 33.2 39.2832 33.2 70.56C33.2 101.837 7.83681 127.2 -23.44 127.2Z" fill="#FCB92C"/>
<path d="M150.746 305.491C158.889 305.491 165.491 298.889 165.491 290.746C165.491 282.602 158.889 276 150.746 276C142.602 276 136 282.602 136 290.746C136 298.889 142.602 305.491 150.746 305.491Z" fill="#611F69"/>
<path d="M59.6274 478.627C61.797 476.458 65.2915 476.458 67.4611 478.627L84.1459 495.312C86.3155 497.482 86.3155 500.976 84.1459 503.146C81.9763 505.315 78.4819 505.315 76.3123 503.146L59.6274 486.461C57.477 484.31 57.477 480.797 59.6274 478.627Z" fill="#FCB92C"/>
<path d="M84.1456 478.627C86.3152 480.797 86.3152 484.291 84.1456 486.461L67.4608 503.146C65.2912 505.315 61.7968 505.315 59.6272 503.146C57.4576 500.976 57.4576 497.482 59.6272 495.312L76.312 478.627C78.4816 476.477 81.9952 476.477 84.1456 478.627Z" fill="#FCB92C"/>
<path d="M1455.11 504.088C1472.06 497.068 1480.11 477.637 1473.09 460.688C1466.07 443.74 1446.64 435.691 1429.69 442.712C1412.74 449.732 1404.69 469.163 1411.71 486.112C1418.73 503.06 1438.16 511.109 1455.11 504.088Z" fill="#611F69"/>
</svg>
