<svg width="209" height="47" viewBox="0 0 209 47" fill="none" xmlns="http://www.w3.org/2000/svg">
<path fill-rule="evenodd" clip-rule="evenodd" d="M125.119 43.3127C125.119 43.8715 124.939 44.4109 124.614 44.8676C124.473 45.0814 124.274 45.2806 124.045 45.441C123.798 45.6402 123.501 45.7908 123.18 45.8831L123.015 45.9171C121.694 46.2524 120.333 46.4225 118.963 46.4225C113.166 46.4225 107.841 43.4196 104.779 38.6918C103.511 40.6597 101.825 42.3749 99.7893 43.7014C97.1265 45.441 94.0313 46.3933 90.839 46.4322H90.596C81.4271 46.4322 73.8665 38.9736 73.7305 29.795C73.643 23.9739 76.505 18.595 81.3882 15.4075C84.0558 13.668 87.151 12.7253 90.3434 12.6768H90.6398C91.7914 12.6768 92.9381 12.7982 94.0556 13.0315L94.3472 13.0946C93.1616 13.9595 92.4036 15.3784 92.4182 16.9721C92.423 17.3705 92.4813 17.7544 92.5834 18.1237L92.5251 18.1188C91.8934 18.0119 91.2471 17.9536 90.6009 17.9536C88.3658 17.9536 86.1938 18.5999 84.3182 19.8292C83.1278 20.6018 82.0977 21.5882 81.2571 22.7543C79.4592 25.2518 78.7498 28.2984 79.2406 31.345C79.7459 34.3819 81.3931 37.0398 83.8906 38.8327C85.8488 40.2467 88.1763 40.9853 90.6252 40.9853C92.8846 40.9853 95.0615 40.3487 96.9224 39.1243C98.1129 38.3517 99.143 37.3653 99.9739 36.2089C101.359 34.2798 102.054 32.0058 102.097 29.727V29.4014C102.068 26.486 100.975 23.5901 98.8466 21.4181L98.8126 21.3841C99.4734 21.1508 100.076 20.7573 100.581 20.2422C101.427 19.3822 101.893 18.2597 101.932 17.0693L102.146 17.2685C103.176 18.2257 104.06 19.2899 104.799 20.4414C106.738 17.4386 109.624 15.0237 113.229 13.7117C115.09 13.0363 117.029 12.6962 118.987 12.6962C120.338 12.6962 121.679 12.8614 122.976 13.1772C123.069 13.1918 123.176 13.2258 123.282 13.255C124.094 13.5271 124.716 14.1588 124.978 14.9459C125.071 15.2229 125.114 15.4998 125.114 15.7817C125.114 16.3502 124.944 16.8798 124.609 17.3268C124.468 17.5406 124.274 17.7398 124.05 17.9002C123.603 18.25 123.049 18.4347 122.461 18.4347C122.282 18.4347 122.107 18.4201 121.937 18.3764H121.907L121.82 18.3569C120.926 18.1383 119.998 18.0217 119.06 18.0217C114.007 18.0217 109.473 21.4084 108.025 26.2528C106.208 32.3411 109.687 38.7744 115.775 40.5917C116.839 40.9124 117.947 41.0679 119.07 41.0679C119.983 41.0679 120.887 40.961 121.762 40.7423C121.781 40.7375 121.951 40.6986 121.951 40.6986C122.121 40.6694 122.291 40.6548 122.461 40.6548C122.583 40.6548 122.695 40.6549 122.811 40.6743L122.899 40.6889L122.976 40.718C123.219 40.8152 123.472 40.9075 123.734 40.9901L123.827 41.0193L123.904 41.0776C124.415 41.4031 124.808 41.9085 124.998 42.4818C125.075 42.7637 125.119 43.0406 125.119 43.3127Z" fill="#FBF7EE"/>
<path fill-rule="evenodd" clip-rule="evenodd" d="M97.2092 19.5379C95.7564 19.5574 94.5611 18.3961 94.5416 16.9481C94.5271 15.4953 95.6835 14.2999 97.1315 14.2805C98.5843 14.2611 99.7796 15.4224 99.7991 16.8704C99.8234 18.3232 98.6572 19.5185 97.2092 19.5379Z" fill="#FBF7EE"/>
<path fill-rule="evenodd" clip-rule="evenodd" d="M99.9543 16.8658C99.9786 18.4061 98.7444 19.6646 97.2138 19.6889C95.6735 19.7132 94.415 18.479 94.3908 16.9484C94.3762 15.4081 95.6006 14.1496 97.1312 14.1254C98.6667 14.1011 99.93 15.3352 99.9543 16.8658Z" fill="#FCB92B"/>
<path d="M0 3.45475C0 2.48781 0.335271 1.66663 1.00095 1.00095C1.66664 0.33527 2.53154 0 3.59566 0C4.65492 0 5.5101 0.33527 6.15635 1.00095C6.80259 1.67149 7.12329 2.48781 7.12329 3.45475C7.12329 4.42169 6.80259 5.24286 6.15635 5.90854C5.5101 6.57908 4.65978 6.90949 3.59566 6.90949C2.5364 6.90949 1.67149 6.57422 1.00095 5.90854C0.330412 5.24286 0 4.42169 0 3.45475ZM6.36042 45.3636C6.12719 45.4559 5.7822 45.5579 5.32546 45.6745C4.86385 45.7912 4.35852 45.8495 3.80459 45.8495C1.82212 45.8495 0.830889 45.0186 0.830889 43.3617V13.6878C1.05926 13.5955 1.41883 13.4934 1.90473 13.3768C2.39063 13.2602 2.90568 13.2019 3.4596 13.2019C5.39834 13.2019 6.36528 14.0571 6.36528 15.7626V45.3636H6.36042Z" fill="#FBF7EE"/>
<path d="M30.7865 18.9014C29.3337 17.7012 27.3852 17.1036 24.9411 17.1036C23.0947 17.1036 21.4621 17.3368 20.0336 17.7936C18.605 18.2552 17.3805 18.7848 16.3699 19.3825V45.2469C16.1366 45.3392 15.7916 45.4412 15.3349 45.5579C14.8733 45.6745 14.368 45.7328 13.814 45.7328C11.8316 45.7328 10.8403 44.9019 10.8403 43.245V19.6594C10.8403 18.6925 11.0347 17.8956 11.4283 17.2737C11.817 16.6517 12.5021 16.0395 13.469 15.4418C14.6692 14.7032 16.2581 14.0376 18.2406 13.435C20.2231 12.8374 22.4582 12.5361 24.946 12.5361C29.1393 12.5361 32.4483 13.4836 34.8681 15.3689C37.2878 17.2591 38.4977 20.2328 38.4977 24.29V45.242C38.2645 45.3343 37.9098 45.4364 37.4239 45.553C36.938 45.6696 36.4424 45.7279 35.937 45.7279C33.9546 45.7279 32.9633 44.897 32.9633 43.2401V24.5719C32.9633 21.9869 32.2393 20.0967 30.7865 18.9014Z" fill="#FBF7EE"/>
<path d="M69.051 12.7451C69.8333 12.7451 70.4698 12.9541 70.9509 13.3671C71.4319 13.7801 71.6749 14.3826 71.6749 15.1649C71.6749 15.6751 71.4902 16.5594 71.121 17.8276C70.7517 19.0958 70.2658 20.5924 69.6681 22.3222C69.0705 24.052 68.3902 25.9519 67.6273 28.0267C66.8645 30.1014 66.0579 32.1665 65.2076 34.217C64.3524 36.2675 63.502 38.2403 62.6469 40.1304C61.7917 42.0206 60.9997 43.658 60.2611 45.0429C60.0279 45.2275 59.6294 45.3878 59.0512 45.5288C58.473 45.6648 57.8656 45.7377 57.2194 45.7377C55.5139 45.7377 54.406 45.2518 53.9007 44.2849C53.4877 43.5026 52.9532 42.419 52.3118 41.0342C51.6655 39.6494 50.9756 38.0848 50.237 36.3307C49.4984 34.5814 48.7404 32.7107 47.9533 30.7283C47.171 28.7458 46.4081 26.773 45.6695 24.8149C44.931 22.8567 44.241 20.9665 43.5947 19.1444C42.9485 17.3223 42.4189 15.6994 42.0059 14.2708C42.3266 13.8092 42.7687 13.44 43.3178 13.163C43.8717 12.886 44.4256 12.75 44.9796 12.75C45.8104 12.75 46.4421 12.9589 46.8794 13.3719C47.3167 13.7849 47.72 14.4798 48.0893 15.4467L52.375 27.8274C52.6519 28.6097 52.9969 29.567 53.4099 30.6991C53.8229 31.8313 54.2505 32.9828 54.6878 34.1587C55.1251 35.3346 55.5625 36.4764 55.9998 37.5794C56.4371 38.6873 56.7966 39.6299 57.0736 40.4171H57.3506C59.1921 35.7622 60.9122 31.1753 62.5011 26.6564C64.09 22.1376 65.4845 17.6916 66.6847 13.3088C67.3018 12.9298 68.0841 12.7451 69.051 12.7451Z" fill="#FBF7EE"/>
<path d="M158.666 28.8577C158.666 31.4379 158.296 33.7702 157.558 35.8401C156.819 37.9149 155.77 39.6884 154.409 41.1656C153.049 42.6427 151.401 43.77 149.463 44.5523C147.524 45.3346 145.357 45.7282 142.961 45.7282C140.561 45.7282 138.399 45.3346 136.46 44.5523C134.526 43.77 132.864 42.6378 131.479 41.1656C130.095 39.6884 129.035 37.9149 128.297 35.8401C127.558 33.7653 127.189 31.4379 127.189 28.8577C127.189 26.2776 127.568 23.9501 128.331 21.8754C129.094 19.8006 130.163 18.027 131.547 16.5499C132.932 15.0728 134.589 13.9455 136.528 13.1632C138.467 12.3809 140.61 11.9873 142.961 11.9873C145.313 11.9873 147.456 12.3809 149.395 13.1632C151.328 13.9503 152.981 15.0776 154.341 16.5499C155.702 18.027 156.761 19.8006 157.524 21.8754C158.287 23.9501 158.666 26.2776 158.666 28.8577ZM142.971 16.5499C139.837 16.5499 137.369 17.6335 135.571 19.8006C133.773 21.9677 132.874 24.9851 132.874 28.8577C132.874 32.7789 133.763 35.8061 135.537 37.9538C137.31 40.0966 139.788 41.1704 142.971 41.1704C146.154 41.1704 148.617 40.0869 150.371 37.9198C152.12 35.7527 153 32.7352 153 28.8626C153 24.99 152.111 21.9725 150.337 19.8054C148.559 17.6335 146.105 16.5499 142.971 16.5499Z" fill="#FBF7EE"/>
<path d="M201.532 18.6925C200.239 17.6332 198.509 17.1036 196.347 17.1036C193.349 17.1036 190.677 18.1628 188.325 20.2862C188.602 21.2094 188.738 22.2007 188.738 23.2599V45.2517C188.505 45.344 188.15 45.4461 187.664 45.5627C187.178 45.6793 186.682 45.7376 186.177 45.7376C184.195 45.7376 183.203 44.9067 183.203 43.2498V23.6729C183.203 21.4135 182.557 19.7566 181.27 18.6925C179.977 17.6332 178.228 17.1036 176.012 17.1036C174.535 17.1036 173.14 17.3368 171.829 17.7935C170.517 18.2551 169.394 18.7848 168.476 19.3824V45.2469C168.243 45.3392 167.898 45.4412 167.441 45.5578C166.979 45.6745 166.474 45.7328 165.92 45.7328C163.938 45.7328 162.946 44.9019 162.946 43.245V19.6594C162.946 18.7362 163.141 17.9636 163.534 17.3417C163.923 16.7197 164.608 16.088 165.575 15.4418C166.819 14.6595 168.398 13.9792 170.313 13.401C172.227 12.8276 174.151 12.5361 176.085 12.5361C178.344 12.5361 180.346 12.8714 182.1 13.5371C183.85 14.2076 185.191 15.1162 186.109 16.2678C187.309 15.2086 188.806 14.3194 190.604 13.6051C192.402 12.8908 194.452 12.5312 196.76 12.5312C200.497 12.5312 203.47 13.4204 205.681 15.194C207.892 16.9675 209 19.7031 209 23.3862V45.2371C208.767 45.3295 208.412 45.4315 207.926 45.5481C207.44 45.6647 206.944 45.723 206.439 45.723C204.457 45.723 203.465 44.8922 203.465 43.2352V23.6729C203.465 21.4135 202.819 19.7517 201.532 18.6925Z" fill="#FBF7EE"/>
</svg>
