<svg width="136" height="26" viewBox="0 0 136 26" fill="none" xmlns="http://www.w3.org/2000/svg">
<g clip-path="url(#clip0_7_2)">
<path d="M17.1776 1.19069C16.9676 1.3671 16.7958 1.58438 16.6724 1.82933C16.5491 2.07427 16.4769 2.34175 16.4603 2.61548C16.4404 2.97416 16.2264 2.76212 16.1115 2.72447C13.7752 1.96749 11.4467 1.97938 9.17579 2.91273C5.65642 4.35734 3.44889 6.9929 2.69785 10.6966C1.81404 15.0462 3.07238 18.7955 6.55608 21.5836C11.954 25.9036 19.7894 23.7416 22.4686 17.2894C23.3843 15.1126 23.5762 12.6992 23.016 10.405C22.4559 8.11083 21.1733 6.05741 19.3574 4.54757C19.1592 4.38508 19.082 4.30977 19.3415 4.1235C19.7656 3.82428 19.936 3.35859 20.0609 2.81761C20.8726 3.40092 21.5983 4.09533 22.2169 4.88048C27.3929 11.2851 25.3221 21.0763 17.7998 24.5739C13.1054 26.7537 7.38639 25.5409 3.88485 21.5757C-0.641191 16.4552 -0.395475 8.59802 4.46744 3.84013C6.89097 1.46218 9.83964 0.308864 13.2262 0.356423C14.5835 0.388641 15.9232 0.671486 17.1776 1.19069Z" fill="white"/>
<path d="M10.1899 19.6256C10.5526 18.9776 10.8835 18.4069 11.1946 17.8223C11.3195 17.5885 11.5157 17.6242 11.7138 17.6242C13.5072 17.6242 15.3025 17.6242 17.0959 17.6242C17.7796 17.6242 18.1779 17.3665 18.2849 16.885C18.4553 16.1379 18.0511 15.6326 17.2346 15.6227C15.8118 15.6088 14.387 15.6227 12.9642 15.6227H12.4292C12.7324 15.0718 12.9999 14.5764 13.2753 14.085C14.6228 11.6694 15.9803 9.2597 17.3099 6.83418C17.3705 6.67929 17.482 6.54961 17.6261 6.46642C17.7701 6.38324 17.9381 6.3515 18.1026 6.37643C18.6396 6.40813 19.1806 6.37643 19.8147 6.37643C19.4085 7.10368 19.0379 7.76357 18.6634 8.43534C17.7855 9.99885 16.9156 11.5663 16.0219 13.1199C15.8098 13.4865 15.901 13.5479 16.2795 13.5361C17.0186 13.5162 17.7598 13.4944 18.4732 13.7778C19.6938 14.2653 20.324 15.2105 20.322 16.5996C20.32 17.9888 19.6859 18.938 18.4533 19.4037C18.1548 19.5335 17.8352 19.608 17.5101 19.6236C15.1004 19.6296 12.6888 19.6256 10.1899 19.6256Z" fill="white"/>
<path d="M15.5485 6.37445C15.17 7.04821 14.8371 7.63477 14.5101 8.22728C14.3932 8.44129 14.197 8.38977 14.0187 8.38977C12.2114 8.38977 10.4022 8.38977 8.59493 8.38977C7.78445 8.38977 7.3584 8.82177 7.41785 9.53714C7.42199 9.72438 7.48771 9.90505 7.60484 10.0512C7.72197 10.1973 7.88399 10.3008 8.06584 10.3456C8.28986 10.4058 8.52167 10.4319 8.75346 10.4229H13.2874C12.8911 11.1561 12.5106 11.8378 12.1321 12.5175C10.8738 14.7686 9.61151 17.0158 8.36705 19.2749C8.31734 19.3933 8.23063 19.4924 8.1199 19.5574C8.00916 19.6224 7.88035 19.6498 7.75274 19.6355C7.17014 19.6098 6.58556 19.6355 5.91775 19.6355L9.92857 12.4898C9.44109 12.4898 9.02098 12.4898 8.60088 12.4898C8.12057 12.4943 7.6442 12.4027 7.19987 12.2203C5.92964 11.7169 5.24598 10.5121 5.4164 9.08929C5.58286 7.63477 6.46667 6.67764 7.8657 6.4557C8.20083 6.40487 8.53934 6.3797 8.87831 6.3804C11.064 6.3705 13.2557 6.37445 15.5485 6.37445Z" fill="white"/>
<path d="M18.2632 3.5843C18.1437 3.58539 18.0253 3.56247 17.9148 3.5169C17.8044 3.47132 17.7043 3.40403 17.6203 3.31901C17.5364 3.23398 17.4704 3.13296 17.4263 3.02195C17.3822 2.91094 17.3608 2.79218 17.3635 2.67275C17.3628 2.43986 17.4524 2.21577 17.6136 2.04762C17.7747 1.87946 17.9948 1.78035 18.2275 1.77111C18.4608 1.76998 18.6853 1.86014 18.853 2.02232C19.0208 2.1845 19.1184 2.40585 19.1252 2.63907C19.1327 2.75819 19.1161 2.8776 19.0765 2.9902C19.0369 3.1028 18.975 3.20628 18.8946 3.29447C18.8142 3.38267 18.7168 3.45378 18.6083 3.50357C18.4999 3.55336 18.3825 3.58082 18.2632 3.5843Z" fill="white"/>
</g>
<g clip-path="url(#clip1_7_2)">
<path d="M99.0019 6.79436C94.8972 6.78038 91.8942 9.638 91.8942 13.5581C91.8942 17.4783 94.9251 20.4058 98.9655 20.4058C103.006 20.4058 106.017 17.4978 106.017 13.5609C106.017 9.62401 103.101 6.80834 99.0019 6.79436ZM98.9459 16.8603C97.039 16.8603 95.7891 15.5266 95.8087 13.5218C95.8283 11.517 97.067 10.2979 98.9795 10.3007C100.937 10.3007 102.103 11.5421 102.094 13.6169C102.083 15.6049 100.858 16.8659 98.9459 16.8631V16.8603Z" fill="white"/>
<path d="M127.528 14.8108H134.333C136.044 14.8108 136.044 14.8108 135.98 13.0912C135.826 9.02005 133.301 6.6126 129.395 6.81392C126.076 6.98448 123.314 9.48701 123.026 12.5879C122.673 16.357 124.58 19.2314 128.028 20.1374C130.732 20.8364 133.061 20.1653 135.046 18.2165C135.326 17.9368 135.354 17.7691 134.996 17.5286C134.428 17.161 133.886 16.7546 133.374 16.3123C132.879 15.8677 132.588 15.8677 132.085 16.3878C131.746 16.7624 131.319 17.0456 130.842 17.2115C130.365 17.3774 129.854 17.4206 129.356 17.337C128.858 17.2534 128.389 17.0458 127.992 16.7334C127.595 16.4209 127.284 16.0136 127.086 15.549C126.815 14.8947 126.862 14.8108 127.528 14.8108ZM126.94 11.6624C127.195 10.4852 128.246 9.67715 129.588 9.66037C130.149 9.63338 130.702 9.80667 131.147 10.1493C131.592 10.492 131.901 10.9817 132.018 11.531C132.124 11.97 132.054 12.1825 131.537 12.1545C130.863 12.1181 130.187 12.1545 129.51 12.1545C128.833 12.1545 128.07 12.1377 127.351 12.1545C126.968 12.1629 126.854 12.0594 126.94 11.6624Z" fill="white"/>
<path d="M112.062 8.91101C112.854 7.8401 113.676 7.13269 114.825 6.90341C115.856 6.69195 116.925 6.76838 117.915 7.12431C119.553 7.7059 120.124 9.05083 120.406 10.5999C120.519 11.2882 120.57 11.9855 120.557 12.683C120.557 14.9506 120.557 17.221 120.557 19.4887C120.557 19.9109 120.445 20.0479 119.998 20.0479C119.106 20.0172 118.208 20.0088 117.316 20.0479C116.785 20.0731 116.609 19.9305 116.617 19.3713C116.651 17.2993 116.634 15.2274 116.617 13.1555C116.617 12.5236 116.617 11.8945 116.31 11.3017C116.158 10.9722 115.908 10.6984 115.593 10.5188C115.278 10.3392 114.914 10.263 114.554 10.3007C113.715 10.3231 113.01 10.5579 112.616 11.3716C112.335 12.0139 112.207 12.7126 112.241 13.4128C112.241 15.398 112.219 17.3832 112.241 19.3685C112.241 19.9277 112.085 20.0731 111.548 20.0479C110.634 20.006 109.716 20.0227 108.802 20.0479C108.439 20.0479 108.31 19.9528 108.313 19.5754C108.324 15.5825 108.324 11.5906 108.313 7.59964C108.313 7.23894 108.405 7.09355 108.788 7.10194C109.702 7.12431 110.62 7.1271 111.537 7.10194C111.965 7.10194 112.06 7.2725 112.034 7.66116C112.009 8.04982 112.062 8.36018 112.062 8.91101Z" fill="white"/>
<path d="M82.9997 16.8631C85.2841 16.8631 87.3532 16.8827 89.4307 16.8631C89.9592 16.8631 90.1074 17.0225 90.0766 17.5258C90.0375 18.1996 90.0515 18.8791 90.0766 19.553C90.0766 19.9081 89.9955 20.0535 89.6069 20.0535C86.1621 20.0386 82.7135 20.0386 79.2613 20.0535C78.8866 20.0535 78.7748 19.9332 78.7803 19.567C78.8027 18.5436 78.8083 17.5174 78.7803 16.4912C78.7803 16.0914 79.0012 15.8985 79.2445 15.686L85.0073 10.653C85.0996 10.5719 85.1918 10.4852 85.3792 10.3118C83.4219 10.3118 81.5709 10.2839 79.731 10.3118C79.0991 10.3258 78.8922 10.1469 78.9369 9.51495C78.9719 8.88258 78.9719 8.24877 78.9369 7.6164C78.9369 7.27807 79.004 7.09352 79.4011 7.09631C82.7564 7.09631 86.1117 7.09631 89.4671 7.09631C89.811 7.09631 89.92 7.22214 89.9144 7.55488C89.8977 8.55868 89.8893 9.56249 89.9144 10.5663C89.9116 10.7169 89.8703 10.8643 89.7944 10.9945C89.7186 11.1247 89.6107 11.2333 89.4811 11.31C87.5704 12.9337 85.6625 14.5601 83.7574 16.1893C83.5589 16.371 83.3548 16.5555 82.9997 16.8631Z" fill="white"/>
<path d="M70.0538 7.44025C66.3377 7.45982 63.7877 10.1077 63.7989 13.9328C63.7989 17.7103 66.4971 20.4338 70.188 20.4058C73.8229 20.3806 76.4904 17.5929 76.4708 13.8657C76.4596 10.0602 73.8229 7.42068 70.0538 7.44025ZM70.1125 18.9462C67.3555 18.9462 65.3088 16.8072 65.3004 13.9132C65.3004 10.9717 67.308 8.86066 70.1237 8.86346C72.9393 8.86625 74.919 10.9521 74.9302 13.8601C74.9413 16.7681 72.9142 18.9518 70.1237 18.9462H70.1125Z" fill="white"/>
<path d="M39.3778 9.89524C40.8178 7.78138 42.6632 7.03763 44.97 7.58007C46.8546 8.02465 47.9954 9.40033 48.0988 11.7295C48.2135 14.3634 48.1408 17.0057 48.1548 19.6425C48.1548 19.9221 48.0793 20.0171 47.7885 20.0423C46.5917 20.143 46.5917 20.157 46.5917 18.9658V13.0129C46.5917 12.7948 46.5917 12.5767 46.5917 12.3586C46.5386 10.4489 45.7892 9.26613 44.4331 8.94457C43.5865 8.7458 42.698 8.8295 41.9034 9.1829C41.1087 9.5363 40.4515 10.14 40.0321 10.9018C39.6019 11.7157 39.3809 12.6237 39.389 13.5442C39.3722 15.5014 39.3498 17.4587 39.389 19.416C39.4029 20.0675 39.0758 20.0507 38.634 20.0255C38.1922 20.0004 37.7952 20.1737 37.7952 19.43C37.8203 16.1138 37.7952 12.8004 37.77 9.48422C37.77 9.24375 37.77 9.00329 37.7449 8.76562C37.6582 7.773 38.0245 7.47941 38.9947 7.73385C39.2743 7.80655 39.2352 8.01346 39.238 8.18682C39.2285 8.7595 39.2753 9.33172 39.3778 9.89524Z" fill="white"/>
<path d="M56.4535 18.3031C57.3343 15.9432 58.1563 13.7455 58.97 11.5449C59.3866 10.4265 59.8088 9.30806 60.2171 8.17564C60.3513 7.81773 61.5452 7.52692 61.7996 7.79255C61.9786 7.9771 61.7996 8.16725 61.7269 8.33222C60.8881 10.5272 60.0297 12.7193 59.1797 14.9114C58.5841 16.4549 57.9746 17.9872 57.3986 19.5418C57.2644 19.8997 57.0994 20.1206 56.6995 20.0311C56.2494 19.9277 55.6818 20.3247 55.3854 19.5698C53.9118 15.8202 52.3963 12.0902 50.878 8.35737C50.6823 7.87644 50.7354 7.71987 51.2975 7.73385C52.3852 7.76181 52.3907 7.73383 52.7682 8.71806C53.9034 11.6875 55.0359 14.6579 56.1655 17.6293C56.2382 17.8082 56.3193 17.9844 56.4535 18.3031Z" fill="white"/>
<path d="M31.7779 13.9412C31.7779 12.065 31.8059 10.1916 31.7639 8.31821C31.7444 7.54649 32.2449 7.77857 32.6335 7.75899C33.0222 7.73942 33.3605 7.71426 33.3549 8.33779C33.3251 12.0436 33.3251 15.7493 33.3549 19.4551C33.3549 20.1989 32.9327 20.0311 32.5161 20.0507C32.0995 20.0703 31.736 20.1094 31.7528 19.4467C31.8087 17.6041 31.7779 15.7726 31.7779 13.9412Z" fill="white"/>
<path d="M33.7296 2.89168C33.7245 3.19956 33.5996 3.49332 33.3813 3.71053C33.1631 3.92774 32.8687 4.05126 32.5608 4.05486C32.2534 4.04067 31.9623 3.91255 31.7441 3.69546C31.526 3.47837 31.3965 3.18785 31.3809 2.8805C31.3867 2.56158 31.5179 2.2578 31.7461 2.03488C31.9742 1.81196 32.281 1.68784 32.6 1.68936C32.9078 1.70315 33.198 1.83651 33.409 2.06106C33.62 2.28561 33.735 2.58362 33.7296 2.89168Z" fill="white"/>
</g>
<defs>
<clipPath id="clip0_7_2">
<rect width="24.4295" height="25.2915" fill="white" transform="translate(0.646484 0.354248)"/>
</clipPath>
<clipPath id="clip1_7_2">
<rect width="104.619" height="18.7171" fill="white" transform="translate(31.3809 1.68587)"/>
</clipPath>
</defs>
</svg>
