<svg width="90" height="90" viewBox="0 0 90 90" fill="none" xmlns="http://www.w3.org/2000/svg">
<g filter="url(#filter0_d_64_139)">
<rect width="39.648" height="34.9835" transform="matrix(-1 0 0 1 64.9736 24.2607)" fill="#611F69"/>
<path d="M45.1497 5.60301C35.5622 5.60301 26.3674 9.41162 19.588 16.191C12.8086 22.9704 8.99999 32.1652 8.99999 41.7527C8.99999 51.3402 12.8086 60.535 19.588 67.3143C26.3674 74.0937 35.5622 77.9023 45.1497 77.9023C54.7371 77.9023 63.9319 74.0937 70.7113 67.3144C77.4907 60.535 81.2993 51.3402 81.2993 41.7527C81.2993 32.1652 77.4907 22.9704 70.7113 16.191C63.9319 9.41162 54.7371 5.60301 45.1497 5.60301ZM60.9651 39.4933C61.5643 39.4933 62.139 39.7314 62.5627 40.1551C62.9864 40.5788 63.2245 41.1535 63.2245 41.7527C63.2245 42.3519 62.9864 42.9266 62.5627 43.3503C62.139 43.774 61.5643 44.012 60.9651 44.012L34.7883 44.012L44.4899 53.7092C44.9142 54.1334 45.1525 54.7088 45.1525 55.3088C45.1525 55.9088 44.9142 56.4842 44.4899 56.9084C44.0657 57.3327 43.4903 57.571 42.8903 57.571C42.2903 57.571 41.7149 57.3327 41.2907 56.9084L27.7346 43.3523C27.5241 43.1424 27.3572 42.8931 27.2433 42.6186C27.1294 42.3441 27.0708 42.0499 27.0708 41.7527C27.0708 41.4555 27.1294 41.1612 27.2433 40.8867C27.3572 40.6122 27.5241 40.3629 27.7346 40.1531L41.2907 26.5969C41.7149 26.1727 42.2903 25.9343 42.8903 25.9343C43.4903 25.9343 44.0657 26.1727 44.4899 26.5969C44.9142 27.0212 45.1525 27.5966 45.1525 28.1966C45.1525 28.7965 44.9142 29.3719 44.4899 29.7962L34.7883 39.4933L60.9651 39.4933Z" fill="white"/>
</g>
<defs>
<filter id="filter0_d_64_139" x="0.5931" y="0.558399" width="89.1131" height="89.1136" filterUnits="userSpaceOnUse" color-interpolation-filters="sRGB">
<feFlood flood-opacity="0" result="BackgroundImageFix"/>
<feColorMatrix in="SourceAlpha" type="matrix" values="0 0 0 0 0 0 0 0 0 0 0 0 0 0 0 0 0 0 127 0" result="hardAlpha"/>
<feOffset dy="3.36276"/>
<feGaussianBlur stdDeviation="4.20345"/>
<feComposite in2="hardAlpha" operator="out"/>
<feColorMatrix type="matrix" values="0 0 0 0 0 0 0 0 0 0 0 0 0 0 0 0 0 0 0.1 0"/>
<feBlend mode="normal" in2="BackgroundImageFix" result="effect1_dropShadow_64_139"/>
<feBlend mode="normal" in="SourceGraphic" in2="effect1_dropShadow_64_139" result="shape"/>
</filter>
</defs>
</svg>
