<svg width="63" height="63" viewBox="0 0 63 63" fill="none" xmlns="http://www.w3.org/2000/svg">
<circle cx="31.1127" cy="31.4794" r="30.892" fill="#611F69"/>
<path d="M51.8649 26.6857H39.813C39.6058 26.6857 39.4363 26.8551 39.4363 27.0623V29.322C39.4363 29.5292 39.6058 29.6987 39.813 29.6987H51.8649C52.0721 29.6987 52.2416 29.5292 52.2416 29.322V27.0623C52.2416 26.8551 52.0721 26.6857 51.8649 26.6857ZM45.5565 33.0883H39.813C39.6058 33.0883 39.4363 33.2578 39.4363 33.4649V35.7247C39.4363 35.9318 39.6058 36.1013 39.813 36.1013H45.5565C45.7636 36.1013 45.9331 35.9318 45.9331 35.7247V33.4649C45.9331 33.2578 45.7636 33.0883 45.5565 33.0883ZM29.8465 22.4722H27.808C27.5162 22.4722 27.2808 22.7076 27.2808 22.9994V34.6748C27.2808 34.8443 27.3608 34.9997 27.4973 35.0985L34.5072 40.2112C34.7426 40.3807 35.0722 40.3336 35.2417 40.0982L36.4516 38.4458V38.4411C36.6211 38.2057 36.5693 37.8761 36.3339 37.7066L30.3691 33.3943V22.9994C30.3738 22.7076 30.1337 22.4722 29.8465 22.4722Z" fill="#FBF7EE"/>
<path d="M45.2645 39.015H42.5434C42.2797 39.015 42.0302 39.1515 41.889 39.3775C41.2911 40.3237 40.5943 41.1994 39.794 41.9997C38.4146 43.3791 36.8093 44.4619 35.025 45.2152C33.1748 45.9967 31.2117 46.3921 29.1873 46.3921C27.1583 46.3921 25.1951 45.9967 23.3496 45.2152C21.5654 44.4619 19.96 43.3791 18.5806 41.9997C17.2012 40.6203 16.1184 39.015 15.3652 37.2307C14.5837 35.3853 14.1882 33.4221 14.1882 31.393C14.1882 29.364 14.5837 27.4055 15.3652 25.5553C16.1184 23.7711 17.2012 22.1657 18.5806 20.7863C19.96 19.407 21.5654 18.3242 23.3496 17.5709C25.1951 16.7894 27.163 16.394 29.1873 16.394C31.2164 16.394 33.1795 16.7894 35.025 17.5709C36.8093 18.3242 38.4146 19.407 39.794 20.7863C40.5943 21.5867 41.2911 22.4623 41.889 23.4086C42.0302 23.6346 42.2797 23.7711 42.5434 23.7711H45.2645C45.5893 23.7711 45.7965 23.4321 45.6505 23.1449C42.581 17.0389 36.3573 13.0702 29.4086 12.9902C19.235 12.8631 10.7845 21.1912 10.7657 31.3554C10.7468 41.5384 18.9996 49.8006 29.1826 49.8006C36.2208 49.8006 42.5481 45.8178 45.6505 39.6411C45.7965 39.3539 45.5846 39.015 45.2645 39.015Z" fill="#FBF7EE"/>
</svg>
