<svg width="62" height="63" viewBox="0 0 62 63" fill="none" xmlns="http://www.w3.org/2000/svg">
<circle cx="30.9628" cy="31.4794" r="30.892" fill="#611F69"/>
<path d="M46.7087 31.5855V31.8448L46.9382 31.9653C47.8979 32.4695 48.5537 33.4556 48.5537 34.5743V38.8177C48.5537 39.9759 47.8954 40.9606 46.9382 41.4636L46.7087 41.5841V41.8434V44.0942C46.7087 45.8867 45.2404 47.355 43.4479 47.355H30.5334C29.7556 47.355 29.1175 46.7169 29.1175 45.9391C29.1175 45.1614 29.7556 44.5233 30.5334 44.5233H43.4479H43.877V44.0942V30.9951L43.877 30.9949C43.876 29.2073 43.5162 27.4381 42.819 25.7922C42.1217 24.1462 41.1011 22.6569 39.8177 21.4126C38.5343 20.1683 37.0142 19.1943 35.3474 18.5483C33.6808 17.9023 31.9014 17.5974 30.1148 17.6517C22.793 17.8622 17.1897 24.2565 17.1897 31.5302V40.4043C17.1897 41.1821 16.5516 41.8202 15.7739 41.8202C13.9814 41.8202 12.513 40.3519 12.513 38.5594V34.8695C12.513 33.6639 13.1634 32.6232 14.1405 32.0695L14.358 31.9462V31.6962C14.358 21.5578 22.1058 15.0043 30.5334 15.0043C39.051 15.0043 46.7087 21.7033 46.7087 31.5855Z" fill="#FBF7EE" stroke="#611F69" stroke-width="0.85811"/>
<path d="M24.9987 34.8691C26.0177 34.8691 26.8437 34.0431 26.8437 33.0241C26.8437 32.0052 26.0177 31.1792 24.9987 31.1792C23.9798 31.1792 23.1538 32.0052 23.1538 33.0241C23.1538 34.0431 23.9798 34.8691 24.9987 34.8691Z" fill="#FBF7EE"/>
<path d="M36.0691 34.8691C37.088 34.8691 37.914 34.0431 37.914 33.0241C37.914 32.0052 37.088 31.1792 36.0691 31.1792C35.0501 31.1792 34.2241 32.0052 34.2241 33.0241C34.2241 34.0431 35.0501 34.8691 36.0691 34.8691Z" fill="#FBF7EE"/>
<path d="M41.6034 29.3899C41.1635 26.7962 39.8201 24.4417 37.811 22.7433C35.802 21.0449 33.2568 20.112 30.626 20.1099C25.0359 20.1099 19.0214 24.7407 19.5011 32.0097C21.7761 31.0787 23.7854 29.5993 25.3499 27.7032C26.9144 25.8072 27.9854 23.5535 28.4674 21.143C30.8843 25.9952 35.8472 29.3346 41.6034 29.3899Z" fill="#FBF7EE"/>
</svg>
