<svg width="62" height="62" viewBox="0 0 62 62" fill="none" xmlns="http://www.w3.org/2000/svg">
<circle cx="31.0941" cy="30.892" r="30.892" fill="#611F69"/>
<path d="M45.0576 15.6035C43.283 15.206 41.4702 15.0046 39.6517 15.0028C37.9342 14.8938 36.2122 15.1253 34.5846 15.6841C32.957 16.2429 31.4559 17.118 30.1676 18.259C28.4711 19.9556 26.7903 21.6469 25.1253 23.3329C23.2127 23.1274 18.6762 23.0168 15.6413 26.0833C15.3469 26.3795 15.1816 26.7801 15.1816 27.1977C15.1816 27.6153 15.3469 28.0159 15.6413 28.312L33.5029 46.2052C33.799 46.4996 34.1996 46.6649 34.6172 46.6649C35.0348 46.6649 35.4354 46.4996 35.7316 46.2052C38.8139 43.0439 38.7191 38.5864 38.5294 36.7212L43.6033 31.6631C48.6457 26.6207 46.3537 17.1525 46.2589 16.7573C46.1859 16.4722 46.0348 16.2132 45.8225 16.0093C45.6103 15.8055 45.3454 15.6649 45.0576 15.6035ZM41.3272 29.4343L35.7 35.0299C35.5178 35.2139 35.3835 35.4399 35.3091 35.6879C35.2347 35.936 35.2224 36.1985 35.2732 36.4525C35.6147 38.5671 35.3175 40.7355 34.4196 42.6803L19.1346 27.3636C21.1102 26.4544 23.3186 26.1783 25.4572 26.5733C25.7103 26.6062 25.9675 26.5775 26.207 26.4894C26.4465 26.4013 26.6611 26.2565 26.8324 26.0675C26.8324 26.0675 29.0454 23.7755 32.3806 20.4403C34.4314 18.7934 37.0279 17.9806 39.6517 18.1641C40.8858 18.1703 42.1175 18.276 43.3346 18.4803C43.714 20.7406 44.3146 26.4469 41.3272 29.4343Z" fill="#FBF7EE"/>
<path d="M36.8537 28.122C38.5997 28.122 40.0151 26.7066 40.0151 24.9607C40.0151 23.2147 38.5997 21.7993 36.8537 21.7993C35.1078 21.7993 33.6924 23.2147 33.6924 24.9607C33.6924 26.7066 35.1078 28.122 36.8537 28.122Z" fill="#FBF7EE"/>
<path d="M19.8923 37.1323C16.731 38.713 16.731 45.0357 16.731 45.0357C19.6569 44.9522 22.458 43.8318 24.6343 41.8743L19.8923 37.1323Z" fill="#FBF7EE"/>
</svg>
