<svg width="63" height="62" viewBox="0 0 63 62" fill="none" xmlns="http://www.w3.org/2000/svg">
<circle cx="31.1127" cy="30.9555" r="30.892" fill="#611F69"/>
<path fill-rule="evenodd" clip-rule="evenodd" d="M18.8868 19.1964C18.8868 18.8251 18.7393 18.469 18.4768 18.2064C18.2143 17.9439 17.8582 17.7964 17.4869 17.7964C17.1156 17.7964 16.7595 17.9439 16.497 18.2064C16.2344 18.469 16.0869 18.8251 16.0869 19.1964V42.5291C16.0869 43.3019 16.7141 43.9291 17.4869 43.9291H44.5529C44.9242 43.9291 45.2803 43.7816 45.5428 43.519C45.8053 43.2565 45.9528 42.9004 45.9528 42.5291C45.9528 42.1578 45.8053 41.8017 45.5428 41.5392C45.2803 41.2766 44.9242 41.1291 44.5529 41.1291H18.8868V19.1964ZM45.5422 23.9189C45.7895 23.6535 45.9241 23.3025 45.9177 22.9398C45.9113 22.5771 45.7644 22.2311 45.5079 21.9746C45.2514 21.7181 44.9053 21.5712 44.5426 21.5648C44.18 21.5584 43.8289 21.693 43.5636 21.9403L34.7531 30.7507L30.1426 26.1402C29.8801 25.878 29.5242 25.7308 29.1533 25.7308C28.7823 25.7308 28.4264 25.878 28.1639 26.1402L22.0974 32.2067C21.8501 32.4721 21.7155 32.8231 21.7219 33.1858C21.7283 33.5485 21.8752 33.8945 22.1317 34.151C22.3882 34.4075 22.7343 34.5544 23.097 34.5608C23.4597 34.5672 23.8107 34.4326 24.076 34.1853L29.1533 29.1081L33.7638 33.7187C34.0263 33.9808 34.3821 34.1281 34.7531 34.1281C35.1241 34.1281 35.4799 33.9808 35.7424 33.7187L45.5422 23.9189Z" fill="#FBF7EE"/>
</svg>
