<svg width="62" height="62" viewBox="0 0 62 62" fill="none" xmlns="http://www.w3.org/2000/svg">
<circle cx="31.0941" cy="30.9555" r="30.892" fill="#611F69"/>
<path d="M40.4511 20.9844H46.8676M16.0684 20.9844H35.3179M40.4511 41.5172H46.8676M16.0684 41.5172H35.3179M27.6181 31.2508H46.8676M16.0684 31.2508H22.4849" stroke="#FBF7EE" stroke-width="2.5666" stroke-linecap="round" stroke-linejoin="round"/>
<path d="M37.8845 23.5512C39.302 23.5512 40.4511 22.4021 40.4511 20.9846C40.4511 19.5671 39.302 18.418 37.8845 18.418C36.467 18.418 35.3179 19.5671 35.3179 20.9846C35.3179 22.4021 36.467 23.5512 37.8845 23.5512Z" stroke="#FBF7EE" stroke-width="2.5666" stroke-linecap="round" stroke-linejoin="round"/>
<path d="M25.0515 33.8173C26.469 33.8173 27.6181 32.6682 27.6181 31.2507C27.6181 29.8332 26.469 28.6841 25.0515 28.6841C23.634 28.6841 22.4849 29.8332 22.4849 31.2507C22.4849 32.6682 23.634 33.8173 25.0515 33.8173Z" stroke="#FBF7EE" stroke-width="2.5666" stroke-linecap="round" stroke-linejoin="round"/>
<path d="M37.8845 44.0839C39.302 44.0839 40.4511 42.9348 40.4511 41.5173C40.4511 40.0998 39.302 38.9507 37.8845 38.9507C36.467 38.9507 35.3179 40.0998 35.3179 41.5173C35.3179 42.9348 36.467 44.0839 37.8845 44.0839Z" stroke="#FBF7EE" stroke-width="2.5666" stroke-linecap="round" stroke-linejoin="round"/>
</svg>
