<svg width="29" height="29" viewBox="0 0 29 29" fill="none" xmlns="http://www.w3.org/2000/svg">
<path fill-rule="evenodd" clip-rule="evenodd" d="M0.104493 2.67557C0.104493 2.04419 0.35531 1.43866 0.801768 0.992201C1.24823 0.545743 1.85375 0.294925 2.48514 0.294925H26.2165C26.5294 0.294414 26.8393 0.355624 27.1285 0.47505C27.4177 0.594475 27.6805 0.769772 27.9019 0.990903C28.1233 1.21203 28.2989 1.47466 28.4186 1.76374C28.5384 2.05282 28.5999 2.36268 28.5997 2.67557V26.4069C28.6001 26.7199 28.5387 27.0298 28.4191 27.3191C28.2996 27.6083 28.1241 27.8711 27.9029 28.0924C27.6817 28.3138 27.419 28.4893 27.1298 28.6091C26.8407 28.7288 26.5307 28.7903 26.2178 28.7902H2.48514C2.1724 28.7902 1.86272 28.7285 1.57381 28.6088C1.28489 28.4891 1.02239 28.3136 0.80131 28.0924C0.580229 27.8712 0.404899 27.6086 0.285337 27.3197C0.165774 27.0307 0.104322 26.721 0.104493 26.4082V2.67557ZM11.3834 11.1594H15.2419V13.0971C15.7989 11.9832 17.2237 10.9806 19.3647 10.9806C23.4693 10.9806 24.442 13.1994 24.442 17.2703V24.8112H20.2882V18.1977C20.2882 15.8792 19.7312 14.571 18.3168 14.571C16.3545 14.571 15.5386 15.9816 15.5386 18.1977V24.8112H11.3834V11.1594ZM4.25962 24.6337H8.41474V10.9806H4.25962V24.6325V24.6337ZM9.00926 6.52761C9.01709 6.88338 8.95378 7.23713 8.82305 7.56809C8.69232 7.89906 8.4968 8.20059 8.24795 8.45497C7.99911 8.70935 7.70197 8.91146 7.37396 9.04945C7.04595 9.18743 6.69368 9.25851 6.33783 9.25851C5.98197 9.25851 5.6297 9.18743 5.30169 9.04945C4.97368 8.91146 4.67654 8.70935 4.4277 8.45497C4.17886 8.20059 3.98333 7.89906 3.8526 7.56809C3.72187 7.23713 3.65856 6.88338 3.6664 6.52761C3.68177 5.82929 3.96998 5.16475 4.4693 4.67631C4.96861 4.18787 5.63934 3.91436 6.33783 3.91436C7.03632 3.91436 7.70704 4.18787 8.20636 4.67631C8.70567 5.16475 8.99388 5.82929 9.00926 6.52761Z" fill="#FBF7EE"/>
</svg>
