<svg width="182" height="41" viewBox="0 0 182 41" fill="none" xmlns="http://www.w3.org/2000/svg">
<path fill-rule="evenodd" clip-rule="evenodd" d="M108.956 37.6468C108.956 38.1324 108.799 38.6012 108.516 38.9982C108.393 39.184 108.22 39.3572 108.021 39.4966C107.805 39.6697 107.547 39.8006 107.268 39.8809L107.124 39.9105C105.973 40.2019 104.788 40.3497 103.595 40.3497C98.5469 40.3497 93.9094 37.7397 91.2437 33.6304C90.1393 35.3408 88.6711 36.8316 86.8982 37.9846C84.5794 39.4966 81.8841 40.3243 79.1041 40.3581H78.8926C70.9081 40.3581 64.3243 33.8753 64.2058 25.8975C64.1296 20.8379 66.6219 16.1627 70.8743 13.3922C73.1973 11.8802 75.8926 11.0609 78.6725 11.0187H78.9307C79.9335 11.0187 80.932 11.1243 81.9052 11.327L82.1591 11.3819C81.1267 12.1336 80.4666 13.3668 80.4793 14.7521C80.4835 15.0984 80.5343 15.4321 80.6232 15.753L80.5724 15.7488C80.0223 15.6559 79.4596 15.6052 78.8968 15.6052C76.9504 15.6052 75.059 16.1669 73.4258 17.2354C72.3891 17.9069 71.4921 18.7643 70.7601 19.7779C69.1945 21.9486 68.5767 24.5967 69.0041 27.2447C69.4441 29.8843 70.8785 32.1944 73.0534 33.7528C74.7586 34.9818 76.7854 35.6238 78.918 35.6238C80.8855 35.6238 82.7811 35.0705 84.4017 34.0062C85.4384 33.3347 86.3354 32.4774 87.0589 31.4722C88.2649 29.7956 88.8699 27.8191 88.908 25.8383V25.5554C88.8826 23.0214 87.9306 20.5043 86.0773 18.6164L86.0477 18.5869C86.6231 18.3842 87.1478 18.0421 87.5879 17.5944C88.3241 16.8469 88.7303 15.8713 88.7641 14.8366L88.9503 15.0097C89.8473 15.8417 90.6174 16.7666 91.2606 17.7676C92.9489 15.1575 95.4623 13.0585 98.6019 11.9182C100.222 11.3312 101.911 11.0356 103.616 11.0356C104.792 11.0356 105.96 11.1792 107.09 11.4537C107.17 11.4664 107.263 11.4959 107.356 11.5213C108.063 11.7578 108.605 12.3068 108.833 12.991C108.914 13.2317 108.952 13.4724 108.952 13.7174C108.952 14.2115 108.803 14.6719 108.512 15.0604C108.389 15.2462 108.22 15.4194 108.025 15.5588C107.636 15.8628 107.153 16.0233 106.641 16.0233C106.485 16.0233 106.332 16.0107 106.184 15.9726H106.159L106.083 15.9557C105.304 15.7657 104.496 15.6643 103.679 15.6643C99.2789 15.6643 95.3311 18.608 94.0702 22.8187C92.4877 28.1105 95.5173 33.7022 100.819 35.2817C101.746 35.5604 102.71 35.6956 103.688 35.6956C104.483 35.6956 105.27 35.6027 106.032 35.4126C106.049 35.4084 106.197 35.3746 106.197 35.3746C106.345 35.3493 106.493 35.3366 106.641 35.3366C106.747 35.3366 106.844 35.3366 106.946 35.3535L107.022 35.3662L107.09 35.3915C107.301 35.476 107.521 35.5562 107.75 35.628L107.83 35.6533L107.898 35.704C108.342 35.987 108.685 36.4262 108.85 36.9246C108.918 37.1695 108.956 37.4102 108.956 37.6468Z" fill="#611F69"/>
<path fill-rule="evenodd" clip-rule="evenodd" d="M84.6512 16.982C83.3861 16.9989 82.3452 15.9895 82.3282 14.731C82.3155 13.4682 83.3226 12.4293 84.5835 12.4124C85.8487 12.3955 86.8896 13.4049 86.9065 14.6634C86.9276 15.9262 85.9121 16.9651 84.6512 16.982Z" fill="#FBF7EE"/>
<path fill-rule="evenodd" clip-rule="evenodd" d="M87.0412 14.6592C87.0624 15.998 85.9876 17.0918 84.6548 17.1129C83.3135 17.134 82.2176 16.0613 82.1964 14.731C82.1837 13.3922 83.25 12.2983 84.5828 12.2772C85.9199 12.2561 87.0201 13.3288 87.0412 14.6592Z" fill="#FCB92B"/>
<path d="M0 3.00279C0 2.16234 0.291959 1.4486 0.871644 0.870005C1.45133 0.291409 2.2045 0 3.13115 0C4.05357 0 4.79827 0.291409 5.36103 0.870005C5.92379 1.45282 6.20306 2.16234 6.20306 3.00279C6.20306 3.84323 5.92379 4.55697 5.36103 5.13556C4.79827 5.71838 4.0578 6.00557 3.13115 6.00557C2.20873 6.00557 1.45556 5.71416 0.871644 5.13556C0.287728 4.55697 0 3.84323 0 3.00279ZM5.53874 39.429C5.33564 39.5092 5.03522 39.5979 4.63748 39.6993C4.23551 39.8006 3.79546 39.8513 3.31309 39.8513C1.58673 39.8513 0.723549 39.1291 0.723549 37.689V11.8971C0.922419 11.8169 1.23553 11.7282 1.65866 11.6268C2.08179 11.5255 2.53031 11.4748 3.01267 11.4748C4.70095 11.4748 5.54298 12.2181 5.54298 13.7005V39.429H5.53874Z" fill="#611F69"/>
<path d="M26.8093 16.4287C25.5442 15.3856 23.8474 14.8661 21.7191 14.8661C20.1112 14.8661 18.6895 15.0688 17.4455 15.4658C16.2015 15.867 15.1352 16.3274 14.2551 16.8468V39.3276C14.052 39.4079 13.7516 39.4965 13.3539 39.5979C12.9519 39.6993 12.5118 39.7499 12.0295 39.7499C10.3031 39.7499 9.43994 39.0278 9.43994 37.5876V17.0876C9.43994 16.2471 9.60919 15.5545 9.95193 15.0139C10.2904 14.4733 10.887 13.9412 11.7291 13.4217C12.7742 12.7798 14.1578 12.2012 15.8842 11.6775C17.6105 11.158 19.5569 10.8962 21.7233 10.8962C25.3749 10.8962 28.2564 11.7197 30.3636 13.3584C32.4708 15.0013 33.5244 17.5859 33.5244 21.1124V39.3234C33.3213 39.4036 33.0124 39.4923 32.5893 39.5937C32.1661 39.695 31.7346 39.7457 31.2945 39.7457C29.5681 39.7457 28.705 39.0235 28.705 37.5834V21.3574C28.705 19.1106 28.0745 17.4677 26.8093 16.4287Z" fill="#611F69"/>
<path d="M60.1309 11.0778C60.8121 11.0778 61.3664 11.2594 61.7853 11.6183C62.2042 11.9773 62.4158 12.501 62.4158 13.181C62.4158 13.6244 62.255 14.3931 61.9334 15.4954C61.6118 16.5976 61.1887 17.8984 60.6683 19.4019C60.1478 20.9054 59.5554 22.5568 58.8911 24.3601C58.2268 26.1635 57.5244 27.9584 56.7839 29.7406C56.0392 31.5229 55.2988 33.2376 54.5541 34.8804C53.8094 36.5233 53.1197 37.9466 52.4765 39.1502C52.2734 39.3107 51.9264 39.4501 51.4229 39.5725C50.9194 39.6908 50.3905 39.7541 49.8277 39.7541C48.3425 39.7541 47.3778 39.3318 46.9378 38.4914C46.5781 37.8114 46.1127 36.8696 45.5541 35.666C44.9914 34.4623 44.3905 33.1024 43.7474 31.5778C43.1042 30.0574 42.4441 28.4314 41.7587 26.7083C41.0774 24.9852 40.4131 23.2705 39.77 21.5685C39.1268 19.8665 38.526 18.2236 37.9632 16.6399C37.4005 15.0561 36.9392 13.6455 36.5796 12.4039C36.8589 12.0027 37.2439 11.6817 37.722 11.441C38.2044 11.2002 38.6868 11.082 39.1691 11.082C39.8927 11.082 40.4427 11.2636 40.8236 11.6226C41.2044 11.9815 41.5556 12.5855 41.8772 13.4259L45.6091 24.187C45.8503 24.8669 46.1507 25.6989 46.5104 26.683C46.8701 27.667 47.2424 28.6679 47.6232 29.69C48.004 30.712 48.3849 31.7045 48.7657 32.6632C49.1465 33.6261 49.4596 34.4454 49.7008 35.1296H49.942C51.5456 31.0837 53.0435 27.0968 54.4271 23.1691C55.8108 19.2415 57.0251 15.3771 58.0703 11.5677C58.6076 11.2382 59.2889 11.0778 60.1309 11.0778Z" fill="#611F69"/>
<path d="M138.168 25.0823C138.168 27.3249 137.846 29.3521 137.203 31.1513C136.56 32.9546 135.646 34.4961 134.461 35.78C133.277 37.0639 131.842 38.0437 130.154 38.7237C128.466 39.4036 126.579 39.7457 124.493 39.7457C122.402 39.7457 120.519 39.4036 118.831 38.7237C117.147 38.0437 115.7 37.0597 114.494 35.78C113.288 34.4961 112.366 32.9546 111.723 31.1513C111.079 29.3479 110.758 27.3249 110.758 25.0823C110.758 22.8398 111.088 20.8168 111.752 19.0134C112.416 17.2101 113.347 15.6685 114.553 14.3846C115.759 13.1008 117.202 12.1209 118.89 11.441C120.579 10.761 122.445 10.4189 124.493 10.4189C126.54 10.4189 128.406 10.761 130.095 11.441C131.779 12.1252 133.217 13.105 134.402 14.3846C135.587 15.6685 136.509 17.2101 137.174 19.0134C137.838 20.8168 138.168 22.8398 138.168 25.0823ZM124.501 14.3846C121.772 14.3846 119.622 15.3265 118.057 17.2101C116.491 19.0937 115.708 21.7163 115.708 25.0823C115.708 28.4906 116.483 31.1217 118.027 32.9884C119.572 34.8509 121.73 35.7842 124.501 35.7842C127.272 35.7842 129.418 34.8424 130.945 32.9588C132.469 31.0752 133.234 28.4526 133.234 25.0866C133.234 21.7206 132.46 19.0979 130.916 17.2143C129.367 15.3265 127.23 14.3846 124.501 14.3846Z" fill="#611F69"/>
<path d="M175.497 16.2471C174.371 15.3265 172.865 14.8661 170.982 14.8661C168.371 14.8661 166.044 15.7868 163.996 17.6324C164.237 18.4348 164.356 19.2964 164.356 20.2171V39.3318C164.153 39.4121 163.844 39.5008 163.421 39.6021C162.997 39.7035 162.566 39.7542 162.126 39.7542C160.399 39.7542 159.536 39.032 159.536 37.5918V20.5761C159.536 18.6122 158.973 17.1721 157.852 16.2471C156.727 15.3265 155.203 14.8661 153.274 14.8661C151.988 14.8661 150.773 15.0688 149.631 15.4658C148.488 15.867 147.511 16.3274 146.711 16.8469V39.3276C146.508 39.4079 146.208 39.4966 145.81 39.5979C145.408 39.6993 144.968 39.75 144.486 39.75C142.759 39.75 141.896 39.0278 141.896 37.5876V17.0876C141.896 16.2852 142.065 15.6136 142.408 15.0731C142.746 14.5325 143.343 13.9834 144.185 13.4217C145.268 12.7418 146.643 12.1505 148.311 11.6479C149.978 11.1496 151.653 10.8962 153.337 10.8962C155.305 10.8962 157.048 11.1876 158.576 11.7662C160.099 12.349 161.267 13.1388 162.067 14.1397C163.112 13.219 164.415 12.4462 165.98 11.8253C167.546 11.2045 169.332 10.892 171.341 10.892C174.595 10.892 177.185 11.6648 179.11 13.2064C181.035 14.7479 182 17.1256 182 20.3269V39.3192C181.797 39.3994 181.488 39.4881 181.065 39.5895C180.642 39.6908 180.21 39.7415 179.77 39.7415C178.044 39.7415 177.181 39.0193 177.181 37.5792V20.5761C177.181 18.6122 176.618 17.1678 175.497 16.2471Z" fill="#611F69"/>
</svg>
