<svg width="70" height="70" viewBox="0 0 70 70" fill="none" xmlns="http://www.w3.org/2000/svg">
<circle cx="35" cy="35.04" r="34.3916" fill="#611F69"/>
<path d="M37.6972 39.0859H45.7893V41.7833H37.6972V39.0859ZM37.6972 33.6912H53.8815V36.3886H37.6972V33.6912ZM37.6972 28.2964H53.8815V30.9938H37.6972V28.2964ZM32.3024 41.7833V39.0859H25.559V36.3886H22.8616V39.0859H16.1182V41.7833H27.1977C26.7019 43.8075 25.6694 45.6604 24.209 47.1471C23.4434 46.3485 22.7871 45.4519 22.2574 44.4807H19.2647C19.9501 46.1267 20.9305 47.6337 22.1576 48.9273C20.7119 49.9569 19.1341 50.787 17.4669 51.3954L18.4136 53.9215C20.4886 53.1657 22.4388 52.1038 24.1995 50.771C25.9681 52.1046 27.9259 53.1665 30.0083 53.9215L30.9538 51.3954C29.2872 50.7881 27.7099 49.9593 26.2644 48.9314C28.1681 46.963 29.4485 44.4764 29.9449 41.7833H32.3024ZM28.4816 30.9938H31.4029L25.2218 16.1582H22.2992L16.1182 30.9938H19.0394L20.1642 28.2964H27.3568L28.4816 30.9938ZM21.2877 25.599L23.7598 19.6648L26.2333 25.599H21.2877Z" fill="#FBF7EE"/>
</svg>
