<svg width="15" height="14" viewBox="0 0 15 14" fill="none" xmlns="http://www.w3.org/2000/svg">
<g clip-path="url(#clip0_1_88)">
<path d="M14.1236 6.86461C14.0924 7.28128 14.0971 7.6193 14.0361 7.94377C13.952 8.3743 13.8426 8.79951 13.7085 9.2172C13.5455 9.73802 13.283 10.2208 12.9794 10.6724C12.6295 11.1932 12.2072 11.6614 11.7252 12.063C11.2493 12.4621 10.7216 12.795 10.1565 13.0526C9.76483 13.2264 9.35718 13.3618 8.93931 13.4567C8.42227 13.5788 7.89182 13.6348 7.36068 13.6234C6.97241 13.6196 6.58521 13.5821 6.2034 13.5114C5.5324 13.3854 4.88474 13.1571 4.28311 12.8344C3.52784 12.4288 2.85852 11.8805 2.31229 11.2198C1.95922 10.8083 1.66412 10.3504 1.43522 9.85886C1.25606 9.4573 1.12272 9.03387 0.988346 8.6146C0.756057 7.89481 0.759185 7.14899 0.789914 6.40629C0.801893 6.1115 0.881579 5.81983 0.932621 5.52713C1.03679 4.95109 1.24511 4.41308 1.51438 3.89694C1.78543 3.36616 2.13093 2.87685 2.54042 2.44382C2.6899 2.28757 2.83208 2.12872 3.03573 2.03497C3.51749 1.81362 4.13571 2.06778 4.32061 2.56361C4.47685 2.98392 4.3878 3.3558 4.0779 3.66933C3.68886 4.05639 3.37488 4.51216 3.15187 5.01359C3.03516 5.29834 2.9379 5.59068 2.86073 5.88858C2.70448 6.43754 2.70448 7.00055 2.76646 7.55992C2.82134 8.01678 2.9468 8.46235 3.13833 8.88074C3.45026 9.58737 3.93361 10.205 4.54456 10.6776C4.97199 11.0112 5.4549 11.2669 5.97111 11.4328C6.53257 11.612 7.10235 11.7094 7.68985 11.6708C8.65078 11.6169 9.57254 11.2718 10.3325 10.6812C10.9781 10.1823 11.4819 9.52317 11.794 8.76928C11.9284 8.43951 12.0253 8.0957 12.083 7.74429C12.1644 7.28788 12.1749 6.82165 12.1143 6.36202C12.0574 5.9935 11.9661 5.63114 11.8414 5.27973C11.7091 4.89153 11.5123 4.52844 11.2591 4.20579C11.1236 4.0163 10.9727 3.83827 10.808 3.6735C10.2711 3.16882 10.4284 2.27456 11.1205 2.01258C11.4851 1.873 11.8372 1.93862 12.1185 2.20841C12.7496 2.81775 13.2494 3.54976 13.5872 4.35943C13.7637 4.7651 13.8955 5.18877 13.9804 5.62296C14.058 6.05942 14.083 6.50472 14.1236 6.86461Z" fill="#FBBB0F"/>
<path d="M6.50235 4.38861C6.50235 3.51778 6.50235 2.64695 6.50235 1.77613C6.50235 1.29072 6.93516 0.875618 7.41641 0.850097C7.63078 0.838772 7.84299 0.897761 8.02076 1.01809C8.19854 1.13843 8.33215 1.31352 8.40129 1.51676C8.43529 1.6281 8.45146 1.74411 8.44921 1.8605C8.45198 3.53271 8.45198 5.20526 8.44921 6.87816C8.44921 7.41983 8.16119 7.7443 7.7487 7.86357C7.24662 8.00836 6.76798 7.78545 6.55652 7.2766C6.51978 7.1766 6.50211 7.07061 6.50444 6.9641C6.50027 6.10473 6.50235 5.24745 6.50235 4.38861Z" fill="#FBBB0F"/>
</g>
<defs>
<clipPath id="clip0_1_88">
<rect width="13.3509" height="12.7744" fill="white" transform="translate(0.772705 0.848526)"/>
</clipPath>
</defs>
</svg>
