<svg width="1440" height="572" viewBox="0 0 1440 572" fill="none" xmlns="http://www.w3.org/2000/svg">
<path d="M1333.59 545.603C1335.72 543.478 1339.17 543.478 1341.3 545.603L1357.71 562.017C1359.84 564.142 1359.84 567.594 1357.71 569.72C1355.59 571.845 1352.13 571.845 1350.01 569.72L1333.59 553.306C1331.47 551.181 1331.47 547.729 1333.59 545.603Z" fill="#FCB92B"/>
<path d="M1357.72 545.603C1359.85 547.729 1359.85 551.181 1357.72 553.306L1341.31 569.72C1339.18 571.845 1335.73 571.845 1333.61 569.72C1331.48 567.594 1331.48 564.142 1333.61 562.017L1350.02 545.603C1352.13 543.466 1355.58 543.466 1357.72 545.603Z" fill="#FCB92B"/>
<path d="M1394.75 291.491C1402.89 291.491 1409.49 284.889 1409.49 276.746C1409.49 268.602 1402.89 262 1394.75 262C1386.6 262 1380 268.602 1380 276.746C1380 284.889 1386.6 291.491 1394.75 291.491Z" fill="#FCB92B"/>
<path d="M1302.97 142.942C1306.27 142.942 1308.94 140.269 1308.94 136.971C1308.94 133.673 1306.27 131 1302.97 131C1299.67 131 1297 133.673 1297 136.971C1297 140.269 1299.67 142.942 1302.97 142.942Z" fill="#611F69"/>
<path d="M1302.97 174.123C1306.27 174.123 1308.94 171.45 1308.94 168.152C1308.94 164.854 1306.27 162.181 1302.97 162.181C1299.67 162.181 1297 164.854 1297 168.152C1297 171.45 1299.67 174.123 1302.97 174.123Z" fill="#611F69"/>
<path d="M1333.35 142.942C1336.64 142.942 1339.32 140.269 1339.32 136.971C1339.32 133.673 1336.64 131 1333.35 131C1330.05 131 1327.37 133.673 1327.37 136.971C1327.37 140.269 1330.05 142.942 1333.35 142.942Z" fill="#611F69"/>
<path d="M1333.35 174.123C1336.64 174.123 1339.32 171.45 1339.32 168.152C1339.32 164.854 1336.64 162.181 1333.35 162.181C1330.05 162.181 1327.37 164.854 1327.37 168.152C1327.37 171.45 1330.05 174.123 1333.35 174.123Z" fill="#611F69"/>
<path d="M1306 418.338L1359.34 365" stroke="#FCB92B" stroke-width="3" stroke-miterlimit="10" stroke-linecap="round"/>
<path d="M1445.08 74.1536C1465 74.1536 1481.15 58.0015 1481.15 38.0768C1481.15 18.1521 1465 2 1445.08 2C1425.15 2 1409 18.1521 1409 38.0768C1409 58.0015 1425.15 74.1536 1445.08 74.1536Z" fill="#FCB92B"/>
<path d="M26.4611 357.461C39.4326 344.49 39.4326 323.459 26.4611 310.487C13.4896 297.516 -7.54143 297.516 -20.513 310.487C-33.4845 323.459 -33.4845 344.49 -20.513 357.461C-7.54143 370.433 13.4896 370.433 26.4611 357.461Z" fill="#611F69"/>
<path d="M-20.44 0C-59.3392 0 -91 31.6416 -91 70.56C-91 109.478 -59.3392 141.12 -20.44 141.12C18.4592 141.12 50.12 109.459 50.12 70.56C50.12 31.6608 18.4592 0 -20.44 0ZM-20.44 127.2C-51.736 127.2 -77.0992 101.837 -77.0992 70.56C-77.0992 39.2832 -51.736 13.92 -20.44 13.92C10.8368 13.92 36.2 39.2832 36.2 70.56C36.2 101.837 10.8368 127.2 -20.44 127.2Z" fill="#FCB92C"/>
<path d="M51.6274 486.627C53.797 484.458 57.2915 484.458 59.4611 486.627L76.1459 503.312C78.3155 505.482 78.3155 508.976 76.1459 511.146C73.9763 513.315 70.4819 513.315 68.3123 511.146L51.6274 494.461C49.477 492.31 49.477 488.797 51.6274 486.627Z" fill="#FCB92C"/>
<path d="M76.1456 486.627C78.3152 488.797 78.3152 492.291 76.1456 494.461L59.4608 511.146C57.2912 513.315 53.7968 513.315 51.6272 511.146C49.4576 508.976 49.4576 505.482 51.6272 503.312L68.312 486.627C70.4816 484.477 73.9952 484.477 76.1456 486.627Z" fill="#FCB92C"/>
<path d="M1458.11 504.088C1475.06 497.068 1483.11 477.637 1476.09 460.688C1469.07 443.74 1449.64 435.691 1432.69 442.712C1415.74 449.732 1407.69 469.163 1414.71 486.112C1421.73 503.06 1441.16 511.109 1458.11 504.088Z" fill="#611F69"/>
</svg>
