<svg width="70" height="70" viewBox="0 0 70 70" fill="none" xmlns="http://www.w3.org/2000/svg">
<circle cx="34.7764" cy="35.3882" r="34.3916" fill="#611F69"/>
<path fill-rule="evenodd" clip-rule="evenodd" d="M34.777 28.9512C33.592 28.9512 32.6313 29.9118 32.6313 31.0968V37.8985C31.1991 38.4047 29.992 39.4009 29.2233 40.711C28.4546 42.0212 28.1738 43.5609 28.4306 45.0581C28.6874 46.5552 29.4652 47.9134 30.6265 48.8925C31.7879 49.8716 33.258 50.4087 34.777 50.4087C36.296 50.4087 37.7661 49.8716 38.9275 48.8925C40.0888 47.9134 40.8666 46.5552 41.1234 45.0581C41.3802 43.5609 41.0994 42.0212 40.3307 40.711C39.562 39.4009 38.3548 38.4047 36.9226 37.8985V31.0968C36.9226 29.9118 35.962 28.9512 34.777 28.9512ZM32.6313 43.9707C32.6313 43.4016 32.8574 42.8559 33.2598 42.4535C33.6622 42.0511 34.2079 41.825 34.777 41.825C35.346 41.825 35.8918 42.0511 36.2942 42.4535C36.6966 42.8559 36.9226 43.4016 36.9226 43.9707C36.9226 44.5397 36.6966 45.0855 36.2942 45.4879C35.8918 45.8903 35.346 46.1163 34.777 46.1163C34.2079 46.1163 33.6622 45.8903 33.2598 45.4879C32.8574 45.0855 32.6313 44.5397 32.6313 43.9707Z" fill="#FBF7EE"/>
<path d="M34.7763 20.3687C38.7598 20.3687 42.58 21.9511 45.3967 24.7678C48.2134 27.5845 49.7958 31.4047 49.7958 35.3882C49.7958 36.5732 48.8352 37.5338 47.6502 37.5338C46.4652 37.5338 45.5046 36.5732 45.5046 35.3882C45.5046 32.5429 44.3743 29.8141 42.3623 27.8022C40.3504 25.7902 37.6216 24.6599 34.7763 24.6599C31.931 24.6599 29.2023 25.7902 27.1903 27.8022C25.1784 29.8141 24.0481 32.5429 24.0481 35.3882C24.0481 36.5732 23.0875 37.5338 21.9025 37.5338C20.7175 37.5338 19.7568 36.5732 19.7568 35.3882C19.7568 31.4047 21.3392 27.5845 24.1559 24.7678C26.9726 21.9511 30.7929 20.3687 34.7763 20.3687Z" fill="#FBF7EE"/>
<path fill-rule="evenodd" clip-rule="evenodd" d="M34.7764 58.9903C47.8112 58.9903 58.3785 48.423 58.3785 35.3882C58.3785 22.3534 47.8112 11.7861 34.7764 11.7861C21.7416 11.7861 11.1743 22.3534 11.1743 35.3882C11.1743 48.423 21.7416 58.9903 34.7764 58.9903ZM34.7764 54.699C37.3123 54.699 39.8234 54.1995 42.1663 53.2291C44.5092 52.2586 46.638 50.8362 48.4312 49.043C50.2244 47.2498 51.6468 45.121 52.6172 42.7781C53.5877 40.4352 54.0872 37.9241 54.0872 35.3882C54.0872 32.8523 53.5877 30.3412 52.6172 27.9983C51.6468 25.6554 50.2244 23.5266 48.4312 21.7334C46.638 19.9402 44.5092 18.5178 42.1663 17.5474C39.8234 16.5769 37.3123 16.0774 34.7764 16.0774C29.6549 16.0774 24.7431 18.1119 21.1216 21.7334C17.5001 25.3549 15.4656 30.2667 15.4656 35.3882C15.4656 40.5097 17.5001 45.4215 21.1216 49.043C24.7431 52.6645 29.6549 54.699 34.7764 54.699Z" fill="#FBF7EE"/>
</svg>
