<svg width="90" height="90" viewBox="0 0 90 90" fill="none" xmlns="http://www.w3.org/2000/svg">
<g filter="url(#filter0_d_64_136)">
<rect x="25.3257" y="24.2607" width="39.648" height="34.9835" fill="#611F69"/>
<path d="M45.1497 5.60301C54.7371 5.60301 63.932 9.41162 70.7113 16.191C77.4907 22.9704 81.2993 32.1652 81.2993 41.7527C81.2993 51.3402 77.4907 60.535 70.7113 67.3143C63.932 74.0937 54.7372 77.9023 45.1497 77.9023C35.5622 77.9023 26.3674 74.0937 19.588 67.3144C12.8086 60.535 9 51.3402 9 41.7527C9 32.1652 12.8086 22.9704 19.588 16.191C26.3674 9.41162 35.5622 5.60301 45.1497 5.60301ZM29.3342 39.4933C28.735 39.4933 28.1603 39.7314 27.7366 40.1551C27.3129 40.5788 27.0748 41.1535 27.0748 41.7527C27.0748 42.3519 27.3129 42.9266 27.7366 43.3503C28.1603 43.774 28.735 44.012 29.3342 44.012L55.5111 44.012L45.8094 53.7092C45.3851 54.1334 45.1468 54.7088 45.1468 55.3088C45.1468 55.9088 45.3851 56.4842 45.8094 56.9084C46.2336 57.3327 46.809 57.571 47.409 57.571C48.009 57.571 48.5844 57.3327 49.0086 56.9084L62.5648 43.3523C62.7752 43.1424 62.9421 42.8931 63.056 42.6186C63.1699 42.3441 63.2285 42.0499 63.2285 41.7527C63.2285 41.4555 63.1699 41.1612 63.056 40.8867C62.9421 40.6122 62.7752 40.3629 62.5648 40.1531L49.0086 26.5969C48.5844 26.1727 48.009 25.9343 47.409 25.9343C46.809 25.9343 46.2336 26.1727 45.8094 26.5969C45.3851 27.0212 45.1468 27.5966 45.1468 28.1966C45.1468 28.7965 45.3851 29.3719 45.8094 29.7962L55.5111 39.4933L29.3342 39.4933Z" fill="white"/>
</g>
<defs>
<filter id="filter0_d_64_136" x="0.5931" y="0.558399" width="89.1131" height="89.1136" filterUnits="userSpaceOnUse" color-interpolation-filters="sRGB">
<feFlood flood-opacity="0" result="BackgroundImageFix"/>
<feColorMatrix in="SourceAlpha" type="matrix" values="0 0 0 0 0 0 0 0 0 0 0 0 0 0 0 0 0 0 127 0" result="hardAlpha"/>
<feOffset dy="3.36276"/>
<feGaussianBlur stdDeviation="4.20345"/>
<feComposite in2="hardAlpha" operator="out"/>
<feColorMatrix type="matrix" values="0 0 0 0 0 0 0 0 0 0 0 0 0 0 0 0 0 0 0.1 0"/>
<feBlend mode="normal" in2="BackgroundImageFix" result="effect1_dropShadow_64_136"/>
<feBlend mode="normal" in="SourceGraphic" in2="effect1_dropShadow_64_136" result="shape"/>
</filter>
</defs>
</svg>
