<svg width="471" height="458" viewBox="0 0 471 458" fill="none" xmlns="http://www.w3.org/2000/svg">
<path d="M235.5 457.158C365.563 457.158 471 396.283 471 321.191C471 246.099 365.563 185.224 235.5 185.224C105.437 185.224 0 246.099 0 321.191C0 396.283 105.437 457.158 235.5 457.158Z" fill="#F0F0F0"/>
<path d="M370.747 368.369C355.304 359.453 355.304 345 370.747 336.084C386.19 327.168 411.228 327.168 426.671 336.084C442.114 345 442.114 359.453 426.671 368.369C411.228 377.285 386.19 377.285 370.747 368.369Z" fill="#E0E0E0"/>
<path d="M56.6536 369.608L16.0326 346.159C13.7437 344.84 13.7437 342.691 16.0326 341.372L252.312 204.955C253.596 204.305 255.016 203.965 256.455 203.965C257.895 203.965 259.314 204.305 260.598 204.955L301.229 228.404C303.518 229.724 303.518 231.873 301.229 233.192L64.9498 369.608C63.6639 370.259 62.2429 370.598 60.8017 370.598C59.3605 370.598 57.9395 370.259 56.6536 369.608V369.608Z" fill="#E0E0E0"/>
<path d="M202.665 327.808L237.589 307.617C241.187 305.538 242.986 302.82 242.986 300.091C242.986 297.362 242.986 295.233 242.986 295.233L206.763 274.803C205.752 274.148 204.909 273.264 204.304 272.222C203.7 271.179 203.351 270.009 203.285 268.805V225.736L142.313 260.979V304.029C142.384 305.231 142.735 306.4 143.339 307.441C143.943 308.483 144.783 309.368 145.792 310.026L176.617 327.778C183.794 331.966 195.469 331.966 202.665 327.808Z" fill="#BA68C8"/>
<g opacity="0.6">
<path d="M202.665 327.808L237.589 307.617C241.187 305.538 242.986 302.82 242.986 300.091C242.986 297.362 242.986 295.233 242.986 295.233L206.763 274.803C205.752 274.148 204.909 273.264 204.304 272.222C203.7 271.179 203.351 270.009 203.285 268.805V225.736L142.313 260.979V304.029C142.384 305.231 142.735 306.4 143.339 307.441C143.943 308.483 144.783 309.368 145.792 310.026L176.617 327.778C183.794 331.966 195.469 331.966 202.665 327.808Z" fill="black"/>
</g>
<path opacity="0.3" d="M156.937 311.655V316.493L145.762 310.046C144.754 309.389 143.915 308.504 143.312 307.462C142.71 306.42 142.361 305.251 142.294 304.049V260.979L153.909 254.272C154.148 257.221 154.408 260.269 154.658 263.268L146.492 267.966V301.6C146.557 302.803 146.906 303.974 147.51 305.017C148.115 306.059 148.958 306.944 149.97 307.597L156.937 311.655Z" fill="black"/>
<path d="M146.492 301.61C146.56 302.813 146.911 303.982 147.515 305.024C148.12 306.066 148.96 306.951 149.97 307.607L176.578 322.94C183.774 327.088 195.449 327.098 202.655 322.94L237.639 302.75C244.846 298.592 244.846 291.855 237.639 287.697L211.012 272.364C210.004 271.706 209.166 270.82 208.563 269.778C207.961 268.737 207.612 267.568 207.543 266.367V232.722L146.572 267.966L146.492 301.61Z" fill="#BA68C8"/>
<path opacity="0.3" d="M146.492 301.61C146.56 302.813 146.911 303.982 147.515 305.024C148.12 306.066 148.96 306.951 149.97 307.607L176.578 322.94C183.774 327.088 195.449 327.098 202.655 322.94L237.639 302.75C244.846 298.592 244.846 291.855 237.639 287.697L211.012 272.364C210.004 271.706 209.166 270.82 208.563 269.778C207.961 268.737 207.612 267.568 207.543 266.367V232.722L146.572 267.966L146.492 301.61Z" fill="black"/>
<path opacity="0.5" d="M218.058 276.472L210.972 272.384C209.964 271.725 209.126 270.84 208.523 269.798C207.921 268.757 207.572 267.588 207.503 266.387V232.722L146.532 267.966V301.61C146.6 302.813 146.951 303.982 147.555 305.024C148.16 306.066 149.001 306.951 150.01 307.607L157.007 311.606L218.058 276.472Z" fill="black"/>
<path d="M242.997 295.243V300.101C242.997 302.83 241.188 305.538 237.599 307.627L202.616 327.808C198.787 329.852 194.511 330.913 190.171 330.897V326.059C194.511 326.075 198.787 325.014 202.616 322.97L237.599 302.77C241.188 300.701 242.997 297.972 242.997 295.243Z" fill="#BA68C8"/>
<path opacity="0.5" d="M242.997 295.243V300.101C242.997 302.83 241.188 305.538 237.599 307.627L202.616 327.808C198.787 329.852 194.511 330.913 190.171 330.897V326.059C194.511 326.075 198.787 325.014 202.616 322.97L237.599 302.77C241.188 300.701 242.997 297.972 242.997 295.243Z" fill="black"/>
<path d="M48.5372 343.421C49.8553 344.057 51.3045 344.375 52.7681 344.349C54.2316 344.323 55.6686 343.954 56.9633 343.271L292.853 207.084C294.118 206.259 295.171 205.148 295.926 203.84C296.681 202.533 297.118 201.066 297.201 199.558V8.72695C297.156 7.26 296.765 5.82449 296.06 4.53739C295.354 3.25028 294.355 2.14801 293.143 1.32041C291.826 0.683061 290.378 0.365369 288.916 0.393158C287.453 0.420946 286.018 0.793431 284.727 1.48033L48.8371 137.707C47.5766 138.537 46.5303 139.653 45.7833 140.965C45.0364 142.276 44.6101 143.746 44.5391 145.253V336.054C44.5836 337.509 44.9685 338.933 45.6629 340.212C46.3572 341.492 47.3416 342.59 48.5372 343.421Z" fill="#BA68C8"/>
<path d="M56.9935 343.261L292.883 207.074C294.15 206.251 295.204 205.14 295.959 203.832C296.715 202.524 297.151 201.056 297.231 199.548V8.72693C297.231 5.95822 295.282 4.82875 292.883 6.2181L56.9935 142.404C55.7281 143.229 54.6749 144.34 53.9194 145.648C53.164 146.956 52.7275 148.423 52.6455 149.931V340.752C52.6455 343.521 54.5946 344.65 56.9935 343.261Z" fill="#BA68C8"/>
<path opacity="0.5" d="M56.9935 343.261L292.883 207.074C294.15 206.251 295.204 205.14 295.959 203.832C296.715 202.524 297.151 201.056 297.231 199.548V8.72693C297.231 5.95822 295.282 4.82875 292.883 6.2181L56.9935 142.404C55.7281 143.229 54.6749 144.34 53.9194 145.648C53.164 146.956 52.7275 148.423 52.6455 149.931V340.752C52.6455 343.521 54.5946 344.65 56.9935 343.261Z" fill="black"/>
<path d="M56.3535 348.218C55.1166 348.758 53.7772 349.024 52.4278 348.996C51.0784 348.968 49.751 348.649 48.5372 348.058C47.3389 347.226 46.3529 346.124 45.6584 344.841C44.964 343.558 44.5806 342.13 44.5391 340.672V323.3L52.6853 328.018V345.39C52.6353 347.919 54.2445 349.068 56.3535 348.218Z" fill="#BA68C8"/>
<path opacity="0.5" d="M56.3535 348.218C55.1166 348.758 53.7772 349.024 52.4278 348.996C51.0784 348.968 49.751 348.649 48.5372 348.058C47.3389 347.226 46.3529 346.124 45.6584 344.841C44.964 343.558 44.5806 342.13 44.5391 340.672V323.3L52.6853 328.018V345.39C52.6353 347.919 54.2445 349.068 56.3535 348.218Z" fill="black"/>
<path d="M52.6353 328.018V345.39C52.6353 348.158 54.6343 349.278 56.9832 347.898L292.873 211.712C294.133 210.891 295.182 209.786 295.937 208.486C296.692 207.186 297.132 205.726 297.221 204.226V186.774L52.6353 328.018Z" fill="#BA68C8"/>
<path opacity="0.3" d="M52.6455 327.978V345.39C52.6455 348.158 54.6446 349.278 56.9935 347.898L292.883 211.712C294.141 210.89 295.189 209.784 295.942 208.484C296.695 207.184 297.133 205.726 297.221 204.226V186.774L52.6455 327.978Z" fill="black"/>
<path d="M60.792 306.178V152.64C60.8385 151.735 61.0982 150.854 61.5498 150.069C62.0014 149.284 62.6322 148.617 63.3908 148.122L286.427 19.312C287.866 18.4824 289.035 19.1521 289.035 20.8113V174.43C288.987 175.335 288.725 176.216 288.272 177.001C287.819 177.786 287.186 178.453 286.427 178.947L63.4008 307.727C61.9614 308.557 60.792 307.877 60.792 306.178Z" fill="#BA68C8"/>
<path d="M60.792 306.178V152.64C60.8385 151.735 61.0982 150.854 61.5498 150.069C62.0014 149.284 62.6322 148.617 63.3908 148.122L286.427 19.312C287.866 18.4824 289.035 19.1521 289.035 20.8113V174.43C288.987 175.335 288.725 176.216 288.272 177.001C287.819 177.786 287.186 178.453 286.427 178.947L63.4008 307.727C61.9614 308.557 60.792 307.877 60.792 306.178Z" fill="#263238"/>
<path d="M174.928 262.928C173.74 263.7 172.752 264.742 172.044 265.968C171.335 267.194 170.926 268.571 170.85 269.985C170.85 272.584 172.679 273.643 174.928 272.344C176.116 271.571 177.105 270.527 177.814 269.299C178.523 268.071 178.931 266.693 179.006 265.277C179.006 262.678 177.177 261.629 174.928 262.928Z" fill="#BA68C8"/>
<path opacity="0.7" d="M53.9247 145.633C53.15 146.935 52.7072 148.408 52.6353 149.921V328.018L44.5391 323.3V145.253C44.5915 143.735 45.032 142.255 45.8185 140.955L53.9247 145.633Z" fill="black"/>
<path opacity="0.3" d="M297.181 8.00721C296.872 5.76825 295.062 5.00861 292.873 6.21804L56.9835 142.404C55.7046 143.204 54.6489 144.315 53.915 145.633L45.7588 140.925C46.4976 139.608 47.5564 138.497 48.8373 137.697L284.727 1.52024C286.02 0.833241 287.457 0.460738 288.921 0.432952C290.385 0.405166 291.835 0.722878 293.153 1.36031C294.261 2.11532 295.194 3.09946 295.889 4.24619C296.584 5.39292 297.025 6.6755 297.181 8.00721Z" fill="black"/>
<path d="M309.905 31.4964C309.555 31.3205 309.163 31.2435 308.772 31.2734C308.382 31.3033 308.006 31.4392 307.687 31.6663L85.1105 160.246C84.2323 160.827 83.5032 161.607 82.9822 162.522C82.4613 163.437 82.1631 164.462 82.1119 165.514V318.113C82.0807 318.628 82.183 319.142 82.4089 319.606C82.6348 320.07 82.9766 320.468 83.4013 320.761C83.8911 321.031 86.5099 322.55 87.2895 322.97C87.5653 323.111 87.8735 323.175 88.1826 323.158C88.4917 323.14 88.7905 323.041 89.0487 322.87L311.575 194.29C312.453 193.709 313.182 192.93 313.703 192.015C314.224 191.099 314.522 190.075 314.573 189.023V35.6344C314.618 35.2468 314.554 34.8544 314.388 34.5013C314.222 34.1482 313.961 33.8483 313.634 33.6354C313.134 33.3055 310.465 31.8262 309.905 31.4964Z" fill="#BA68C8"/>
<path d="M88.9981 162.405L311.584 33.8751C313.263 32.8755 314.583 33.6952 314.583 35.6343V189.023C314.532 190.074 314.233 191.099 313.712 192.014C313.191 192.93 312.462 193.709 311.584 194.29L88.9981 322.87C87.3189 323.87 85.9995 322.26 85.9995 320.321V167.673C86.0523 166.621 86.3511 165.597 86.8719 164.682C87.3927 163.767 88.121 162.987 88.9981 162.405Z" fill="#FAFAFA"/>
<path d="M312.944 34.4549C313.533 34.4549 313.623 35.1945 313.623 35.6343V189.023C313.569 189.903 313.311 190.759 312.868 191.523C312.426 192.286 311.812 192.936 311.074 193.421L88.5183 322.001C88.369 322.097 88.1964 322.153 88.0186 322.16C87.4588 322.16 87.019 321.301 87.019 320.321V167.673C87.0673 166.792 87.3178 165.935 87.7512 165.167C88.1845 164.399 88.7891 163.741 89.5179 163.245L312.084 34.7347C312.341 34.5686 312.638 34.4721 312.944 34.4549M312.944 33.4553C312.462 33.4758 311.994 33.6204 311.584 33.8751L88.9981 162.405C88.121 162.987 87.3927 163.767 86.8719 164.682C86.3511 165.597 86.0523 166.621 85.9995 167.673V320.321C85.9995 321.861 86.8591 323.16 87.9986 323.16C88.3515 323.153 88.6964 323.053 88.9981 322.87L311.574 194.29C312.452 193.709 313.181 192.93 313.702 192.014C314.223 191.099 314.522 190.074 314.573 189.023V35.6343C314.573 34.2549 313.893 33.4553 312.894 33.4553H312.944Z" fill="#E0E0E0"/>
<path d="M83.3405 320.761C83.6703 320.931 86.0392 322.28 87.0787 322.88C86.7055 322.57 86.4098 322.178 86.2154 321.733C86.021 321.289 85.9333 320.806 85.9592 320.321V177.638L82.0611 175.359V318.112C82.0288 318.627 82.1296 319.14 82.3537 319.604C82.5778 320.068 82.9176 320.467 83.3405 320.761V320.761Z" fill="#F0F0F0"/>
<path d="M314.623 35.6044C314.623 33.6853 313.253 32.9057 311.624 33.8752L88.9981 162.405C88.121 162.987 87.3927 163.767 86.8719 164.682C86.3511 165.597 86.0523 166.621 85.9995 167.673V177.668L314.623 45.5997V35.6044Z" fill="#BA68C8"/>
<g opacity="0.4">
<path d="M311.584 33.8752L88.9979 162.395C88.1046 162.958 87.3687 163.739 86.8589 164.664L82.9907 162.415C83.4996 161.523 84.2293 160.776 85.1097 160.246L307.686 31.6662C308.004 31.4375 308.379 31.2999 308.77 31.2682C309.161 31.2365 309.553 31.3119 309.905 31.4863C310.444 31.8261 312.973 33.2554 313.623 33.6053C313.287 33.4806 312.925 33.4401 312.57 33.4871C312.215 33.5342 311.876 33.6674 311.584 33.8752V33.8752Z" fill="white"/>
</g>
<path opacity="0.15" d="M82.0615 175.369V165.464C82.1026 164.384 82.4229 163.334 82.9911 162.415L86.8693 164.654C86.3092 165.557 85.9956 166.591 85.9597 167.653V177.648L82.0615 175.369Z" fill="black"/>
<path d="M267.685 150.671L134.377 227.635C133.729 228.055 133.189 228.623 132.802 229.292C132.414 229.961 132.19 230.711 132.148 231.483V269.705C132.19 270.477 132.414 271.227 132.802 271.896C133.189 272.565 133.729 273.133 134.377 273.553L138.265 275.792C138.956 276.142 139.72 276.324 140.494 276.324C141.268 276.324 142.032 276.142 142.723 275.792L276.011 198.828C276.659 198.405 277.199 197.836 277.586 197.165C277.973 196.495 278.197 195.743 278.24 194.97V156.738C278.197 155.966 277.973 155.215 277.586 154.547C277.199 153.878 276.659 153.31 276.011 152.89L272.113 150.651C271.425 150.307 270.665 150.129 269.896 150.133C269.127 150.136 268.37 150.321 267.685 150.671Z" fill="#BA68C8"/>
<path opacity="0.5" d="M278.24 156.398C278.08 155.249 277.151 154.829 276.031 155.478L142.723 232.442C142.066 232.851 141.525 233.423 141.154 234.102L132.808 229.284C133.182 228.615 133.718 228.052 134.367 227.645L267.685 150.681C268.374 150.33 269.136 150.148 269.909 150.148C270.682 150.148 271.444 150.33 272.133 150.681L276.031 152.92C276.626 153.309 277.13 153.821 277.511 154.421C277.892 155.02 278.14 155.694 278.24 156.398Z" fill="white"/>
<path d="M142.343 275.982C141.69 276.239 140.991 276.356 140.29 276.325C139.589 276.294 138.903 276.116 138.275 275.802L134.377 273.563C133.73 273.141 133.191 272.573 132.804 271.905C132.416 271.236 132.192 270.486 132.148 269.715V231.493C132.178 230.713 132.405 229.953 132.808 229.284L141.154 234.102C140.748 234.762 140.521 235.516 140.494 236.291V274.523C140.494 275.792 141.294 276.382 142.343 275.982Z" fill="#263238"/>
<path d="M142.723 232.442L276.03 155.478C277.26 154.769 278.259 155.338 278.259 156.758V194.99C278.217 195.763 277.993 196.515 277.606 197.185C277.219 197.856 276.679 198.425 276.03 198.848L142.743 275.812C141.513 276.522 140.514 275.942 140.514 274.523V236.301C140.554 235.529 140.775 234.778 141.158 234.108C141.542 233.438 142.078 232.867 142.723 232.442V232.442Z" fill="#BA68C8"/>
<path d="M232.342 171.081L134.387 227.645C133.738 228.052 133.202 228.615 132.828 229.284L141.174 234.102C141.545 233.422 142.086 232.851 142.743 232.442L240.698 175.889L232.342 171.081Z" fill="#455A64"/>
<path d="M240.678 175.889L142.724 232.443C142.075 232.865 141.535 233.435 141.148 234.105C140.761 234.776 140.537 235.528 140.495 236.301V274.513C140.495 275.932 141.494 276.512 142.724 275.802L240.678 219.249V175.889Z" fill="#37474F"/>
<path d="M165.312 227.785L215.859 198.608C217.948 197.399 219.647 198.258 219.647 200.527C219.554 201.802 219.161 203.036 218.501 204.13C217.841 205.224 216.932 206.147 215.849 206.824L165.312 236.011C163.223 237.22 161.514 236.361 161.514 234.092C161.608 232.816 162.001 231.581 162.661 230.485C163.321 229.39 164.229 228.465 165.312 227.785V227.785Z" fill="#BA68C8"/>
<path d="M175.668 237.45C175.677 237.439 175.689 237.431 175.702 237.425C175.715 237.419 175.729 237.416 175.743 237.416C175.757 237.416 175.771 237.419 175.784 237.425C175.797 237.431 175.808 237.439 175.818 237.45C175.863 237.518 175.884 237.599 175.878 237.68V243.367C175.878 243.917 175.832 244.465 175.738 245.007C175.655 245.501 175.514 245.984 175.318 246.446C175.139 246.869 174.904 247.265 174.618 247.625C174.337 247.959 173.999 248.24 173.619 248.455C173.321 248.649 172.974 248.753 172.619 248.755C172.484 248.744 172.352 248.706 172.231 248.642C172.111 248.579 172.005 248.491 171.92 248.385C171.7 248.091 171.556 247.748 171.5 247.385C171.404 246.902 171.361 246.409 171.37 245.916V240.219C171.37 240.119 171.39 240.02 171.43 239.929C171.454 239.847 171.508 239.776 171.58 239.729L172.209 239.359C172.23 239.34 172.257 239.33 172.284 239.33C172.312 239.33 172.339 239.34 172.359 239.359C172.406 239.426 172.427 239.508 172.419 239.589V245.206C172.412 245.516 172.442 245.824 172.509 246.126C172.537 246.319 172.62 246.5 172.749 246.646C172.794 246.699 172.851 246.742 172.915 246.769C172.979 246.797 173.049 246.81 173.119 246.806C173.29 246.794 173.455 246.739 173.599 246.646C173.777 246.54 173.938 246.408 174.079 246.256C174.235 246.076 174.363 245.874 174.458 245.656C174.571 245.4 174.655 245.132 174.708 244.857C174.767 244.527 174.793 244.192 174.788 243.857V238.23C174.791 238.129 174.815 238.031 174.858 237.94C174.883 237.857 174.936 237.787 175.008 237.74L175.668 237.45Z" fill="#FAFAFA"/>
<path d="M179.586 242.828C179.591 242.754 179.574 242.681 179.536 242.618C179.512 242.592 179.483 242.572 179.45 242.56C179.417 242.547 179.381 242.543 179.346 242.548C179.224 242.531 179.099 242.531 178.976 242.548L178.397 242.658C178.21 242.704 178.014 242.704 177.827 242.658C177.68 242.611 177.554 242.516 177.467 242.388C177.369 242.226 177.305 242.046 177.277 241.858C177.18 241.323 177.18 240.774 177.277 240.239C177.352 239.932 177.459 239.634 177.597 239.349C177.734 239.065 177.902 238.797 178.097 238.55C178.286 238.314 178.516 238.114 178.777 237.96C178.987 237.832 179.222 237.75 179.466 237.72C179.644 237.702 179.822 237.74 179.976 237.83C180.123 237.919 180.238 238.052 180.306 238.21C180.386 238.396 180.431 238.596 180.436 238.8C180.446 238.9 180.425 239.001 180.376 239.089C180.351 239.172 180.298 239.243 180.226 239.289L179.626 239.639C179.599 239.655 179.568 239.663 179.536 239.663C179.505 239.663 179.474 239.655 179.446 239.639L179.316 239.539C179.265 239.498 179.202 239.474 179.136 239.469C179.008 239.484 178.885 239.528 178.777 239.599C178.62 239.694 178.481 239.816 178.367 239.959C178.246 240.116 178.182 240.31 178.187 240.509C178.173 240.585 178.173 240.663 178.187 240.739C178.206 240.767 178.231 240.79 178.261 240.808C178.29 240.825 178.323 240.836 178.357 240.839C178.466 240.857 178.577 240.857 178.687 240.839L179.246 240.739C179.716 240.649 180.036 240.739 180.246 240.999C180.466 241.369 180.568 241.798 180.536 242.228C180.533 242.525 180.493 242.821 180.416 243.108C180.337 243.419 180.223 243.721 180.076 244.007C179.929 244.303 179.744 244.579 179.526 244.827C179.319 245.07 179.072 245.276 178.797 245.436C178.577 245.577 178.327 245.663 178.067 245.686C177.879 245.693 177.694 245.64 177.537 245.536C177.383 245.431 177.264 245.281 177.197 245.107C177.117 244.917 177.076 244.713 177.077 244.507C177.068 244.403 177.089 244.299 177.137 244.207C177.162 244.125 177.215 244.054 177.287 244.007L177.887 243.657C177.967 243.657 178.027 243.607 178.067 243.657L178.197 243.797C178.223 243.827 178.256 243.851 178.292 243.868C178.328 243.886 178.367 243.895 178.407 243.897C178.547 243.898 178.684 243.852 178.797 243.767C178.977 243.665 179.139 243.533 179.276 243.377C179.344 243.295 179.401 243.204 179.446 243.108C179.517 243.028 179.565 242.932 179.586 242.828V242.828Z" fill="#FAFAFA"/>
<path d="M181.625 240.119C181.623 239.6 181.666 239.081 181.755 238.57C181.838 238.088 181.969 237.616 182.145 237.16C182.292 236.752 182.493 236.365 182.744 236.011C182.954 235.706 183.227 235.451 183.544 235.261C183.776 235.105 184.058 235.045 184.334 235.091C184.578 235.148 184.792 235.294 184.933 235.501C185.121 235.772 185.254 236.078 185.323 236.401C185.419 236.82 185.466 237.25 185.463 237.68V238.3C185.466 238.404 185.442 238.507 185.393 238.6C185.369 238.682 185.315 238.753 185.243 238.799L182.644 240.309C182.638 240.485 182.662 240.66 182.714 240.829C182.753 240.942 182.822 241.042 182.914 241.118C182.996 241.184 183.1 241.216 183.204 241.208C183.325 241.194 183.441 241.153 183.544 241.088C183.695 241.006 183.831 240.898 183.944 240.769C184.046 240.653 184.133 240.526 184.204 240.389C184.246 240.31 184.293 240.233 184.344 240.159C184.386 240.108 184.437 240.064 184.493 240.029L185.113 239.669C185.134 239.652 185.161 239.643 185.188 239.643C185.215 239.643 185.242 239.652 185.263 239.669C185.289 239.701 185.308 239.738 185.319 239.777C185.329 239.817 185.331 239.859 185.323 239.899C185.312 240.094 185.272 240.286 185.203 240.469C185.117 240.746 185.003 241.014 184.863 241.268C184.707 241.561 184.519 241.836 184.304 242.088C184.088 242.346 183.832 242.565 183.544 242.738C183.308 242.892 183.025 242.96 182.744 242.928C182.499 242.869 182.284 242.718 182.145 242.508C181.948 242.205 181.815 241.864 181.755 241.508C181.664 241.051 181.62 240.585 181.625 240.119V240.119ZM183.544 236.93C183.39 237.013 183.257 237.129 183.154 237.27C183.043 237.41 182.952 237.565 182.884 237.73C182.814 237.895 182.757 238.066 182.714 238.24C182.679 238.398 182.656 238.558 182.644 238.72L184.404 237.72C184.393 237.582 184.373 237.445 184.344 237.31C184.328 237.189 184.28 237.075 184.204 236.98C184.174 236.937 184.135 236.901 184.09 236.873C184.046 236.846 183.996 236.828 183.944 236.82C183.802 236.808 183.66 236.847 183.544 236.93V236.93Z" fill="#FAFAFA"/>
<path d="M188.602 234.142C188.299 234.315 188.06 234.581 187.922 234.901C187.766 235.323 187.695 235.771 187.712 236.221V239.829C187.714 239.932 187.693 240.034 187.652 240.129C187.628 240.211 187.574 240.282 187.502 240.329L186.913 240.669C186.903 240.679 186.892 240.688 186.879 240.694C186.866 240.699 186.852 240.702 186.838 240.702C186.823 240.702 186.809 240.699 186.796 240.694C186.784 240.688 186.772 240.679 186.763 240.669C186.718 240.601 186.697 240.52 186.703 240.439V233.972C186.703 233.869 186.723 233.767 186.763 233.672C186.791 233.591 186.843 233.521 186.913 233.472L187.502 233.132C187.523 233.113 187.549 233.103 187.577 233.103C187.605 233.103 187.632 233.113 187.652 233.132C187.698 233.196 187.72 233.274 187.712 233.352V233.672C187.831 233.404 187.979 233.149 188.152 232.912C188.31 232.693 188.515 232.512 188.752 232.383L189.111 232.173C189.13 232.154 189.155 232.144 189.181 232.144C189.208 232.144 189.233 232.154 189.251 232.173C189.3 232.239 189.324 232.32 189.321 232.402V233.312C189.32 233.416 189.296 233.518 189.251 233.612C189.226 233.691 189.177 233.761 189.111 233.812L188.602 234.142Z" fill="#FAFAFA"/>
<path d="M196.058 233.662C196.068 233.651 196.079 233.643 196.092 233.637C196.105 233.631 196.119 233.628 196.133 233.628C196.148 233.628 196.162 233.631 196.175 233.637C196.187 233.643 196.199 233.651 196.208 233.662C196.253 233.73 196.274 233.81 196.268 233.892V234.891C196.268 234.994 196.248 235.096 196.208 235.191C196.174 235.265 196.123 235.33 196.058 235.381L192.64 237.38C192.62 237.399 192.593 237.409 192.565 237.409C192.537 237.409 192.51 237.399 192.49 237.38C192.445 237.316 192.424 237.238 192.43 237.16V228.164C192.431 228.061 192.451 227.96 192.49 227.864C192.518 227.786 192.571 227.72 192.64 227.674L193.27 227.305C193.29 227.286 193.317 227.275 193.345 227.275C193.373 227.275 193.399 227.286 193.42 227.305C193.464 227.369 193.486 227.447 193.48 227.525V235.131L196.058 233.662Z" fill="#FAFAFA"/>
<path d="M199.127 226.265C199.352 226.11 199.624 226.036 199.897 226.055C200.131 226.074 200.349 226.181 200.506 226.355C200.693 226.569 200.829 226.822 200.906 227.095C201.013 227.449 201.073 227.815 201.086 228.184C201.086 228.264 201.086 228.374 201.086 228.504V229.274C201.086 229.394 201.086 229.504 201.086 229.594C201.066 230.028 201.006 230.46 200.906 230.883C200.814 231.295 200.68 231.697 200.506 232.083C200.348 232.441 200.143 232.777 199.897 233.082C199.686 233.358 199.425 233.592 199.127 233.772C198.896 233.922 198.623 233.996 198.347 233.982C198.117 233.962 197.902 233.855 197.748 233.682C197.556 233.476 197.419 233.225 197.348 232.952C197.241 232.598 197.181 232.232 197.168 231.863C197.168 231.783 197.168 231.683 197.168 231.553V230.783C197.168 230.653 197.168 230.543 197.168 230.463C197.18 230.026 197.237 229.59 197.338 229.164C197.435 228.749 197.572 228.344 197.748 227.955C197.907 227.598 198.108 227.263 198.347 226.955C198.559 226.676 198.824 226.442 199.127 226.265V226.265ZM200.067 228.844C200.066 228.623 200.029 228.403 199.957 228.194C199.92 228.067 199.842 227.955 199.737 227.875C199.652 227.817 199.549 227.793 199.447 227.805C199.333 227.826 199.224 227.87 199.127 227.935C199.01 227.999 198.902 228.08 198.807 228.174C198.693 228.294 198.595 228.428 198.517 228.574C198.417 228.756 198.343 228.951 198.297 229.154C198.232 229.409 198.192 229.67 198.178 229.934C198.178 230.014 198.178 230.104 198.178 230.213V230.923C198.178 231.033 198.178 231.123 198.178 231.183C198.187 231.404 198.227 231.623 198.297 231.833C198.334 231.96 198.411 232.073 198.517 232.153C198.559 232.182 198.606 232.203 198.656 232.213C198.706 232.223 198.757 232.223 198.807 232.213C198.921 232.193 199.029 232.153 199.127 232.093C199.243 232.026 199.35 231.945 199.447 231.853C199.558 231.731 199.656 231.597 199.737 231.453C199.833 231.269 199.907 231.075 199.957 230.873C200.022 230.618 200.059 230.357 200.067 230.094C200.073 230 200.073 229.907 200.067 229.814V229.114C200.072 229.024 200.072 228.934 200.067 228.844Z" fill="#FAFAFA"/>
<path d="M204.144 232.113C204.272 232.034 204.386 231.937 204.484 231.823C204.604 231.682 204.708 231.527 204.794 231.363C204.893 231.162 204.97 230.951 205.024 230.733C205.085 230.488 205.115 230.236 205.113 229.984V229.474C205.113 229.574 205.014 229.694 204.944 229.834C204.875 229.98 204.795 230.12 204.704 230.253C204.599 230.394 204.486 230.528 204.364 230.653C204.238 230.785 204.093 230.896 203.934 230.983C203.831 231.053 203.716 231.102 203.594 231.126C203.472 231.15 203.346 231.149 203.224 231.123C203.002 231.053 202.811 230.908 202.685 230.713C202.522 230.455 202.403 230.171 202.335 229.874C202.25 229.496 202.203 229.111 202.195 228.724C202.195 228.594 202.195 228.434 202.195 228.244C202.195 228.054 202.195 227.895 202.195 227.755C202.207 227.315 202.254 226.877 202.335 226.445C202.417 226.02 202.534 225.602 202.685 225.196C202.826 224.843 203.007 224.508 203.224 224.196C203.409 223.921 203.651 223.689 203.934 223.517C204.067 223.437 204.212 223.379 204.364 223.347C204.476 223.326 204.591 223.326 204.704 223.347C204.792 223.372 204.874 223.416 204.944 223.477C205.007 223.525 205.065 223.583 205.113 223.646V223.327C205.114 223.224 205.134 223.122 205.173 223.027C205.201 222.949 205.254 222.882 205.323 222.837L205.913 222.487C205.933 222.468 205.96 222.458 205.988 222.458C206.016 222.458 206.043 222.468 206.063 222.487C206.111 222.554 206.136 222.635 206.133 222.717V229.214C206.16 230.187 205.979 231.155 205.603 232.053C205.308 232.759 204.797 233.353 204.144 233.752C203.921 233.89 203.666 233.969 203.404 233.982C203.197 233.994 202.991 233.942 202.815 233.832C202.646 233.705 202.509 233.541 202.415 233.352C202.317 233.124 202.263 232.88 202.255 232.632C202.245 232.529 202.266 232.425 202.315 232.332C202.339 232.25 202.392 232.179 202.465 232.133L202.994 231.833C203.007 231.82 203.021 231.809 203.038 231.802C203.054 231.795 203.072 231.791 203.089 231.791C203.107 231.791 203.125 231.795 203.141 231.802C203.158 231.809 203.172 231.82 203.184 231.833C203.234 231.885 203.277 231.941 203.314 232.003C203.375 232.11 203.476 232.189 203.594 232.223C203.714 232.312 203.894 232.212 204.144 232.113ZM203.204 227.265C203.204 227.531 203.204 227.791 203.204 228.044C203.176 228.444 203.289 228.84 203.524 229.164C203.613 229.241 203.727 229.283 203.844 229.283C203.961 229.283 204.075 229.241 204.164 229.164C204.454 228.975 204.68 228.704 204.814 228.384C204.996 227.967 205.097 227.52 205.113 227.065C205.113 226.915 205.113 226.735 205.113 226.525C205.113 226.315 205.113 226.135 205.113 226.005C205.134 225.647 205.028 225.294 204.814 225.006C204.725 224.924 204.609 224.879 204.489 224.879C204.368 224.879 204.252 224.924 204.164 225.006C203.879 225.194 203.657 225.462 203.524 225.776C203.319 226.246 203.21 226.752 203.204 227.265V227.265Z" fill="#FAFAFA"/>
<path d="M208.462 218.389C208.482 218.373 208.507 218.364 208.532 218.364C208.558 218.364 208.583 218.373 208.602 218.389C208.655 218.454 208.68 218.536 208.672 218.619V219.708C208.673 219.812 208.649 219.915 208.602 220.008C208.574 220.083 208.526 220.149 208.462 220.198L207.793 220.588C207.783 220.599 207.772 220.607 207.759 220.613C207.746 220.619 207.732 220.622 207.718 220.622C207.704 220.622 207.69 220.619 207.677 220.613C207.664 220.607 207.652 220.599 207.643 220.588C207.617 220.558 207.597 220.523 207.585 220.485C207.573 220.447 207.569 220.408 207.573 220.368V219.279C207.572 219.175 207.596 219.072 207.643 218.979C207.671 218.901 207.723 218.834 207.793 218.789L208.462 218.389ZM208.632 227.775C208.633 227.874 208.612 227.973 208.572 228.065C208.54 228.143 208.489 228.212 208.422 228.264L207.823 228.604C207.814 228.615 207.804 228.623 207.791 228.629C207.779 228.635 207.766 228.638 207.753 228.638C207.739 228.638 207.726 228.635 207.714 228.629C207.702 228.623 207.691 228.615 207.683 228.604C207.63 228.54 207.605 228.457 207.613 228.374V221.907C207.612 221.803 207.636 221.701 207.683 221.608C207.711 221.53 207.759 221.461 207.823 221.408L208.422 221.068C208.443 221.049 208.47 221.038 208.497 221.038C208.525 221.038 208.552 221.049 208.572 221.068C208.617 221.132 208.638 221.21 208.632 221.288V227.775Z" fill="#FAFAFA"/>
<path d="M213.89 224.726C213.889 224.829 213.869 224.931 213.83 225.026C213.802 225.104 213.749 225.17 213.68 225.216L213.08 225.566C213.062 225.584 213.036 225.594 213.01 225.594C212.984 225.594 212.959 225.584 212.94 225.566C212.888 225.501 212.863 225.418 212.87 225.336V221.817C212.901 221.402 212.825 220.986 212.65 220.608C212.51 220.358 212.291 220.318 211.981 220.498C211.672 220.706 211.443 221.012 211.331 221.368C211.164 221.839 211.083 222.337 211.091 222.837V226.365C211.091 226.468 211.07 226.57 211.031 226.665C211.007 226.747 210.953 226.818 210.881 226.865L210.292 227.205C210.282 227.215 210.271 227.224 210.258 227.23C210.245 227.236 210.231 227.239 210.217 227.239C210.202 227.239 210.188 227.236 210.175 227.23C210.163 227.224 210.151 227.215 210.142 227.205C210.095 227.141 210.074 227.063 210.082 226.985V220.518C210.08 220.415 210.101 220.313 210.142 220.218C210.166 220.136 210.219 220.065 210.292 220.018L210.881 219.678C210.891 219.668 210.902 219.659 210.915 219.653C210.928 219.648 210.942 219.644 210.956 219.644C210.97 219.644 210.984 219.648 210.997 219.653C211.01 219.659 211.022 219.668 211.031 219.678C211.076 219.746 211.097 219.827 211.091 219.908V220.218C211.223 219.913 211.383 219.622 211.571 219.348C211.735 219.096 211.958 218.887 212.221 218.739C212.448 218.573 212.731 218.501 213.01 218.539C213.121 218.567 213.224 218.618 213.314 218.688C213.403 218.759 213.477 218.848 213.53 218.949C213.675 219.219 213.77 219.514 213.81 219.818C213.863 220.216 213.89 220.617 213.89 221.018V224.726Z" fill="#FAFAFA"/>
<path d="M264.306 195.63L254.6 201.227L256.11 187.613C254.94 186.994 254.201 185.484 254.201 183.315C254.201 179.447 256.56 174.959 259.458 173.32C262.357 171.681 264.706 173.42 264.706 177.318C264.646 179.612 263.991 181.85 262.807 183.815L264.306 195.63Z" fill="#455A64"/>
<path d="M264.316 195.63L255.77 190.702L254.601 201.237L264.316 195.63Z" fill="#37474F"/>
<path d="M259.439 173.29C257.325 174.718 255.749 176.811 254.961 179.237L262.787 183.755C263.972 181.79 264.626 179.552 264.686 177.258C264.706 173.39 262.357 171.621 259.439 173.29Z" fill="#37474F"/>
<path d="M212.26 127.961C208.932 126.042 204.344 126.312 199.266 129.241C189.131 135.098 180.915 149.321 180.915 161.026C180.915 166.903 182.994 171.021 186.333 172.92L192.799 176.678C196.118 178.598 200.706 178.318 205.793 175.389C215.929 169.542 224.145 155.308 224.145 143.604C224.145 137.757 222.086 133.609 218.767 131.739" fill="#BA68C8"/>
<path d="M205.784 133.009C195.648 138.866 187.432 153.1 187.432 164.794C187.432 176.489 195.648 181.246 205.784 175.389C215.919 169.532 224.145 155.309 224.135 143.604C224.125 131.899 215.909 127.162 205.784 133.009Z" fill="#BA68C8"/>
<path d="M215.909 158.977V160.316C213.481 164.65 209.998 168.301 205.784 170.931C201.836 173.2 198.267 173.45 195.648 172.001V169.242C195.782 166.372 196.602 163.576 198.038 161.087C199.475 158.599 201.486 156.49 203.905 154.939L206.573 153.399C208.932 152.04 211.231 151.86 213.03 152.91C214.829 153.959 215.909 156.168 215.909 158.977Z" fill="#BA68C8"/>
<path opacity="0.4" d="M212.261 127.961L218.758 131.739C215.439 129.81 210.851 130.08 205.764 133.009C199.127 136.847 193.309 144.274 190.091 152.23L183.584 148.462C186.812 140.465 192.58 133.079 199.257 129.241C204.354 126.322 208.942 126.042 212.261 127.961Z" fill="white"/>
<path opacity="0.2" d="M192.57 176.529L186.343 172.92C183.004 171.021 180.925 166.923 180.925 161.026L187.432 164.804C187.472 170.501 189.391 174.559 192.57 176.529Z" fill="black"/>
<path opacity="0.1" d="M183.604 148.462L190.111 152.23C188.444 156.213 187.548 160.477 187.472 164.794V164.794L180.965 161.016C181.046 156.702 181.941 152.443 183.604 148.462Z" fill="black"/>
<path d="M203.465 152.77C202.844 152.776 202.234 152.618 201.695 152.31C201.046 151.877 200.527 151.277 200.19 150.574C199.854 149.87 199.715 149.088 199.786 148.312C199.871 146.491 200.391 144.716 201.302 143.137C202.213 141.558 203.49 140.221 205.024 139.236V139.236C205.64 138.744 206.391 138.449 207.177 138.391C207.964 138.332 208.749 138.512 209.432 138.907C210.114 139.303 210.662 139.895 211.002 140.606C211.343 141.317 211.461 142.115 211.341 142.894C211.254 144.715 210.734 146.489 209.823 148.067C208.912 149.646 207.637 150.984 206.103 151.97C205.31 152.465 204.399 152.741 203.465 152.77V152.77Z" fill="white"/>
<path d="M213.03 152.9C211.231 151.85 208.932 152.03 206.573 153.389L203.905 154.929C201.485 156.481 199.473 158.591 198.036 161.081C196.6 163.572 195.781 166.37 195.648 169.242V172.011C198.267 173.46 201.836 173.21 205.784 170.941C209.998 168.311 213.481 164.66 215.909 160.326V158.987C215.909 156.168 214.869 153.959 213.03 152.9Z" fill="white"/>
<path d="M418.515 325.819C418.515 325.819 419.844 314.144 425.651 305.078C431.459 296.013 439.435 290.365 446.881 289.776C454.328 289.186 460.345 296.043 452.379 300.77C444.413 305.498 430.259 310.276 423.742 327.868L418.515 325.819Z" fill="#BA68C8"/>
<path opacity="0.1" d="M418.515 325.819C418.515 325.819 419.844 314.144 425.651 305.078C431.459 296.013 439.435 290.365 446.881 289.776C454.328 289.186 460.345 296.043 452.379 300.77C444.413 305.498 430.259 310.276 423.742 327.868L418.515 325.819Z" fill="black"/>
<path d="M420.703 322.78H420.623C420.525 322.74 420.447 322.663 420.406 322.566C420.365 322.468 420.364 322.359 420.404 322.261C428.26 302.92 443.213 294.833 450.03 293.274C450.081 293.262 450.134 293.261 450.186 293.269C450.238 293.278 450.287 293.297 450.332 293.325C450.376 293.352 450.415 293.389 450.445 293.432C450.476 293.474 450.498 293.523 450.509 293.574C450.521 293.625 450.523 293.678 450.514 293.73C450.506 293.782 450.487 293.831 450.459 293.876C450.431 293.92 450.395 293.959 450.352 293.99C450.309 294.02 450.261 294.042 450.21 294.054C443.533 295.593 428.87 303.529 421.143 322.57C421.105 322.65 421.04 322.714 420.96 322.752C420.88 322.791 420.79 322.8 420.703 322.78V322.78Z" fill="white"/>
<path d="M460.464 323.01C459.795 324.529 458.135 325.329 456.596 325.949C455.057 326.568 453.378 327.238 452.538 328.677C450.859 331.576 453.617 335.674 451.818 338.483C451.395 339.048 450.861 339.522 450.25 339.876C449.638 340.23 448.961 340.456 448.26 340.542C447.111 340.752 445.941 340.752 444.782 340.852C444.226 340.844 443.672 340.801 443.122 340.722C441.507 340.361 439.818 340.54 438.315 341.232C436.006 342.531 435.316 345.44 433.897 347.689C433.03 349.013 431.887 350.134 430.546 350.976C429.206 351.818 427.7 352.36 426.13 352.566C425.131 352.696 423.132 352.886 422.132 352.296C422.054 352.258 421.98 352.211 421.912 352.157V352.157C421.762 351.997 421.582 351.787 421.503 351.677C421.497 351.654 421.497 351.63 421.503 351.607C421.093 350.097 421.762 348.538 421.792 346.979V346.699C421.722 344.89 421.672 343.091 421.632 341.292C421.546 337.96 421.513 334.628 421.532 331.296C421.532 329.137 421.293 326.778 422.212 324.749C423.212 322.51 425.731 322.46 426.68 320.271C427.06 319.392 427.26 318.462 427.63 317.573C428.201 316.279 429.117 315.168 430.276 314.359C431.436 313.55 432.795 313.075 434.207 312.985C438.595 312.765 442.523 316.313 446.911 315.983C448.04 315.893 449.15 315.544 450.269 315.344C453.817 314.674 457.925 315.684 459.925 318.692C460.363 319.312 460.642 320.03 460.736 320.783C460.83 321.537 460.737 322.302 460.464 323.01V323.01Z" fill="#BA68C8"/>
<path d="M421.064 344.68C420.969 344.652 420.889 344.589 420.841 344.503C420.792 344.417 420.779 344.316 420.804 344.22C426.861 321.491 450.79 318.232 456.417 318.612C456.467 318.615 456.515 318.627 456.56 318.649C456.604 318.67 456.644 318.701 456.677 318.738C456.709 318.775 456.734 318.819 456.75 318.866C456.765 318.913 456.771 318.963 456.767 319.012C456.757 319.109 456.71 319.199 456.635 319.262C456.561 319.325 456.465 319.358 456.367 319.352C450.88 318.962 427.451 322.171 421.523 344.42C421.495 344.515 421.432 344.595 421.346 344.643C421.26 344.692 421.159 344.705 421.064 344.68V344.68Z" fill="white"/>
<path d="M447.681 333.165C447.605 333.155 447.535 333.12 447.481 333.065C445.269 331.148 442.661 329.743 439.843 328.95C437.025 328.157 434.066 327.996 431.179 328.478C431.081 328.487 430.984 328.459 430.907 328.4C430.829 328.34 430.776 328.254 430.759 328.158C430.744 328.06 430.769 327.96 430.827 327.88C430.884 327.8 430.971 327.745 431.069 327.728C434.08 327.227 437.166 327.398 440.103 328.229C443.041 329.06 445.758 330.531 448.061 332.536C448.096 332.57 448.124 332.611 448.144 332.657C448.163 332.702 448.173 332.751 448.173 332.801C448.173 332.85 448.163 332.899 448.144 332.944C448.124 332.99 448.096 333.031 448.061 333.065C448.016 333.119 447.955 333.158 447.887 333.176C447.819 333.194 447.747 333.19 447.681 333.165Z" fill="white"/>
<path d="M363.51 51.2971L366.688 52.5166V45.5198C366.688 39.9624 371.116 38.633 375.924 41.4117C380.742 44.1904 384.64 50.9373 384.64 56.4947V57.4942C385.31 57.2895 386.017 57.2389 386.71 57.3462C387.402 57.4535 388.061 57.716 388.638 58.1139C390.464 59.3043 391.983 60.9086 393.072 62.7965C394.16 64.6844 394.789 66.8026 394.905 68.9789V69.4387L399.343 71.9975C400.544 72.7812 401.543 73.8365 402.26 75.0781C402.977 76.3196 403.392 77.7125 403.471 79.1441C403.471 81.7829 401.622 82.8524 399.343 81.533L363.51 60.8327C362.308 60.0508 361.309 58.9957 360.593 57.7536C359.877 56.5115 359.466 55.1176 359.392 53.686C359.392 51.0572 361.221 49.9877 363.51 51.2971Z" fill="#E6E6E6"/>
<path d="M406.081 45.7596L411.848 49.0881C411.817 48.8361 411.8 48.5824 411.798 48.3284V46.6592C411.798 43.6606 413.877 42.4812 416.456 43.9705C417.564 44.6489 418.512 45.5594 419.235 46.6392C419.655 42.901 422.593 41.5116 426.152 43.5607C428.185 44.8838 429.878 46.6673 431.094 48.7669C432.309 50.8664 433.013 53.2227 433.148 55.645V58.1438C433.174 59.1423 432.972 60.1335 432.559 61.0425L437.356 63.8012C438.104 64.2971 438.725 64.9614 439.169 65.7409C439.614 66.5203 439.869 67.3931 439.915 68.2891C439.915 69.9383 438.756 70.608 437.326 69.7884L406.081 51.7968C405.325 51.3044 404.697 50.6403 404.247 49.8585C403.797 49.0768 403.538 48.1997 403.492 47.2989C403.492 45.6097 404.652 44.94 406.081 45.7596Z" fill="#E6E6E6"/>
<path d="M383.751 197.459C379.552 204.555 375.514 210.723 372.676 213.681C367.288 216.18 354.634 220.038 349.686 220.678C348.817 220.789 347.937 220.583 347.208 220.098C345.259 218.819 343.749 218.609 341.7 217.899C340.091 217.349 339.411 216.58 339.111 216.9C338.802 217.263 338.646 217.732 338.678 218.209C338.709 218.685 338.926 219.13 339.281 219.448C340.05 220.179 340.902 220.816 341.82 221.348C339.625 221.892 337.336 221.933 335.123 221.468C330.835 220.338 328.816 222.397 331.715 227.055C332.714 228.714 336.832 231.383 345.109 230.663C348.061 230.504 351.001 230.17 353.914 229.664C361.851 227.964 370.677 226.325 376.104 224.666C378.123 223.872 379.93 222.62 381.382 221.008C390.507 210.603 393.536 203.186 397.534 196.449L397.194 185.454C390.717 185.234 387.259 191.521 383.751 197.459Z" fill="#FFA8A7"/>
<path d="M398.303 185.234C396.425 184.97 394.51 185.225 392.766 185.97C391.022 186.715 389.515 187.923 388.408 189.463C383.97 195.15 376.113 208.803 376.113 208.803C376.113 208.803 378.682 215.65 385.619 216.8L396.764 201.747C396.764 201.747 402.041 191.292 398.303 185.234Z" fill="#455A64"/>
<path d="M422.402 338.703H415.136V351.657H422.402V338.703Z" fill="#FFA8A7"/>
<path d="M397.214 338.013L389.958 338.273L389.588 324.559L397.214 324.3V338.013Z" fill="#FFA8A7"/>
<path d="M423.422 226.565C423.422 233.782 422.362 291.925 422.362 291.925C422.522 294.004 424.361 297.842 423.991 305.828C423.442 316.673 422.712 345.18 422.712 345.18C421.465 345.818 420.088 346.164 418.687 346.192C417.286 346.22 415.897 345.928 414.626 345.34C414.626 345.34 408.728 305.358 407.429 294.653C406.29 285.268 403.371 254.202 403.371 254.202L399.443 290.925C400.276 294.865 400.578 298.899 400.342 302.92C400.003 307.917 397.664 333.785 397.664 333.785C396.408 334.526 395.001 334.971 393.548 335.087C392.095 335.203 390.635 334.987 389.278 334.455C389.278 334.455 385.14 295.473 385.06 290.895C384.96 285.698 387.478 226.505 387.478 226.505L423.422 226.565Z" fill="#37474F"/>
<path d="M415.136 347.919V346.839C414.436 347.149 412.827 353.566 409.938 356.305C407.649 358.484 404.531 360.992 403.731 363.421C402.931 365.85 408.079 367.339 410.228 366.95C412.707 366.49 417.025 364.661 418.104 362.951C419.184 361.242 419.694 358.763 420.573 357.524C421.453 356.285 423.482 354.905 423.952 353.466C424.098 352.119 423.959 350.757 423.542 349.468C423.202 348.128 422.842 346.659 422.402 346.789V347.609C421.378 348.45 420.089 348.903 418.764 348.888C417.705 348.978 415.126 348.758 415.136 347.919Z" fill="#263238"/>
<path d="M389.878 335.934C389.498 335.934 389.188 336.504 388.359 337.443C387.125 338.741 385.682 339.822 384.091 340.642C381.372 342.061 376.094 344.24 373.685 345.37C372.186 346.069 372.256 347.949 373.805 349.018C375.355 350.088 379.083 350.857 383.561 349.818C386 349.248 389.178 346.899 391.197 347.029C393.216 347.159 396.965 347.119 398.454 346.029C399.943 344.94 399.343 342.681 398.924 340.732C398.464 338.593 397.924 335.265 397.214 335.414V336.164C396.345 337.543 391.837 338.103 389.918 337.094L389.878 335.934Z" fill="#263238"/>
<path d="M403.371 254.202C399.591 252.965 396.135 250.899 393.256 248.155C393.256 248.155 395.255 251.963 401.012 255.512L399.773 288.306L403.371 254.202Z" fill="#263238"/>
<path d="M419.364 186.294C419.364 186.294 425.361 187.673 424.931 198.508L423.682 215.75V241.638C418.344 247.695 394.696 247.256 386.549 241.158C386.549 241.158 387.469 210.523 388.019 198.728C388.408 190.352 390.338 186.134 398.574 185.214L408.699 185.654L419.364 186.294Z" fill="#BA68C8"/>
<path d="M411.728 163.785C411.762 165.235 411.509 166.678 410.984 168.03C410.458 169.383 409.669 170.618 408.664 171.664C407.659 172.71 406.456 173.547 405.126 174.126C403.796 174.706 402.364 175.016 400.913 175.039C394.916 175.039 391.397 169.862 390.098 163.785C387.699 152.66 394.936 152.52 400.913 152.52C403.841 152.58 406.625 153.801 408.653 155.913C410.681 158.025 411.787 160.857 411.728 163.785V163.785Z" fill="#263238"/>
<path d="M417.245 168.332C417.245 168.332 415.586 176.449 414.916 177.788C414.495 178.594 413.779 179.206 412.917 179.497L413.037 173.79L417.245 168.332Z" fill="#263238"/>
<path d="M415.156 156.708C415.156 156.708 416.346 156.408 417.615 158.387C418.695 160.076 418.944 163.875 417.245 168.382L414.117 168.762L415.156 156.708Z" fill="#263238"/>
<path d="M416.305 158.357L420.143 158.427C420.17 158.179 420.144 157.928 420.069 157.69C419.994 157.453 419.87 157.233 419.706 157.045C419.542 156.857 419.34 156.706 419.115 156.599C418.889 156.493 418.644 156.435 418.394 156.428C417.869 156.436 417.366 156.637 416.98 156.993C416.595 157.349 416.354 157.835 416.305 158.357Z" fill="#263238"/>
<path d="M416.775 157.448L419.613 154.719C419.45 154.526 419.248 154.369 419.021 154.258C418.793 154.147 418.546 154.085 418.293 154.074C418.04 154.064 417.788 154.106 417.553 154.198C417.317 154.29 417.103 154.43 416.925 154.609C416.548 154.977 416.324 155.473 416.296 155.999C416.268 156.525 416.439 157.042 416.775 157.448V157.448Z" fill="#263238"/>
<path d="M413.177 168.712C413.807 169.102 414.696 167.853 415.476 167.003C416.255 166.153 418.674 165.374 419.934 168.133C421.193 170.891 419.044 173.62 417.245 174.52C414.016 176.119 412.997 173.79 412.997 173.79L412.727 186.644C408.189 193.641 397.894 193.421 401.602 186.304V182.396C400.077 182.649 398.528 182.73 396.984 182.636C394.466 182.236 392.886 180.167 392.117 177.328C390.897 172.77 390.427 169.092 391.467 160.126C392.606 150.311 403.581 150.201 409.459 154.129C415.336 158.057 413.177 168.712 413.177 168.712Z" fill="#FFA8A7"/>
<path d="M399.503 158.597C402.122 158.337 404.711 157.797 407.339 157.597C407.906 157.529 408.481 157.556 409.039 157.677C411.038 158.227 410.798 160.566 411.118 162.195C411.667 165.014 412.117 169.782 413.177 169.802C413.496 169.802 414.696 167.733 415.476 166.993C415.904 166.356 416.146 165.612 416.175 164.844C416.375 163.685 416.475 162.495 416.565 161.316C416.645 160.316 416.745 159.317 416.745 158.317C416.791 157.188 416.7 156.057 416.475 154.949C416.224 154.006 415.744 153.141 415.076 152.43L414.876 152.21C413.558 150.833 411.959 149.755 410.188 149.051C407.639 148.097 404.966 147.514 402.252 147.322C399.541 147.13 396.842 146.797 394.165 146.323C394.012 146.278 393.849 146.278 393.696 146.323C393.587 146.383 393.496 146.469 393.429 146.574C393.363 146.679 393.324 146.799 393.316 146.922C393.206 147.544 393.275 148.183 393.514 148.767C393.752 149.351 394.152 149.855 394.665 150.221C392.856 150.361 390.777 149.421 389.038 148.941C388.897 148.882 388.746 148.851 388.593 148.851C388.44 148.851 388.289 148.882 388.148 148.941C387.974 149.063 387.85 149.245 387.798 149.451C387.672 149.921 387.655 150.413 387.748 150.891C387.908 152.337 388.445 153.716 389.308 154.889C390.655 156.643 392.558 157.887 394.705 158.417C396.286 158.722 397.904 158.783 399.503 158.597V158.597Z" fill="#263238"/>
<path d="M401.612 182.396C401.612 182.396 407.23 181.216 409.189 180.127C410.356 179.489 411.303 178.513 411.908 177.328C411.613 178.519 411.086 179.64 410.358 180.627C408.929 182.546 401.612 183.945 401.612 183.945V182.396Z" fill="#F28F8F"/>
<path d="M402.962 167.243C402.951 167.551 403.062 167.852 403.272 168.078C403.482 168.305 403.773 168.439 404.081 168.452C404.326 168.472 404.571 168.418 404.785 168.297C404.998 168.175 405.17 167.992 405.278 167.771C405.385 167.55 405.423 167.302 405.387 167.059C405.351 166.815 405.243 166.589 405.076 166.409C404.909 166.228 404.692 166.103 404.452 166.048C404.213 165.993 403.962 166.013 403.734 166.103C403.505 166.193 403.309 166.35 403.171 166.553C403.034 166.757 402.96 166.997 402.962 167.243V167.243Z" fill="#263238"/>
<path d="M404.761 162.395L407.17 163.785C407.345 163.442 407.385 163.046 407.281 162.676C407.178 162.305 406.938 161.987 406.61 161.785C406.451 161.696 406.274 161.64 406.092 161.623C405.909 161.605 405.725 161.626 405.551 161.683C405.378 161.74 405.217 161.833 405.081 161.956C404.945 162.079 404.836 162.228 404.761 162.395V162.395Z" fill="#263238"/>
<path d="M402.112 175.349L399.543 176.349C399.595 176.525 399.682 176.689 399.8 176.83C399.918 176.971 400.063 177.086 400.227 177.168C400.391 177.251 400.57 177.299 400.754 177.309C400.937 177.319 401.12 177.292 401.293 177.228C401.642 177.078 401.922 176.8 402.074 176.451C402.226 176.102 402.24 175.708 402.112 175.349V175.349Z" fill="#F28F8F"/>
<path d="M392.626 163.425L394.825 161.666C394.727 161.512 394.597 161.381 394.445 161.281C394.292 161.181 394.12 161.114 393.94 161.085C393.76 161.055 393.576 161.064 393.399 161.111C393.223 161.158 393.058 161.241 392.916 161.356C392.622 161.605 392.43 161.953 392.377 162.335C392.324 162.716 392.412 163.104 392.626 163.425V163.425Z" fill="#263238"/>
<path d="M393.596 166.913C393.614 167.132 393.695 167.341 393.829 167.514C393.963 167.688 394.145 167.818 394.352 167.89C394.56 167.962 394.783 167.972 394.996 167.919C395.209 167.866 395.402 167.752 395.551 167.591C395.7 167.43 395.799 167.229 395.836 167.012C395.872 166.796 395.845 166.574 395.758 166.373C395.67 166.171 395.526 166 395.343 165.879C395.16 165.759 394.945 165.694 394.726 165.694C394.571 165.699 394.419 165.734 394.279 165.799C394.138 165.863 394.012 165.954 393.907 166.068C393.802 166.181 393.72 166.314 393.667 166.459C393.614 166.604 393.59 166.759 393.596 166.913V166.913Z" fill="#263238"/>
<path d="M399.623 165.974L399.493 173.08L395.455 172.161L399.623 165.974Z" fill="#F28F8F"/>
<path d="M303.728 225.496L309.995 221.877L312.474 218.869L306.217 222.487L303.728 225.496Z" fill="#BA68C8"/>
<path opacity="0.4" d="M303.728 225.496L309.995 221.877L312.474 218.869L306.217 222.487L303.728 225.496Z" fill="black"/>
<path d="M320.77 235.331L327.037 231.713L332.264 227.085L326.007 230.693L320.77 235.331Z" fill="#BA68C8"/>
<path opacity="0.4" d="M320.77 235.331L327.037 231.713L332.264 227.085L326.007 230.693L320.77 235.331Z" fill="black"/>
<path d="M374.005 247.815C375.487 249.802 376.384 252.163 376.594 254.632C375.119 252.642 374.223 250.283 374.005 247.815V247.815ZM388.568 248.005C386.459 233.662 378.753 219.478 369.577 214.171C365.169 211.622 361.091 211.532 357.823 213.441L351.926 216.84L351.596 217.04C351.333 217.184 351.079 217.344 350.836 217.519C350.352 217.853 349.897 218.227 349.477 218.639L349.277 218.829C349.097 219.009 348.907 219.219 348.737 219.418C348.567 219.618 348.307 219.928 348.107 220.198C347.683 220.757 347.299 221.344 346.958 221.957C346.778 222.267 346.608 222.597 346.448 222.957L294.942 193.231L288.685 196.839V200.837L289.215 201.137L289.715 201.427V202.227L288.715 202.816V205.135L296.281 221.128L303.758 225.456L306.247 222.457L312.844 226.405L316.632 232.892L320.81 235.301L326.038 230.663L332.455 234.371L334.614 243.277L345.399 249.514C345.932 251.781 346.599 254.014 347.398 256.201C347.468 256.421 347.558 256.651 347.648 256.901C351.226 266.297 356.913 274.343 363.33 278.051C364.099 278.507 364.905 278.898 365.739 279.221C366.18 279.396 366.631 279.546 367.088 279.67C367.488 279.777 367.888 279.867 368.288 279.94C369.55 280.17 370.844 280.17 372.106 279.94L372.626 279.81C372.874 279.76 373.118 279.69 373.355 279.6L373.915 279.38C374.113 279.309 374.304 279.219 374.485 279.111C374.67 279.031 374.85 278.941 375.025 278.841L375.285 278.681C375.332 278.665 375.376 278.642 375.415 278.611C376.844 277.791 380.362 275.752 381.322 275.212C386.08 272.454 389.158 265.477 389.158 255.612C389.15 253.065 388.953 250.523 388.568 248.005V248.005Z" fill="#BA68C8"/>
<path d="M372.176 259.92C369.697 258.49 367.698 254.252 367.698 250.454C367.698 246.656 369.697 244.727 372.176 246.146C374.655 247.565 376.644 251.813 376.644 255.622C376.644 259.43 374.645 261.349 372.176 259.92ZM382.301 251.614C380.202 237.28 372.496 223.087 363.31 217.789C359.052 215.33 355.114 215.151 351.915 216.84L351.585 217.04C351.323 217.184 351.069 217.344 350.826 217.519C350.341 217.853 349.887 218.227 349.466 218.639L349.266 218.829C349.087 219.009 348.897 219.219 348.727 219.419C348.557 219.618 348.297 219.928 348.097 220.198C347.673 220.757 347.289 221.345 346.948 221.957C346.768 222.267 346.598 222.597 346.438 222.957C345.506 224.889 344.834 226.936 344.439 229.044L288.675 196.839V200.837L289.205 201.137L289.704 201.427V202.227L288.705 202.816V205.135L296.271 221.128L303.748 225.456L306.237 222.457L312.834 226.405L316.622 232.892L320.8 235.301L326.027 230.663L332.444 234.372L334.603 243.277L345.398 249.515C345.931 251.781 346.599 254.014 347.397 256.201C347.467 256.421 347.557 256.651 347.647 256.901C351.226 266.297 356.913 274.343 363.33 278.051C364.099 278.507 364.905 278.898 365.739 279.221C366.18 279.396 366.63 279.546 367.088 279.67C367.488 279.777 367.888 279.867 368.288 279.94C369.55 280.17 370.843 280.17 372.106 279.94L372.626 279.81C372.874 279.76 373.118 279.69 373.355 279.6L373.915 279.381C374.113 279.309 374.304 279.219 374.485 279.111C374.67 279.031 374.85 278.941 375.024 278.841L375.284 278.681C375.331 278.665 375.375 278.642 375.414 278.611C379.972 275.732 382.901 268.855 382.901 259.23C382.884 256.68 382.684 254.135 382.301 251.614V251.614Z" fill="#BA68C8"/>
<path opacity="0.4" d="M376.644 255.612C376.644 259.42 374.645 261.349 372.176 259.92C369.707 258.49 367.698 254.262 367.698 250.454C367.698 246.646 369.697 244.717 372.176 246.146C372.89 246.581 373.511 247.151 374.005 247.825C374.22 250.293 375.116 252.653 376.594 254.642C376.631 254.964 376.647 255.288 376.644 255.612V255.612Z" fill="black"/>
<path opacity="0.4" d="M389.138 255.602C389.138 265.467 386.06 272.444 381.302 275.202C380.302 275.742 376.824 277.781 375.395 278.601C379.952 275.722 382.881 268.845 382.881 259.22C382.87 256.674 382.677 254.132 382.301 251.613C380.202 237.28 372.496 223.087 363.31 217.789C359.052 215.33 355.114 215.15 351.916 216.84L357.813 213.441C361.081 211.532 365.159 211.622 369.567 214.171C378.753 219.478 386.459 233.662 388.558 248.005C388.939 250.519 389.133 253.059 389.138 255.602V255.602Z" fill="white"/>
<path d="M382.882 259.2C382.882 268.825 379.953 275.702 375.395 278.581C376.824 277.761 380.343 275.722 381.302 275.183C386.06 272.424 389.139 265.447 389.139 255.582C389.139 255.222 389.139 254.852 389.139 254.482L382.882 258.1C382.872 258.49 382.882 258.85 382.882 259.2Z" fill="#BA68C8"/>
<path opacity="0.1" d="M382.882 259.2C382.882 268.825 379.953 275.702 375.395 278.581C376.824 277.761 380.343 275.722 381.302 275.183C386.06 272.424 389.139 265.447 389.139 255.582C389.139 255.222 389.139 254.852 389.139 254.482L382.882 258.1C382.872 258.49 382.882 258.85 382.882 259.2Z" fill="black"/>
<path opacity="0.15" d="M344.679 233.132V235.161L288.685 202.836L289.715 202.237V201.397L344.679 233.132Z" fill="black"/>
<path opacity="0.15" d="M344.679 233.972V235.161L288.685 202.836L289.715 202.237V202.227L344.679 233.972Z" fill="black"/>
<path opacity="0.15" d="M369.027 275.193C366.905 275.137 364.835 274.52 363.03 273.403C353.904 268.136 346.478 252.463 346.478 238.47C346.478 230.303 348.946 224.206 353.254 221.717C356.253 219.978 359.801 220.198 363.53 222.347C372.645 227.615 380.072 243.337 380.072 257.331C380.072 265.487 377.603 271.594 373.295 274.073C371.996 274.815 370.523 275.201 369.027 275.193ZM357.582 221.568C356.25 221.56 354.94 221.905 353.784 222.567C349.856 224.836 347.507 230.783 347.507 238.46C347.507 252.133 354.704 267.446 363.56 272.524C366.948 274.523 370.156 274.703 372.825 273.163C376.753 270.895 379.102 264.957 379.102 257.281C379.102 243.597 371.906 228.294 363.06 223.207C361.407 222.201 359.517 221.649 357.582 221.608V221.568Z" fill="black"/>
<path opacity="0.4" d="M346.398 222.937C345.466 224.869 344.794 226.916 344.399 229.024L288.635 196.819L294.892 193.211L346.398 222.937Z" fill="white"/>
<path d="M418.874 226.065C421.793 220.538 425.131 208.124 426.791 201.857C429.15 192.961 425.331 187.364 420.993 187.134C418.285 187.553 409.359 220.008 409.359 220.008C408.359 220.798 394.796 227.685 390.438 229.414C389.658 229.709 388.798 229.709 388.019 229.414C385.93 228.654 384.5 228.794 382.451 228.594C380.842 228.434 380.033 227.865 379.823 228.204C379.632 228.626 379.607 229.104 379.754 229.543C379.9 229.983 380.207 230.35 380.612 230.573C381.495 231.087 382.434 231.496 383.411 231.793C381.659 232.324 379.833 232.571 378.004 232.522C373.805 232.433 372.296 234.252 375.555 238.52C377.554 241.178 380.862 242.018 388.249 239.469C390.368 238.73 393.246 237.3 395.935 236.331C401.473 234.332 402.932 234.092 407.15 232.662C413.297 230.583 417.575 228.524 418.874 226.065Z" fill="#FFA8A7"/>
<path d="M419.364 186.294C421.913 186.644 424.362 187.214 425.871 189.293C427.381 191.372 428.59 194.29 427.111 202.237C425.978 207.825 424.462 213.329 422.573 218.709C422.573 218.709 416.636 221.248 410.329 214.811L414.667 198.039C414.667 198.039 415.366 187.134 419.364 186.294Z" fill="#455A64"/>
</svg>
