<svg width="70" height="70" viewBox="0 0 70 70" fill="none" xmlns="http://www.w3.org/2000/svg">
<circle cx="34.7769" cy="34.6914" r="34.3916" fill="#611F69"/>
<path d="M57.5042 33.9088L47.6839 15.9827C47.5426 15.7255 47.3342 15.511 47.0807 15.3619C46.8272 15.2128 46.538 15.1345 46.2436 15.1353H23.3295C23.0351 15.1345 22.7459 15.2128 22.4924 15.3619C22.2389 15.511 22.0305 15.7255 21.8892 15.9827L12.0689 33.9088C11.9252 34.1565 11.8496 34.4375 11.8496 34.7236C11.8496 35.0097 11.9252 35.2907 12.0689 35.5384L21.8892 53.4645C22.0389 53.7096 22.2509 53.9109 22.5038 54.0483C22.7567 54.1856 23.0415 54.2541 23.3295 54.2467H46.2436C46.538 54.2475 46.8272 54.1692 47.0807 54.0201C47.3342 53.871 47.5426 53.6565 47.6839 53.3993L57.5042 35.4732C57.636 35.2334 57.7051 34.9644 57.7051 34.691C57.7051 34.4176 57.636 34.1486 57.5042 33.9088V33.9088ZM46.129 20.0242L53.3142 33.0614H37.7654L46.129 20.0242ZM34.7865 31.6599L26.3083 18.3945H43.2647L34.7865 31.6599ZM23.4441 20.0242L31.8077 33.0614H16.2589L23.4441 20.0242ZM16.2589 36.3206H31.8077L23.4441 49.3578L16.2589 36.3206ZM34.7865 37.7221L43.2647 50.9874H26.3083L34.7865 37.7221ZM46.129 49.3578L37.7654 36.3206H53.3142L46.129 49.3578Z" fill="#FBF7EE"/>
</svg>
