<svg width="30" height="25" viewBox="0 0 30 25" fill="none" xmlns="http://www.w3.org/2000/svg">
<path d="M29.4097 3.42677C28.3282 3.90601 27.1663 4.22982 25.9449 4.37618C27.2052 3.62208 28.148 2.43522 28.5976 1.03705C27.4135 1.74035 26.1176 2.2354 24.7662 2.50067C23.8575 1.53036 22.6538 0.887228 21.3421 0.671115C20.0303 0.455002 18.6839 0.678003 17.5119 1.3055C16.3399 1.93299 15.4079 2.92987 14.8605 4.14136C14.3131 5.35285 14.181 6.71117 14.4846 8.00543C12.0855 7.88497 9.73841 7.26138 7.59583 6.17514C5.45324 5.0889 3.56299 3.56427 2.04777 1.70022C1.52968 2.59393 1.23177 3.63012 1.23177 4.73366C1.23119 5.7271 1.47584 6.70533 1.944 7.58154C2.41215 8.45776 3.08935 9.20487 3.9155 9.7566C2.95739 9.72611 2.02041 9.46722 1.18255 9.00147V9.07919C1.18246 10.4725 1.66442 11.823 2.54668 12.9014C3.42893 13.9799 4.65712 14.7199 6.02286 14.9958C5.13404 15.2364 4.20219 15.2718 3.29768 15.0995C3.68301 16.2983 4.43359 17.3467 5.44436 18.0978C6.45513 18.8489 7.67547 19.2652 8.93455 19.2883C6.79719 20.9661 4.15757 21.8763 1.4403 21.8723C0.95897 21.8724 0.478042 21.8443 0 21.7881C2.75818 23.5615 5.9689 24.5026 9.248 24.499C20.3482 24.499 26.4164 15.3054 26.4164 7.33191C26.4164 7.07286 26.4099 6.81122 26.3982 6.55218C27.5786 5.69858 28.5974 4.64157 29.4071 3.43065L29.4097 3.42677Z" fill="#FBF7EE"/>
</svg>
