<svg width="1440" height="946" viewBox="0 0 1440 946" fill="none" xmlns="http://www.w3.org/2000/svg">
<rect width="1440" height="946" fill="#611F69"/>
<path d="M1330.59 835.603C1332.72 833.478 1336.17 833.478 1338.3 835.603L1354.71 852.017C1356.84 854.142 1356.84 857.594 1354.71 859.72C1352.59 861.845 1349.13 861.845 1347.01 859.72L1330.59 843.306C1328.47 841.181 1328.47 837.729 1330.59 835.603Z" fill="#FBF7EE"/>
<path d="M1354.72 835.603C1356.85 837.729 1356.85 841.181 1354.72 843.306L1338.31 859.72C1336.18 861.845 1332.73 861.845 1330.61 859.72C1328.48 857.594 1328.48 854.142 1330.61 852.017L1347.02 835.603C1349.13 833.466 1352.58 833.466 1354.72 835.603Z" fill="#FBF7EE"/>
<path d="M1391.75 452.491C1399.89 452.491 1406.49 445.889 1406.49 437.746C1406.49 429.602 1399.89 423 1391.75 423C1383.6 423 1377 429.602 1377 437.746C1377 445.889 1383.6 452.491 1391.75 452.491Z" fill="#FBF7EE"/>
<path d="M1299.97 263.942C1303.27 263.942 1305.94 261.269 1305.94 257.971C1305.94 254.673 1303.27 252 1299.97 252C1296.67 252 1294 254.673 1294 257.971C1294 261.269 1296.67 263.942 1299.97 263.942Z" fill="#FBF7EE"/>
<path d="M1299.97 295.123C1303.27 295.123 1305.94 292.45 1305.94 289.152C1305.94 285.854 1303.27 283.181 1299.97 283.181C1296.67 283.181 1294 285.854 1294 289.152C1294 292.45 1296.67 295.123 1299.97 295.123Z" fill="#FBF7EE"/>
<path d="M1330.35 263.942C1333.64 263.942 1336.32 261.269 1336.32 257.971C1336.32 254.673 1333.64 252 1330.35 252C1327.05 252 1324.37 254.673 1324.37 257.971C1324.37 261.269 1327.05 263.942 1330.35 263.942Z" fill="#FBF7EE"/>
<path d="M1330.35 295.123C1333.64 295.123 1336.32 292.45 1336.32 289.152C1336.32 285.854 1333.64 283.181 1330.35 283.181C1327.05 283.181 1324.37 285.854 1324.37 289.152C1324.37 292.45 1327.05 295.123 1330.35 295.123Z" fill="#FBF7EE"/>
<path d="M1303 635.338L1356.34 582" stroke="#FBF7EE" stroke-width="3" stroke-miterlimit="10" stroke-linecap="round"/>
<path d="M73 880.338L126.338 827" stroke="#FBF7EE" stroke-width="3" stroke-miterlimit="10" stroke-linecap="round"/>
<path d="M1440.08 134.154C1460 134.154 1476.15 118.001 1476.15 98.0768C1476.15 78.1521 1460 62 1440.08 62C1420.15 62 1404 78.1521 1404 98.0768C1404 118.001 1420.15 134.154 1440.08 134.154Z" fill="#FBF7EE"/>
<path d="M23.4611 547.461C36.4326 534.49 36.4326 513.459 23.4611 500.487C10.4896 487.516 -10.5414 487.516 -23.513 500.487C-36.4845 513.459 -36.4845 534.49 -23.513 547.461C-10.5414 560.433 10.4896 560.433 23.4611 547.461Z" fill="#FBF7EE"/>
<path d="M114.971 258.942C118.269 258.942 120.942 256.269 120.942 252.971C120.942 249.673 118.269 247 114.971 247C111.673 247 109 249.673 109 252.971C109 256.269 111.673 258.942 114.971 258.942Z" fill="#FBF7EE"/>
<path d="M114.971 290.123C118.269 290.123 120.942 287.45 120.942 284.152C120.942 280.854 118.269 278.181 114.971 278.181C111.673 278.181 109 280.854 109 284.152C109 287.45 111.673 290.123 114.971 290.123Z" fill="#FBF7EE"/>
<path d="M145.346 258.942C148.644 258.942 151.317 256.269 151.317 252.971C151.317 249.673 148.644 247 145.346 247C142.048 247 139.375 249.673 139.375 252.971C139.375 256.269 142.048 258.942 145.346 258.942Z" fill="#FBF7EE"/>
<path d="M145.346 290.123C148.644 290.123 151.317 287.45 151.317 284.152C151.317 280.854 148.644 278.181 145.346 278.181C142.048 278.181 139.375 280.854 139.375 284.152C139.375 287.45 142.048 290.123 145.346 290.123Z" fill="#FBF7EE"/>
<path d="M-23.44 92C-62.3392 92 -94 123.642 -94 162.56C-94 201.478 -62.3392 233.12 -23.44 233.12C15.4592 233.12 47.12 201.459 47.12 162.56C47.12 123.661 15.4592 92 -23.44 92ZM-23.44 219.2C-54.736 219.2 -80.0992 193.837 -80.0992 162.56C-80.0992 131.283 -54.736 105.92 -23.44 105.92C7.83681 105.92 33.2 131.283 33.2 162.56C33.2 193.837 7.83681 219.2 -23.44 219.2Z" fill="#FBF7EE"/>
<path d="M140.746 426.491C148.889 426.491 155.491 419.889 155.491 411.746C155.491 403.602 148.889 397 140.746 397C132.602 397 126 403.602 126 411.746C126 419.889 132.602 426.491 140.746 426.491Z" fill="#FBF7EE"/>
<path d="M73.6274 679.627C75.797 677.458 79.2915 677.458 81.4611 679.627L98.1459 696.312C100.315 698.482 100.315 701.976 98.1459 704.146C95.9763 706.315 92.4819 706.315 90.3123 704.146L73.6274 687.461C71.477 685.31 71.477 681.797 73.6274 679.627Z" fill="#FBF7EE"/>
<path d="M98.1456 679.627C100.315 681.797 100.315 685.291 98.1456 687.461L81.4608 704.146C79.2912 706.315 75.7968 706.315 73.6272 704.146C71.4576 701.976 71.4576 698.482 73.6272 696.312L90.312 679.627C92.4816 677.477 95.9952 677.477 98.1456 679.627Z" fill="#FBF7EE"/>
<path d="M1455.11 778.088C1472.06 771.068 1480.11 751.637 1473.09 734.688C1466.07 717.74 1446.64 709.691 1429.69 716.712C1412.74 723.732 1404.69 743.163 1411.71 760.112C1418.73 777.06 1438.16 785.109 1455.11 778.088Z" fill="#FBF7EE"/>
</svg>
